<?xml version="1.0" encoding="UTF-8"?>
<svg id="_レイヤー_2" data-name="レイヤー 2" xmlns="http://www.w3.org/2000/svg" viewBox="0 0 200.1274414 39.7416992">
  <defs>
    <style>
      .cls-1, .cls-2 {
        stroke-width: 0px;
      }

      .cls-2 {
        fill: #e8558e;
      }
    </style>
  </defs>
  <g id="_レイヤー_1-2" data-name="レイヤー 1">
    <g>
      <path class="cls-1" d="m70.5297852,12.8327637l-2.7299805,12.7495117c-.7202148,3.3598633.6601562,4.8898926,3.3295898,4.8898926,2.8500977,0,3.9599609-1.3200684,4.6499023-4.5600586l2.7597656-13.0793457h4.2602539l-2.8798828,13.4094238c-1.1103516,5.0097656-3.4199219,7.5598145-9.1796875,7.5598145-4.8598633,0-8.4296875-2.25-7.1098633-8.4897461l2.6699219-12.4794922h4.2299805Z"/>
      <path class="cls-1" d="m85.0498047,21.9223633c.2700195-1.3198242.5698242-2.6398926.7797852-3.9597168h3.9897461c-.0297852.4499512-.2099609,1.5598145-.2998047,1.9499512.7197266-.9301758,2.0698242-2.25,4.6796875-2.25,3.0600586,0,4.7998047,1.8598633,3.8100586,6.449707l-1.9799805,9.3896484h-4.0498047l1.9799805-9.4196777c.3896484-1.7399902,0-2.9997559-1.7402344-2.9997559-1.9799805,0-3.2397461,1.5-3.8696289,4.3798828l-1.6801758,8.0395508h-4.0795898l2.4599609-11.5795898Z"/>
      <path class="cls-1" d="m103.2294922,17.9626465h4.0795898l-3.2998047,15.5393066h-4.0795898l3.2998047-15.5393066Zm1.3198242-6.3598633h4.0800781l-.8100586,3.8398438h-4.0800781l.8100586-3.8398438Z"/>
      <path class="cls-1" d="m113.1293945,17.9626465c.5102539,6.5095215.75,9.7495117.75,11.7294922h.0302734c.9599609-2.3098145,2.6396484-5.5498047,5.699707-11.7294922h4.2597656l-8.3994141,15.5393066h-4.6801758l-1.6796875-15.5393066h4.0195312Z"/>
      <path class="cls-1" d="m127.7695312,26.6621094c-.0600586.3300781-.1201172.6000977-.1201172.9301758,0,1.6499023.6298828,3.0598145,2.4599609,3.0598145,1.6796875,0,2.3999023-.869873,2.909668-1.8898926h4.2597656c-.8696289,2.3098145-2.8496094,5.0397949-7.4995117,5.0397949-4.1699219,0-6.2099609-2.6101074-6.2099609-6.3598633,0-4.1096191,2.2202148-9.779541,8.3999023-9.779541,4.5595703,0,6.1796875,2.7900391,6.1796875,5.9697266,0,1.2600098-.1801758,2.1599121-.4199219,3.0297852h-9.9594727Zm6.4194336-2.7297363c.0600586-.2700195.0600586-.5100098.0600586-.6899414,0-1.3498535-.6000977-2.5200195-2.3999023-2.5200195-1.8598633,0-3,1.1999512-3.5395508,3.2099609h5.8793945Z"/>
      <path class="cls-1" d="m150.3886719,21.7724609c-2.8496094.0300293-4.8295898,1.5898438-5.5498047,4.9797363l-1.4399414,6.7497559h-4.0795898l2.3398438-10.9194336c.3300781-1.5300293.6298828-3.1799316.8999023-4.619873h3.9296875c-.0297852.3898926-.1796875,1.5598145-.449707,2.8198242,1.0498047-1.8598633,2.4599609-3.119873,5.159668-3.119873l-.8100586,4.1098633Z"/>
      <path class="cls-1" d="m154.8583984,28.7021484c.1201172,1.3500977.9902344,2.0698242,2.7001953,2.0698242,1.5898438,0,2.2197266-.7197266,2.2197266-1.7697754,0-.9899902-.8100586-1.4699707-2.7597656-2.0700684-3.6298828-1.1398926-4.7397461-2.3999023-4.7397461-4.3198242,0-2.7897949,2.1899414-4.949707,6.3295898-4.949707,4.3198242,0,6.2397461,2.2199707,6.1499023,4.6796875h-4.1401367c-.0595703-.8398438-.4799805-1.6499023-2.2197266-1.6499023-1.0200195,0-2.0400391.3300781-2.0400391,1.4101562,0,.8398438.840332,1.1398926,2.7299805,1.7697754,3.6298828,1.1398926,4.8896484,2.5500488,4.8896484,4.7097168,0,3.5698242-3.2094727,5.2199707-6.8696289,5.2199707-4.1396484,0-6.5395508-1.8601074-6.359375-5.0998535h4.109375Z"/>
      <path class="cls-1" d="m169.0180664,17.9626465h4.0795898l-3.2998047,15.5393066h-4.0795898l3.2998047-15.5393066Zm1.3198242-6.3598633h4.0800781l-.8100586,3.8398438h-4.0800781l.8100586-3.8398438Z"/>
      <path class="cls-1" d="m175.3481445,17.9626465h2.3100586l.8999023-4.1699219h4.0498047l-.8696289,4.1699219h2.909668l-.6899414,3.119873h-2.9101562l-1.6499023,7.8295898c-.1796875.9599609-.1196289,1.5898438,1.1103516,1.5898438.4799805,0,.8696289-.0297852,1.3198242-.0898438l-.6000977,2.9399414c-.9301758.2998047-1.9199219.2998047-2.7597656.2998047-3.2397461,0-3.75-1.829834-3.1801758-4.5595703l1.6801758-8.0097656h-2.3100586l.6899414-3.119873Z"/>
      <path class="cls-1" d="m189.2382812,17.9626465c.5698242,6.6296387.8398438,10.5895996.8696289,12.2094727h.0302734c.7797852-1.7099609,2.5498047-5.7297363,5.7294922-12.2094727h4.2597656l-8.4594727,16.229248c-2.6098633,5.0397949-4.3198242,5.5498047-7.5595703,5.5498047-.4199219,0-1.4702148-.0898438-2.0703125-.2099609l.75-3.3598633c.2700195.0600586.7202148.1201172,1.3500977.1201172,1.8901367,0,2.4599609-.75,3.0600586-1.8901367l-2.0400391-16.439209h4.0800781Z"/>
    </g>
    <g>
      <path class="cls-2" d="m25.6015625,11.1506348c0,8.9504395-3.75,22.951416-15.5507812,22.951416-6.7001953,0-10.0507812-4.4003906-10.0507812-11.0507812C0,14.4008789,3.9501953,0,15.7011719,0c6.7001953,0,9.9003906,4.7001953,9.9003906,11.1506348ZM7.0507812,23.0014648c0,3.2001953.949707,5.550293,3.6499023,5.550293,6.0004883,0,8.0004883-13.0009766,8.0004883-17.7512207,0-3.1501465-.949707-5.2502441-3.7001953-5.2502441-5.550293,0-7.9501953,11.0004883-7.9501953,17.4511719Z"/>
      <path class="cls-2" d="m30.7998047,33.5019531l5.4003906-24.7514648c-1.9003906.6499023-5.1503906.9499512-6.4506836,1.0500488l1.2504883-5.300293c3.9501953-.5002441,7.300293-2.5500488,8.7504883-3.9001465h4.800293l-7.0004883,32.9018555h-6.7504883Z"/>
    </g>
  </g>
</svg>