<?xml version="1.0" encoding="UTF-8"?>
<svg id="_レイヤー_2" data-name="レイヤー 2" xmlns="http://www.w3.org/2000/svg" viewBox="0 0 200.3886719 39.7416992">
  <defs>
    <style>
      .cls-1, .cls-2 {
        stroke-width: 0px;
      }

      .cls-2 {
        fill: #23b6bd;
      }
    </style>
  </defs>
  <g id="_レイヤー_1-2" data-name="レイヤー 1">
    <g>
      <path class="cls-2" d="m25.6015625,11.1506348c0,8.9504395-3.75,22.951416-15.5507812,22.951416-6.7001953,0-10.0507812-4.4003906-10.0507812-11.0507812C0,14.4008789,3.9501953,0,15.7011719,0c6.7001953,0,9.9003906,4.7001953,9.9003906,11.1506348ZM7.0507812,23.0014648c0,3.2001953.949707,5.550293,3.6499023,5.550293,6.0004883,0,8.0004883-13.0009766,8.0004883-17.7512207,0-3.1501465-.949707-5.2502441-3.7001953-5.2502441-5.550293,0-7.9501953,11.0004883-7.9501953,17.4511719Z"/>
      <path class="cls-2" d="m25.9995117,33.5019531l.25-1.1499023c1.0498047-5.0004883,4.050293-9.6508789,12.5507812-15.1010742,5.1000977-3.2001953,6.9003906-4.7001953,6.9003906-8.0505371,0-1.9499512-.8999023-3.7502441-3.6503906-3.7502441-3.1000977,0-4.5,1.9501953-5.300293,5.6003418h-6.6000977c.8999023-5.4001465,3.9501953-11.0505371,12.3007812-11.0505371,7.6000977,0,10.2001953,4.800293,10.2001953,9.1005859,0,5.550293-2.6000977,8.0004883-8.5004883,11.7006836-4.300293,2.6499023-7.1503906,4.4501953-8.6503906,7.050293h15.4008789l-2,5.6503906h-22.9013672Z"/>
    </g>
    <g>
      <path class="cls-1" d="m88.3691406,27.0222168c-1.4399414,4.3198242-4.4995117,6.7797852-9.4794922,6.7797852-5.0698242,0-7.7998047-3.1499023-7.7998047-8.3395996,0-5.3999023,3.0898438-12.9296875,11.1298828-12.9296875,4.6196289,0,7.4692383,2.4899902,7.6196289,6.8398438h-4.4101562c-.0898438-1.7399902-.8398438-3.4799805-3.6899414-3.4799805-4.0795898,0-6.1196289,5.25-6.1196289,9.5097656,0,2.8198242.9301758,5.0097656,3.75,5.0097656,2.3999023,0,3.659668-1.4099121,4.5595703-3.3898926h4.4399414Z"/>
      <path class="cls-1" d="m105.6196289,24.3522949c0,3.6298828-2.1298828,9.449707-8.7299805,9.449707-4.3198242,0-6.2998047-2.6398926-6.2998047-6.4196777,0-4.1699219,2.6401367-9.7197266,8.5800781-9.7197266,3.7197266,0,6.449707,2.0998535,6.449707,6.6896973Zm-10.7998047,3.0598145c0,2.1601562.8999023,3.2099609,2.4897461,3.2099609,2.9399414,0,4.0800781-4.0498047,4.0800781-6.6896973,0-2.0100098-.8398438-3.0898438-2.5498047-3.0898438-2.8198242,0-4.0200195,4.0197754-4.0200195,6.5695801Z"/>
      <path class="cls-1" d="m109.3095703,22.3422852c.300293-1.4697266.6303711-2.9697266.8701172-4.3796387h3.9897461c-.0600586.3898926-.1796875,1.1999512-.2998047,1.829834,1.0200195-1.2597656,2.159668-2.1298828,4.3198242-2.1298828,2.1899414,0,3.2397461.9899902,3.5400391,2.5200195,1.0795898-1.380127,2.6098633-2.5200195,5.0693359-2.5200195,2.6401367,0,4.6201172,1.5,3.7202148,5.7297363l-2.1601562,10.1096191h-3.9599609l2.0400391-9.5996094c.300293-1.4099121.2402344-2.8498535-1.6796875-2.8498535-1.8598633,0-2.7299805,1.3498535-3.2099609,3.7199707l-1.8598633,8.7294922h-4.0200195l2.0698242-9.659668c.300293-1.5.0600586-2.7597656-1.6796875-2.7597656-1.8300781,0-2.7597656,1.2597656-3.2998047,3.8999023l-1.800293,8.5195312h-4.0195312l2.3696289-11.159668Z"/>
      <path class="cls-1" d="m134.659668,22.4624023c.449707-2.0998535.7197266-3.4799805.8701172-4.4997559h4.0498047c0,.329834-.2099609,1.3798828-.3300781,2.0998535.8398438-1.1999512,2.3100586-2.3999023,4.7397461-2.3999023,3.1201172,0,4.9799805,2.3999023,4.9799805,6.0898438,0,4.8598633-2.9702148,10.0495605-8.4897461,10.0495605-1.9501953,0-3.2700195-.8400879-3.8100586-1.7399902l-1.5600586,7.3796387h-4.0498047l3.6000977-16.979248Zm5.6699219,8.0097656c3.0595703,0,4.3793945-3.6599121,4.3793945-6.2697754,0-2.25-1.0195312-3.1799316-2.5795898-3.1799316-2.2202148,0-3.6899414,2.0400391-4.2597656,4.7697754-.5102539,2.579834-.1201172,4.6799316,2.4599609,4.6799316Z"/>
      <path class="cls-1" d="m163.8789062,29.6921387c-.3598633,1.619873-.6899414,3.3598633-.7197266,3.8098145h-3.9599609c.0302734-.4499512.1499023-1.2600098.2099609-1.7399902-.7797852.9599609-1.7998047,2.0400391-4.6796875,2.0400391-3.0600586,0-4.3496094-2.1599121-4.3496094-3.9899902,0-4.3198242,3.7797852-5.4597168,7.199707-5.8496094,1.3198242-.1201172,2.5195312-.1201172,3.4794922-.1499023l.1499023-.7202148c.2104492-1.1398926.2104492-2.579834-1.9794922-2.579834-1.9501953,0-2.3100586,1.0500488-2.6401367,1.8000488h-4.1699219c.5703125-2.4899902,2.3100586-4.6499023,7.1396484-4.6499023,3.7802734,0,6.5698242,1.5898438,5.7001953,5.6396484l-1.3803711,6.3898926Zm-3.3896484-3.1499023c-1.0200195,0-1.8901367.0600586-2.699707.1501465-2.2802734.3598633-3.1801758,1.1098633-3.1801758,2.4296875,0,.8999023.5703125,1.5898438,1.8901367,1.5898438,2.8198242,0,3.5395508-2.2797852,3.9296875-3.9296875l.0600586-.2399902Z"/>
      <path class="cls-1" d="m169.4296875,21.9223633c.2700195-1.3198242.5698242-2.6398926.7797852-3.9597168h3.9897461c-.0297852.4499512-.2099609,1.5598145-.2998047,1.9499512.7197266-.9301758,2.0698242-2.25,4.6796875-2.25,3.0600586,0,4.7998047,1.8598633,3.8100586,6.449707l-1.9799805,9.3896484h-4.0498047l1.9799805-9.4196777c.3896484-1.7399902,0-2.9997559-1.7402344-2.9997559-1.9799805,0-3.2397461,1.5-3.8696289,4.3798828l-1.6801758,8.0395508h-4.0795898l2.4599609-11.5795898Z"/>
      <path class="cls-1" d="m189.4990234,17.9626465c.5703125,6.6296387.840332,10.5895996.8701172,12.2094727h.0302734c.7797852-1.7099609,2.5498047-5.7297363,5.7294922-12.2094727h4.2597656l-8.4594727,16.229248c-2.6098633,5.0397949-4.3198242,5.5498047-7.5595703,5.5498047-.4199219,0-1.4702148-.0898438-2.0698242-.2099609l.7495117-3.3598633c.2700195.0600586.7202148.1201172,1.3500977.1201172,1.8901367,0,2.4599609-.75,3.0600586-1.8901367l-2.0400391-16.439209h4.0795898Z"/>
    </g>
  </g>
</svg>