<?xml version="1.0" encoding="UTF-8"?>
<svg id="_レイヤー_2" data-name="レイヤー 2" xmlns="http://www.w3.org/2000/svg" viewBox="0 0 156.4799805 36.7773438">
  <defs>
    <style>
      .cls-1 {
        stroke-width: 0px;
      }
    </style>
  </defs>
  <g id="_レイヤー_1-2" data-name="レイヤー 1">
    <g>
      <path class="cls-1" d="m23.6162109,19.8032227c-1.9680176,5.9038086-6.1501465,9.2658691-12.9562988,9.2658691C3.730957,29.0690918,0,24.7641602,0,17.6711426,0,10.2910156,4.2229004,0,15.2109375,0c6.314209,0,10.2092285,3.402832,10.4143066,9.3479004h-6.0270996c-.1230469-2.3779297-1.1479492-4.7558594-5.0429688-4.7558594-5.5761719,0-8.3642578,7.1750488-8.3642578,12.9970703,0,3.8540039,1.2709961,6.8469238,5.125,6.8469238,3.2800293,0,5.0021973-1.927002,6.2321777-4.6328125h6.0681152Z"/>
      <path class="cls-1" d="m47.1882324,16.1540527c0,4.9611816-2.9111328,12.9150391-11.9311523,12.9150391-5.9040527,0-8.6101074-3.6079102-8.6101074-8.7739258,0-5.6992188,3.6079102-13.2841797,11.7260742-13.2841797,5.0839844,0,8.8151855,2.8701172,8.8151855,9.1430664Zm-14.7602539,4.1821289c0,2.9519043,1.2299805,4.3869629,3.4030762,4.3869629,4.0180664,0,5.5759277-5.5351562,5.5759277-9.1430664,0-2.7470703-1.1479492-4.2231445-3.4848633-4.2231445-3.8540039,0-5.4941406,5.4941406-5.4941406,8.979248Z"/>
      <path class="cls-1" d="m52.3508301,12.8330078c.3691406-1.8039551.7790527-3.6079102,1.0661621-5.4121094h5.4528809c-.0410156.6149902-.2868652,2.1320801-.4099121,2.6650391.9838867-1.2709961,2.8291016-3.0749512,6.3959961-3.0749512,4.1821289,0,6.5600586,2.5419922,5.2070312,8.8151855l-2.7060547,12.8330078h-5.5349121l2.7060547-12.8740234c.532959-2.3781738,0-4.1000977-2.3781738-4.1000977-2.7060547,0-4.4279785,2.0500488-5.2890625,5.986084l-2.2958984,10.9880371h-5.5761719l3.3620605-15.8261719Z"/>
      <path class="cls-1" d="m92.0771484,21.7302246c-1.1479492,4.0178223-4.0180664,7.3388672-10.2912598,7.3388672-5.3708496,0-8.1999512-3.1569824-8.1999512-8.2409668,0-6.1501465,3.526123-13.8171387,11.3981934-13.8171387,6.8879395,0,8.6098633,4.8791504,8.322998,7.5849609h-5.4121094c-.0410156-1.6398926-.5739746-3.3210449-3.0749512-3.3210449-3.9360352,0-5.4941406,5.9042969-5.4941406,9.3071289,0,2.9521484,1.1889648,4.2641602,3.197998,4.2641602,1.8452148,0,3.1162109-1.0251465,3.9770508-3.1159668h5.5761719Z"/>
      <path class="cls-1" d="m101.1762695,19.3110352c-.0820312.4511719-.1640625.8200684-.1640625,1.2709961,0,2.255127.861084,4.1821289,3.3620605,4.1821289,2.2961426,0,3.2800293-1.1889648,3.9770508-2.5830078h5.8220215c-1.1889648,3.1569824-3.8950195,6.8879395-10.25,6.8879395-5.6989746,0-8.4870605-3.5668945-8.4870605-8.6918945,0-5.6171875,3.0339355-13.3662109,11.4799805-13.3662109,6.2321777,0,8.4462891,3.8129883,8.4462891,8.1591797,0,1.7219238-.2460938,2.9519043-.5742188,4.1408691h-13.6120605Zm8.7741699-3.730957c.0820312-.3691406.0820312-.6970215.0820312-.9431152,0-1.8449707-.8200684-3.4438477-3.2800293-3.4438477-2.5419922,0-4.1000977,1.6398926-4.8381348,4.3869629h8.0361328Z"/>
      <path class="cls-1" d="m120.1567383,13.5710449c.6152344-2.8701172.9841309-4.7561035,1.189209-6.1501465h5.5349121c0,.4511719-.2868652,1.8862305-.4509277,2.8701172,1.1479492-1.6401367,3.1569824-3.2800293,6.4780273-3.2800293,4.263916,0,6.8061523,3.2800293,6.8061523,8.322998,0,6.6420898-4.059082,13.7351074-11.6032715,13.7351074-2.6650391,0-4.4689941-1.1479492-5.2070312-2.3779297l-2.1318359,10.0861816h-5.5351562l4.9199219-23.2062988Zm7.7492676,10.9470215c4.1818848,0,5.986084-5.0019531,5.986084-8.5690918,0-3.0749512-1.394043-4.3459473-3.526123-4.3459473-3.0339355,0-5.0429688,2.7880859-5.8220215,6.519043-.6970215,3.526123-.1640625,6.3959961,3.3620605,6.3959961Z"/>
      <path class="cls-1" d="m143.7700195,7.4208984h3.1569824l1.2299805-5.6989746h5.5351562l-1.189209,5.6989746h3.9770508l-.9428711,4.2641602h-3.9770508l-2.255127,10.7011719c-.2458496,1.3120117-.1638184,2.1728516,1.5170898,2.1728516.6560059,0,1.1889648-.0410156,1.8039551-.1230469l-.8198242,4.0180664c-1.2709961.4101562-2.6240234.4101562-3.7722168.4101562-4.4279785,0-5.125-2.5009766-4.3459473-6.2321777l2.2958984-10.9470215h-3.1569824l.9431152-4.2641602Z"/>
    </g>
  </g>
</svg>