<?xml version="1.0" encoding="UTF-8"?>
<svg id="_レイヤー_2" data-name="レイヤー 2" xmlns="http://www.w3.org/2000/svg" viewBox="0 0 77.531976 77.531976">
  <defs>
    <style>
      .cls-1 {
        fill: #fff;
      }

      .cls-1, .cls-2 {
        stroke-width: 0px;
      }

      .cls-2 {
        fill: #40506c;
      }

      .cls-3 {
        fill: none;
        stroke: #fff;
        stroke-miterlimit: 10;
        stroke-width: .4471619px;
      }
    </style>
  </defs>
  <g id="_レイヤー_1-2" data-name="レイヤー 1">
    <g>
      <rect class="cls-2" width="77.531976" height="77.531976" rx="16.5736591" ry="16.5736591"/>
      <g>
        <path class="cls-3" d="m58.483942,45.1935626c-.1128232-.0000301-.2262104.000124-.3383118-.0105655-.1112856-.0106106-.1604961-.08041-.1363608-.1937152.0576428-.2706422.1179398-.5408373.1847066-.8093416.0188496-.0757961.039797-.162834.1625074-.195297.123342.0937184.2528081.2097664.3990298.2980931.1390864.0840058.2914697.1515808.4457328.2034091.1640375.0551121.3356389.092501.506744.1204553.1611277.0263312.3268532.0479131.4888342.0392976.1725525-.0091791.3447704-.0491004.5140184-.0888527.1591578-.0373889.3180411-.0823751.4700974-.1417668.1616728-.0631565.3201577-.1384791.4708042-.224619.1383871-.0791325.2805261-.162864.3711012-.3242138-.0503007-.0329553-.0811917-.0694011-.1154285-.0728691-.1626014-.0164645-.3265674-.0372875-.4892027-.0317567-.3098193.0105317-.6141838-.01737-.917176-.0787718-.4675937-.0947554-.8588377-.3267538-1.1958601-.657246-.2429021-.2381942-.4457741-.508919-.6374168-.7887967-.0447669-.0653771-.0972819-.1254526-.1567706-.2014365-.0778533.0652681-.1363495.1208912-.2013683.1674103-.1245751.0891194-.2457367.187031-.381214.25597-.2179623.1109156-.4499696.1325013-.6855672.043626-.0653383-.0246479-.1335187-.0417587-.2116277-.0657791-.0329661.0750033-.0685526.1371378-.088342.2039501-.1629961.5501855-.1863307,1.1108764-.105312,1.6755801.0333985.2328212.0925902.4618926.1382104.6930306.0270113.1368372-.0146316.198254-.1468458.2111529-.0814736.0079429-.1639736.0071689-.2460149.0071915-1.3755893.000372-2.7511785.0006275-4.1267678-.0004546-.1118044-.0000902-.2236013-.0100959-.3356238-.0155064-.1647142-.1930088-.1655525-.4478291-.2822178-.640992-.0964962-.0115011-.1071202.0652343-.1374435.1097207-.1337104.1961762-.2823908.3784204-.4674132.5283706-.2555149.2070799-.5437477.3216175-.8779618.3157787-.214372-.0037423-.4082629-.052234-.5543304-.2182805-.07453-.0847272-.1626803-.1148607-.2717103-.1126965-.1744435.003468-.349011.0004697-.5235259.0005974-1.1086759.0008153-2.2173556.0017396-3.3260315.0026113-.1021992.0000789-.2043946.0000113-.314684.0000113-.0512594.0716818-.1003308.1356687-.1445488.2028492-.431402.6554801-1.3069276.6574114-1.811119.1304723-.02825-.0295286-.0546184-.0615221-.0776635-.0952363-.0737312-.1078834-.0297218-.2147148.099998-.2147824.3558231-.0001804.6849882-.1120052,1.0184542-.2147373.1352593-.041676.2799397-.0538234.4209396-.0754654.078624-.0120647.1584961-.0160324.236857-.0235545.0476203-.1427061.0101579-.260103-.0309962-.3747007-.0943232-.2626467-.2717479-.4616296-.5128493-.5922297-.4776952-.2587541-.9882211-.3348733-1.5191643-.2111942-.2394698.0557809-.4253305.1954135-.5305353.4288209-.0523308.1160969-.0428289.2180663.0446823.3109393.0985206.1045582.1981258.2080944.2968381.3124723.0493496.0521889.0983796.1047122.1463909.1581261.0425545.0473458.0862857.1089279.0443195.1632886-.0324455.0420254-.1000563.0697769-.1558627.0780354-.0905488.0133985-.1842292.0066392-.2765882.0066504-1.6732921.0002067-3.3465841-.0000338-5.0198762.0005561-.1221672.0000451-.2443344.0057186-.37112.0088935-.0642462.0918097-.1219698.1751166-.1805262.2578336-.2121352.2996486-.4826782.5271156-.819663.6777872-.2405506.1075528-.4899677.1454489-.7502269.1250618-.4619151-.0361828-.7510164-.3368308-.7673416-.7977842-.0021429-.0605113-.0002951-.121158-.0002951-.162214-.0772011-.0992754-.1651653-.0732824-.2429265-.0739625-1.2214446-.010697-2.4428968-.0208568-3.6643677-.0281121-.9033189-.0053654-1.8066641-.0068834-2.71-.0082585-.0693327-.0001052-.1386916.0145858-.2135562.023021-.0249079.122101-.0460225.2318744-.0697988.3410653-.0879379.4038198-.3489039.6484577-.7565671.6978362-.3092272.0374565-.6155033.0095135-.9130774-.0831942-.3150299-.0981482-.4694893-.3041686-.4825692-.6358971-.0051955-.1317423-.0008543-.263864-.0008543-.400179-.1740403-.0715315-.3333391-.0501562-.4851914-.0283864-.0757951.0845994-.064436.1808014-.0764191.2711532-.0120977.0911972-.0197115.1835968-.0403449.2729191-.0388769.1682933-.1376484.2940427-.288512.3807537-.2819162.1620336-.5804065.2529829-.9096037.2352259-.454636-.0245277-.8163453-.3306764-.9090407-.7783739-.0164004-.0792152-.0261833-.1598018-.0414032-.2545873-.0626672-.0115838-.1201494-.0282173-.1784012-.0315952-.092092-.0053316-.1847001-.00195-.2770891-.00195-2.7819759-.0000376-5.5639514.0000038-8.3459274-.0001991-.1026303-.0000075-.2056862.0026977-.3077051-.0058539-.0484036-.0040579-.0981732-.0258014-.1412678-.0502051-.0496749-.0281347-.0373491-.1349548.016195-.1563488.0372588-.0148864.0774018-.0281685.1169609-.0305694.0921043-.0055909.184634-.0054105.2769913-.005418,2.9154284-.0002179,5.8308573-.0003494,8.7462856.0003494.1412518.0000338.2856765-.0153335.4420721.0496866-.0172876.0780993-.0257453.1463507-.0478674.2098491-.0433609.1244681-.0291316.2404298.0273787.3567708.1489191.3065883.3829377.469411.7332617.4553174.2427564-.009769.4608869-.0908854.6693961-.2056522.0945638-.0520537.1492828-.1355109.1778044-.2401592.0409774-.1503635.0526503-.3011402.0359455-.4422983-.0642969-.0884957-.148139-.0926325-.2288579-.0998991-.1703664-.0153185-.2569434-.1191628-.2825637-.2759325-.0180977-.110739-.0240658-.224232-.0261475-.3366655-.0057303-.3095904-.0529295-.6126093-.1360375-.9101651-.0161175-.0577084-.0449276-.1118699-.0734783-.1812673-.1639426.0144581-.3235045.028533-.4608963.040654-.1064698-.075905-.1248589-.1688795-.1562273-.2545497-.2372649-.6479467-.3843804-1.3179563-.4801989-1.9994257-.1301681-.9257767-.1755563-1.8572607-.190513-2.791604-.0136269-.8512694-.0396043-1.7026214-.0775263-2.5531618-.056937-1.2770506-.2969951-2.5223369-.6805662-3.7414987-.1908758-.6066953-.3415702-1.223355-.4353879-1.8539167-.1260234-.8470311-.1401371-1.6947836-.0557697-2.5462277.0425723-.4296437.1182151-.8530184.219247-1.2717377.0275254-.1140792.0257876-.2512226.1617649-.3240748.5078408.1355728,1.0191722.2804244,1.5349106.407393.5085297.1251933,1.0278122.1981883,1.5492451.2371778.5316538.0397541,1.0639203.0853058,1.5991389.0513642,1.1619588-.073692,1.3111391-.0886855,1.5692423-.1952745-.0616579-.0350707-.1072593-.079497-.1579661-.0863841-.1517123-.0206107-.3054359-.0366487-.4583484-.0364327-.6567336.0009299-1.3145526.0346949-1.9699394.0074883-1.1192116-.0464628-2.227396-.1879891-3.2990165-.5378503-.1752565-.0572181-.3492103-.1192455-.5208493-.186488-.1924049-.0753771-.2267075-.1182592-.1950854-.3243059.0371936-.2423441.0820902-.4865161.1566474-.7193392.0871654-.2721921.2101389-.5329169.3170787-.7988174.0185554-.0461415.0346353-.0932788.0610263-.164799-.0802123.0038118-.1380591.0026996-.1948561.0098855-.3709932.0469287-.6637646-.0866547-.8821075-.3848116-.1683711-.2299168-.241091-.4953946-.2705365-.7747763-.0553787-.5254155-.0228195-1.0444304.1123232-1.5562763.0259173-.0981595.0458825-.1978915.0740526-.3206989-.0640375-.056399-.1349802-.1141224-.200544-.1774123-.3535467-.341287-.4930532-.7413269-.3532761-1.2284668.2220083-.7737262.5344066-1.505983.9703142-2.1841666.1285525-.2000049.2801643-.3801976.4657346-.5293118.2463729-.1979722.5235936-.3164681.844755-.3276668.2244209-.0078246.4259583.0513661.6089046.1773202.0759746.0523073.1490365.1090914.2212216.1665988.3036173.2418857.6570963.3356417,1.0358292.3213865.6264648-.0235808,1.1937407-.2551358,1.7541369-.518301q-.0880695-.1260274-.2797028-.210903c-.6592655.4000719-1.6294481.3798463-2.2158546-.1687724-.0591851.0281572-.1219651.0602615-.1865027.0883323-.235279.1023264-.4765091.119362-.719272.033502-.1251089-.0442479-.2517771-.0912198-.3663277-.1568561-.3754499-.2151318-.7208454-.4723323-1.0271901-.779116-.7646245-.7657212-.883864-1.6348659-.3531248-2.5773081.2449378-.4349425.5831199-.7926395.9550698-1.1185225.6518144-.5710836,1.4028843-.9544176,2.2423133-1.1702474.2687263-.069093.5261754-.0710938.779366.0518198.026187.0127128.0586127.0125898.0892246.0186372.027188-.0175663.0553496-.0309536.0776588-.0508823.5093483-.4550365,1.097441-.5167107,1.7275843-.3350893.5284667.1523163.9557061.4651418,1.3125667.8762545.4748343.5470256.7636104,1.1872661.9174862,1.8894607.0525582.2398417.0888232.4845135.1137123.728894.0596842.5860095-.1113777,1.0983383-.540447,1.5074784-.2147856.2048087-.453058.385022-.6808022.5762461-.0609248.0511538-.122201.1018905-.1973288.1644947.0361391.0288523.0540582.053782.0770018.0599027.4382121.1169629.760334.3950333,1.0256403.7461645.3500787.4633223.5978887.9800077.7571028,1.5368511.0903796.3160849.1783326.630186.3458193.9175181.0783627.1344381.1146747.2878601.0948138.4448082-.0186053.1470307.025297.2455359.148389.3394873.291528.2225074.2638137.4657683-.0601447.6442289-.0890112.0490328-.1843382.0866096-.2841201.1328526,0,.0739456-.0048684.1445246.0007462.2142639.065671.815761.0055169,1.6189857-.2407329,2.4030952-.0459661.1463619-.0992311.2911158-.1595845.4321386-.1094868.2558253-.2983757.4096774-.5841631.434222-.0686297.0058971-.1356822.0301317-.2085844.0471278-.0057763.0531452-.0176316.093399-.0131955.1317686.0647293.5600747.1287067,1.1202678.199263,1.6796267.0349361.2769695.0056222.5328681-.2056446.752503.0292613.0668668.0616672.129099.084156.1947278.0497424.1451483.1101146.2890323.1386315.4386725.1371296.7195083.1639754,1.4441866.1033853,2.1749255-.0772819.9320964-.2517837,1.8486113-.4288004,2.764232-.2228607,1.152744-.3414659,2.3119881-.2924923,3.4865846.0316203.7584039.0714135,1.516695.087139,2.2754596.011468.5534017.0114624,1.1088286-.022297,1.6609754-.0546184.8933474-.2339134,1.7670816-.4980523,2.6225817-.0240545.0779039-.0571541.1539705-.0942669.2267006-.0742988.145618-.1911709.2381754-.3563127.2633944-.0304379.0046478-.0605216.0130566-.0910864.0152058-.4240382.0297841-.8396498-.0190345-1.2450565-.144735-.1759472-.0545485-.2649444-.1865425-.276825-.3676031-.0067058-.1022174-.0044389-.2050886-.0044117-.3076667.0005179-1.9596058.001359-3.9192078.0020094-5.8788136.000344-1.0369214-.0496174-2.0724225-.1447574-3.103986-.0752791-.8162062-.1991399-1.6279713-.3048757-2.4412618-.0087913-.0676277-.0439567-.1318249-.0836522-.2458065-.0389417.1354733-.071156.2206213-.0875263.3087112-.1449012.7797003-.2053053,1.5651417-.151998,2.3577483.0536861.7982463.09642,1.5974132.1639275,2.3944872.075468.8910554.1093082,1.7823851.048968,2.6742784-.0304013.449362-.1012058.8960489-.1555469,1.3437277-.0679417.5597365-.1485253,1.1181994-.2029688,1.6792171-.0366297.3774698-.0363543.7582498.0275197,1.1356069.0153891.0909154.0251842.1830783.0320338.2750796.0146043.1961349-.0183224.2484704-.2143579.3130171-.106452.0350481-.219248.0503704-.3276003.0803086-.0648148.0179111-.1265732.0468723-.1816766.0678155-.0077444.087485.0475272.0808083.0801983.081958.2081577.0073305.3122028.1396213.3731285.3142307.0505526.1448816.0965197.2930207.1255272.4433767.0504088.2612715.0866024.5252934.1276719.7883308.0078966.0505733.0090855.1021686.0164182.1528546.0117359.0811201.0608834.1308443.1412386.1382687.1122988.0103739.2253457.0125682.3380524.01864.0717077.0038625.144029.0037686.214919.0136954.1175967.016472.1619388.0701714.1536174.18655-.005093.0712347-.0226804.141485-.0316936.2125543-.0102838.0810826-.0252923.1627024-.0241278.2438827.0029596.2061707.1011625.3510071.2989152.4200889.2660609.0929369.5416058.1216163.81949.0872859.3330552-.0411425.5261885-.2540425.5583502-.5941497.0013891-.0146873-.0182096-.0313547-.0371137-.0616648-.0664445.0632617-.1278383.1288191-.1964698.185652-.1695074.1403653-.3559678.1866966-.5737787.1156573-.1729811-.0564121-.3133832-.1508632-.4237497-.2913224-.1490779-.1897174-.2464754-.4041053-.2617169-.6460756-.0115742-.1837433-.0244831-.371507-.0001682-.5525676.0530451-.3949901.1294379-.7868467.1944049-1.1688929.1214219-.0921967.2428748-.1043403.3658747-.1122719.2693654-.01737.5304705.0273607.7912654.091231.1522621.0372875.2271098.1194672.238747.2742004.0161485.2146847.0410206.4287044.0611503.6431036.0258834.2756808.0499229.5515344.0768571.8271099.0048778.0499045.0198496.0988208.0330357.1619585.0609699.0144017.1178307.0380014.1753664.039771.3794772.011704.7590953.0258164,1.138674.0260193,1.7040514.0009093,3.4081047-.0039715,5.1121543-.0028631.2357329.000154.4716745.0190871.7069807.0365623.0457124.0033928.0889229.040406.1519021.0709303-.032812.0717006-.0574003.1354507-.0899548.1948386-.1489285.2717018-.0628402.5560732.2115337.6981743.1628138.0843214.3392272.0957473.5110372.0662074.4796613-.082469.8463283-.3362785,1.1022154-.7448024-.0250827-.0326923-.0338233-.0569081-.0486052-.0614432-.2658194-.0815259-.2643532-.0806505-.2082423-.3296281.0683289-.3031917.1963307-.5813035.3452272-.8519832.1429491-.25987.1056146-.4055369-.1364567-.5701931-.0959868-.0652869-.2007442-.1041674-.3177498-.0974719-.13303.0076161-.2656464.0225814-.3986952.0296151-.1224398.0064738-.2470073.021364-.3674734.0066617-.2785581-.0340036-.4154584-.1710512-.4751275-.4457964-.0505526-.2327724-.0638665-.4680621-.0355658-.7038854.0427594-.3562824.0955695-.7113549.1384999-1.0676186.0527462-.437767.1142142-.8756129.0789097-1.3184974-.0236297-.2964323-.052015-.592504-.0804342-.8885305-.0759172-.790743-.0717443-1.5765075.1206371-2.3542465.0614548-.2484553.099233-.5027157.1494867-.7539928.1064379-.5321955.0696616-1.0648306-.023156-1.5914278-.2955092-1.6765119-.3460073-3.3662758-.263357-5.059966.0494586-1.0134834.137951-2.0258395.2725788-3.032958.047547-.3556737.089077-.7121928.1288834-1.0688247.0096034-.0860403.0014267-.1740645.0014267-.2709841-.0880808.0449242-.094765.1210415-.1200901.1841848-.1640657.4090499-.323434.8200086-.4902421,1.2279314-.1826615.4467-.3959508.8787897-.6500578,1.2895492-.0589285.0952589-.1266484.1873259-.2030036.2690228-.0997762.1067581-.231857.1343367-.3680693.0853659-.1268063-.0455873-.1981615-.1467846-.2030375-.2823049-.0117895-.3275729-.0341785-.6558765-.0230526-.9828933.0149925-.4404817.0546353-.8802475.0886804-1.3199364.0801447-1.035086.2539434-2.0545754.523103-3.0573354.1754623-.6536822.3431633-1.3093746.4344132-1.9807913.0621052-.4569631.1093214-.9161636.1534247-1.3753003.0578496-.6022617.1063646-1.2054232.1581446-1.8082617.0077707-.0904664.0114605-.1812804.0183459-.2931635-.0710169-.0065772-.1295206-.0236672-.1840675-.0152265-.4908098.0759463-.9822098.0510035-1.473999.01672-.6467026-.045082-1.2814615-.1584849-1.9048727-.3347981-.1179586-.033363-.2356013-.0721233-.3475524-.1215882-.2776295-.1226703-.4300223-.3401786-.4538813-.642741-.016188-.205299-.0055169-.4084563.04603-.6104921.3334095-1.3067596.8945708-2.5068719,1.6803597-3.6024861.1326033-.1848884.2883363-.3477702.4797647-.4727052.1676333-.1094051.3490561-.1713377.5535541-.1428921.0949511.0132069.1795018.0418056.2402122.1494382-.089968.281683-.3969433.4187118-.5228342.6906701.0863364.1154309.2138081.1271649.3321201.1390972.2821596.0284559.5673699.070022.8622569-.0494808-.0157575-.0675225-.0191222-.1297274-.0445921-.1809526-.0500244-.1005961-.1013007-.2040243-.1714491-.2905832-.3392629-.418616-.3853174-.8983756-.2800186-1.3984255.1443514-.685516.3900655-1.3375065.7175559-1.9572763.0571315-.1081192.1277123-.2107039.203607-.3067471.0428289-.0541963.1043589-.0987776.1659623-.1319048.117998-.0634543.2570449-.0063001.2486088.1553626-.0053214.1019356-.0098496.2039116-.0146015.3031372.0729793.0316684.0974699-.0234315.1274473-.0589849.0991785-.1176233.1951202-.2379631.2930073-.3566797.0976409-.1184161.2163495-.1438915.357902-.0845431.0749567.0314289.1563345.0482315.2297292.0825132.0630657.0294572.1331973.0630804.1744209.1152233.0545733.0690254.1126522.1109663.1979209.1301398.0902875.0203026.1324698.0944961.1468589.1794957.0241861.142893.0196128.2845471-.0212255.4261222-.0608496.2109518-.1709961.3939475-.3020167.5666162-.1054135.1389262-.2154886.2745799-.315387.4173545-.0949191.1356593-.1689642.2839205-.1659021.4551248.0014492.0810365.0090771.1657196.0345996.2418171.059921.1786747.1910412.2557473.3814885.2379509.1325601-.0123869.2646107-.0314223.39737-.0401966.1329529-.0087865.2380807.050345.3185242.1542523.1102706.1424337.0859116.3415585-.0739454.4230177-.1441409.0734515-.3029641.1254178-.4610147.1627428-.298996.0706091-.6024883.1219977-.9033471.1850142-.2572912.0538929-.4811256.173655-.6678961.3592582-.1337687.1329296-.2372987.2799801-.2444698.4804932-.0056729.1586793-.087765.2924336-.1660112.4253379-.2601671.4419019-.5209526.8834431-.7803303,1.3258091-.0403571.0688319-.0745902.1412483-.1095789.2080418.0577556.0576333.1038533.030235.1499491.0095661.535447-.2400634.9792549-.595275,1.3346081-1.061481.0618308-.0811201.1227856-.1629129.1726221-.2290902.1196108-.0588656.2231728-.0351834.3218362-.0166862.6121669.1147705,1.2049879.019893,1.7897469-.1598751.1269661-.0390327.2477385-.0977425.3729584-.1429766.4413531-.1594345.6179469-.5116046.6837401-.9412915.0138214-.0902682.0046842-.1841679.0047387-.2763965.0000959-.1615574-.0557594-.2922486-.1771371-.4084159-.4084866-.3909595-.5147102-.8956666-.5066519-1.4348967.0027613-.1847541.0820526-.3363142.2565675-.4249443.0449661-.0228378.0864774-.0524651.1361728-.0830298.0115996-.1556857.0184549-.30924.0352105-.4617067.0647932-.5895169.2891915-1.1039226.7078491-1.5333286.7484168-.7676328,1.9735682-.640806,2.6004361.1687498.1019962.1317169.1976897.2494539.3641877.3115874.204889.0764602.3172968.2541571.3808888.4574308.1238458.39589.0997462.7930894-.031327,1.1794828-.0682612.2012279-.0778439.3838347-.0367124.596374.0980714.5067736-.0357443.96161-.4390147,1.3046517-.254419.2164187-.3941802.4854303-.4829602.8008783-.1470676.5225524-.3154377,1.03911-.4741519,1.5583992-.0263552.0862244-.0492631.1735028-.0726973.2565204.1681352.1053191.3204302.2007151.4756632.2979522.0705394-.0842913.0788308-.1861161.0842969-.2863797.0150846-.2766032.0262255-.5527799-.033124-.8273278-.0369417-.170899-.0129361-.2543073.0625545-.2687861.1177292-.0225814.1599792.074141.2114923.1466287.2371352.3337067.5448925.5876589.9064185.7699031.3841219.1936344.7789261.3661528,1.1696514.5466236.176748.0816368.3554885.1589658.5323229.2404166.3721652.1714231.5220147.4740306.5042515.8701968-.0073496.163871-.0254248.3272685-.0388496.4908614-.0257556.3139677.0291428.6120062.1696277.8951096.104812.211213.2040036.4252139.3058908.637879.2369773.4946263.316902,1.0090159.2394134,1.5562538-.0472105.333423-.0990488.6720179-.0514097,1.0111801.022703.1616185.0482481.327462.1059698.4786314.1440976.3774097.2196803.7690464.2676991,1.1661087.1157556.957152.2301314,1.9150987.2360863,2.8810014.0057068.9264004-.0623909,1.8448221-.3467629,2.7350998-.0249398.0780842-.0464924.1579344-.0796202.2325263-.0330188.0743382-.0786353.1430837-.132248.2382975.1175375.3789032.112045.7884247.0908608,1.198461-.0149624.2896579-.0746541.5708469-.2095562.8289585-.2866802.5485135-.7199243.8553235-1.3636644.8021614-.038797-.003205-.078703.0069473-.1290939.011982-.0030188.0482701-.0145752.0888301-.0065075.1250205.2365111,1.0606788.2515863,2.1365221.2158908,3.2148753-.0211616.6393463.0370376,1.270325.1632254,1.8958932.1244398.6168926.1768533,1.2379859.1195375,1.8661129-.0820037.8986827-.1651089,1.7972716-.248075,2.6958679-.0207481.2246716-.0374962.4498843-.0654699.6736767-.0355864.2847434.014609.5506739.1483533.8029392.1161052.2189906.1938758.4505644.2410449.6944584.0520037.2688951.0214022.5308053-.0430225.7918664-.0214398.0868613-.0738872.1451408-.1660112.1598093-.0709097.0112907-.1417217.0269774-.2131126.0308775-.4377628.0239265-.8430821.1616316-1.2358149.3455403-.0732387.0343004-.14756.0662938-.2297874.1031192-.0423139-.0389144-.0905996-.0656288-.1129229-.106512-.3246689-.5944878-.631024-1.1964865-.8035088-1.8577341-.1288326-.4938973-.1445112-.9930286-.094718-1.4963305.0343176-.3468779.0729248-.6935942.121233-1.0387587.0680714-.4863752.0170432-.9609225-.1124849-1.4309083-.0735018-.266697-.1493476-.5330484-.2118608-.8024019-.0935169-.4029443-.1044962-.8159056-.0836879-1.2249105.0592349-1.164185-.1449322-2.2882382-.4881425-3.391972-.2890712-.9296279-.5911556-1.8552204-.8888546-2.7821581-.0241485-.0751949-.0589267-.1469744-.1054003-.2612414-.0435789.0913062-.0753345.1401361-.0911785.1936739-.2825261.9546665-.5052478,1.9221605-.6418304,2.9095344-.0858176.6203982-.1423627,1.2427727-.1783476,1.8675932-.0309511.5374182-.1387837,1.056031-.3844339,1.5405163-.1452555.2864792-.2497085.5873302-.2527273.9111382-.0020019.2146284.0176391.4299744.0370996.6441331.0157594.1734258.0411917.3463218.0702537.5181169.0694981.4108121.0445752.8173672-.0439793,1.2220249-.0438139.2002116-.0907894.3997807-.131483.6006235-.0619736.3058744-.0625507.6109937.0245056.9133588.0652067.2264864.129624.453202.1951502.6795945.1032631.3567821.0810338.7094124-.0329361,1.0594089-.0925056.2840783-.2229754.5509182-.3696106.8101795-.111077.1963829-.2241653.3916424-.3382949.5862706-.0529041.0902203-.0965469.1831347-.0814473.2901952.046047.326487.0494323.6514448-.0548101.9883883.0700695.0198686.1151973.039121.1618852.0442948.0608853.0067406.1230056.0026564.1845957.0026564,1.5193072.0000188,3.0386182.0006463,4.5579216-.0015104.1093571-.0001578.2261258.0296.3272385-.043626-.0101541-.1077895-.0933872-.1593397-.1622668-.2167888-.1945074-.1622403-.2178645-.3563538-.1284999-.5812696.1279304-.3219782.3761219-.5024264.6951424-.6009091.2500713-.0772088.5080786-.0708439.7638077-.0512571.2562818.0196319.5079019.0744885.7446536.1786071.4802967.2112318.813116.5464733.8969505,1.0862022.0062782.0404323.0173759.0802297.0281052.1198128.0052519.0193952.0147932.0376256.0303421.0759989.0462255.0087132.1036804.0287208.161248.0290477,1.3138487.0075259,2.6277087.0129214,3.9415686.0186137.0410564.0001804.0821165-.0011084.1231766-.0009882.1186578.0003382.2254171.0287621.2907893.13828.0970977.1626761.2502179.1931253.4233005.1954323.2592968.0034492.480541-.0904796.6804582-.2453668.3007141-.2329865.4936763-.5457519.6419469-.8881172.0316541-.0730795.0504699-.1609778.0442443-.2395994-.0290789-.3670621-.0690037-.7332638-.1049623-1.098868-.0781202.0009018-.0916014.0539286-.112812.0988133-.0874398.1850095-.1583157.3802239-.2652479.5531801-.2761502.4466643-.6691537.7452158-1.1895931.8556278-.2021916.0428896-.4075862.0518094-.6054432-.0311818-.093842-.0393653-.1217819-.1086912-.0730601-.1969427.0395338-.0716179.0874135-.1387421.1331164-.2068395.4716312-.7027357.843146-1.4534221,1.0874278-2.2651684.0059023-.0196206.0139887-.0385725.0204662-.0580353.1063533-.3192842.2005111-.392871.5273793-.4133258.0588834-.0036897.1176127-.0098554.1907029-.0161-.0247631-.0412439-.0339436-.0794557-.0555977-.0888076-.1230751-.0531583-.2508758-.0874287-.387793-.0818603-.1948157.0079241-.3898869.0169454-.5847289.0147324-.1740112-.0019726-.3493381-.0082999-.5211726-.0329515-.0877781-.0125945-.1715224-.0651366-.2527855-.1078007-.0768796-.0403572-.1214774-.1085109-.1265525-.1979272-.0023195-.0409396-.0047218-.0820407-.0036203-.1229765.0162594-.6048467.0325188-1.2096897.0499173-1.8145063.0433571-1.5071214.1706954-3.0118119.130045-4.5213718-.0207105-.769146-.0426428-1.5383596-.1180187-2.3044998-.0612443-.622491-.1374849-1.2435317-.1963119-1.8662331-.0230451-.2439691-.0232744-.4907412-.021921-.7361682.0012444-.2254982.0178233-.4509476.0289849-.6763519.0231052-.4666137-.082233-.9022541-.3638794-1.2757881-.2331803-.309256-.2447743-.6166991-.0790676-.9491565.0228496-.045841.0367894-.0975997.0661992-.1384622.235951-.3278246.2728532-.7213512.3659358-1.0962849.001688-.0067913-.0067556-.0160963-.0158985-.036102-.2676615.2548803-.4132967.6119048-.7170446.8475327-.0588759-.051351-.1176578-.0818622-.1456879-.1301905-.396605-.6837651-.7785671-1.374421-.9783113-2.148228-.0747293-.2895114-.1006578-.5854515-.1345112-.8808731-.0186052-.1623943-.0378834-.3264983-.0786428-.4842091-.0969887-.3752962-.051733-.7326701.1099661-1.0785955.0867932-.1856802.1774623-.369865.2742442-.5505199.7315145-1.3654561,1.4111268-2.7559472,2.0251903-4.1782268.0203195-.047064.0432105-.0930571.0624774-.1405306.1100977-.2712434.3049396-.4498092.573165-.5682844.5991048-.2646268,1.2251871-.3188879,1.8679987-.2714068.1105262.0081609.2216577.0410335.3476877.0024573.0449248-.1467959-.0087444-.2805972-.0587594-.4093543-.0111917-.0288166-.0880187-.0490647-.1319134-.0448772-.0997781.0095172-.197872.0366675-.309184.0591869-.0205902-.0660026-.0398308-.1114209-.0485338-.1587761-.0216692-.1179436-.0826917-.1627964-.183169-.1228525-.0363872.0144675-.0720827.0382118-.0993383.0662337-.0353684.0363613-.0575939.0855312-.0930902.1217309-.2369058.2416227-.5614244.2245232-.7732626-.0386119-.0318383-.0395475-.0631691-.0795346-.0960939-.1181596-.0057481-.0067462-.0183045-.0077043-.0433233-.0173587-.0898308.0066504-.1365187.0961456-.204654.1525183-.2214998.1832549-.4842967.1335646-.6127101-.1236904-.035797-.0717062-.0616503-.155248-.0656015-.2346754-.0124549-.2501931-.1170901-.452862-.2902592-.6263854-.0216804-.0217247-.0416353-.0454634-.0602481-.0698971-.0909999-.1194691-.0947368-.2468529-.0219737-.3738478.0554285-.0967317.1206089-.1878801.1724999-.2677359-.0077782-.1270644-.0938759-.1760164-.1611315-.2357763-.249372-.2215831-.3096953-.492928-.232466-.8095896.0446879-.1832493.1197067-.3495183.2386051-.4939772.1042217-.1266267.2119886-.2510657.3265486-.3683123.2489735-.2548108.4248719-.5486187.5217741-.8929106.0498496-.1771155.1108082-.3527045.1847705-.521073.1113721-.2535099.2980073-.4383513.5578718-.545053.138842-.0570086.2773194-.0702371.4184809-.0104331.047124.0199644.0944323.0395522.1420751.0582448.189966.0745261.3616276.0487144.5117402-.0941044.0743383-.0707293.149545-.1405588.2232818-.2119071.2030487-.1964656.4410598-.3334408.7113679-.4129388.2467291-.0725648.4975974-.1230601.7565408-.1222053.2976953.0009825.5953906.0020675.8930858.0019303.2386615-.0001099.4684696.050222.6941236.1217375.3414697.1082197.5996274.3153813.7272664.6561085.0915375.2443608.2423758.4234526.4823869.5289689.055609.0244478.1065902.0619006.1552405.0991862.14653.1123058.2317818.259499.2324021.4468897.0004098.122969-.005718.246092-.0128459.3689182-.0086992.149983.0198083.2826797.1365149.3909388.2632141.2441608.2157404.4656978-.034312.6739895-.357387.2976985-.3064659.3664252-.1525788.7382572.0391541.0946032.080921.1897099.1051616.2885833.0589812.2405951-.0453684.4260499-.2828908.5046413-.0765939.025343-.1601277.0357413-.2411991.0402989-.1668721.0093839-.2973269.0699572-.3710599.2279611-.1944585.4167393-.6692815.294719-.8693828.0585557-.0885601-.1045094-.1445676-.2245326-.1749736-.3552848-.0301466-.12961-.0514849-.2614293-.072624-.3929311-.0487105-.3030527-.1796728-.5637719-.3916426-.7857561-.201466-.21098-.4378568-.369711-.7048604-.4850179-.3798381-.1640353-.7811461-.2444773-1.1875142-.3047332-.039718-.0058896-.0810676-.0007881-.1161954-.0007881-.1704924.2607605-.2968193.7955852-.320981,1.333784-.0278609.6205729.0310977,1.225444.2983645,1.7839425.0272293.0099512.0388759.0186926.0451541.0157995.0547857-.0252566.1086127-.0526022.1767254-.0862414.0445714.0356023.0930488.0697844.135921.1099499.037218.0348715.0652105.0795327.102218.1146804.2679773.2545046.58065.3446968.9347287.2246942.3424133-.116048.5293004-.3730362.5973943-.7208703.0137105-.0700267.0112481-.1430743.0218233-.2138976.0081504-.0546124.0419962-.1026157.0991653-.0966697.0445338.0046309.0962067.0307122.1258495.0640244.0321015.0360795.0388383.0934911.0630977.1380902.0236616.0434908.0467669.1037598.0853496.1195949.1193947.0490084.1634285.142847.1981615.254747.0671578.2163605.2210186.3638834.4021952.4894487.2854058.1978032.6134996.2787674.9449956.3501881.2203683.047481.4448531.0786121.6620446.1372373.1868269.0504286.3689922.1222213.547541.1979441.1587029.0673064.2634923.1876284.3011614.3639736.0962894.4508387.2160074.8975368.2920299,1.3516293.1017067.6074731.136357,1.2223649.1301089,1.839389-.0104549,1.0321459-.1708946,2.0408988-.4474696,3.0339124-.1732179.6219236-.3272516,1.2492409-.5047628,1.8698908-.0790375.2763477-.0748345.533396.0072293.8109084.1422405.4810211.2518795.9718618.3682441,1.4602378.0426579.1790411.067327.3624989.0969135.5444744.0209286.1287101-.0354699.2131461-.1535262.2682695-.2001164.0934403-.4068982.1407485-.6272176.1089824-.1426616-.0205675-.1887104-.0686534-.2138645-.2161407-.0747518-.4383456-.0704849-.8795694-.0239022-1.3189764.035609-.3359366.0955413-.6693878.1482217-1.0033837.0243083-.1541114.0215301-.3026018-.0188083-.4560895-.1406089-.5350886-.2712066-1.072798-.4075335-1.6090232-.0169022-.0664629-.0453947-.129982-.0883195-.2504467-.1903044.5546266-.3522667,1.0584169-.5362741,1.5540332-.1854284.4994506-.3831125.9949148-.5932026,1.4845062-.2095149.4882445-.4410824.9670375-.6714845,1.4684795.0506879.0258671.0907255.0525797.1347443.0677329.2679848.0922624.4972666.2423535.6827326.4562698.0903308.1041881.1793307.2023288.3374095.1570684.1641315-.0469926.3047253-.1222758.3630825-.2982922.0158759-.0478943.0291391-.0980693.0543684-.1408594.0127256-.0215819.0528985-.0441671.0746879-.0393465.0353947.0078302.0803533.030622.0950262.0601337.0216654.0435997.0246804.0983305.0280376.1488267.0149511.2251939.0352819.4504272.0390601.6758917.0180413,1.0776149.1002781,2.1511399.1812217,3.2253788.0817217,1.0845414.1991502,2.1648221.335011,3.2431978.142248,1.1290166.3138005,2.2536936.5169132,3.3738768.1883871,1.0389654.3878005,2.0753006.6210635,3.1051433.0177293.0782796.0180677.1604969.0274887.2504129-.0674624.0415295-.1234097.0861587-.1868307.1134555-.7089431.3051305-1.4466982.5168507-2.2025811.6670827-.0881541.0175241-.1808345.0123052-.2836539.0183507-.0343346-.0752062-.0719022-.135864-.0906578-.2018573-.235654-.8289886-.4256463-1.6683961-.5575034-2.5202103-.1287292-.83166-.1998608-1.669343-.2579585-2.5085739-.0589285-.851228-.2042254-1.6886442-.4308343-2.5117751-.4270598-1.5512472-.8528603-3.1028401-1.2799427-4.6540797-.0239661-.0870341-.0548345-.1721746-.0953872-.2983335-.0426015.0952927-.0752819.1474628-.0898984.2042732-.1791239.696059-.3041539,1.4018982-.3829433,2.1163416-.1317443,1.1946154-.1550412,2.3942167-.1849435,3.5942726-.0291278,1.1689229-.0775451,2.3375904-.1357443,3.505465-.0290752.5834038-.0981202,1.16485-.1506578,1.747044-.0193383.2142451-.0404849.4284113-.0660902.6419801-.0132368.1104384.016718.2042394.0898646.2829774.2470337.2659343.3033795.5985344.3233532.9398515.027203.4649323-.0380037.9224026-.1634811,1.3685484-.0547368.194617-.0669812.380904-.0135789.5721657.0570751.2044461.0702255.4251199.2043683.5971104.2970825.0428708,2.6648778.0585576,4.1945647.0283113.0600075-.0011911.1198458-.0109563.201639-.0188316-.0033045-.07013.0019925-.1285674-.0098872-.1832774-.1074999-.4949907-.1409698-.9942911-.0956052-1.4988328.0314511-.3497485.1160638-.6866845.2474998-1.0117888.0227368-.0562393.0475752-.1181972.0899435-.1576902.0295301-.0275335.0909097-.0286795.1375601-.0270751.0256391.0008755.0507744.0311255.0752368.0493371.3063005.2280006.5642665.2369016.869428.0175165.0991879-.0713098.1902517-.1572882.2728006-.2477039.2568983-.2813806.3210637-.2575067.5217891.04437.1756766.2642022.3644283.5219494.5693455.7639947.3422667.4042857.7785182.6715088,1.30486.753448.2818043.0438703.5723191.0304642.8586385.0473458.1527518.0090063.3056802.0222207.4571613.0433367.1157217.0161301.2097179.0799291.282496.1719154.0724135.0915204.086733.1988139.0087556.2815234-.1117556.1185354-.2327818.2324417-.365402.3264043-.3046088.2158232-.6504995.3451119-1.0094166.4404835-.1234247.0327975-.2476728.062514-.3778719.0952251.0535225.0782533.1194698.0639681.1780788.064171M22.5022945,21.013491c.0806052-.0064287.1614482-.0107215.241778-.0196357.4400138-.048828.8789928-.0920126,1.2694089.1828359.0320028-.0297146.0550084-.0497316.0765037-.0712554.1409266-.141098.2064707-.1353812.2810881.0509077.0811973.202714.2213617.3439058.4071614.4428225.126154.0671599.2578701.1256799.3913813.1769163.449448.1724827.9008011.340002,1.3514483.5093624.2211032.0830909.4453192.1549117.6806959.1856727.2595384.0339209.5124686.0099399.7533275-.0963898.2170863-.0958356.2427855-.1419039.2265036-.3762543-.009953-.1432584-.0287143-.2862388-.0317406-.429593-.0162913-.7714436.2578118-1.4003446.9112362-1.8426579.2200844-.1489751.4563211-.2272529.7246912-.2029525.0676654.00613.1370732-.0069491.1967311-.0106444.0774624-.1553156.0313628-.2879577-.0344248-.3999779-.1845487-.3142363-.2721445-.6601223-.3752479-1.004154-.1629435-.5436835-.4051275-1.0515937-.7639581-1.4980739-.1627555-.2025129-.3525279-.3724125-.5843549-.4916261-.2210186-.1136546-.4499264-.137506-.6826903-.0386683-.2356737.100072-.4704423.2024528-.7035033.3084444-.2518748.1145489-.4978897.2425451-.7525953.3501749-.4164574.1759751-.8441028.3163197-1.2976372.3652755-.5309733.0573139-1.0220294-.0305206-1.4462715-.3779489-.0317293-.0259836-.0657406-.0491718-.0977349-.0748473-.2858118-.2293758-.5968924-.2475179-.925193-.1083456-.1524943.0646425-.296324.1488136-.4045448.2742267-.1401681.1624338-.2817442.3272009-.3957262.5079628-.285231.4523359-.5109931.9355757-.6850521,1.441378-.073234.2128098-.132373.4305323-.1956296.6466899-.0823872.2815252.0010019.5279704.1752753.7474457.2710205.3413114.6424826.4862907,1.0759081.5426728.0125573-.063474.0327321-.1119807.0297547-.1590222-.0200836-.3172591-.0475883-.6340503-.0676447-.9513132-.014875-.235286-.0264342-.4709759-.0306616-.7066433-.0016729-.0932187.0917368-.148141.1729181-.1071169.0724078.0365961.1446672.0791288.20531.1323397.2410478.2115098.3804979.4810962.4234123.7973521.0402932.296949.0278816.5935804-.0317913.8876645-.0283308.1396213-.0579003.2789928-.0869191.4184639-.0696729.0056341-.1409247.0045538-.2082057.0203646-.0252378.0059309-.0412415.0511181-.0614548.0784093.0261532.0091584.0590939.0331469.0772556.0248452.0692687-.0316684.1523025-.0462204.1911925-.1251069Zm21.4730638,21.7991971c.0930789-.2496389.0924511-.4599539.0507255-.6766412-.0452067-.2348051-.1348608-.4512595-.2422931-.6616646-.1146165-.2244687-.1691089-.4601831-.1515713-.7122154.0071165-.1023113.008297-.2051224.0180188-.3071519.0583496-.6124327.1183082-1.2247114.1779059-1.8370276.0317895-.3265772.06853-.6527486.0949774-.9797541.0605563-.7486574.0656503-1.4944744-.0910225-2.2358314-.1382931-.654383-.1989999-1.3167089-.1683006-1.9871694.0159436-.348223.0213759-.697731.0117256-1.046108-.0105075-.3789953-.0273722-.7592718-.0708872-1.1355919-.0967894-.8370555-.3058381-1.651725-.5304545-2.4621524-.018641-.0672557-.0502894-.1309119-.080765-.2086618-.0576785,0-.1072105-.0008755-.1567029.0001503-.2271352.0047229-.3642309-.1120766-.43312-.3203889-.0225244-.0681086-.0437143-.1366888-.0639887-.2055019-.4358719-1.4792254-.720804-2.9871565-.8752813-4.5212986-.1038665-1.031494-.1760243-2.0642316-.1801596-3.1011399-.0021297-.5334373-.0011485-1.0668934-.0000526-1.6003382.0020038-.9749635.0508101-1.9480652.1120206-2.9208683.0347819-.5527574.0567537-1.1063282.0822894-1.6596341.001985-.0430606.0240131-.1050316-.0553289-.1156291-.0425958.0819806-.0805056.1661009-.1285262.2439936-.0419755.0680823-.1416728.0634759-.1780939-.0065565-.0280733-.0539868-.0452143-.1136171-.0677161-.1705402-.0300019-.0758937-.0503327-.1578818-.0926766-.2261952-.1266916-.2043972-.3122103-.1946696-.4211501.0176443-.0233233.045454-.0400883.0942613-.06003.1414568-.0997387.2360506-.198498.472522-.2998983.7078569-.0323308.0750333-.0661936.1506208-.1105225.2186919-.018797.0288674-.0707124.0592207-.0998101.0529441-.0432688-.0093331-.0969755-.0422095-.1152518-.0800268-.0350808-.0725892-.0459154-.1564897-.071233-.2342603-.0665357-.2043822-.1251522-.412208-.2065638-.6106142-.068953-.1680453-.2184735-.2407303-.3968869-.2377508-.163342.0027278-.3012836.1201735-.3562291.2928122-.0185977.0584317-.0273327.1199556-.0415432.1798357-.0135639.0571542-.0561109.0973198-.1082913.0840621-.0419041-.0106463-.0948571-.0529028-.1064041-.0919243-.0227744-.0769589-.030062-.1618345-.0264812-.2426729.0158722-.3584598.0327631-.7170397.0600507-1.0747556.0116278-.1524506.0419943-.304736.0779849-.4536829.0305338-.1263543.1394341-.152616.2319378-.0631734.0513909.0496903.0980394.1050899.1416146.1619097.2128044.2774767.3969471.5731614.5551989.8849122.0324831.0639906.0574812.1325144.0958195.1926519.0905826.142088.2262856.2035443.3925881.196071.1508063-.0067763.1995732-.1246335.2507592-.2381697.0042143-.0093463.0086522-.0186512.0120113-.028315.1447499-.4161644.2905562-.8319681.4321914-1.2491902.0138177-.0407029.0018477-.0901489.0018477-.1582209-.1089078.0551685-.1910995.0953049-.2719284.1380179-.2781351.1469763-.576009.1538935-.8699016.0880392-.3510204-.0786535-.5951236-.3083514-.7578566-.6255739-.049327-.0961522-.0966371-.1933357-.1613176-.3230228-.0799868.2177864-.1982875.3838648-.1050244.5916313.0108515.0241773-.003141.0603733-.008047.0906036-.0804755.4957525-.1559303.9923964-.2431634,1.4869645-.2332329,1.3223223-.496244,2.6388696-.790007,3.9490915-.3094584,1.3802298-.6657195,2.7487613-1.043159,4.1118222-.021656.0782101-.0505075.1562925-.0897011.2268396-.0148195.0266787-.0713928.0480672-.1035262.0422114-.0318722-.0058069-.0723665-.0446292-.0813326-.0767147-.0130583-.0467164-.0075846-.1015035.00125-.150835.018047-.100784.0435676-.200236.0660695-.3002216.1757123-.7807861.3043043-1.5696411.4007967-2.36376.0841748-.6927488.1276672-1.38865.1578909-2.0856652.0387331-.8932835.0044192-1.7842751-.0720545-2.6742728-.0166823-.1941454-.0377331-.3879565-.0516146-.5822897-.0095789-.1341244.0304643-.183501.1708645-.2033752.1420732-.020111.2863344-.0246648.4285223-.0441577.0557406-.0076405.1084492-.0373645.1586277-.0556099-.0223816-.1412407-.0536485-.2607042-.0568439-.3809153-.0030996-.1165628.022641-.2338939.0379774-.3711331-.093624.0204209-.1627536.0326228-.23031.050701-.4496538.1203257-.9064749.1709215-1.3713148.1408481-.1021447-.0066053-.2038777-.0206802-.3055186-.0335414-.088562-.0112099-.1627123.0172723-.2219679.0806016-.0419135.0447946-.077656.0953716-.1159586.1435195-.4256275.5350304-.9569805.927614-1.6036323,1.1496311-.2107799.0723694-.3521689.1871869-.4491444.3846294-.0717838.1461478-.1627894.286669-.2662836.4123864-.1031691.1253192-.2259002.2372605-.3522554.3400922-.1415055.1151613-.3148945.1432002-.4944771.1279136-.1732969-.0147568-.2359698-.0899648-.2152856-.2627744.0173346-.1448459.0701898-.2777022.1514679-.3988658.1341804-.2000181.3056633-.3591436.5240015-.4630781.1201728-.057203.2398758-.1245395.3675091-.1549042.2207536-.0525214.3462949-.1929149.4534865-.3802239.269934-.4716954.5529169-.9359214.8295445-1.4038069.0573721-.0970417.1142274-.194895.1624886-.2965629.0194417-.0409574.0151334-.0931764.0247462-.1627842-.1110432.0063442-.2028814.0030368-.2915505.0182145-.3015881.0516225-.5920278-.0083572-.8818753-.0781312-.0491936-.011843-.0989548-.0287903-.1430055-.0532015-.1615262-.0895111-.2126841-.2571817-.1245413-.4204308.0336278-.062281.0848514-.1151745.1288364-.1717416.048968-.062979.0988214-.1252675.1472161-.1864956-.0581973-.0581799-.1051785-.0345831-.1488721-.0082182-.2063138.1244869-.360746.3013591-.4981237.4955646-.717945,1.0149356-1.2379239,2.1230296-1.5626098,3.3224374-.0346936.1281597-.0655488.2596127-.0770432.3913831-.041547.4762606.0750319.6558727.534415.7913235,1.0021196.2954742,2.0270004.4158356,3.070885.3689126.1021033-.0045895.2058438-.0152603.3047253-.039679.179154-.0442422.2521126-.1669764.2073532-.3488016-.0243101-.0987644-.067968-.1930107-.105639-.2882132-.175139-.4426233-.1906296-.8991073-.1147067-1.3621046.0130583-.0796341.0419755-.1595369.078483-.231788.0547293-.1083117.1466616-.1692721.2739942-.1623023.1287067.0070431.2038946.0817232.2490487.1959583.0546541.1382668.0486146.2807832.0364962.4249283-.0524097.6233683-.1021165,1.2469659-.1550187,1.8702947-.0806522.9502404-.1625638,1.9003757-.2450092,2.850464-.0710714.8190167-.2155337,1.6248866-.4297516,2.4188195-.178904.6630417-.339605,1.3299553-.4518963,2.0086649-.1610976.9737048-.2330788,1.9546856-.2654303,2.9393129-.0073947.2250323.0079944.4510021.0185714.676273.0021241.0452774.0299699.0893468.0519924.1508256.0555112-.0275053.0990902-.036226.1216691-.0627789.0593609-.0698088.1147875-.1442034.1625676-.2223947.2357517-.3857941.4290918-.7930932.6084958-1.2075236.3708776-.8567569.6846743-1.7348421.985614-2.6178738.0423703-.1243291.094312-.2453969.1420394-.3685293.0886841,0,.1607818-.0116307.2271803.002848.0893984.0195004.1741634.0598181.2613325.0900024.8043002.2785119,1.6126925.5413502,2.4587313.6669399.6550371.0972371,1.3079258.1057587,1.9582355-.0349786.1101747-.023842.2183288-.0570866.3286107-.0803236.1031616-.0217341.1663401.0183563.1695544.1178647.007641.2364489.0289398.4695463.0904774.6994236.0285094.1065045-.0178609.1737132-.124671.2143729-.0475056.0180839-.0988082.0260719-.1481822.0394009-.5951518.1606829-1.2003676.1307259-1.8048408.0880148-.3272103-.0231206-.6532702-.0637182-.9794335-.1001415-.7391254-.0825348-1.4540497-.2498944-2.1146207-.6072082-.0606259-.03279-.1289003-.0514563-.2092912-.0827865-.0239661.1073104-.049344.195329-.0625188.285136-.0297631.2028473-.0552932.4063672-.079342.6099905-.0757593.6414316-.1532649,1.2826865-.2238175,1.9246967-.0515206.4688493-.1017856.9381325-.1372555,1.4083795-.0617518.8186935-.0780639,1.6390854-.0757687,2.4602062.0030771,1.100371.1136165,2.1904582.2850863,3.275939.093233.5902158.1343063,1.1825807.0247895,1.7757836-.0483665.2619704-.0993364.5236777-.158077.7834801-.1460394.6459366-.1859209,1.298005-.1254341,1.9566713.0262613.2859645.0641691.57114.0813627.8575929.0258195.4301397.0347011.8607866-.0201748,1.2904228-.0597349.4676902-.123515.9351662-.1676145,1.4044156-.0189981.2021316-.0053233.4098014.0159699.612598.0238609.2272679.1138364.295602.3461483.3019067.0612951.0016645.1228759-.0061808.184295-.0101147.1331616-.0085291.2662611-.0180501.3994621-.0258953.259575-.015296.4848173.0610862.6700503.2484178.0408026.0412664.0713796.1038067.146154.0937334.2512667-.3032368.6416706-1.0624974.7324844-1.4080151.0860751-.3274902.0720921-.6490063-.0310658-.9697221-.0564624-.1755374-.107498-.3528182-.1607837-.5293738-.1001221-.3317359-.1013345-.667759-.035641-1.00468.041171-.2111604.0932894-.4201753.1386409-.6305467.0651766-.3023238.0991465-.6078901.0690695-.9167742-.0228458-.2346134-.0578496-.468017-.084889-.702251-.0387237-.3354782-.0962744-.6684165-.0268816-1.009572.0558646-.2746362.1529642-.5323345.2730844-.781361.2178382-.4516051.3166464-.9309091.3436313-1.4257796.041921-.7687327.1220845-1.5325471.2435073-2.2929161.1587818-.9943174.4034978-1.966925.7137269-2.9238572.0251598-.0776108.0543345-.1550338.092359-.2268772.0170489-.0322113.0639586-.0736844.0913007-.069698.0438721.0063912.1022932.0377985.1199623.0750371.0479737.1011165.0804793.2099881.1143777.3172816.3735542,1.1823102.7559769,2.361949,1.11605,3.5483584.293716.9677645.4373869,1.9595081.3955298,2.9745169-.0092876.2252352.000859.4512971.0032068.6769681.0026842.2577922.0423346.5105722.1088815.7591816.0609398.2276662.1236202.4548778.1862085.6821006.1154473.4191045.1673551.8459377.1288721,1.2790344-.0381071.4288509-.0832481.857499-.1416428,1.2840016-.0578909.422843-.0380733.8386937.059483,1.2521359.1449228.6141949.4071426,1.1804842.7142608,1.7277277.0180827.0322189.0579229.0522415.0943439.083739.4706482-.2291165.9681215-.3430868,1.4821474-.4042481Zm11.7525067-1.0262695c.062124,0,.1133796.0084389.1608082-.0014541.210545-.0439153.4210862-.0887324.6296086-.1412483.4278456-.1077519.8467814-.2442058,1.2543751-.4133596.1658006-.0688075.1857818-.1035437.1535412-.2825904-.0344774-.1914646-.0855789-.379882-.1225638-.5709596-.1811164-.9356283-.3656576-1.8706517-.5381086-2.8078919-.2096765-1.1395746-.3654584-2.2875957-.504353-3.4375969-.081124-.6716741-.1498194-1.3450765-.2106051-2.0189186-.0654097-.725039-.1216653-1.4510587-.1694021-2.177473-.0369774-.5627424-.0543646-1.126766-.0811804-1.6901847-.0062556-.131406-.0085752-.2636705-.0397519-.3905584q-.197357.0161019-.3830411.1378629c.0140639.0720256.0304173.15051.0446165.2293814.0482481.2680008.0509849.5329132-.0853496.7790202-.2654133.4791274-.589086.9137608-1.0080218,1.2711103-.1650901.1408199-.3511915.2433943-.5636951.3041912-.2175713.0622472-.4056576.0089687-.5837364-.1075528-.1407631-.0921065-.1544849-.1627062-.0745375-.308234.1134435-.2065088.2281201-.4123489.3400148-.6196918.0229812-.042589.0546353-.0884356.0060752-.1577954-.0393797.0154538-.0838082.0311818-.1268119.050145-.0749285.0330455-.1474473.0721064-.2238419.101094-.0686654.0260531-.1509849-.0331432-.1507104-.1068915.000188-.0505545.0087331-.1016876.0187857-.1515057.0785902-.3895308.2527931-.7352213.4924846-1.0486292.2895787-.3786271.643789-.657742,1.1518563-.707825-.1571615-.2927013-.4943869-.1740213-.6986198-.3242007.0099474-.1778218.0089962-.1783084.0843308-.3251701.7602739-1.4821354,1.3605066-3.0272901,1.834322-4.6232811.06653-.224093.0848533-.4389994.0263797-.6644413-.0827255-.3189686-.1197029-.645946-.1319849-.9737818-.0147218-.3929424.0308759-.7789018.2159284-1.13559.1650488-.3181214.4039584-.5666293.7191198-.7376824.1141277-.061941.2044923.0012399.1993344.1310641-.0020226.0510448-.0075789.1025293-.0176504.152584-.0909887.4520579-.1765675.905352-.2772291,1.3552682-.0961653.4298128-.2106089.8555076-.3123156,1.2841274-.0302895.1276506-.0689323.2516866-.0338383.3921665.1440375.5765674.2755412,1.1562514.4158456,1.733775.011703.0481686.0105564.1202694.0999586.1363919.0224812-.05982.0484586-.1148945.0641203-.1727589.1579172-.5835466.3162329-1.1670011.470338-1.7515621.2150487-.8157666.3402216-1.6458279.3797704-2.4883145.0328308-.6992978-.0187744-1.3952158-.1272743-2.0849663-.0635714-.4041448-.1719209-.8011019-.2537479-1.2025884-.0388195-.1904708-.1489285-.3112831-.3263344-.3742799-.1348796-.0479-.2704246-.0967749-.4093418-.1298317-.2091803-.0497786-.4214132-.0868707-.6326123-.1280207-.4272854-.0832562-.833943-.214339-1.1774616-.4966157-.0188308-.0154763-.0510601-.0146629-.0933759-.0256793-.003797.0739775-.0114586.1335589-.0092218.1927684.0537782,1.4261591.0194474,2.8512229-.0546165,4.2756706-.0165075.3174432-.0402143.634691-.0688909.9512793-.051797.5718388-.1014323,1.1440834-.1676465,1.7143423-.0661954.570071-.1512931,1.137959-.2290487,1.7066736-.0068985.05047-.0165827.1013852-.0325864.1495707-.0184511.0555818-.0952894.095753-.1497405.0771618-.0675977-.0230755-.13303-.0529836-.1982217-.0825404-.8430558-.3822397-1.716277-.6728933-2.6220771-.8652484-.1101428-.023393-.221169-.0455084-.3281088-.079698-.0432067-.0138156-.0765413-.0584636-.1262706-.0987118.0434962-.0904044.0852744-.171038.121624-.2540462.0862067-.1968939.183451-.390316.2520788-.5932968.2552517-.7549021.2753306-1.5276983.1553721-2.3093486-.0434925-.2833851-.0918195-.5667777-.1171728-.8520095-.0335752-.3776671.0466353-.7333972.2559509-1.0564462.100312-.1548253.1962818-.3129156.2857442-.4742222.2526126-.4554601.4030937-.9410426.4086463-1.4652839.0007068-.0668011-.0242819-.1338745-.0382631-.2054004-.088109-.0095097-.1582668-.0215369-.228748-.0238495-.2051502-.006735-.4105072-.0072873-.6156349-.01446-.3527479-.0123315-.6927288.0502201-1.0292925.1523436-.3689509.1119507-.611789.3400283-.7635934.6979151-.6249056,1.4732475-1.3337284,2.9064722-2.0931564,4.314925-.0777669.1442315-.1536803.2904714-.2163232.4416276-.1166315.2814351-.1443458.5704505-.0772969.8732947.0529436.239141.0761729.4848836.1118232.7278082.0208045.1417592.0335338.2850289.0611654.4254036.1488006.7559222.4937252,1.4297924.8832099,2.0840965.0124511.0209169.0515338.025993.0982819.0478361.2761276-.3559348.5519733-.7113775.8131197-1.0780601.0562819-.0790311.0666353-.1678368.0244925-.2624438-.0458195-.1028467-.085109-.2088102-.1230525-.3149107-.0965751-.2700279-.2015562-.5376699-.283887-.8120488-.2064059-.6878681-.1536766-1.3579115.1713119-2.0018003.0784849-.1555053.1612104-.3091921.2491088-.4595556.1241841-.212436.2483269-.4254562.385011-.6298609.1152894-.1724094.1446014-.343671.108124-.5513014-.0799699-.4551765-.1212706-.9148035-.0354473-1.3769215.035921-.1933996.0892556-.3796303.1851653-.5507209.0325113-.0580071.0890263-.1025743.126451-.1442466.139436.0288598.1858495.1241788.234466.2132945.1843269.3378716.2167818.7009021.1686615,1.0753229-.0421992.3283844-.141857.6406425-.287669.936562-.0664172.1347857-.0801278.2665129-.0673609.4151837.0359511.4186085.0719022.8383085.0791917,1.2580743.0203421,1.1713821-.1888645,2.3052193-.5969808,3.4027441-.0642744.1728528-.1347856.3433986-.1983457.5165031-.0153534.0418206-.0459774.0935455.0261767.138791.1003909-.0799667.2019848-.1643068.3075073-.2434168.0481955-.0361302.1019059-.0671223.1572104-.0909586.0542594-.0233836.1376164.0340149.1312142.091186-.0078459.0700699-.0190225.1430311-.0465564.2071006-.1630149.3792921-.3746689.7292698-.6505371,1.0381425-.0259549.0290609-.0641165.047233-.093218.0680335-.0743082-.0248489-.1387555-.0464008-.2051314-.0685971-.0938383.1021235-.1364398.2188215-.1737706.3339509-.0495451.1528038-.0349097.3043584.0583721.4414717.0345827.0508325.0737857.0985785.1074398.1499821.2181991.333252.3509095.69883.3597591,1.0966362.007515.3376312-.0202519.6759236-.0266729,1.0140357-.0036842.1942225-.0090263.3899065.0092819.5827613.042624.4489976.0970338.8969318.1504999,1.3448398.0754172.6317903.1171428,1.2658801.1476728,1.9012436.0517368,1.0767638.0490676,2.1534751.0039774,3.2299984-.0403421.963282-.0939323,1.9260042-.1357743,2.8892299-.0160225.368828-.0175714.7383512-.0212744,1.1076-.0007895.0785539.0177556.1573032.0250263.2166235.1690713.1124373.3334095.1211129.4982139.1198654.2052179-.0015555.4105561-.0058351.6155447-.0153223.2619547-.0121248.5107139.0273719.7402814.1615527.0137331.0080256.0381616-.0022243.0726202-.0053128.0102669-.0540826.0255075-.1117572.0317105-.1703824.1154811-1.0917066.1907969-2.1866483.2331051-3.2832018.0391541-1.0146481.0518345-2.0302844.0807293-3.0453571.0347368-1.2204355.0989285-2.4386242.3004359-3.6455335.0946465-.5668679.2236427-1.1255374.3914208-1.6751254.0237782-.0778701.0539661-.1551052.0924924-.2265428.0167895-.0311255.0663421-.0694575.0935902-.0644152.0437293.0080895.093842.041304.1183608.0788432.0324887.0497429.0454661.1131436.0624022.1719492.0538721.1870685.106718.3744452.1581465.5622051.4141388,1.5120435.8214769,3.0259844,1.2442435,4.5356158.2330901.8323175.388214,1.6770642.468214,2.5360774.0494361.5308091.080936,1.0632751.1292217,1.5942044.1033646,1.1364899.3354772,2.2492111.6344093,3.3489095.0182105.0669814.0510075.1300064.0791917.2002905Zm-30.8810139.7203612c-.0051682-.0969872-.0025404-.1584717-.012562-.2178221-.0670554-.3970942-.0774013-.7985694-.0415244-1.1963851.0551954-.6120156.1300384-1.2227538.2148918-1.831478.0991992-.711633.1769162-1.4230931.1728251-2.1433454-.006063-1.0677801-.1065159-2.1292292-.186233-3.1924404-.0643975-.8588817-.1229087-1.7188116-.02075-2.5798499.0604671-.5096367.1384416-1.0153658.3004876-1.504326.0288242-.086974.0620639-.1736475.1050977-.2541401.0153769-.0287659.0672904-.0556795.0997227-.0527262.0327716.0029871.0752528.0378774.0901202.0696942.0299586.0641071.0499633.1344475.0638345.2042507.2521013,1.2687206.4002121,2.5509901.4893371,3.8402857.0721578,1.0438611.0956588,2.0896911.0949915,3.1358141-.0010874,1.7023321-.0079897,3.4046641-.0119784,5.1069962-.0002406.1024767.0008778.2051036.0062509.3073999.0053731.1023076.0554736.1744741.1588636.2004445.1091738.0274208.2176944.0658843.3286511.0760328.2445478.0223635.4903173.0362392.7358435.0413416.1607179.0033402.269153-.0840771.3192432-.2392875.0094323-.0292281.0231729-.0570922.0322631-.0864067.216045-.6966677.3668588-1.4067714.4521012-2.1315775.0756917-.6436221.0848176-1.2893031.0652462-1.9351382-.0254624-.8403582-.0611485-1.6804834-.1012762-2.5202892-.0363646-.7610753.0075132-1.5189156.1178289-2.2698312.1280243-.8714686.2901802-1.7380302.4437572-2.6056175.1325619-.7488754.2210882-1.501354.1981672-2.262914-.0142124-.4721482-.0621447-.9416137-.2025487-1.3956291-.084921-.2746099-.1386616-.3033533-.4247741-.2686321-.0101842.0012362-.0204474.0021191-.0305131.0040166-.3937798.0742706-.7931508.0954486-1.1910978.1340568-.7705455.0747534-1.5381728.0402219-2.3043236-.0353393-.8484139-.0836714-1.6807169-.255489-2.4937106-.515731-.0755958-.024197-.1531296-.042341-.2422705-.0667128-.0279708.0725892-.0556569.1262623-.0695018.1832906-.0993044.4090011-.1587959.8241661-.2027282,1.2427783-.0829219.7901324-.0546494,1.5758707.0573317,2.3610453.0958176.6718319.2652038,1.3263915.4685241,1.9714225.4253456,1.3493974.6340625,2.7317163.6740719,4.1433234.0328252,1.1581432.0683092,2.3162902.1148514,3.4739375.0354896.8827668.1546644,1.7556895.3771003,2.6121477.0565789.2178446.1269962.4324767.1997978.6455984.0439238.1285861.0872499.1441376.2396831.1161795.0292387-.0053654.0564436-.0218149.0808599-.0316478.0136682-.0211912.0311588-.0369869.0346541-.055439.044281-.2337004.19131-.3477796.4206219-.3821777.1194257-.0179111.2354726-.0583096.3787723-.0951725Zm18.3154363-14.3939175c.1151992.013175.1615356-.0637107.2101258-.1252215.1824754-.2309989.2680957-.5027195.3269114-.7869537.0914623-.4420391.0363045-.8814649-.0400376-1.3145785-.1048571-.594856-.240872-1.1842828-.3663813-1.7754322-.1492537-.7029799-.2631953-1.4095593-.2780938-2.1307603-.0159549-.7723942.0519285-1.5357746.2010506-2.2931471.0195526-.099298.0359887-.2041154.0259004-.3035393-.0633533-.6244467-.0415714-1.2500393-.0316485-1.8752863.0020865-.1313665.0275676-.2649217.0610018-.3925648.0383571-.1464333.1412349-.2389813.283528-.301469.1557142-.0683848.3930448.0239396.4394922.218087.0211278.0883285.0275864.1831835.0224098.2740388-.0069662.1223528-.021906.2460093-.0503383.3650745-.1213345.5080905-.2452028,1.0156457-.3757215,1.5214462-.0674699.2614575-.0947932.5200707-.0564736.7905438.0618045.4361965.1034623.875209.1565901,1.3126754.0704323.5799396.1522067,1.1586392.2134134,1.7395256.0633458.6012209.1222969,1.2036179.1559698,1.807018.0250977.4496908.0062519.9018013.0084586,1.352826.0004398.0899799-.0256654.1854097.046718.2702909.0238646.0071257.0529736.024336.0811503.0229289.3148644-.0157412.5838229.0872427.8101536.3051643.0146804.0141331.0316842.0262391.0488684.0373382.1106165.071447.202763.046645.2340976-.0827903.0890864-.3680653.1904397-.7354449.244575-1.1092269.1359247-.9385534.1100826-1.881963.0264962-2.8237608-.0389473-.4389017-.0961691-.8761502-.1413683-1.3145353-.0484774-.4701268-.1206766-.934084-.2875675-1.3802129-.1165262-.3114916-.1519247-.6374958-.1253157-.9686437.0180601-.2248031.0354661-.4502751.0688421-.6731037.0674548-.4503014-.001406-.8782862-.1887029-1.28932-.0892142-.195793-.1799172-.3912929-.2798043-.5817656-.2162217-.4123169-.2981013-.8471795-.2441502-1.3092863.0142594-.1220898.0211203-.2452673.0261955-.3681574.0112782-.2731934-.0995638-.475665-.3525261-.5931577-.0743345-.0345296-.1469736-.0728259-.2220111-.1057042-.309669-.1356837-.6196161-.2707399-.9301046-.4045412-.4259076-.1835404-.8287287-.4050822-1.1838544-.7071299-.0280413-.0238476-.065827-.0362486-.1155883-.0627639-.0440789.1103012-.0669154.211337.0382613.2525602.1326484.0519917.1832611.1516635.2338382.2657239.2160111.487138.4347328.9730736.6517044,1.4597869.0249868.0560514.0494229.1129952.0665939.1717218.0224436.0767636.0010771.1429484-.0706804.1848236-.0959059.0559669-.1934078.109206-.3109998.1752875.0646372.0500228.1087349.0899498.1582724.1212801.1038683.0656927.2149848.1206413.3152329.1912016.2033871.1431476.2868663.3418487.2432837.5884311-.0178045.1007314-.0415827.2005836-.0665507.2998515-.4065937,1.616519-.6409582,3.2568143-.6802683,4.9239254-.0152387.6462559-.0011823,1.291798.0402857,1.9371597.0375282.5840143.1082556,1.1633283.2195205,1.7374948.1698213.8763362.4292102,1.7296345.6743623,2.5864872.0163214.0570377.0444981.1106864.0648834.1603598Zm-19.2817693-12.5981583c-.241701-.2705088-.407339-.5504541-.5098408-.8674239-.1949463-.6028403-.2021192-1.2093064-.0344238-1.8176117.1500882-.5444377.416527-1.0234026.8285868-1.4153879.0666654-.0634167.1373411-.1239947.2126192-.1766693.1102264-.0771252.2030779-.0323419.2125309.0969487.002235.0305788.0016645.061601-.0004727.0922202-.0112519.1612268.043594.3052949.1305685.4339966.0799031.1182385.1719181.2294143.2676041.3355928.1097452.1217789.229826.2342189.3446727.3514486.2064049.2106851.350699.4589263.3944189.7502581.0378355.252115.0567547.5084625.0633242.7634706.0065902.2558234-.0096588.512434-.0213139.7684528-.0066739.1466024.0331588.250612.1769435.3228124.2057301.1033033.2763851.2898928.2592385.5150171-.0060733.0797393-.0009718.1603316-.0009718.2382637.2530064.2243447.5187844.2447544.8046009.1017308.0457744-.0229083.0897575-.0494724.1340591-.0752231.4532769-.2634808.8815473-.5626597,1.2806448-.9026918.0935413-.0796999.1824792-.1652649.2690806-.252547.3473907-.3501185.4859395-.7744532.4412253-1.2618034-.0093647-.102069-.0210338-.2040422-.0354436-.3055175-.0844304-.5945085-.2590994-1.1592432-.5687308-1.6769336-.2176897-.3639698-.4837703-.6871532-.8291047-.9395227-.3283033-.2399206-.6846048-.4172709-1.0965509-.4438801-.4936575-.0318863-.9412587.060516-1.2388412.5130709-.0302086.0459396-.0891926.0729762-.14367.1157268-.0484962-.0457066-.089639-.0757538-.1197302-.1143967-.1130056-.1451248-.2670346-.1815115-.438557-.1693078-.0608449.0043294-.12142.0189255-.1810093.0333977-1.2123723.2944325-2.1950605.9388962-2.9423804,1.9376181-.1605553.2145664-.2757799.4547538-.3598419.7101526-.1125629.3419896-.1266813.6826755-.0040611,1.0251216.0805507.2249572.2027527.4254205.3578597.6056113.3454631.4013306.7635314.7121928,1.2238929.9685141.0619896.0345146.1313016.057049.1989472.0800643.3132009.1065702.5856255.0567691.8007711-.2113727.0313035-.0390139.0691315-.0727996.1233552-.1292005Zm33.1059324-3.9271489c-.0478383-.0650192-.0723684-.1115364-.1086766-.1454555-.1725187-.1611704-.2193983-.3627694-.2012329-.5883832.0065789-.0817082.0066353-.1639245.0124586-.2457106.0140489-.1972227-.0712593-.3400762-.2464923-.4215533-.305902-.1422392-.5066387-.3735998-.622368-.6872039-.0832481-.225579-.2496878-.3724163-.471244-.4560331-.1049774-.0396207-.2126389-.0779246-.3225261-.0977706-.4987102-.0900635-1.001597-.0795618-1.5031606-.0351129-.4766087.0422368-.8915031.2232664-1.2164728.587364-.0541353.0606551-.1200375.1122607-.1858645.1607787-.186154.1371979-.3864997.1845079-.6063304.0821196-.0371316-.0172958-.0754624-.0320235-.113139-.0481592-.1912705-.081912-.3662291-.0426726-.5121575.0930552-.0884435.0822567-.1679623.1814983-.2258983.2871274-.063327.1154609-.1098007.2439588-.1415638.3722284-.1167029.4712417-.349699.8710694-.6984281,1.2084685-.1024548.0991261-.1887781.216074-.2749735.3305101-.094218.1250881-.1457743.2704835-.1667179.425242-.0233346.1724489.0181428.3256961.1472706.4489581.0445188.0424932.0922443.0817871.1349924.1259372.1710036.1766007.1879736.3195548.061921.5223326-.0269925.0434213-.0609624.082454-.0905789.1243141-.054906.0776071-.0483834.1532284.0109436.225192.0260677.0316158.0527293.0630569.0819135.0917383.1610149.1582482.2463081.3460099.2538494.5751114.0029173.0886949.0402293.1788344.0745864.2631408.0300789.0738066.1169811.0901621.1807856.0390027.0798157-.0639925.1500563-.1405532.2327179-.2002191.1386202-.1000551.2693457-.0849038.3836689.0411049.0477481.0526304.0835676.1162265.123624.175637.1043759.1548253.3213118.0987607.3944734-.0116871.027624-.0416948.0328158-.0985916.061609-.1390502.027827-.0390985.0688909-.0867016.1109962-.0947573.2352292-.0450087.4693643-.0664967.6581349.1323528.0152744.0160888.0482782.015358.1016014.0306089-.0192594-.0714188-.027515-.1194935-.0449285-.1639893-.2599134-.6642102-.3188494-1.3524127-.2502555-2.0565818.04003-.4109634.14906-.80545.2849885-1.1930476.0483872-.1379879.1043984-.1763828.2262216-.1560943.4243493.0706692.8501761.1346617,1.2577397.2824871.3722328.135013.7046123.3296018.9782625.6192898.2467968.2612593.4010185.5658891.4517666.9236237.0186579.1314887.0462293.2627369.0830714.3902465.0222406.0769683.0587631.1556481.1086052.2177263.1526277.1901157.3385674.1767191.470729-.0257619.0111428-.0170732.0186128-.0365097.0282443-.054603.0901014-.1691462.2399322-.2464846.4223456-.2707437.0710526-.0094477.1443119-.0054575.2143006-.0191566.1640337-.032108.2365374-.1331663.1740036-.2859739-.0620225-.1515733-.116436-.3063967-.1701841-.4611844-.0779436-.2244753-.0376579-.4242914.1355525-.591868.0515676-.0498913.109015-.0938837.158842-.1453447.0487067-.0503075.0911165-.106697.1529736-.1802528Zm-2.1621977,3.1876424c-.0881954.1325952-.1326052.2013087-.1789472.2686922-.2366089.3440355-.5584883.5702946-.9626459.6693878-.1680224.0411969-.3435336.0520894-.5157741.0758036-.1198646.0165021-.2457104-.0032444-.3798757.0582438-.0113007.087237-.0286466.1758154-.0333797.2650645-.0305451.575784-.2085788,1.1043161-.5049996,1.5957205-.0847255.1404649-.1698119.2807099-.2543156.4213044-.1470788.2446962-.2087442.5116168-.1949585.7946205.0074662.1533129.0254962.3064211.0454586.4587459.0346203.264097.0807405.5267982.1109473.7913498.1010375.8849536-.0153271,1.7376206-.3904659,2.5506407-.0234286.0507743-.0297707.1094239-.0484586.1813368.1680375.0402933.316372.0759313.4647365.1114284.7091724.1696685,1.3983937.3987211,2.0688858.6857057.0885676.0379093.1747367.1143986.3013118.0640545.0141128-.0399401.0383534-.0856421.0458834-.1339478.0284135-.1822554.0544812-.3649975.0758045-.5482091.0497819-.4276599.100936-.8552446.1430413-1.2836935.0601466-.6120645.1211277-1.2242586.1659059-1.8375536.0373233-.5111659.0455902-1.024387.0777556-1.5360038.0644473-1.025069.0400526-2.0504367.0220752-3.0758701-.0029925-.1707656-.0195564-.3407929-.0579849-.576821Zm-26.2336957,9.3349509c-.1139003-.1004364-.2326201-.0722379-.3420336-.0849939-.2847667-.0332089-.5706199-.0582795-.8545032-.0976579-.5499254-.0762845-1.0801487-.2332552-1.6052865-.4084563-.3409077-.1137354-.6877946-.2015473-1.0456468-.2411342-.1933373-.0213866-.3867704-.0430549-.5806706-.0579432-.3183372-.0244394-.6288905-.0836075-.9313067-.1867172-.1856333-.0632936-.3509001-.0282155-.4626801.1379813-.3558428.5290751-.6736367,1.0779568-.8280276,1.704981-.0317876.129099-.0595714.2596145-.0803815.3908721-.0246081.1552104-.0005094.1876021.1556672.2487559.0095085.0037254.0197763.0054838.0293646.0090344.7632993.2825867,1.5549059.4442822,2.3604175.5400295.3457507.0410974.6945333.0561228,1.0415585.0872239.6554826.0587454,1.3122058.0580823,1.9670578.0112118.3910655-.0279881.7588472.0125156,1.0939447.2199168.1582461.0979435.2485863.0109882.2840543-.1032093.023765-.0765118.0408176-.1613536.0338853-.2400954-.0359323-.4082121-.075703-.8162363-.1239698-1.2231596-.0288083-.2428908-.0756879-.4836418-.1114435-.7066395Zm12.6047806-16.0237506c-.0743702.0188382-.1129849.0261922-.1500131.0383649-.4933643.1621971-.9938865.24634-1.5128448.1458594-.0600488-.011626-.1228514-.008252-.1837123-.016643-.1736258-.0239359-.3003588.0418996-.3792911.196629-.1208702.2369467-.2324416.4789282-.3610223.7115616-.111171.2011359-.1250469.4076926-.0806635.6250328.1209736.5923734.2625336,1.1793645.4699752,1.7483844.0419455.1150589.0870902.2306392.1462912.3373757.1249097.2252014.3137836.3783735.5664902.4391882.3415731.0821994.650227.0061159.9226027-.2144067.2484641-.201165.4014245-.4639808.47387-.7714934.0962518-.4085483.1792893-.820219.2767329-1.2284668.0365545-.1531495.0413571-.3039657.0227199-.4572683-.0420338-.3457047-.0849379-.6913201-.1305751-1.0365645-.0213308-.1613677-.0498289-.3217885-.0805601-.5175533Zm1.7107845,20.1659374c-.0158101-.0758487-.0276823-.1554509-.0492349-.2323422-.102248-.3647683-.2038758-.7297657-.3116765-1.0929165-.3722629-1.254054-.5839263-2.5350084-.6247984-3.8416252-.032062-1.025069-.0061861-2.0492682.0997706-3.0709237.0814436-.7853231.1956672-1.5650891.361214-2.3368859.0794379-.3703422.1748138-.7372446.2577404-1.1068767.0700244-.3121228.0191992-.4204383-.2570111-.5812339-.123904-.0721327-.2522216-.1375492-.3711012-.2171119-.0662105-.0443117-.1218119-.107534-.1734529-.1695107-.0390676-.0468949-.0229962-.1319921.0265113-.1651654.0507951-.0340299.1084962-.0575637.1608777-.0894614.0850826-.0518113.198545-.0619936.2595261-.1879459-.1409867-.3340147-.2946145-.6786551-.4612328-1.0175581-.0045996-.0093557-.035671-.0057149-.0730789-.0105449-.008109.0566094-.0204831.1143554-.024109.1726443-.0407293.6546535-.0919135,1.3089332-.1172706,1.9642047-.045577,1.1777526-.0932217,2.355492-.0842744,3.534911.0064568.8511604.028968,1.7016107.0884849,2.5502236.0594906.8482203.153263,1.6933559.2815506,2.5346778.1623833,1.0649358.3995185,2.1124622.7051142,3.1449162.0201522.0680804.0473515.1353343.0808045.1978858.0373928.0699159.0789323.0720162.2256465.0206389ZM24.3164737,11.6441721c-.1295112.0884187-.2068673.1967812-.2841145.3037854-.4319198.5982977-.6048125,1.2680424-.5520052,2.0007201.0269934.3745109.1352565.7237728.3205054,1.0485484.1024727.1796498.2358964.3348451.4082168.45345.1565929.1077838.327246.162167.5198718.1568054.2785656-.0077532.5131707-.1293489.7396029-.2726148.077109-.0487867.0907048-.1291798.0781578-.2176286-.0449163-.3166485-.0182932-.6338493-.0087368-.9513902.0064539-.2144612.0011137-.4306338-.0187472-.6442026-.0282829-.3041179-.1451766-.5739297-.3636379-.794427-.1154332-.1165102-.2300948-.2337925-.3443907-.3514186-.1726051-.1776368-.3243005-.3692789-.4139819-.6043273-.0162368-.042558-.0493035-.0787023-.0807405-.1273002Zm12.521696-1.0336948c-.04328-.0258399-.0760695-.062158-.1078646-.061307-.1014774.0027156-.2050468.0088982-.3033889.0322978-.3408137.0810995-.6583943-.1051932-.7481273-.5030032-.0599793-.2658958-.005282-.5108183.1425732-.7330083.1191033-.1789857.2514303-.3492515.3795937-.522125.1168721-.1576414.2189773-.3234145.2636859-.5163078.0120789-.0521128-.0048722-.1109466-.0092895-.1788335h-.3336088c.0075695-.1003547.0137425-.1822179.0206504-.2737927-.2627743.2378879-.2519359.1641603-.377011-.0715174-.0653985.0726155-.1361653.1333194-.1846991.2083818-.15553.2405481-.3039396.4857393-.4525241.7306975-.037047.0610749-.0633891.1285495-.0965413.1920986-.0298026.0571307-.0693609.1026176-.1429642.0922079-.0656635-.0092862-.1204041-.0667363-.1226165-.1540278-.0030921-.1221358-.0005714-.2459455.0166804-.3665906.0143553-.1003632.056124-.1965407.0802368-.2959091.0099906-.0411706.0056184-.0858234.0077801-.1288924-.0660977.040825-.0989341.0903274-.1245977.1433016-.2776671.5731651-.5163229,1.1609124-.6384074,1.7889773-.0573345.2949557-.0758439.59399.0602368.8742471.1158157.238522.2750054.4513976.4340448.6787143.0786729-.071803.1457236-.1338548.2136953-.1948819.2684528-.2410187.5931838-.3574941.9406121-.4232742.2314096-.043812.4641895-.0814423.6938698-.1329221.1337837-.029987.2825167-.0410091.3879809-.1845314Zm-8.5854507,11.9213169c-.0962706.0354896-.1721183.0624407-.2472254.0913137-.2945712.1132357-.5978219.1348834-.9072146.084188-.2436023-.0399138-.4760664-.1164125-.7060831-.2062101-.4195335-.1637845-.8414299-.3219463-1.2656918-.4730556-.2631399-.0937221-.5111406-.209447-.7280192-.3881067-.0226438-.0186512-.0521889-.0717945-.1100272-.0106407.015468.0403102.0319699.0858525.0503562.1306226.026875.0654503.0720037.1305888.0039868.1970254-.0540432.0527938-.1101381.0272968-.1693063.0061357-.0470949-.0168459-.0984576-.0280069-.1482546-.0293295-.0504708-.0013451-.1038091.0093237-.104483.0996737.0656898.0437557.141139.0933408.2158495.1440136.0505592.034291.1035967.066121.1491672.1062603.0556306.0490046.027874.1568918-.0443806.1742505-.0490404.0117829-.100874.0154801-.1515553.0162165-.123015.0017922-.2460891-.000913-.3691351-.0005674-.1190027.0003325-.192201.0629217-.2207724.1749588-.0145648.0571147-.0177331.1171339-.0266739.1802209.2592517.1173142.5277835.1336904.7905897.14828.5985306.0332258,1.1757454.1551221,1.7411952.3494873.6710211.2306514,1.3615658.3768668,2.0679788.4440304.1398589.0132971.2832479.0442892.4216087-.0054199.0025639-.2502382-.1135187-.8478108-.2419096-1.2333475Zm13.3740958-13.1615741c.1430319-.0310062.2193119-.1064838.2605994-.1952773.1899378-.4084732.2801991-.8324819.1476409-1.2791049-.0172218-.0580221-.0471372-.1138209-.0793928-.1655251-.0667556-.1069986-.1494961-.1975984-.2866765-.2075928-.1166428-.008499-.1801897-.0801573-.233201-.1747502-.0398383-.0710816-.0886879-.137784-.138795-.2023495-.4768587-.61444-1.511311-.8061592-2.1739064-.1400346-.4579734.4604132-.6691142,1.0186741-.6711179,1.6614864-.0000639.0207863.030594.0416685.0567763.0750606.0864905-.144829.1702612-.2734846.242419-.4083455.1506653-.2815901.3764227-.3884721.6899544-.3226931.0996804.0209131.2035995.0217407.3056032.031504.4466444.0427459.8784787-.0158239,1.2936983-.188671.0566597-.0235874.1123683-.0536956.1715788-.0656917.0554079-.0112268.1148815-.0024028.1887593-.0024028.1163326.5226539.1183702,1.0474062.22606,1.5843875Zm-20.4460072,11.5826638c-.0288675.0695063-.0436015.0967336-.0517396.1258039-.1399717.4999973-.1526587,1.0086064-.0904003,1.5198568.0222641.1828247.078562.3592826.1812395.516738.1044144.1601193.2456972.266079.4306567.3243791.1629745.0513736.3034321.0170469.4335711-.0768519.0656973-.0474021.1201437-.1103463.1798354-.1660934.0970178-.0906073.1883138-.188517.2923466-.2702176.3250975-.2553087.5635222-.5703227.7023303-.9625719-.2611718-.0617663-.4689348-.0602126-.7297805-.0015593-.0583956.0131336-.1203054.0252359-.1785196.0188579-.0323787-.0035469-.075061-.0410147-.0863552-.0727132-.0111269-.0312307.0005019-.0831435.021969-.110367.0302923-.0384147.0822659-.0588318.1188016-.0934497.065562-.0621232.0351015-.1742223-.0557584-.1870779-.0676513-.0095717-.1440422-.0070694-.2079247.014986-.2714848.0937259-.4796247.0109037-.6449892-.210826-.0549821-.0737239-.1071588-.1497304-.1654613-.2207208-.036984-.0450313-.0829041-.082732-.1498213-.148173Zm7.6180238,2.8144371c.4133756.0413172.5422534-.0316928.6799525-.3634382.0352143-.0848399.0677481-.1711038.0958458-.2585343.234622-.7300945.3028494-1.4797138.2575543-2.2418806-.0042011-.0706936-.0174267-.1423604-.03753-.2103037-.0486879-.1645473-.1417179-.2035875-.3047197-.1336829-.199139.0854072-.330434.2398474-.4144903.4323283-.0858007.1964787-.1553721.3999704-.2373213.5982151-.0662274.1602057-.1216597.3294102-.2156747.4724338-.1127856.171581-.1198589.3411837-.0774811.527482.0543928.239126.1070187.4786652.1589435.7183417.0321861.1485562.0616597.2976985.094921.459039Zm8.2560806-9.8159457c.032718.7700252.0739868,1.5463702.096389,2.3232619.0224568.7787497-.0452706,1.5552281-.0887857,2.3360781.0421184-.0481329.074953-.0987701.0885112-.1541226.3652779-1.4911454,1.162909-5.4346404,1.139503-5.9841026-.2478776.1345715-.4368869.3145632-.5511913.5609765-.0860563.185513-.0158609.3571428.166139.4686671.0343214.0210315.0719097.0376651.1032856.0623111.0308308.0242158.0261015.119702-.0072312.1402-.0429567.026412-.0881484.0555179-.1362104.066168-.1697066.0375899-.340543.0708007-.5119639.099653-.0995714.0167576-.2073194-.0028743-.2984453.0809097Zm16.8039844,16.3011446c.1173082.1022738.2206465.1118812.3386238.0827658.184748-.0455836.3387516-.14407.4797891-.2640594.3792554-.3226508.6674431-.7199479.9151422-1.1470442.1554097-.267967.1349961-.5506814.0279887-.8300011-.021015-.0548435-.0585864-.1172165-.1065826-.1455184-.2348871-.1385054-.4802403-.2445496-.7490596-.0865269-.1141014.0670735-.2281201.1385374-.328308.2242095-.2945637.2518933-.4909094.5735221-.6293304.9320889-.0097819.0253317-.0012782.0577159-.0012782.1149471.0720488-.0523768.1307067-.0864968.1788006-.1318099.0893608-.0841936.1682254-.1798996.2606727-.2602232.0323722-.0281309.0965338-.04307.1378909-.0322827.0688984.0179712.0807969.0867636.0708684.1508782-.0077669.0501675-.0256955.0988058-.039609.1479813-.0951992.3364514-.234778.6543717-.4018493.9608173-.0484248.0888189-.0964022.1778857-.1537593.2837777Zm-17.7743258-6.4718173c.0720338.1233522.190872.169892.295325.230441.5299639.3072026,1.1059409.4882257,1.7085157.5729829.5376312.0756195,1.0788282.1293057,1.6198823.1761367.4092347.0354182.8198039.0253317,1.2266815-.046801.100842-.0178791.1990168-.0381817.2844866-.1032694.012015-.1704106-.0021992-.3280707-.0855263-.479552-.093312.0120215-.1753138.0167068-.2546295.0338214-.3321426.0716649-.6675747.1075096-1.0073038.1020051-.5556519-.0090063-1.1020744-.0870529-1.6428334-.2132288-.6093755-.1421857-1.2025537-.3368853-1.792869-.5414272-.0774454-.0268365-.1521822-.0631227-.2447141-.0255478-.0767368.0822304-.0975225.1895315-.107015.2944391Zm7.9651259,6.0926755c.0722105,0,.1131729.007849.1498946-.0013.2028908-.0505658.3794245-.1480941.5268756-.2988971.1997931-.2043409.3128494-.4530743.3781426-.7260535.084327-.3525739.0894323-.7106542.0529398-1.0686894-.0196955-.1932737-.0624962-.3828954-.155936-.5584328-.0553233-.1039345-.1343044-.1453869-.2490299-.1398054-.2503795.0121849-.45112.1222495-.6154244.304984-.1459849.1623643-.2495675.3513077-.3150486.5576757-.1435037.4522458-.2137856.9160772-.19206,1.3915337.0011128.0243924.0255489.047714.0489736.0888113.0395075-.0345033.0809924-.0536843.0931127-.0844266.0408195-.1035062.0767255-.2097176.1041315-.3175333.0326804-.1285711.0451315-.2627707.0838045-.3892001.0427293-.1396852.1241127-.258183.2611577-.3272685.1062029-.0535453.2102217-.0185686.2509622.0922267.0644473.1752631.0937669.3564364.062.5430729-.045406.266791-.1404999.5123119-.3153607.7230514-.0506955.0611012-.0996014.1236866-.1691352.2102511Zm-17.5437273,13.3052261c-.0201814.0649074-.0404116.1122982-.0493524.1617218-.0437096.2416246-.0963138.4825127-.1224783.7261587-.0217566.20259-.0283007.4101396-.0105799.6127859.0219408.2508938.1225854.4769932.3274274.6382942.2029162.1597868.4362046.1519265.600274-.0440544.0980338-.1170963.2027705-.2285867.3209594-.3610542-.0330658-.3696396-.0669163-.7565478-.102687-1.1432756-.0122538-.1324862-.0288186-.2645892-.0443674-.3967523-.0103581-.0880561-.0489586-.1667002-.1396587-.1814777-.2504181-.0408081-.5020523-.1084695-.779537-.0123465Zm23.129118-19.2019226c.0419097-.0291567.0758195-.0399063.0840075-.0607481.0298082-.0758881.0534548-.1544815.0750751-.2332458.1657593-.6037815.2635374-1.2200335.2960487-1.8437625.0212594-.407934.0048722-.8180229-.0009398-1.2270578-.0017932-.1261589-.006421-.2564208-.0697744-.3755273-.0356504.0191867-.0591616.0240073-.0689285.0382418-.2434547.3548302-.4639997.7228485-.6270785,1.1223361-.113342.2776552-.1678119.5663888-.1652179.8677733.0052556.6101821.2491164,1.149447.4768079,1.7119902Zm.091436,20.0906222c.076906.0097314.1256428.0251702.1721878.020188.2063645-.0220629.4002554-.0846933.5773003-.1952031.2945299-.1838373.5181463-.4314773.6720409-.7427096.1558082-.3151024.2514697-.6492129.3082893-.994246.0298985-.1815603.0516729-.3651947.0632857-.5487652.0079812-.1261627-.0504135-.1926857-.1747029-.2113783-.3254509-.0489539-.4072366.0046102-.486823.2744446-.0028947.0098141-.0070301.0192562-.0101128.0290214-.2419434.7666812-.5832064,1.486708-1.0153151,2.1643863-.0365225.0572763-.0631766.1208423-.1061503.204262Zm-5.9212853-19.0629682c.0435413-.361537-.0218759-.7133801-.051327-1.0654957-.0290113-.3469079-.0763195-.6923148-.1171315-1.0382008-.0420112-.3560588-.0815751-.7124859-.1301352-1.0676693-.0468834-.3429196-.0652218-.6908307-.1664379-1.0278682-.0367124.1416597-.0599492.2824589-.0685563.4241449-.0330282.5437098-.0091184,1.0862736.0538045,1.6266957.0795169.682961.2398739,1.3504946.4008851,2.0175171.0105789.0438177.0013571.1060855.0788984.1308762Zm-13.9192345-5.1953003c-.1661615-.0680034-.3276689-.0592376-.4789827.0161996-.1270676.0633519-.2551239.1343179-.3626652.2255546-.5187045.440059-.7096048,1.0068818-.6207627,1.674111.0014962.0112418.0285075.019089.0562518.036412.0231109-.0441295.0496767-.0855106.0674379-.1303727.0789887-.199539.1553044-.400132.2328871-.6002271.0671879-.1732924.159077-.3320966.2851727-.4692344.1426484-.1551409.3112216-.2638114.5277647-.2831428.0400188-.0035713.0794492-.013748.1246146-.0218562.0916146-.1357062.1878739-.2664509.1682818-.4474439Zm27.2859431,7.2317166q.1867517.0556175.3129735.0234305c.1695826-.0432484.2080976-.0909474.1705036-.2582149-.1070638-.476377-.2207931-.9512624-.3334321-1.4263733-.009485-.0400153-.0304511-.0773102-.067233-.1680284-.106124.3413208-.1075563.6373718-.1223947.9291601-.0154173.3031711-.0253684.6088464.0395827.900026Zm-31.5586384-11.4737406c-.1103138.0513567-.2191154.1033465-.3290045.1529297-.3751426.1692608-.7497946.1938542-1.1250067-.0023013-.0292697-.0153035-.0648825-.0585594-.1195544.0070262.0276419.0521964.0493872.1201078.092561.1691913.090046.1023696.2124275.1593791.3412385.1990243.3214941.0989485.6491471.0905153.974144.0316647.1368448-.0247813.283263-.0601488.3739584-.2091446-.0462763-.1175904-.0980131-.2368171-.2083363-.3483902Zm30.9776877,5.6492124c.1460563-.3930514.4061877-1.5788915.4351238-1.9687454.0009436-.0127166-.0233571-.0273043-.0413797-.0470264-.0233158.0134079-.0527669.022773-.0715827.0423467-.1726803.1796779-.2925073.3896266-.3569584.6309994-.1100714.4122136-.0833909.8273616-.0262218,1.2428328.0036692.0266675.0299286.0502295.0610188.0995929Zm-33.8345475.423694c.0748618.0077851.1449632.0149015.2150233.0223973.1958025.020947.3863221.0291135.5516979-.1135889.0426597-.0368103.1148326-.0378492.1710694-.0610712.0429398-.0177288.0821259-.0445353.1238213-.0677705-.0525845-.1270738-.1495723-.1587704-.2517639-.1756351-.2743457-.0452774-.5494366-.0560665-.8228584.0061958-.0446381.0101635-.0851973.0382174-.139702.0636243.0285592.0659482.0469971.1117872.0680817.1563751.025688.0543268.0535986.1076035.0846306.1694731Zm29.9663209-6.7279658c-.0520413.2221693-.0491992.245147.0719548.6172308.1647894.0370357.3387291.0224273.5099921.0078659.2472705-.021024.4830335-.0889391.6933266-.2266348.0419887-.0274959.0761954-.0668631.1440074-.1276769-.1264134.0252397-.206951.0364026-.2846878.0577666-.23006.0632222-.4488719.0189143-.6579883-.0750822-.1109285-.0498613-.2093081-.1269987-.3160524-.1870347-.0491842-.0276613-.1048383-.0438364-.1605525-.0664347Zm6.9489537,29.9695065c-.2473419-.071802-.4565711-.118107-.6544168-.1940271-.1980299-.0759952-.3846915-.1815754-.5850861-.2784161-.0904849.1529184-.121248.3146665-.1228683.4826405.2542705.0643551,1.0147023.0608871,1.3623712-.0101973Zm-34.8240177-.1285185c-.006453-.4955844-.120186-.9501428-.2665365-1.3981785-.0113468-.03474-.0499417-.0627019-.0806738-.087981-.0126898-.010434-.0404755-.0118693-.0569671-.0056585-.0157312.005929-.0359624.0268647-.0363421.041661-.0012951.0505395-.0032885.1036978.0102415.1515508.0897885.3175258.1234689.6425249.1387659.9704885.0033365.071539.0087575.1432997.0188806.2141474.0194013.1357814.0482077.1489658.2726314.1139702Zm18.926668.7248361c.1414736.143668.308075.1697248.4803606.1817219.1907329.0132745.3625035-.0415896.5157402-.1513366.0963345-.0689878.1937254-.1415902.2231314-.2871518-.1638533-.0541427-.3095524-.030979-.4548944.0112644-.2142066.0622585-.4284095.1245809-.6419845.1889585-.0373684.0112606-.0716541.0327411-.1223533.0565436Zm-21.5490393-24.7272005c.0454464-.0425195.0774125-.0580804.0845563-.0812761.0978871-.317832.1109022-.6443604.0567471-.9684728-.0227349-.1360688-.1014313-.2637175-.1617753-.3918603-.0129887-.0275842-.0565385-.040793-.0955761-.0670584-.0242321.2730563.0466212,1.2054627.1160479,1.5086676Zm21.249859-2.284665c.1561916-.3301767.2243457-.6759311.2765825-1.0244772.0175075-.1168183.0447368-.2418256-.0253947-.3544883-.1291916-.0022469-.1688006.0060756-.187466.0532391-.0259398.0655536-.0597406.1324355-.0654436.200809-.0311804.3739474-.0311428.7486988.0017218,1.1249174Zm6.6976832.6763857c.0414549-.0251345.0672781-.0313641.0729812-.0456268.1513946-.3787717.1907818-.7676262.0923458-1.1656747-.0098308-.0397598-.0512368-.0717194-.0956353-.1307691-.1605638.4560651-.1530901.8866481-.0696917,1.3420707Zm-17.2062754-4.5291344c-.2937836.0416365-.4910805.191628-.659601.3841691-.0836052.09552-.1702198.1997927-.1318007.339816.1327311.0449355.2212536-.0148489.3001502-.0759989.2120224-.1643312.3724546-.3704549.4912515-.6479862Zm5.8703605-.8597158c.088327-.0212532.1663157-.0403685.2444829-.0587266.0740037-.0173832.1582104.0064325.2443401-.0459462-.1226127-.2376437-.2163965-.4701944-.460011-.6643361-.0319793.2780591-.0958702.5115435-.028812.7690089Zm-.4560711-3.2667514c.0068947-.0502793.0189079-.0813672.0138214-.1093506-.0691203-.380316-.1402198-.7602769-.2133119-1.139848-.0023289-.0120929-.0311259-.0190937-.0556052-.0330361-.0896616.0653799-.1100131.1619472-.104765.2650128.0168083.3301025.0885451.6457412.2648024.9304244.0192086.0310231.0555169.0514703.0950582.0867974Zm3.1598906.180636c.2169961-.0887193.3041088-.2570295.3672009-.4419489.0772819-.2265099.0748195-.3459179-.0006241-.4811507-.2773231.2399141-.3465543.5591842-.3665768.9230996Zm-6.3832699,3.7564255c-.1480055.3303645-.1596296.7310357-.0358421,1.0054446.0614116-.0235808.0592293-.08137.0589079-.1282367-.0018891-.2751247.0839172-.5461238.0375113-.8226462-.0025207-.0150236-.0280846-.0261846-.060577-.0545617Zm16.6815897,27.5106623c.0174925.3182284.0332895.6112454.0501541.9041985.0017444.0303139.0090188.06044.0154436.0902805.0019323.00898.0079511.0208718.0152293.0238927.0081504.0033816.0198534-.001781.0300113-.0032275.0595263-.1918854.082436-.4162565.0397293-.6293781-.0250827-.1251745-.0156616-.2689139-.1505676-.3857659Zm-7.8184343-14.8309631c.1647029-.089281.3306953-.1792609.5083493-.2755643-.1395826-.113788-.279387-.1104741-.4189132-.0682439-.0425789.0128894-.0904999.0578192-.1060413.0992829-.0274173.073134-.0510225.1557965.0166053.2445252Zm-7.1558258,17.7635298c.1001616.07267.1680412.0522265.2004679-.0216909.0723195-.1648667.1243608-.3364551.0778872-.5506176-.1833796.1636906-.2119397.3726492-.2783551.5723085Zm-14.9195289-23.5482512c0-.0969947.010468-.1675268-.0037387-.2326841-.0092246-.0423072-.0471156-.0970211-.084984-.1106882-.0876541-.0316327-.1814134-.0718528-.283981-.0337725.1140695.2549517.1213862.2626899.3727037.3771448Zm22.3315801,7.3923488q-.1226992.0798389-.1926803.6564683c.166733-.2048443.2335938-.409313.1926803-.6564683Zm-.9208433.0721289c.073686-.1568072.1013138-.2856151.0671071-.4297001-.1536521.075766-.1764172.0992754-.1543232.1858211.0187707.0735304.0507105.143698.0872161.243879Zm-13.2975038-8.578065c.1335676.0390346.1934942-.0149503.249325-.0720707.0399267-.0408438.0219079-.12447-.0317857-.1557233-.0484755-.0282173-.1019247-.0280013-.1311559.0224461-.0337913.0583208-.0534191.1248401-.0863834.2053478Zm9.8482092-5.9274857c.0184398.0699459.0286278.1277032.050859.1803806.0060771.014398.0690131.0225194.0708345.0183225.0223327-.0514018.0585676-.1088566.0507518-.1583628-.0110996-.0702916-.0756127-.0806599-.1724454-.0403403Z"/>
        <path class="cls-3" d="m35.1575111,14.4237564c.0324925.028377.0580563.0395381.060577.0545617.046406.2765224-.0394003.5475216-.0375113.8226462.0003214.0468667.0025038.1046559-.0589079.1282367-.1237875-.2744089-.1121635-.6750801.0358421-1.0054446Z"/>
        <path class="cls-3" d="m51.8391008,41.9344187c.1349059.1168521.1254849.2605914.1505676.3857659.0427067.2131217.019797.4374927-.0397293.6293781-.0101579.0014466-.0218609.0066091-.0300113.0032275-.0072782-.0030209-.013297-.0149127-.0152293-.0238927-.0064248-.0298405-.0136992-.0599665-.0154436-.0902805-.0168646-.2929531-.0326616-.58597-.0501541-.9041985Z"/>
        <path class="cls-3" d="m44.0206665,27.1034556c-.0676278-.0887287-.0440225-.1713912-.0166053-.2445252.0155413-.0414637.0634624-.0863935.1060413-.0992829.1395262-.0422302.2793306-.0455441.4189132.0682439-.177654.0963034-.3436464.1862833-.5083493.2755643Z"/>
        <path class="cls-3" d="m36.8648407,44.8669854c.0664154-.1996593.0949755-.4086179.2783551-.5723085.0464737.2141625-.0055677.3857509-.0778872.5506176-.0324267.0739174-.1003063.0943609-.2004679.0216909Z"/>
        <path class="cls-3" d="m21.9453118,21.3187342c-.2513175-.1144549-.2586342-.1221931-.3727037-.3771448.1025676-.0380803.1963269.0021398.283981.0337725.0378684.0136672.0757593.068381.084984.1106882.0142068.0651573.0037387.1356893.0037387.2326841Z"/>
        <path class="cls-3" d="m44.2768919,28.711083c.0409135.2471553-.0259474.4516239-.1926803.6564683q.0699812-.5766294.1926803-.6564683Z"/>
        <path class="cls-3" d="m43.3560485,28.7832119c-.0365056-.1001809-.0684454-.1703486-.0872161-.243879-.022094-.0865457.0006711-.1100551.1543232-.1858211.0342067.144085.0065789.2728928-.0671071.4297001Z"/>
        <path class="cls-3" d="m30.0585448,20.205147c.0329643-.0805077.0525921-.147027.0863834-.2053478.0292312-.0504474.0826804-.0506635.1311559-.0224461.0536936.0312532.0717124.1148795.0317857.1557233-.0558308.0571204-.1157574.1111053-.249325.0720707Z"/>
        <path class="cls-3" d="m39.906754,14.2776612c.0968326-.0403196.1613458-.0299513.1724454.0403403.0078158.0495062-.0284192.106961-.0507518.1583628-.0018214.0041969-.0647575-.0039245-.0708345-.0183225-.0222312-.0526774-.0324192-.1104346-.050859-.1803806Z"/>
        <path class="cls-3" d="m22.5022945,21.0134891c-.03889.0788883-.1219238.0934403-.1911925.1251088-.0181616.0083018-.0511024-.0156867-.0772565-.0248452.0202143-.0272912.036218-.0724784.0614558-.0784093.067281-.0158107.1385328-.0147305.2082113-.0203571l-.001218-.0014973Z"/>
      </g>
      <g>
        <path class="cls-1" d="m18.1200071,52.6458708c.2004395-.6977539.595459-1.2231445,1.1850586-1.5761719.5053711-.3007812,1.1147461-.4511719,1.8286133-.4511719.958252,0,1.7182617.2529297,2.2797852.7583008.4770508.4291992.7158203.9643555.7158203,1.605957,0,.5932617-.192627,1.0844727-.5776367,1.4736328-.3327637.3369141-.7758789.5512695-1.3293457.6435547v.0844727c.7177734.1479492,1.2592773.4487305,1.6242676.9018555.3205566.3969727.4812012.8862305.4812012,1.4677734,0,.8901367-.3308105,1.5961914-.9926758,2.1171875-.5773926.4536133-1.3112793.6801758-2.201416.6801758-1.6923828,0-2.7509766-.6938477-3.1760254-2.081543l1.5759277-.4448242c.1242676.4931641.3269043.84375.607666,1.0522461.2443848.1767578.5712891.2646484.9804688.2646484.505127,0,.9020996-.1601562,1.190918-.480957.2526855-.2807617.3789062-.6455078.3789062-1.0947266,0-1.1269531-.6577148-1.6904297-1.9729004-1.6904297h-.7519531v-1.269043h.6916504c1.2392578,0,1.8588867-.4931641,1.8588867-1.4799805,0-.440918-.1464844-.777832-.439209-1.0102539-.2487793-.1962891-.5715332-.2949219-.9685059-.2949219-.3930664,0-.7138672.1186523-.9624023.3549805-.2365723.2246094-.3869629.5332031-.4511719.9262695l-1.5759277-.4570312Z"/>
        <path class="cls-1" d="m39.1851926,59.6356169c-.2807617.2685547-.5112305.5893555-.6918945.9624023-.0922852.1962891-.1662598.2944336-.2224121.2944336-.0402832,0-.1345215-.050293-.2827148-.1503906-2.2858887-1.4716797-3.7353516-3.4345703-4.348877-5.8886719-.6577148,2.6186523-2.1435547,4.5854492-4.4572754,5.9008789-.1525879.0839844-.246582.1264648-.2827148.1264648-.0600586,0-.142334-.0986328-.246582-.2949219-.1804199-.296875-.4191895-.5732422-.7158203-.8300781,1.6801758-.777832,2.9372559-1.9667969,3.7714844-3.5668945.6896973-1.3193359,1.0285645-2.8071289,1.0166016-4.4633789-.0161133-.6938477-.0441895-1.2270508-.0842285-1.6000977.4770508.0244141.9824219.0742188,1.515625.1503906.1564941.0200195.2346191.0844727.2346191.1923828,0,.0766602-.0400391.1787109-.1201172.3071289-.0683594.1123047-.1022949.3847656-.1022949.8178711-.0080566.0961914-.012207.2426758-.012207.4389648.2849121,1.9331055.8762207,3.5332031,1.7746582,4.800293.7978516,1.1230469,1.8825684,2.0571289,3.2541504,2.8032227Z"/>
        <path class="cls-1" d="m42.9505735,57.6263396l-1.6601562.0239258c-.064209,0-.1044922-.0097656-.1203613-.0297852-.0119629-.0161133-.0180664-.0541992-.0180664-.1142578v-.7700195c0-.0639648.0100098-.1025391.0300293-.1142578.0119629-.012207.0480957-.0180664.1083984-.0180664l1.166748.0239258v-1.1069336h-.4389648l-1.527832.0244141c-.0603027,0-.0961914-.0083008-.1083984-.0244141-.0119629-.0200195-.0180664-.0620117-.0180664-.1259766v-.8120117c0-.0883789.0422363-.1323242.1264648-.1323242l1.527832.0239258h.4389648v-1.046875c-.3327637.0043945-.6315918.0102539-.8962402.0180664l-.2705078.0063477c-.064209,0-.1044922-.0083008-.1203613-.0244141-.0119629-.015625-.0180664-.0517578-.0180664-.1079102v-.8183594c0-.0800781.0461426-.1201172.1384277-.1201172l1.6601562.0239258h2.2556152v-.9023438c-1.034668.0722656-2.0651855.1225586-3.0917969.1503906-.2045898,0-.3288574-.0219727-.3730469-.065918-.0400391-.0361328-.0839844-.1362305-.1323242-.3007812-.1000977-.2685547-.2224121-.4873047-.3669434-.6557617h.3730469c1.1188965,0,2.3359375-.050293,3.651123-.1503906,1.0305176-.0761719,2.0651855-.2143555,3.1037598-.4150391.2927246-.0561523.557373-.1342773.7941895-.234375.3286133.2285156.6154785.4868164.8601074.7758789.0722656.1000977.1081543.1782227.1081543.234375,0,.0961914-.0661621.1445312-.1984863.1445312-.1442871,0-.3728027.0297852-.6855469.090332-.7180176.1162109-1.6503906.2265625-2.7971191.3305664v.9985352h2.4782715l1.6601562-.0239258c.092041,0,.1384277.0400391.1384277.1201172v.8183594c0,.0639648-.0102539.1020508-.0302734.1142578-.0119629.0117188-.0480957.0180664-.1081543.0180664-.0161133,0-.0722656-.0019531-.168457-.0063477-.3369141-.0078125-.7077637-.0136719-1.112793-.0180664v1.046875h.4812012l1.527832-.0239258c.0800781,0,.1203613.0439453.1203613.1323242v.8120117c0,.0678711-.0061035.1103516-.0180664.1259766-.0119629.0161133-.0461426.0244141-.1022949.0244141l-1.527832-.0244141h-.4812012v1.1069336l1.2570801-.0239258c.064209,0,.104248.0078125.1203613.0239258.0119629.0161133.0180664.0522461.0180664.1083984v.7700195c0,.0639648-.0070801.1040039-.0209961.1201172-.0141602.0161133-.0532227.0239258-.1174316.0239258l-1.6601562-.0239258h-1.6540527c1.0827637.9023438,2.5783691,1.5722656,4.4873047,2.0092773-.192627.2001953-.3710938.4931641-.5354004.8779297-.0922852.2207031-.1784668.3310547-.2587891.3310547-.0439453,0-.1342773-.0244141-.2705078-.0722656-1.7805176-.6254883-3.2001953-1.5019531-4.2587891-2.6289062l.0842285,2.8813477c0,.0644531-.0100098.1044922-.0300293.1206055-.0161133.0117188-.0541992.0180664-.1142578.0180664h-1.0766602c-.0803223,0-.1203613-.0463867-.1203613-.1386719,0-.0322266.0058594-.1943359.0180664-.4873047.0400391-.8618164.0620117-1.6518555.0661621-2.3696289-1.0065918,1.0664062-2.3820801,1.9345703-4.1264648,2.6044922-.15625.0639648-.2585449.0961914-.3066406.0961914-.0722656,0-.154541-.1020508-.2468262-.3066406-.1323242-.2890625-.3046875-.5537109-.5170898-.7939453,1.7844238-.4692383,3.2219238-1.1831055,4.3127441-2.1416016h-1.4074707Zm.7036133-3.1518555h1.552002v-1.046875h-1.552002v1.046875Zm0,2.1533203h1.552002v-1.1069336h-1.552002v1.1069336Zm2.7971191-2.1533203h1.6481934v-1.046875h-1.6481934v1.046875Zm0,2.1533203h1.6481934v-1.1069336h-1.6481934v1.1069336Z"/>
        <path class="cls-1" d="m55.461804,50.3001677c.6054688.1201172,1.0527344.246582,1.3413086.3789062.1564941.0600586.2346191.1420898.2346191.246582,0,.0639648-.0280762.1303711-.0842285.1982422-.0761719.0883789-.1503906.2807617-.2224121.5776367-.1123047.5415039-.2265625,1.3251953-.3430176,2.3520508-.0319824.5410156-.0480957.8901367-.0480957,1.0463867,0,.1083984.0019531.2124023.0061035.3129883.2966309-.5292969.5834961-1.0566406.8601074-1.5820312.0922852.3007812.220459.5673828.3850098.7998047.0480957.0600586.0722656.1264648.0722656.1987305,0,.0839844-.0402832.1865234-.1203613.3066406-.3850098.7338867-.6276855,1.2592773-.7277832,1.5761719-.0280762.0839844-.050293.2084961-.0661621.3725586,0,.1044922-.0522461.168457-.1564941.1928711-.1523438.0400391-.4812012.0898438-.9865723.1503906-.0800781.0117188-.1381836-.0424805-.1743164-.1625977-.2446289-.6616211-.3669434-1.4936523-.3669434-2.4960938,0-.5297852.0981445-1.5522461.2946777-3.0678711.0681152-.5732422.1022949-1.0405273.1022949-1.4013672Zm3.9399414.0239258c.6936035.0322266,1.1628418.0800781,1.4074707.144043.168457.0444336.2526855.1206055.2526855.2290039,0,.027832-.0019531.0639648-.0061035.1079102-.0200195.1123047-.0300293.3007812-.0300293.5654297.1162109,1.5522461.1745605,2.6108398.1745605,3.1762695,0,1.8847656-.3129883,3.3100586-.9384766,4.2768555-.4812012.7695312-1.1589355,1.4311523-2.032959,1.9848633-.0803223.0561523-.1625977.0839844-.2468262.0839844-.0800781,0-.1662598-.0458984-.2585449-.1381836-.3088379-.2685547-.6577148-.4570312-1.0466309-.5654297.9743652-.5415039,1.6740723-1.0908203,2.0993652-1.6479492.3928223-.5375977.6655273-1.112793.8178711-1.7265625.1445312-.581543.2165527-1.3173828.2165527-2.2075195,0-1.0585938-.0500488-2.0390625-.1503906-2.9414062-.052002-.5131836-.1381836-.9604492-.2585449-1.3413086Z"/>
      </g>
      <g>
        <path class="cls-1" d="m22.6385618,63.3929411c-.8500977.7573242-1.4436035,1.5302734-1.7802734,2.3193359-.276123.6484375-.4138184,1.3862305-.4138184,2.2138672,0,.9462891.1828613,1.7802734.548584,2.5019531.3464355.6801758.8950195,1.3574219,1.6455078,2.0307617l-.2067871.2358398c-.9592285-.7636719-1.6362305-1.5527344-2.0307617-2.3676758-.3400879-.7021484-.5100098-1.5029297-.5100098-2.4008789,0-1.0205078.2260742-1.9233398.6784668-2.7094727.4008789-.6992188,1.0217285-1.3857422,1.8623047-2.0595703l.2067871.2358398Z"/>
        <path class="cls-1" d="m24.8963743,66.1312224c.1445312-.6479492.4411621-1.1342773.8903809-1.4580078.3720703-.2695312.8212891-.4042969,1.3474121-.4042969.6381836,0,1.1467285.1811523,1.5253906.543457.3432617.3242188.5148926.7475586.5148926,1.2705078,0,.4331055-.1220703.824707-.3657227,1.1743164-.230957.3305664-.6416016.7392578-1.2319336,1.2270508-.9816895.7924805-1.6811523,1.6005859-2.0981445,2.425293h3.7053223v.5439453h-4.3452148v-.4863281c.4265137-.949707,1.1916504-1.9008789,2.2954102-2.8535156.5773926-.5004883.9558105-.8999023,1.135498-1.1982422.1508789-.2470703.2263184-.5244141.2263184-.8325195,0-.4199219-.1459961-.7456055-.4379883-.9765625-.2438965-.1958008-.5549316-.2939453-.9335938-.2939453-.8630371,0-1.392334.4926758-1.5878906,1.4775391l-.6401367-.1586914Z"/>
        <path class="cls-1" d="m33.1866575,64.2689177c1.4853516,0,2.2280273,1.2060547,2.2280273,3.6186523,0,2.4638672-.7490234,3.6958008-2.2473145,3.6958008-1.4980469,0-2.2470703-1.2255859-2.2470703-3.6767578,0-2.425293.7553711-3.6376953,2.2663574-3.6376953Zm0,.543457c-.5646973,0-.9750977.2646484-1.2319336.7939453-.2436523.5039062-.3657227,1.2641602-.3657227,2.28125,0,1.1708984.1540527,2.0112305.4621582,2.5214844.2565918.4204102.6286621.6303711,1.1162109.6303711.5583496,0,.9655762-.2773438,1.2224121-.8325195.2373047-.5166016.355957-1.2866211.355957-2.3095703,0-1.1645508-.1506348-1.9907227-.4521484-2.4785156-.2502441-.4042969-.6193848-.6064453-1.1069336-.6064453Z"/>
        <path class="cls-1" d="m39.2967649,64.2689177c1.4853516,0,2.2280273,1.2060547,2.2280273,3.6186523,0,2.4638672-.7490234,3.6958008-2.2473145,3.6958008-1.4980469,0-2.2470703-1.2255859-2.2470703-3.6767578,0-2.425293.7553711-3.6376953,2.2663574-3.6376953Zm0,.543457c-.5646973,0-.9750977.2646484-1.2319336.7939453-.2436523.5039062-.3657227,1.2641602-.3657227,2.28125,0,1.1708984.1540527,2.0112305.4621582,2.5214844.2565918.4204102.6286621.6303711,1.1162109.6303711.5583496,0,.9655762-.2773438,1.2224121-.8325195.2373047-.5166016.355957-1.2866211.355957-2.3095703,0-1.1645508-.1506348-1.9907227-.4521484-2.4785156-.2502441-.4042969-.6193848-.6064453-1.1069336-.6064453Z"/>
        <path class="cls-1" d="m48.1568723,66.5257536l-1.7419434,1.8623047,1.8911133,3.0654297h-.6882324l-1.6169434-2.6611328-.9863281,1.0249023v1.6362305h-.611084v-7.3144531h.611084v4.9995117l2.3964844-2.612793h.7458496Z"/>
        <path class="cls-1" d="m53.6139036,65.9241911l-.0483398.5629883c-.2629395,0-.4763184.0351562-.6398926.105957-.1315918.0576172-.2663574.1538086-.4042969.2885742.3464355.2792969.5197754.6625977.5197754,1.1499023,0,.5297852-.1923828.9448242-.5773926,1.246582-.3242188.253418-.7331543.3803711-1.2270508.3803711-.2954102,0-.5678711-.0512695-.8181152-.1542969-.3271484.1831055-.4909668.378418-.4909668.5874023,0,.1762695.0705566.2963867.2119141.3608398.1376953.0610352.4152832.1123047.8325195.1538086l.967041.0961914c.6672363.0708008,1.1291504.2197266,1.3859863.4477539.1923828.1699219.2888184.4086914.2888184.7167969,0,.4331055-.2182617.7749023-.654541,1.0249023-.4106445.230957-.9609375.3466797-1.6506348.3466797-.7346191,0-1.2961426-.125-1.684082-.3754883-.3305664-.2148438-.4958496-.4941406-.4958496-.8374023,0-.2470703.1010742-.4682617.3032227-.6640625.1733398-.1699219.4074707-.3032227.7026367-.3994141-.5004883-.1088867-.7507324-.3496094-.7507324-.7216797,0-.3242188.2277832-.6416016.6833496-.9526367-.4138184-.2983398-.6208496-.7138672-.6208496-1.246582,0-.5195312.1989746-.9350586.5966797-1.2460938.3305664-.2597656.7314453-.3901367,1.203125-.3901367.3688965,0,.6848145.0756836.947998.2265625.189209-.2666016.4025879-.4541016.6398926-.5629883.2119141-.0966797.4716797-.1445312.7797852-.1445312Zm-2.9594727,5.1538086c-.6418457.1762695-.9624023.4667969-.9624023.8710938,0,.2983398.1713867.5224609.5148926.6733398.2822266.1220703.6560059.1831055,1.1210938.1831055.5839844,0,1.0314941-.0947266,1.3425293-.2841797.253418-.1572266.380127-.3544922.380127-.5917969,0-.2182617-.0930176-.3818359-.2790527-.4907227-.1923828-.1123047-.5197754-.1923828-.9816895-.2407227l-1.135498-.1201172Zm.5917969-4.2397461c-.3688965,0-.6689453.1191406-.8999023.3564453-.2116699.2182617-.317627.5004883-.317627.8466797,0,.3881836.1330566.6928711.3994141.9145508.2182617.1796875.4892578.2695312.8132324.2695312.3720703,0,.6721191-.1171875.8999023-.3515625.2116699-.2148438.317627-.4921875.317627-.8325195,0-.3974609-.1347656-.7075195-.4042969-.9287109-.2180176-.1826172-.4875488-.2744141-.8083496-.2744141Z"/>
        <path class="cls-1" d="m54.5089231,63.3929411l.2067871-.2358398c.9592285.7636719,1.6362305,1.5527344,2.0307617,2.3676758.3400879.7026367.5100098,1.5029297.5100098,2.4013672,0,1.0234375-.2246094,1.9262695-.673584,2.7089844-.401123.7026367-1.0234375,1.3891602-1.8671875,2.0595703l-.2067871-.2358398c.8532715-.7631836,1.4467773-1.5380859,1.7802734-2.3242188.2758789-.6445312.4140625-1.3808594.4140625-2.2084961,0-.9462891-.1828613-1.7822266-.548584-2.5073242-.3466797-.6831055-.8952637-1.3583984-1.645752-2.0258789Z"/>
      </g>
    </g>
  </g>
</svg>