<?xml version="1.0" encoding="UTF-8"?>
<svg id="_レイヤー_2" data-name="レイヤー 2" xmlns="http://www.w3.org/2000/svg" viewBox="0 0 77.531976 77.531976">
  <defs>
    <style>
      .cls-1 {
        fill: #fff;
      }

      .cls-1, .cls-2 {
        stroke-width: 0px;
      }

      .cls-2 {
        fill: #40506c;
      }
    </style>
  </defs>
  <g id="_レイヤー_1-2" data-name="レイヤー 1">
    <g>
      <rect class="cls-2" x="0" width="77.531976" height="77.531976" rx="16.5736591" ry="16.5736591"/>
      <g>
        <path class="cls-1" d="m15.1929748,60.2723357c1.2287598-.7441406,2.2216797-1.7275391,2.9787598-2.949707-.3818359-.4394531-.8068848-.8564453-1.2751465-1.2509766-.0224609-.0161133-.0336914-.0307617-.0336914-.043457,0-.0161133.0256348-.0498047.0769043-.1010742l.1154785-.1396484c.0290527-.0351562.0529785-.0527344.0722656-.0527344.0126953,0,.0319824.0097656.0576172.0288086.4106445.3271484.8181152.7089844,1.2224121,1.1455078.4587402-.8374023.7907715-1.7568359.9960938-2.7573242h-1.9536133c-.4331055.9589844-1.0571289,1.8686523-1.8720703,2.7280273-.0449219.0517578-.0786133.0771484-.1010742.0771484-.0288086,0-.0673828-.0317383-.1154785-.0961914-.0737305-.0898438-.1523438-.1586914-.2358398-.2070312,1.0844727-1.0424805,1.8688965-2.3129883,2.3532715-3.8110352.0866699-.25.1362305-.4970703.1491699-.7412109.166748.0385742.3208008.0883789.4619141.1494141.0737305.0288086.1105957.0673828.1105957.1152344,0,.0322266-.019043.0693359-.0576172.1108398-.0480957.0449219-.107666.1699219-.1779785.3754883-.1220703.3496094-.2375488.6513672-.3466797.9042969h1.6555176c.1154785,0,.1875-.0092773.2165527-.0288086.0288086-.019043.060791-.0288086.0961914-.0288086.0576172,0,.1396484.0498047.2453613.1494141.0930176.0834961.1396484.1411133.1396484.1733398,0,.0351562-.0322266.0849609-.0961914.1489258l-.0290527.0483398c.3850098.7314453.8181152,1.3696289,1.2993164,1.9150391v-2.762207c0-.6289062-.0224609-1.0620117-.0673828-1.2993164.192627.0063477.3657227.0224609.5197754.0483398.0737305.0126953.1105957.0385742.1105957.0766602,0,.0161133-.0063477.0419922-.0192871.0771484-.0161133.0385742-.0256348.0688477-.0288086.0913086-.041748.1445312-.0625.4736328-.0625.9868164v3.1855469c.6318359.5708008,1.4934082,1.1132812,2.5839844,1.6264648-.0898438.0766602-.166748.168457-.230957.2744141-.041748.0766602-.0754395.1152344-.1010742.1152344-.0192871,0-.0576172-.0141602-.1154785-.043457-.8469238-.4262695-1.559082-.8916016-2.1364746-1.3955078v1.9248047l.0192871,1.7133789c0,.0478516-.0224609.0722656-.0673828.0722656h-.3562012c-.0449219,0-.0673828-.0244141-.0673828-.0722656l.0192871-1.7133789v-2.2949219c-.5549316-.5776367-1.034668-1.2416992-1.4387207-1.9926758-.3337402,1.2929688-.8486328,2.4238281-1.5446777,3.3925781-.6352539.8857422-1.4501953,1.6762695-2.4445801,2.3725586-.0673828.0449219-.1108398.0673828-.1298828.0673828-.0224609,0-.0595703-.0288086-.1108398-.0864258-.0800781-.0932617-.1748047-.168457-.2839355-.2265625Z"/>
        <path class="cls-1" d="m28.0894592,55.6863982c.230957-.4936523.3962402-.9077148.4956055-1.2412109.0578613-.2216797.0898438-.3901367.0964355-.5053711.1635742.0351562.3078613.0786133.4331055.1298828.0737305.0322266.1105957.065918.1105957.1010742,0,.0322266-.0256348.0800781-.0769043.1445312-.0708008.0864258-.1203613.1699219-.1491699.25-.1027832.2792969-.2712402.652832-.5053711,1.1210938h.2070312l1.2944336-.019043c.0446777,0,.0673828.0224609.0673828.0673828v.3081055c0,.0449219-.0227051.0673828-.0673828.0673828l-1.2944336-.0195312h-2.1848145l-1.2944336.0195312c-.0449219,0-.0673828-.0224609-.0673828-.0673828v-.3081055c0-.0449219.0224609-.0673828.0673828-.0673828l1.2944336.019043h1.5734863Zm-.6591797-2.5214844v-.3271484c0-.4008789-.0224609-.6865234-.0673828-.8564453.1828613.0097656.3496094.0288086.5004883.0576172.0737305.0126953.1105957.0371094.1105957.0722656,0,.0322266-.0192871.0883789-.0576172.168457-.0354004.0639648-.0529785.25-.0529785.5581055v.3271484h.7409668l1.2319336-.019043c.0385742,0,.0578613.0224609.0578613.0673828v.3081055c0,.0449219-.0192871.0673828-.0578613.0673828l-1.2319336-.0195312h-1.8623047l-1.2316895.0195312c-.0483398,0-.0722656-.0224609-.0722656-.0673828v-.3081055c0-.0449219.0239258-.0673828.0722656-.0673828l1.2316895.019043h.6882324Zm-1.0827637,6.9101562v.6210938c0,.0449219-.0224609.0673828-.0673828.0673828h-.3271484c-.0385742,0-.0578613-.0224609-.0578613-.0673828l.0192871-1.6557617v-.7407227l-.0192871-1.034668c0-.0449219.0192871-.0673828.0578613-.0673828l1.0634766.019043h1.2270508l1.072998-.019043c.0449219,0,.0673828.0224609.0673828.0673828l-.019043.9287109v.8276367l.019043,1.6459961c0,.0444336-.0224609.0668945-.0673828.0668945h-.3173828c-.045166,0-.0673828-.0224609-.0673828-.0668945v-.5922852h-2.5842285Zm-.1972656-5.9863281c-.0129395-.019043-.0192871-.0336914-.0192871-.0429688,0-.0161133.0385742-.0371094.1154785-.0625l.1396484-.0385742c.0415039-.0126953.0705566-.0195312.0866699-.0195312.0256348,0,.0495605.0195312.0720215.0581055.192627.3720703.3400879.7827148.4428711,1.2319336.0063477.019043.0095215.0336914.0095215.0429688,0,.0161133-.0368652.0371094-.1105957.0625l-.1540527.0532227c-.0546875.0126953-.0913086.019043-.1105957.019043s-.0354004-.019043-.0480957-.0576172c-.1252441-.5131836-.2663574-.9287109-.423584-1.246582Zm.1972656,5.5917969h2.5842285v-2.0693359h-2.5842285v2.0693359Zm6.621582-7.1074219c.1120605,0,.1875-.0097656.2260742-.0288086.0256348-.0126953.0578613-.019043.0961914-.019043.0546875,0,.126709.0463867.2165527.1391602.0993652.0961914.1491699.171875.1491699.2265625,0,.0415039-.0192871.0766602-.0576172.1054688-.0673828.0449219-.1364746.1445312-.2070312.2983398-.4523926.9243164-.90625,1.7373047-1.3618164,2.4399414.6640625.5131836,1.1179199.9638672,1.3618164,1.3520508.1955566.3051758.293457.6274414.293457.9672852,0,.9013672-.6271973,1.3764648-1.8813477,1.4243164-.0354004.003418-.0610352.0048828-.0771484.0048828-.0544434,0-.0979004-.0527344-.1298828-.1586914-.0319824-.128418-.0817871-.2197266-.1491699-.2744141,1.1901855.0195312,1.7854004-.3256836,1.7854004-1.034668,0-.3271484-.1252441-.6479492-.3754883-.9624023-.2436523-.3076172-.6896973-.7294922-1.3376465-1.265625.5966797-.8818359,1.0986328-1.8188477,1.5061035-2.8100586h-2.0595703v5.8129883l.0192871,1.9633789c0,.0449219-.0224609.0673828-.0673828.0673828h-.3369141c-.0449219,0-.0673828-.0224609-.0673828-.0673828l.0192871-1.9536133v-4.215332l-.0192871-1.9633789c0-.0449219.0224609-.0673828.0673828-.0673828l.8662109.019043h1.520752Z"/>
        <path class="cls-1" d="m43.8492248,59.9359099c-.0705566.0800781-.1235352.1923828-.1589355.3364258-.0126953.0869141-.0288086.1367188-.0480957.1494141-.0161133.0126953-.060791.0209961-.1347656.0239258-1.3986816.0869141-2.5695801.1298828-3.5126953.1298828-1.1933594,0-2.0146484-.1123047-2.4638672-.3369141-.4138184-.1953125-.7185059-.5292969-.9143066-1.0004883-.2341309.2597656-.588623.5869141-1.0634766.9814453-.125.0961914-.1972656.1650391-.2165527.2070312-.0351562.0673828-.0720215.1010742-.1105957.1010742-.0288086,0-.064209-.0258789-.105957-.0771484-.0961914-.128418-.1779785-.2568359-.2453613-.3847656.2438965-.128418.4492188-.2568359.6159668-.3852539.295166-.2148438.6015625-.4970703.9191895-.8466797v-2.5361328h-.7988281l-.6689453.019043c-.0449219,0-.0673828-.0219727-.0673828-.0673828v-.3271484c0-.0449219.0224609-.0673828.0673828-.0673828l.6689453.0195312h.4907227l.6931152-.0195312c.0446777,0,.0671387.0224609.0671387.0673828l-.019043.9194336v2.0112305c.1025391.2758789.2243652.4926758.3657227.6499023.1281738.144043.2983398.2661133.5100098.3657227.3688965.1826172,1.0424805.2739258,2.0209961.2739258,1.2929688,0,2.6628418-.0688477,4.1096191-.206543Zm-8.1564941-7.5024414c.4042969.4169922.7651367.8710938,1.0827637,1.3618164.0126953.0195312.0192871.0356445.0192871.0483398,0,.0258789-.0290527.0561523-.0866699.0913086l-.1396484.0961914c-.0610352.0419922-.1010742.0625-.1203613.0625-.019043,0-.0383301-.0141602-.0576172-.0429688-.3432617-.5649414-.6914062-1.0170898-1.0441895-1.3574219-.0161133-.019043-.0241699-.0336914-.0241699-.0429688,0-.0195312.0319824-.0512695.0961914-.0961914l.1252441-.0961914c.0480957-.0322266.0817871-.0483398.1010742-.0483398.0126953,0,.0288086.0078125.0480957.0239258Zm4.8408203,1.8911133h.9143066l1.3041992-.019043c.0449219,0,.0673828.0224609.0673828.0673828l-.0192871.8901367v1.1455078l.0192871.8901367c0,.0449219-.0224609.0673828-.0673828.0673828l-1.3041992-.0239258h-.9143066v.8662109h1.5063477l1.4003906-.0195312c.0446777,0,.0671387.0224609.0671387.0673828v.2983398c0,.0449219-.0224609.0673828-.0671387.0673828l-1.4003906-.019043h-1.5063477l.0192871,1.1015625c0,.0483398-.0224609.0722656-.0673828.0722656h-.3271484c-.0449219,0-.0673828-.0239258-.0673828-.0722656l.0192871-1.1015625h-1.3232422l-1.4003906.019043c-.0449219,0-.0673828-.0224609-.0673828-.0673828v-.2983398c0-.0449219.0224609-.0673828.0673828-.0673828l1.4003906.0195312h1.3232422v-.8662109h-.8181152l-1.3137207.0239258c-.0449219,0-.0673828-.0224609-.0673828-.0673828l.0192871-.8901367v-1.1455078l-.0192871-.8901367c0-.0449219.0224609-.0673828.0673828-.0673828l1.3137207.019043h.8181152v-.8129883h-1.2607422l-1.390625.019043c-.0483398,0-.0722656-.0224609-.0722656-.0673828v-.2983398c0-.0449219.0239258-.0673828.0722656-.0673828l1.390625.0195312h1.2607422v-.0288086c0-.4331055-.0224609-.7685547-.0673828-1.0058594.1635742,0,.3271484.0161133.4907227.0478516.0739746.0131836.1108398.0405273.1108398.0820312,0,.0126953-.0065918.0351562-.0192871.0673828-.0161133.0351562-.0256348.0639648-.0288086.0864258-.041748.1445312-.0627441.3657227-.0627441.6640625v.0869141h1.4677734l1.390625-.0195312c.0449219,0,.0673828.0224609.0673828.0673828v.2983398c0,.0449219-.0224609.0673828-.0673828.0673828l-1.390625-.019043h-1.4677734v.8129883Zm-2.1894531,1.2944336h1.7661133v-.9287109h-1.7661133v.9287109Zm0,.3466797v1.0151367h1.7661133v-1.0151367h-1.7661133Zm2.1894531-1.2753906v.9287109h1.8527832v-.9287109h-1.8527832Zm1.8527832,1.2753906h-1.8527832v1.0151367h1.8527832v-1.0151367Z"/>
        <path class="cls-1" d="m46.2842834,55.272824c-.5134277-.6254883-1.0090332-1.1469727-1.4870605-1.5639648-.0256348-.0224609-.0385742-.0415039-.0385742-.0576172,0-.0195312.0224609-.0561523.0673828-.1108398l.0964355-.1201172c.0351562-.0449219.0625-.0673828.0817871-.0673828.0126953,0,.0288086.0092773.0480957.0288086.0639648.0576172.1442871.1313477.2404785.2211914.1154785.1123047.1828613.1767578.2021484.1923828.3625488-.5483398.6254883-.9941406.7893066-1.3374023.0864258-.1733398.145752-.3354492.1779785-.4863281.1313477.0449219.2727051.1108398.4233398.1972656.0578613.0385742.0866699.0756836.0866699.1108398,0,.0288086-.0224609.0610352-.0673828.0961914-.0800781.0576172-.1428223.1235352-.1877441.1972656-.3366699.5776367-.6560059,1.0761719-.9575195,1.496582.2663574.2661133.5229492.5419922.7700195.8276367.2277832-.3432617.4875488-.7700195.779541-1.2797852.125-.2246094.2197266-.4414062.2839355-.6499023.1635742.0546875.3061523.1206055.4282227.1972656.0512695.0322266.0769043.0673828.0769043.105957s-.0256348.0786133-.0769043.1201172c-.0578613.0454102-.170166.1992188-.3369141.4624023-.548584.8852539-1.1164551,1.7163086-1.7033691,2.4926758.3913574-.0195312.9816895-.0610352,1.770752-.1254883-.1315918-.3208008-.2695312-.6030273-.4138184-.8466797-.0095215-.0195312-.0144043-.0336914-.0144043-.043457,0-.019043.0336914-.0449219.1010742-.0771484l.1105957-.0478516c.0480957-.0258789.0803223-.0385742.0961914-.0385742.0192871,0,.0368652.0161133.0529785.0483398.2727051.484375.5117188,1.0234375.717041,1.6166992.0063477.0161133.0097656.0273438.0097656.0336914,0,.0224609-.0385742.0498047-.1157227.081543l-.1105957.0532227c-.0576172.0224609-.0961914.0336914-.1154785.0336914-.0224609,0-.0400391-.0209961-.0529785-.0625-.0288086-.0932617-.0769043-.2358398-.1442871-.4282227-.1091309.0161133-.2744141.0351562-.4956055.0576172-.1958008.0224609-.3432617.0400391-.4428711.0527344v2.6225586l.0097656,1.4873047c0,.0449219-.0192871.0673828-.0578613.0673828h-.3464355c-.0449219,0-.0673828-.0224609-.0673828-.0673828l.0192871-1.4873047v-2.5839844c-.4619141.0351562-.8261719.065918-1.0922852.0913086-.1828613.0131836-.3049316.0385742-.3657227.0771484-.0512695.0258789-.0883789.0385742-.1105957.0385742-.0354004,0-.064209-.0400391-.0866699-.1201172-.0192871-.0644531-.0449219-.2119141-.0771484-.4428711.1958008.0224609.3818359.0336914.5583496.0336914h.1779785c.2214355-.2856445.484375-.6513672.7893066-1.097168Zm-1.4775391,4.6337891c.2470703-.5678711.4106445-1.1689453.4909668-1.8041992.0288086-.2441406.0432129-.4189453.0432129-.5249023v-.0961914c.1604004.0258789.295166.0546875.4042969.0869141.0834961.0288086.125.059082.125.0913086,0,.0288086-.0158691.0673828-.0480957.1157227-.0449219.0605469-.0817871.1860352-.1105957.375-.1027832.6835938-.253418,1.2915039-.4523926,1.8237305-.0256348.0771484-.0512695.1157227-.0769043.1157227-.0224609,0-.0625-.0224609-.1203613-.0673828-.0769043-.0576172-.1621094-.0961914-.255127-.1157227Zm2.9404297-2.4443359c.0415039-.0126953.0688477-.019043.0817871-.019043.019043,0,.0336914.0126953.0432129.0380859.2404785.5839844.421875,1.2241211.5437012,1.9204102.0031738.0224609.0048828.0351562.0048828.0380859,0,.0292969-.0385742.0595703-.1154785.0917969l-.1252441.0478516c-.0673828.0288086-.1088867.043457-.125.043457-.0192871,0-.0305176-.0209961-.0336914-.0625-.0961914-.6542969-.2597656-1.3007812-.4907227-1.9394531-.0097656-.019043-.0146484-.0336914-.0146484-.043457,0-.0253906.0402832-.0512695.1203613-.0766602l.1108398-.0385742Zm3.5944824-1.9633789c.677002.6162109,1.517334,1.1420898,2.5214844,1.5786133-.0800781.0703125-.1459961.1552734-.1972656.2548828-.041748.0864258-.0786133.1298828-.1105957.1298828-.0161133,0-.0546875-.0146484-.1154785-.043457-.9753418-.503418-1.7692871-1.0424805-2.3820801-1.6166992-.6447754.6577148-1.4372559,1.2304688-2.3771973,1.7177734-.064209.0322266-.104248.0483398-.1201172.0483398-.0227051,0-.0578613-.0385742-.105957-.1157227-.0610352-.0927734-.1298828-.1699219-.2070312-.230957.972168-.4360352,1.8093262-1.0102539,2.5119629-1.7226562-.442627-.465332-.7971191-.9785156-1.0634766-1.5400391-.2758789.4267578-.6142578.8359375-1.0153809,1.2270508-.0480957.0483398-.0834961.0722656-.1057129.0722656-.0258789,0-.065918-.0268555-.1203613-.081543-.0578613-.0581055-.1396484-.1108398-.2453613-.1586914.8244629-.6865234,1.4147949-1.519043,1.770752-2.4975586.0769043-.2148438.1203613-.3916016.1298828-.5292969.1635742.0288086.3112793.0703125.4428711.125.060791.0258789.0913086.0595703.0913086.1010742s-.0224609.0800781-.0673828.1152344c-.064209.0517578-.1171875.1347656-.1586914.2504883-.0771484.1796875-.1508789.3398438-.2214355.480957h2.0019531c.1120605,0,.1875-.0092773.2260742-.0288086.0256348-.0126953.0512695-.019043.0769043-.019043.0610352,0,.1364746.0498047.2263184.1489258.0866699.0932617.1298828.1591797.1298828.1972656,0,.0546875-.0256348.0961914-.0769043.1254883-.0610352.0317383-.1203613.1010742-.1782227.206543-.4008789.699707-.8212891,1.3012695-1.2607422,1.8046875Zm-1.6169434,4.7016602v.5722656c0,.0385742-.0256348.0581055-.0769043.0581055h-.3078613c-.045166,0-.0673828-.0195312-.0673828-.0581055l.0192871-1.6357422v-.7314453l-.0192871-1.0253906c0-.0449219.0222168-.0673828.0673828-.0673828l1.0634766.0195312h1.2653809l1.0634766-.0195312c.0449219,0,.0673828.0224609.0673828.0673828l-.019043.9194336v.8466797l.019043,1.6459961c0,.0385742-.0224609.0576172-.0673828.0576172h-.3173828c-.045166,0-.0673828-.019043-.0673828-.0576172v-.5917969h-2.6228027Zm0-.3950195h2.6228027v-2.0786133h-2.6228027v2.0786133Zm1.3137207-4.6049805c.465332-.5327148.8549805-1.1162109,1.1694336-1.7514648h-2.2038574c-.0065918.0126953-.0336914.059082-.0817871.1396484.2949219.609375.6672363,1.1464844,1.1162109,1.6118164Z"/>
        <path class="cls-1" d="m62.1353576,57.5394255h-2.911377v1.1835938l.0192871,1.6938477c0,.0483398-.0224609.0722656-.0673828.0722656h-.3562012c-.0449219,0-.0673828-.0239258-.0673828-.0722656l.0192871-1.6938477v-1.1835938h-2.7668457c-.0739746.7539062-.2087402,1.3759766-.4042969,1.8666992-.1442871.359375-.3608398.7431641-.6496582,1.1503906-.0480957.0639648-.0817871.0961914-.1010742.0961914-.0161133,0-.0544434-.0258789-.1154785-.0771484-.0834961-.0639648-.189209-.1201172-.317627-.168457.4650879-.5771484.78125-1.2011719.947998-1.871582.170166-.6928711.255127-1.668457.255127-2.9257812v-1.4389648l-.0192871-1.5205078c0-.0449219.0224609-.0673828.0673828-.0673828l1.4099121.019043h4.0422363l1.4291992-.019043c.0449219,0,.0673828.0224609.0673828.0673828l-.0192871,1.5205078v4.3837891l.0095215,1.3139648c0,.2822266-.0913086.4921875-.2741699.6303711-.1635742.1186523-.5036621.1777344-1.0202637.1777344h-.1828613c-.0898438,0-.1428223-.0078125-.1586914-.0239258-.0129395-.0161133-.0258789-.0610352-.0385742-.1347656-.0224609-.128418-.0722656-.2470703-.1491699-.355957.2695312.0253906.6015625.0385742.9960938.0385742.2373047,0,.3562012-.1411133.3562012-.4238281v-2.2373047Zm-6.1018066-.4042969h2.7380371v-1.8525391h-2.6994629v.3271484c0,.6289062-.0129395,1.137207-.0385742,1.5253906Zm.0385742-2.2568359h2.6994629v-1.8623047h-2.6994629v1.8623047Zm6.0632324,0v-1.8623047h-2.911377v1.8623047h2.911377Zm0,.4042969h-2.911377v1.8525391h2.911377v-1.8525391Z"/>
        <path class="cls-1" d="m19.2352111,64.0213591v-.7075195h-1.6987305l-1.4099121.019043c-.0449219,0-.0673828-.0239258-.0673828-.0717773v-.2841797c0-.0449219.0224609-.0673828.0673828-.0673828l1.4099121.0195312h4.0229492l1.4099121-.0195312c.0449219,0,.0673828.0224609.0673828.0673828v.2841797c0,.0478516-.0224609.0717773-.0673828.0717773l-1.4099121-.019043h-1.8815918v.7075195h2.5410156l1.3618164-.0195312c.0512695,0,.0769043.0224609.0769043.0673828l-.0192871.4379883v.3608398l.0192871.9868164c0,.0478516-.0256348.0717773-.0769043.0717773h-.317627c-.045166,0-.0673828-.0239258-.0673828-.0717773v-1.4677734h-3.5178223v1.0825195l.0192871.9770508c0,.0449219-.0224609.0673828-.0673828.0673828h-.3464355c-.0449219,0-.0673828-.0224609-.0673828-.0673828l.0192871-.9770508v-1.0825195h-3.3540039v1.4677734c0,.0478516-.0224609.0717773-.0673828.0717773h-.3271484c-.0449219,0-.0673828-.0239258-.0673828-.0717773l.0192871-.9868164v-.3125l-.0192871-.4863281c0-.0449219.0224609-.0673828.0673828-.0673828l1.3618164.0195312h2.3867188Zm-.0529785,5.6157227h-2.3144531v.5048828c0,.0454102-.0227051.0673828-.0673828.0673828h-.317627c-.0385742,0-.0578613-.0219727-.0578613-.0673828l.0192871-.9091797v-1.3569336l-.0192871-.9194336c0-.0512695.0192871-.0766602.0578613-.0766602l1.4772949.019043h3.0749512l1.4338379-.019043c.0449219,0,.0673828.0253906.0673828.0766602l-.019043.8613281v.9145508l.019043.8564453c0,.0449219-.0224609.0673828-.0673828.0673828l-1.4338379-.019043h-1.4196777v.3847656c0,.2084961.041748.3579102.1252441.4477539.0639648.0703125.168457.1186523.3127441.144043.2341309.0385742.6960449.0581055,1.3857422.0581055.8500977,0,1.4052734-.0883789,1.6650391-.2646484.1154785-.0771484.1972656-.2055664.2453613-.3852539.0483398-.1733398.0786133-.4360352.0915527-.7890625.1025391.0800781.2084961.1425781.317627.1875.083252.0356445.125.0756836.125.1206055,0,.0161133-.0031738.0478516-.0095215.0961914-.0385742.3720703-.107666.6479492-.2070312.8276367-.0737305.1313477-.1779785.2407227-.3127441.3271484-.295166.1894531-.927002.2836914-1.8959961.2836914-.7731934,0-1.3376465-.0317383-1.6938477-.0961914-.3881836-.0703125-.5822754-.3432617-.5822754-.8178711v-.5244141Zm-1.8623047-4.6821289h.4958496l.6591797-.0195312c.0449219,0,.0673828.0239258.0673828.0722656v.2260742c0,.0449219-.0224609.0673828-.0673828.0673828l-.6591797-.019043h-.4958496l-.6591797.019043c-.0449219,0-.0673828-.0224609-.0673828-.0673828v-.2260742c0-.0483398.0224609-.0722656.0673828-.0722656l.6591797.0195312Zm0,.8901367h.4958496l.6591797-.0195312c.0449219,0,.0673828.0224609.0673828.0673828v.2265625c0,.0449219-.0224609.0673828-.0673828.0673828l-.6591797-.0195312h-.4958496l-.6591797.0195312c-.0449219,0-.0673828-.0224609-.0673828-.0673828v-.2265625c0-.0449219.0224609-.0673828.0673828-.0673828l.6591797.0195312Zm1.8623047,2.2182617v-.8085938h-2.3144531v.8085938h2.3144531Zm0,.3369141h-2.3144531v.8803711h2.3144531v-.8803711Zm.4331055-.3369141h2.4638672v-.8085938h-2.4638672v.8085938Zm0,.3369141v.8803711h2.4638672v-.8803711h-2.4638672Zm1.5302734-3.4453125h.5437012l.6977539-.0195312c.0449219,0,.0673828.0239258.0673828.0722656v.2260742c0,.0449219-.0224609.0673828-.0673828.0673828l-.6977539-.019043h-.5437012l-.6879883.019043c-.0483398,0-.0722656-.0224609-.0722656-.0673828v-.2260742c0-.0483398.0239258-.0722656.0722656-.0722656l.6879883.0195312Zm0,.8901367h.5437012l.6977539-.0195312c.0449219,0,.0673828.0224609.0673828.0673828v.2265625c0,.0449219-.0224609.0673828-.0673828.0673828l-.6977539-.0195312h-.5437012l-.6879883.0195312c-.0483398,0-.0722656-.0224609-.0722656-.0673828v-.2265625c0-.0449219.0239258-.0673828.0722656-.0673828l.6879883.0195312Z"/>
        <path class="cls-1" d="m27.3628967,64.7479216h-1.1645508l-1.034668.019043c-.0449219,0-.0673828-.0224609-.0673828-.0673828v-.2983398c0-.0449219.0224609-.0673828.0673828-.0673828l1.034668.0195312h1.1645508l1.034668-.0195312c.0449219,0,.0673828.0224609.0673828.0673828v.2983398c0,.0449219-.0224609.0673828-.0673828.0673828l-1.034668-.019043Zm-1.3713379,5.9716797v.5195312c0,.0483398-.0224609.0722656-.0673828.0722656h-.3081055c-.0449219,0-.0673828-.0239258-.0673828-.0722656l.0192871-1.4335938v-.5825195l-.0192871-.8374023c0-.0449219.0224609-.0673828.0673828-.0673828l.8566895.0195312h.779541l.8708496-.0195312c.0449219,0,.0673828.0224609.0673828.0673828l-.0192871.6835938v.6157227l.0192871,1.3813477c0,.0449219-.0224609.0673828-.0673828.0673828h-.2983398c-.0449219,0-.0673828-.0224609-.0673828-.0673828v-.3466797h-1.7658691Zm1.3137207-7.3193359h-.8085938l-.8564453.0195312c-.0480957,0-.0722656-.0224609-.0722656-.0673828v-.2983398c0-.0449219.0241699-.0673828.0722656-.0673828l.8564453.019043h.8085938l.8659668-.019043c.0449219,0,.0673828.0224609.0673828.0673828v.2983398c0,.0449219-.0224609.0673828-.0673828.0673828l-.8659668-.0195312Zm-.0915527,2.6899414h-.7072754l-.8085938.0195312c-.0449219,0-.0673828-.0224609-.0673828-.0673828v-.2983398c0-.0449219.0224609-.0673828.0673828-.0673828l.8085938.019043h.7072754l.8083496-.019043c.0480957,0,.0722656.0224609.0722656.0673828v.2983398c0,.0449219-.0241699.0673828-.0722656.0673828l-.8083496-.0195312Zm0,1.309082h-.7072754l-.8085938.019043c-.0449219,0-.0673828-.0219727-.0673828-.0673828v-.293457c0-.0478516.0224609-.0722656.0673828-.0722656l.8085938.0195312h.7072754l.8083496-.0195312c.0480957,0,.0722656.0244141.0722656.0722656v.293457c0,.0454102-.0241699.0673828-.0722656.0673828l-.8083496-.019043Zm-1.222168,2.9448242h1.7658691v-1.640625h-1.7658691v1.640625Zm5.3125-6.640625v1.9248047h1.1020508l1.3327637-.019043c.0449219,0,.0673828.0224609.0673828.0673828v.3173828c0,.0449219-.0224609.0673828-.0673828.0673828l-1.3327637-.019043h-1.1020508v1.7324219h.6303711l1.1645508-.0195312c.0449219,0,.0673828.0224609.0673828.0673828l-.0192871.909668v.8129883l.0192871,1.6362305c0,.0483398-.0224609.0722656-.0673828.0722656h-.3271484c-.045166,0-.0673828-.0239258-.0673828-.0722656v-.4619141h-3.1230469v.5195312c0,.0483398-.0227051.0722656-.0673828.0722656h-.3273926c-.0449219,0-.0673828-.0239258-.0673828-.0722656l.0192871-1.6503906v-.7412109l-.0192871-1.0249023c0-.0449219.0224609-.0673828.0673828-.0673828l1.1743164.0195312h.5002441v-1.7324219h-.8852539l-1.3234863.019043c-.0449219,0-.0673828-.0224609-.0673828-.0673828v-.3173828c0-.0449219.0224609-.0673828.0673828-.0673828l1.3234863.019043h.8852539v-1.8041992c-.5163574.1313477-1.0939941.2421875-1.7321777.3320312-.0385742.0063477-.065918.0092773-.0817871.0092773-.0385742,0-.0771484-.0415039-.1154785-.125-.0480957-.1025391-.1140137-.190918-.1972656-.2646484,1.3728027-.1376953,2.5678711-.4204102,3.5849609-.8466797.2373047-.1030273.4089355-.2021484.5148926-.2983398.1281738.0991211.2404785.2016602.3366699.3076172.0385742.0385742.0578613.0771484.0578613.1157227,0,.0415039-.0466309.0688477-.1396484.081543-.0930176.0097656-.1843262.0322266-.2741699.0673828-.4941406.1958008-.9978027.362793-1.5109863.5004883Zm-1.7226562,6.621582h3.1230469v-2.1557617h-3.1230469v2.1557617Z"/>
        <path class="cls-1" d="m35.9669006,64.719113v-1.1020508c0-.5419922-.0224609-.9208984-.0673828-1.1357422.1411133.0097656.3081055.0273438.5004883.0527344.0737305.0097656.1108398.0356445.1108398.0771484,0,.0322266-.0209961.0947266-.0627441.1875-.0319824.0644531-.0480957.3305664-.0480957.7988281v1.121582h.0673828l.8469238-.0195312c.0546875,0,.0817871.0224609.0817871.0673828v.2983398c0,.0449219-.0270996.0673828-.0817871.0673828l-.8469238-.019043h-.0288086c.2084961.7539062.5004883,1.4277344.8757324,2.0209961-.0673828.0708008-.1362305.1699219-.2067871.2983398-.0322266.0576172-.0561523.0864258-.0722656.0864258-.0129395,0-.0336914-.0317383-.0625-.0961914-.2727051-.6220703-.4829102-1.2573242-.6303711-1.9052734.0063477,1.3310547.0239258,2.71875.0529785,4.1621094.0063477.3530273.0144043.7524414.0239258,1.1982422.0063477.2148438.0097656.3305664.0097656.3466797,0,.0449219-.0227051.0673828-.0673828.0673828h-.3562012c-.0449219,0-.0673828-.0224609-.0673828-.0673828,0-.0097656.0048828-.2036133.0144043-.5825195.0449219-1.8061523.0690918-3.5107422.0722656-5.1152344-.2597656,1.3217773-.6240234,2.4189453-1.0922852,3.2915039-.0322266.0610352-.0578613.0917969-.0771484.0917969-.0224609,0-.0498047-.0307617-.0817871-.0917969-.0512695-.0961914-.1235352-.1777344-.2165527-.2451172.5583496-.9208984.9978027-2.0742188,1.3186035-3.4599609h-.1347656l-.8564453.019043c-.0483398,0-.0722656-.0224609-.0722656-.0673828v-.2983398c0-.0449219.0239258-.0673828.0722656-.0673828l.8564453.0195312h.2260742Zm5.3703613,5.2641602c-.7216797.5454102-1.4997559.9482422-2.3337402,1.2080078-.0673828.0224609-.107666.0336914-.1203613.0336914-.0354004,0-.0722656-.043457-.1105957-.1298828-.0354004-.0800781-.1010742-.1586914-.1975098-.2358398.9174805-.2084961,1.7724609-.612793,2.5649414-1.2128906-.253418-.5068359-.4541016-1.074707-.6015625-1.703125h-1.8718262c-.1186523,1.3442383-.5695801,2.3818359-1.3522949,3.1132812-.0512695.0512695-.0866699.0771484-.1057129.0771484-.0224609,0-.065918-.0288086-.130127-.0869141-.0671387-.0673828-.1459961-.1171875-.2355957-.1489258.4875488-.3852539.8452148-.8520508,1.072998-1.4003906.1796875-.4331055.2919922-.9511719.3369141-1.5541992-.2919922.0029297-.5454102.0078125-.7602539.0141602-.0290527,0-.0834961.0019531-.1638184.0048828h-.0527344c-.045166,0-.0673828-.0224609-.0673828-.0673828v-.2885742c0-.0449219.0222168-.0673828.0673828-.0673828l1.390625.019043h1.7851562c-.2373047-1.1000977-.3896484-2.3818359-.4570312-3.8447266-.0161133-.5229492-.0512695-.9125977-.105957-1.1694336.2119141.0097656.3754883.0258789.4909668.0483398.0866699.0126953.1298828.0415039.1298828.0864258,0,.0063477-.0161133.065918-.0480957.1782227-.0224609.0639648-.0336914.2246094-.0336914.480957,0,.0961914.0014648.2119141.0048828.3466797.0415039,1.4790039.1860352,2.7700195.4331055,3.8735352h1.2702637l1.4003906-.019043c.0383301,0,.0576172.0224609.0576172.0673828v.2885742c0,.0449219-.0192871.0673828-.0576172.0673828l-1.4003906-.019043h-1.1740723c.1442871.5966797.315918,1.0727539.5148926,1.4291992.2502441-.2216797.4602051-.4414062.6303711-.659668.1347656-.1855469.2229004-.3447266.2646484-.4760742.1635742.0834961.2822266.1557617.355957.2163086.0512695.0449219.0771484.0849609.0771484.1206055,0,.0351562-.0305176.0673828-.0915527.0961914-.0705566.0385742-.1618652.125-.2741699.2597656-.2053223.2568359-.4604492.5195312-.7651367.7890625.1987305.3081055.4057617.5517578.6206055.7314453.1894531.1542969.3530273.230957.4909668.230957.1572266,0,.2741699-.1074219.3513184-.3222656.0769043-.2021484.1298828-.5341797.1586914-.9960938.064209.0800781.1474609.1489258.2502441.2070312.0866699.0512695.1298828.0976562.1298828.1396484,0,.0092773-.0046387.0449219-.0144043.1054688-.0673828.5102539-.1699219.8598633-.3078613,1.0493164-.1252441.1796875-.3081055.2695312-.548584.2695312-.4941406,0-.9833984-.3837891-1.4677734-1.1503906Zm-1.7756348-3.4306641c-.6064453.1123047-1.1245117.1938477-1.5541992.2451172-.1828613.0258789-.3017578.0595703-.3562012.1010742-.0385742.0258789-.0722656.0385742-.1010742.0385742-.0449219,0-.0769043-.0322266-.0961914-.0961914-.0385742-.1157227-.0673828-.2470703-.0866699-.3945312.0834961.0063477.2004395.0092773.3513184.0092773.2148438-.2661133.4716797-.6206055.7700195-1.0634766-.4042969-.5161133-.7685547-.9140625-1.0925293-1.1933594-.0224609-.019043-.0336914-.0336914-.0336914-.0429688,0-.0161133.0209961-.0483398.0627441-.0961914l.0961914-.0966797c.0319824-.0380859.0561523-.0576172.0720215-.0576172.0097656,0,.0256348.0097656.0483398.0288086.0256348.0195312.0673828.0581055.125.1157227.0480957.0415039.0849609.0737305.1105957.0961914.2502441-.3496094.4667969-.7138672.6496582-1.0922852.0578613-.125.1010742-.253418.1298828-.3852539.1540527.0581055.2839355.1171875.3898926.1782227.0544434.0258789.0817871.0625.0817871.1108398,0,.0351562-.0305176.0703125-.0913086.105957-.064209.0541992-.1154785.1137695-.1540527.1777344-.2600098.4589844-.5100098.847168-.7507324,1.1645508.1699219.1767578.357666.3964844.5629883.6591797.1828613-.2788086.3144531-.4956055.3945312-.6494141.0803223-.1508789.1364746-.2885742.168457-.4140625.1315918.0581055.2583008.1298828.380127.2167969.0480957.0351562.0722656.0673828.0722656.0961914,0,.0415039-.0273438.0786133-.0817871.1108398-.0737305.0449219-.190918.1923828-.3513184.4423828-.4042969.6064453-.7683105,1.1230469-1.0922852,1.5498047.5900879-.0708008,1.0073242-.1235352,1.2512207-.1591797-.0866699-.1923828-.1782227-.3608398-.2744141-.5048828-.0161133-.0195312-.0241699-.0356445-.0241699-.0483398,0-.0161133.0273438-.0385742.0820312-.0673828l.1345215-.0722656c.0322266-.0126953.0529785-.019043.0627441-.019043.0158691,0,.0319824.0126953.0480957.0385742.2084961.3364258.3896484.7055664.5437012,1.1064453.0063477.0224609.0095215.0385742.0095215.0483398,0,.0224609-.0239258.0449219-.0720215.0673828l-.1298828.0625c-.0515137.0258789-.0817871.0385742-.0915527.0385742-.0161133,0-.0305176-.0161133-.0432129-.0483398-.0290527-.0898438-.0690918-.1923828-.1203613-.3076172Zm-.4812012,2.1313477c.3562012.2089844.6784668.4379883.9672852.6884766.0158691.0161133.0239258.0302734.0239258.0429688,0,.0161133-.0144043.0449219-.0432129.0869141l-.1105957.144043c-.0354004.0449219-.0610352.0673828-.0771484.0673828s-.0368652-.0126953-.0625-.0380859c-.2727051-.2729492-.5839844-.5117188-.9335938-.7172852-.0256348-.0161133-.0385742-.0302734-.0385742-.043457,0-.0126953.0224609-.0449219.0673828-.0961914l.0866699-.105957c.0288086-.0351562.0512695-.0527344.0673828-.0527344.0097656,0,.0273438.0083008.0529785.0239258Zm4.0710449-2.3671875c-.6833496.1152344-1.2255859.1972656-1.6264648.2451172-.170166.0224609-.2919922.0561523-.3657227.1010742-.0385742.0258789-.0705566.0385742-.0961914.0385742-.0480957,0-.0817871-.0322266-.1010742-.0961914-.0192871-.0737305-.0480957-.2021484-.0866699-.3847656.0769043.0063477.1843262.0092773.3225098.0092773.1569824-.1923828.380127-.4921875.6687012-.8999023-.3657227-.5292969-.7185059-.9399414-1.0585938-1.2319336-.0224609-.015625-.0336914-.0302734-.0336914-.0429688s.0224609-.043457.0673828-.0917969l.1105957-.1103516c.0290527-.0288086.0480957-.043457.0578613-.043457.0095215,0,.0224609.0083008.0385742.0239258.0576172.0483398.1474609.1333008.2692871.2553711.2341309-.3432617.4313965-.6850586.592041-1.0249023.060791-.1254883.1057129-.2568359.1347656-.3950195.1569824.0581055.2885742.1171875.3945312.1782227.0544434.0351562.0817871.0688477.0817871.1010742,0,.0351562-.0305176.0708008-.0915527.105957-.0480957.0253906-.0993652.0849609-.1538086.1777344-.2663574.4492188-.5070801.8168945-.7219238,1.1020508.1604004.1704102.3417969.3916016.5437012.6640625.2470703-.3945312.4042969-.6542969.4716797-.7792969.0993652-.1860352.1586914-.3305664.1779785-.4331055.1445312.0610352.2712402.1333008.380127.2163086.0480957.0356445.0722656.0673828.0722656.0961914,0,.0449219-.0305176.0820312-.0913086.1108398-.0803223.0449219-.2006836.1923828-.361084.4428711-.4555664.6894531-.8212891,1.2045898-1.097168,1.5444336.4619141-.0385742.9125977-.0961914,1.3522949-.1733398-.0996094-.1889648-.1989746-.3510742-.2983398-.4858398-.0097656-.0161133-.0144043-.0302734-.0144043-.043457,0-.019043.0288086-.0429688.0866699-.0717773l.1057129-.0629883c.0354004-.015625.0593262-.0239258.0722656-.0239258.0158691,0,.0351562.0146484.0576172.043457.2341309.3242188.4443359.715332.6303711,1.1743164.0097656.015625.0146484.0302734.0146484.0429688,0,.0195312-.0241699.0419922-.0722656.0673828l-.1298828.0673828c-.0480957.0258789-.0786133.0385742-.0915527.0385742-.0126953,0-.0239258-.0161133-.0336914-.0483398-.0544434-.1411133-.1137695-.2758789-.1779785-.4038086Zm-1.034668.3657227c.1958008.1572266.3754883.3300781.5390625.5195312.0158691.019043.0239258.0351562.0239258.0483398,0,.0126953-.0175781.0336914-.0527344.0625l-.0866699.0766602c-.0480957.0419922-.0803223.0625-.0961914.0625-.0129395,0-.0307617-.0141602-.0529785-.0429688-.1635742-.2148438-.3481445-.3916016-.5534668-.5292969-.0224609-.0161133-.0336914-.0307617-.0336914-.043457,0-.0161133.0288086-.0449219.0866699-.0864258l.0866699-.0673828c.0256348-.0224609.0480957-.0336914.0673828-.0336914.0126953,0,.0366211.0112305.0720215.0336914Z"/>
        <path class="cls-1" d="m47.1165588,62.54382c.1860352.0576172.3466797.1235352.4812012.1972656.0610352.0288086.0915527.0610352.0915527.0961914,0,.0322266-.0273438.0756836-.0817871.1298828-.064209.0644531-.1333008.1845703-.2070312.3613281-.2404785.5869141-.4780273,1.1162109-.7121582,1.5878906v4.7592773l.0241699,1.5395508c0,.0449219-.0209961.0673828-.0625.0673828h-.361084c-.0449219,0-.0673828-.0224609-.0673828-.0673828l.0192871-1.5395508v-2.5986328c0-.5454102.0031738-.9931641.0097656-1.3427734-.3305664.5776367-.7026367,1.1069336-1.1164551,1.5878906-.0480957.0546875-.0834961.0820312-.105957.0820312-.0192871,0-.0498047-.0239258-.0913086-.0722656-.0898438-.1088867-.1716309-.1845703-.2456055-.2260742.9592285-1.0200195,1.7148438-2.3242188,2.2666016-3.9121094.0961914-.2666016.1491699-.4829102.1586914-.6499023Zm2.0068359,2.8681641l-1.3666992.019043c-.0480957,0-.0722656-.0224609-.0722656-.0673828v-.3173828c0-.0449219.0241699-.0673828.0722656-.0673828l1.3666992.019043h2.3288574v-1.2993164c0-.5356445-.020752-.9140625-.0625-1.1352539.1828613.0092773.3544922.0288086.5148926.0576172.0803223.0126953.1203613.0400391.1203613.081543,0,.0097656-.0241699.0693359-.0722656.1782227-.0319824.0898438-.0480957.359375-.0480957.8085938v1.3085938h.0673828l1.371582-.019043c.0449219,0,.0673828.0224609.0673828.0673828v.3173828c0,.0449219-.0224609.0673828-.0673828.0673828l-1.371582-.019043h-.0673828v3.5273438l.0097656,1.409668c0,.2890625-.0834961.4990234-.2502441.6303711-.1220703.0996094-.486084.1494141-1.0925293.1494141h-.2741699c-.0834961,0-.1330566-.0083008-.1491699-.0239258-.0129395-.0161133-.0288086-.0610352-.0480957-.1347656-.0385742-.1479492-.0947266-.2666016-.168457-.3564453.3046875.0322266.6689453.0483398,1.0922852.0483398.166748,0,.2807617-.0322266.3417969-.0961914.0576172-.0610352.0864258-.1635742.0864258-.3081055v-4.8457031h-2.3288574Zm-.7268066,1.3378906l.1638184-.105957c.0319824-.0224609.0527344-.0336914.0625-.0336914.0126953,0,.0288086.0092773.0480957.0288086.4973145.5454102.9143066,1.1274414,1.2512207,1.746582.0095215.0161133.0144043.0307617.0144043.043457,0,.019043-.0273438.0512695-.0817871.0961914l-.168457.105957c-.0673828.0483398-.1091309.0722656-.1252441.0722656s-.0336914-.0161133-.0529785-.0483398c-.3110352-.6445312-.7055664-1.2333984-1.1835938-1.7661133-.0161133-.019043-.0241699-.0336914-.0241699-.0429688,0-.0161133.0319824-.0483398.0961914-.0961914Z"/>
        <path class="cls-1" d="m58.5455139,64.3050505c-.0480957-.1376953-.1333008-.3945312-.255127-.7700195-.0866699-.2563477-.1989746-.4667969-.3369141-.6303711.2341309-.0385742.4541016-.0576172.6594238-.0576172.0930176,0,.1394043.0371094.1394043.1108398,0,.0512695-.0031738.0961914-.0095215.1347656-.0031738.019043-.0048828.0380859-.0048828.0576172,0,.0737305.0273438.2070312.0817871.3994141.0705566.253418.1364746.4731445.1972656.6591797.8598633-.1796875,1.5927734-.3706055,2.1992188-.5727539l.0385742-.0092773c.0158691,0,.0319824.0161133.0480957.0478516.0415039.0932617.0673828.1845703.0769043.2744141.0031738.0097656.0048828.0209961.0048828.0336914,0,.0415039-.0273438.0703125-.0817871.0864258-.6064453.1894531-1.3249512.3769531-2.1557617.5629883.1762695.487793.3430176.8886719.5002441,1.203125.8054199-.1699219,1.4694824-.3544922,1.9924316-.5532227.0222168-.0063477.0400391-.0097656.0527344-.0097656.0322266,0,.0546875.019043.0673828.0576172.0385742.1157227.0610352.2084961.0673828.2792969.0031738.0161133.0048828.0288086.0048828.0385742,0,.0449219-.0209961.0737305-.0625.0864258-.5966797.1894531-1.2385254.3579102-1.9248047.5053711.4169922.862793.9399414,1.5654297,1.5686035,2.1074219.0354004.0292969.0529785.0566406.0529785.0820312,0,.0161133-.0048828.0336914-.0144043.0527344-.0610352.1220703-.1235352.2246094-.1877441.3081055-.0288086.0356445-.0576172.0532227-.0866699.0532227-.0224609,0-.0561523-.0146484-.1010742-.043457-.1186523-.0869141-.357666-.1923828-.7167969-.3178711-.552002-.1953125-1.1789551-.293457-1.8815918-.293457-.5808105,0-1.0283203.0961914-1.3425293.2890625-.2888184.1762695-.4331055.4155273-.4331055.7167969,0,.4267578.2580566.7314453.7746582.9140625.4138184.1416016,1.0087891.2119141,1.7854004.2119141.3303223,0,.6525879-.0209961.967041-.0625.0480957,0,.0722656.0209961.0722656.0625,0,.0097656-.001709.0224609-.0048828.0385742-.0192871.1025391-.0449219.2070312-.0769043.3129883-.0161133.0639648-.0498047.1010742-.1010742.1103516-.295166.0322266-.5998535.0483398-.9143066.0483398-1.9890137,0-2.9833984-.5356445-2.9833984-1.6074219,0-.4780273.230957-.8500977.6928711-1.1162109.3945312-.2280273.90625-.3417969,1.5351562-.3417969.9013672,0,1.619873.125,2.1557617.3754883-.4973145-.59375-.907959-1.1918945-1.2319336-1.7949219-1.0522461.1889648-1.9987793.3012695-2.8391113.3369141-.0578613,0-.0930176-.0292969-.105957-.0869141-.0385742-.1538086-.0625-.2695312-.0720215-.3461914.9494629-.0385742,1.8862305-.1474609,2.8100586-.3276367-.1635742-.3525391-.3271484-.7568359-.4907227-1.2124023-.7956543.1538086-1.6699219.2568359-2.6225586.3081055-.0673828,0-.107666-.0288086-.1203613-.0869141-.0192871-.1123047-.0385742-.230957-.0578613-.355957.8054199-.019043,1.6955566-.1088867,2.6708984-.2695312Z"/>
      </g>
      <path class="cls-1" d="m25.210474,15.745755c-.0539234-1.7733628.0724455-3.5478375.4434784-5.2814714.1602276-.7486172.8276341-1.6296738,1.5063-1.9705044,1.5439853-.7753835,4.1919536-1.5326757,5.7214939-.403399.4328701.3195938.7696436.7495688,1.0951676,1.1780012.7734302,1.0179438,1.6511109,2.3289455,1.6427464,3.6606129-.0015527.2482902-.0592827.4923832-.1167022.7339417-.0615567.2590188-.1231133.5180276-.18469.7770965-.1443.607142-.2228562,1.1175063-.4325094,1.7149315-.2306196.6571386-.4452215,1.3221509-.5903329,2.0040725-.2905535,1.3654359-.2630358,2.7755693.3478628,4.0534436.9923094,2.0757267,2.2524329,4.0565389,3.6290883,5.9043006.9928503,1.332589,2.3386623,2.4140529,3.5881173,3.5397234.9553654.8607214,2.0772894,1.0211995,3.2920943.4854211,1.0928236-.4819551,2.4682869.2286863,3.3873294.945298,1.1223648.8751364,1.6823952,2.2769854,1.9037988,3.6459575.2264524,1.4002262.3862593,3.0308617-.9368533,3.9033835-.6870104.453045-1.4948903.751993-2.2837171,1.0143276-.9177602.3052088-1.8597525.6256341-2.8092978.7859919-.9550148.1612795-1.7780409-.058862-2.4941818-.3291103-.2945203-.1111426-.7643444-.2834812-1.0408936-.4225522-.393031-.1976425-.5493719-.2792539-.8342255-.5223852-.158705-.1354647-.365343-.2746659-.5550417-.3707123-.2107953-.1067349-.2997494-.2209228-.5215738-.302384-.6029948-.2214637-1.2180005-.8077897-1.8997117-1.2853372-1.749241-1.2254033-2.9795328-2.4835834-4.2056473-4.1061549-.8649688-1.1446935-1.8326054-2.2238834-2.5890461-3.4355529-1.0188754-1.6320078-2.0169749-3.3045259-2.7669845-5.0689031-.7137367-1.6789692-1.2159169-3.4732983-1.5935813-5.2628191-.3856082-1.827146-.6453282-3.7055507-.7024872-5.5852177Zm1.0298344.4685619c.0475023,1.3586943.1949177,2.7125001.4492785,4.0404911.5403663,2.8211483,1.1286256,5.5197643,2.4973472,8.0823546.2590288.4849603.5379822.9592622.8363191,1.4210824,1.0499493,1.6253463,2.2241739,3.1653748,3.4126633,4.6907779,1.8213058,2.3376105,3.8983749,4.2122087,6.4219075,5.7669727,1.4330631.8828998,2.8922215,1.8639598,4.6990021,1.4384525,1.3498089-.3178808,2.6909928-.7311068,3.9735752-1.2548343,2.4034445-.9813905,1.3169319-4.2355591.2187791-5.7925069-.4119338-.584032-.9276975-1.1108047-1.5650919-1.4340949-.8670524-.439782-1.6955079-.3342291-2.5611678.0136036-.9745486.3916386-1.9294833.3282488-2.7543626-.2699978-.9852472-.7145682-1.9800209-1.460701-2.7990801-2.3510237-2.1573581-2.3450834-3.8326209-5.0451219-5.1967847-7.9082129-.447275-.9387767-.6102474-2.1022827-.5820886-3.1544358.031164-1.1661106.4014656-2.329266.6788262-3.4805208.1798717-.7465536.5475187-1.45435.6743084-2.2059523,0-.9818813.0197142-1.7476081-.5106849-2.6283643-.5291268-.8786224-1.2587411-1.5997319-1.9521926-2.3500821-.1675904-.1813542-.342814-.3681078-.5713199-.46168-.2441831-.0999832-.5191996-.0812007-.7810433-.0486643-1.063613.132169-2.3384519.59441-3.2649172,1.1443729-.4482767.2661111-.919904.8326127-.9960259,1.3239741-.2760083,1.781587-.3906769,3.6042953-.327247,5.4182885Z"/>
    </g>
  </g>
</svg>