<?xml version="1.0" encoding="UTF-8"?>
<svg id="_レイヤー_2" data-name="レイヤー 2" xmlns="http://www.w3.org/2000/svg" viewBox="0 0 77.531976 77.531976">
  <defs>
    <style>
      .cls-1 {
        fill: #fff;
      }

      .cls-1, .cls-2 {
        stroke-width: 0px;
      }

      .cls-3 {
        fill: none;
        stroke: #fff;
        stroke-miterlimit: 10;
        stroke-width: 3.0797436px;
      }

      .cls-2 {
        fill: #40506c;
      }
    </style>
  </defs>
  <g id="_レイヤー_1-2" data-name="レイヤー 1">
    <g>
      <rect class="cls-2" width="77.531976" height="77.531976" rx="16.5736591" ry="16.5736591"/>
      <g>
        <path class="cls-1" d="m15.2186247,16.3450896l-1.5517578.0239258c-.0683594,0-.1083984-.0078125-.1203613-.0239258s-.0180664-.0517578-.0180664-.1083984v-.8901367c0-.0639648.0080566-.1020508.0241699-.1142578.0158691-.0117188.0539551-.0180664.1142578-.0180664l1.5517578.0239258h1.1669922c.0241699-.2324219.0361328-.4868164.0361328-.7636719-.581543.0922852-1.060791.15625-1.4375.1923828-.1123047.0161133-.1906738.0239258-.2346191.0239258-.0803223,0-.1364746-.0219727-.168457-.065918-.0241699-.0322266-.0541992-.1000977-.090332-.2045898-.0881348-.2446289-.2165527-.480957-.3850098-.7099609,1.6120605-.144043,2.833252-.3447266,3.6633301-.6010742.2526855-.0883789.4570312-.1787109.6135254-.2709961.2685547.1845703.5354004.4091797.8000488.6738281.0761719.0761719.1142578.1381836.1142578.1865234,0,.0761719-.0742188.1220703-.2226562.1381836-.0319824,0-.1965332.0400391-.4931641.1206055-.3769531.1162109-.6696777.1982422-.8781738.246582-.0161133.46875-.0361328.8139648-.0600586,1.0341797h2.7487793v-.3427734c0-.7294922-.0300293-1.3291016-.0900879-1.7983398.4689941.012207.8962402.0400391,1.2810059.0839844.1242676.012207.1865234.0522461.1865234.1206055,0,.0478516-.0100098.1020508-.0300293.1621094-.0241699.0683594-.0380859.1142578-.0419922.1386719-.0322266.1401367-.0483398.5673828-.0483398,1.28125v.3544922h1.1188965l1.552002-.0239258c.0639648,0,.104248.0083008.1201172.0239258.012207.0161133.0180664.0522461.0180664.1083984v.8901367c0,.0605469-.0070801.0976562-.0209961.1113281-.0141602.0141602-.0532227.0209961-.1171875.0209961l-1.552002-.0239258h-1.1188965v1.1728516l.0241699,1.4858398c0,.0683594-.0100098.1083984-.0300293.1206055-.0161133.0117188-.0561523.0175781-.1203613.0175781h-1.0224609c-.064209,0-.1022949-.0078125-.114502-.0239258-.0119629-.0161133-.0178223-.0541992-.0178223-.1142578l.0239258-1.4858398v-1.1728516h-2.9233398c-.1723633.7338867-.4772949,1.3276367-.9143066,1.7807617-.3969727.4125977-.932373.7475586-1.605957,1.0043945-.1604004.0561523-.2568359.0839844-.2888184.0839844-.0761719,0-.1704102-.0981445-.2827148-.2944336-.1645508-.2851562-.3811035-.5317383-.6496582-.7402344.7580566-.2124023,1.3212891-.4667969,1.6904297-.7636719.3447266-.2724609.5932617-.6293945.7458496-1.0708008h-.9445801Zm6.057373-7.9580078l1.708252-.0239258c.064209,0,.104248.0078125.1203613.0239258.0119629.0161133.0180664.0522461.0180664.1083984l-.0241699,1.1489258v1.8105469l.0241699,1.1425781c0,.0722656-.0100098.1166992-.0300293.1323242-.012207.012207-.0483398.0180664-.1083984.0180664l-1.708252-.0239258h-4.607666l-1.7143555.0239258c-.064209,0-.1020508-.0078125-.1142578-.0239258-.0119629-.0200195-.0180664-.0620117-.0180664-.1264648l.0241699-1.1425781v-1.8105469l-.0241699-1.1489258c0-.0639648.0080566-.1025391.0241699-.1142578.0158691-.012207.052002-.0180664.1081543-.0180664l1.7143555.0239258h4.607666Zm.5773926,1.0224609h-5.7624512v.6860352h5.7624512v-.6860352Zm0,2.3398438v-.7036133h-5.7624512v.7036133h5.7624512Z"/>
        <path class="cls-1" d="m27.4473845,15.6595427c.0480957.0039062.0942383.0058594.1384277.0058594.6535645,0,.9804688-.2885742.9804688-.8662109,0-.7094727-.3549805-1.5395508-1.0646973-2.4902344.4208984-.9140625.7617188-1.8706055,1.0224609-2.8691406h-1.1850586v6.9716797l.012207,2.6342773c0,.0683594-.0061035.1083984-.0180664.1206055-.0161133.0117188-.0541992.0180664-.1142578.0180664h-.9804688c-.0803223,0-.1203613-.0463867-.1203613-.1386719l.0119629-2.6225586v-5.3354492l-.0119629-2.6645508c0-.0922852.0400391-.1381836.1203613-.1381836l.9924316.0239258h1.5639648c.1162109,0,.1984863-.012207.246582-.0361328s.1000977-.0361328.1564941-.0361328c.092041,0,.2485352.1186523.4689941.3549805.1965332.2246094.2949219.3891602.2949219.4931641,0,.0761719-.0361328.1464844-.1083984.2104492-.0722656.0761719-.1464844.2407227-.2226562.4931641-.324707.9829102-.6335449,1.7949219-.9262695,2.4365234.4291992.5932617.7177734,1.1269531.8662109,1.6000977.1123047.3569336.168457.7597656.168457,1.2089844,0,1.0424805-.5373535,1.6157227-1.6120605,1.7202148-.0961914.0078125-.1584473.0117188-.1865234.0117188-.1003418,0-.1623535-.0258789-.1865234-.078125-.0158691-.0361328-.0319824-.1323242-.0480957-.2885742-.0361328-.324707-.1223145-.5712891-.2585449-.7397461Zm2.1713867-4.9443359c.8942871-.5053711,1.6782227-1.2294922,2.3520508-2.171875.1523438-.2202148.2624512-.4487305.3308105-.6855469.2165527.0400391.5693359.1225586,1.0585938.246582.1162109.0361328.1743164.0844727.1743164.1445312,0,.0400391-.0319824.0942383-.0961914.1621094-.1000977.0722656-.1865234.1708984-.2585449.2949219l-.1745605.2587891h2.0812988c.1083984,0,.1945801-.012207.2585449-.0361328l.1203613-.0483398c.0961914,0,.2446289.0942383.4450684.2827148.2207031.2045898.3310547.3569336.3310547.4575195,0,.1000977-.050293.1743164-.1503906.222168-.0803223.0444336-.1826172.1586914-.3068848.3432617-.401123.5332031-.8520508,1.0185547-1.3532715,1.4555664.7177734.324707,1.6140137.5996094,2.6887207.8237305-.128418.2128906-.2346191.4511719-.3188477.7158203-.0480957.1606445-.0842285.2597656-.1083984.2978516-.0239258.0380859-.064209.0571289-.1201172.0571289-.0441895,0-.128418-.0161133-.2526855-.0478516-1.0908203-.284668-2.0432129-.6635742-2.8571777-1.137207-.8903809.5698242-1.9089355.9829102-3.0556641,1.2392578-.1323242.0283203-.2207031.0419922-.2646484.0419922-.064209,0-.1164551-.027832-.1564941-.0839844-.0239258-.0361328-.064209-.1225586-.1203613-.2587891-.0961914-.2446289-.2285156-.4570312-.3969727-.6376953,1.1750488-.2446289,2.1694336-.5810547,2.9836426-1.0102539-.3249512-.2685547-.6337891-.581543-.9265137-.9384766-.3208008.2929688-.6154785.5292969-.8840332.7099609-.1606445.1079102-.2607422.1621094-.3007812.1621094-.0522461,0-.1384277-.090332-.2587891-.2705078-.168457-.2729492-.3227539-.4692383-.4631348-.5893555Zm3.6330566,2.2792969c.3129883.0083008.7199707.0405273,1.2211914.0966797.1162109.0117188.1743164.0581055.1743164.1381836,0,.012207-.0200195.0683594-.0600586.168457-.0522461.1123047-.078125.3427734-.078125.6918945h.2346191l1.5759277-.0244141c.092041,0,.1384277.0400391.1384277.1206055v.8300781c0,.0600586-.0083008.097168-.0241699.1113281-.0161133.0136719-.0541992.0209961-.1142578.0209961l-1.5759277-.0244141h-.2346191v1.3657227h.5412598l1.6782227-.0239258c.0881348,0,.1323242.0400391.1323242.1201172v.8422852c0,.0600586-.0070801.097168-.0209961.1108398-.0141602.0141602-.0510254.0214844-.1113281.0214844l-1.6782227-.0244141h-.5412598v.0244141l.0239258,1.4916992c0,.0722656-.0080566.1142578-.0239258.1259766-.0161133.0161133-.0522461.0244141-.1083984.0244141h-.9562988c-.064209,0-.1022949-.0102539-.1142578-.0302734-.0119629-.0161133-.0180664-.0561523-.0180664-.1201172l.0239258-1.4916992v-.0244141h-2.0629883l-1.6542969.0244141c-.0720215,0-.1142578-.0083008-.1262207-.0244141-.0161133-.015625-.0241699-.0517578-.0241699-.1079102v-.8422852c0-.0561523.0100098-.090332.0300293-.1025391.0161133-.0117188.0561523-.0175781.1203613-.0175781l1.2932129.0239258v-1.3535156l-.5412598.012207c-.064209,0-.104248-.0102539-.1203613-.0302734-.0119629-.0161133-.0180664-.0541992-.0180664-.1142578v-.8178711c0-.0805664.0461426-.1206055.1384277-.1206055l1.5820312.0244141h1.3833008c-.0119629-.3930664-.0400391-.7583008-.0842285-1.0952148Zm-1.1789551,3.4951172h1.2631836v-1.3657227h-1.2631836v1.3657227Zm2.4724121-6.5625h-2.2678223l-.0239258.0239258c.3085938.4091797.6855469.7700195,1.1308594,1.0830078.4489746-.3452148.8359375-.7138672,1.1608887-1.1069336Z"/>
        <path class="cls-1" d="m49.4686247,17.4998747c-.1645508.2646484-.2668457.5698242-.3068848.9145508-.0319824.2045898-.0700684.3227539-.1142578.3549805-.0400391.0317383-.1542969.0517578-.3427734.0600586-1.3354492.0761719-2.7709961.1142578-4.3068848.1142578-1.4074707,0-2.369873-.1064453-2.887207-.3188477-.5454102-.2285156-.9724121-.5913086-1.28125-1.0888672-.3569336.3608398-.7480469.7119141-1.1728516,1.0527344-.1364746.0961914-.2346191.1826172-.2949219.2587891-.0441895.0561523-.0961914.0839844-.15625.0839844-.0683594,0-.1264648-.0498047-.1745605-.1503906-.1362305-.2485352-.3046875-.6254883-.505127-1.1308594.2805176-.1240234.5231934-.2563477.7277832-.3969727.3085938-.1923828.6335449-.4511719.9743652-.7758789v-2.7490234h-.5593262l-.8723145.0302734c-.0720215,0-.1142578-.0097656-.1262207-.0302734-.0161133-.015625-.0241699-.0561523-.0241699-.1201172v-.9384766c0-.0639648.0100098-.1020508.0302734-.1142578.0158691-.0117188.0559082-.0180664.1201172-.0180664l.8723145.0244141h.7277832l.9143066-.0244141c.064209,0,.104248.0083008.1203613.0244141.0119629.015625.0180664.0517578.0180664.1079102l-.0241699,1.1972656v2.6704102c.2365723.4736328.6015625.8061523,1.0947266.9985352.4331055.1484375,1.1931152.2226562,2.2797852.2226562,1.7885742,0,3.5449219-.0859375,5.2692871-.2587891Zm-10.1293945-9.1669922c.6135254.5615234,1.126709,1.1611328,1.5397949,1.7988281.0280762.0439453.0419922.078125.0419922.1020508,0,.0361328-.0358887.0800781-.1081543.1323242l-.685791.5834961c-.0600586.0561523-.1103516.0844727-.1503906.0844727-.0280762,0-.064209-.0283203-.1081543-.0844727-.4250488-.7099609-.9304199-1.3510742-1.5158691-1.9248047-.0322266-.0322266-.0480957-.0600586-.0480957-.0839844,0-.0322266.0361328-.0742188.1081543-.1264648l.6677246-.4814453c.052002-.0400391.1003418-.0600586.1442871-.0600586.0441895,0,.0822754.0200195.114502.0600586Zm9.967041,7.4106445c-.2126465.2768555-.3691406.5634766-.4692383.8603516-.0683594.2045898-.1345215.3066406-.1984863.3066406-.0561523,0-.1584473-.0361328-.3068848-.1083984-1.2470703-.597168-2.1833496-1.3730469-2.809082-2.3276367.0080566.5014648.0241699,1.0986328.0480957,1.7924805.0200195.5375977.0302734.8422852.0302734.9140625,0,.0644531-.0070801.1035156-.0212402.1176758-.013916.0141602-.0529785.0209961-.1171875.0209961h-.9384766c-.0639648,0-.1020508-.0102539-.1142578-.0302734-.0119629-.0117188-.0180664-.0478516-.0180664-.1083984,0-.0556641.0061035-.4008789.0180664-1.0341797.0161133-.5776367.026123-1.0947266.0302734-1.5522461-.59375.8823242-1.3654785,1.6000977-2.315918,2.1538086-.1723633.1000977-.2727051.1503906-.3007812.1503906-.0522461,0-.1342773-.0986328-.246582-.2949219-.1364746-.2368164-.3249512-.4589844-.5654297-.6679688,1.1669922-.4609375,2.0871582-1.1245117,2.7609863-1.9907227h-.270752l-1.630127.0239258c-.064209,0-.1022949-.0078125-.1142578-.0239258s-.0180664-.0541992-.0180664-.1142578l.0241699-.9145508v-.9741211l-.0241699-.8842773c0-.0683594.0080566-.1083984.0241699-.1206055.0158691-.0117188.052002-.0180664.1081543-.0180664l1.630127.0244141h.9023438v-.7758789h-1.3835449l-1.7023926.0239258c-.0639648,0-.1020508-.0102539-.1142578-.0302734-.0119629-.015625-.0180664-.0541992-.0180664-.1142578v-.8540039c0-.0800781.0441895-.1201172.1323242-.1201172l1.7023926.0239258h1.3835449v-.0600586c0-.453125-.0300293-.8242188-.090332-1.112793.4973145.0161133.9023438.0380859,1.2150879.065918.1323242.012207.1984863.0561523.1984863.1323242,0,.0322266-.026123.0981445-.078125.1987305-.0480957.1079102-.0722656.3505859-.0722656.7275391v.0483398h1.6721191l1.6962891-.0239258c.0922852,0,.1384277.0400391.1384277.1201172v.8540039c0,.0683594-.0080566.1103516-.0241699.1264648-.0158691.012207-.0539551.0180664-.1142578.0180664l-1.6962891-.0239258h-1.6721191v.7758789h1.0585938l1.6120605-.0244141c.064209,0,.104248.0083008.1203613.0244141.0119629.0161133.0180664.0541992.0180664.1142578l-.0300293.8842773v.9741211l.0300293.9145508c0,.0639648-.0070801.1030273-.0209961.1171875-.0141602.0141602-.0532227.0209961-.1174316.0209961l-1.6120605-.0239258h-.4331055c.4130859.4448242.8842773.8120117,1.4135742,1.1005859.4492188.2490234,1.0126953.4814453,1.6904297.6977539Zm-6.40625-2.7006836h1.5039062v-1.1728516h-1.5039062v1.1728516Zm4.3007812,0v-1.1728516h-1.6240234v1.1728516h1.6240234Z"/>
        <path class="cls-1" d="m52.5723845,10.0711638v1.7866211c0,1.5439453-.0703125,2.8330078-.2106934,3.8676758-.1484375,1.0908203-.4812012,2.1337891-.9985352,3.1279297-.0842285.15625-.1503906.2348633-.1984863.2348633-.0319824,0-.1142578-.0664062-.246582-.1987305-.2927246-.3208008-.5593262-.5576172-.8000488-.7099609.517334-.8457031.8500977-1.8286133.9985352-2.9472656.1242676-.9462891.1865234-2.1450195.1865234-3.597168l-.0241699-2.5263672c0-.0639648.0080566-.1020508.0241699-.1142578.0119629-.0117188.0480957-.0180664.1081543-.0180664l1.6481934.0244141h2.5805664v-.1206055c0-.4370117-.0300293-.7700195-.090332-.9985352.4370117.0083008.8742676.0322266,1.3112793.0722656.1403809.012207.2106934.0522461.2106934.1206055,0,.0561523-.0300293.1342773-.090332.234375-.052002.0883789-.078125.2646484-.078125.5292969v.1625977h2.6286621l1.6479492-.0244141c.064209,0,.1022949.0083008.114502.0244141.0078125.0117188.0119629.0478516.0119629.1079102v.8422852c0,.0722656-.0080566.1142578-.0241699.1264648-.0119629.0117188-.0461426.0180664-.1022949.0180664l-1.6479492-.0244141h-6.9594727Zm8.9384766,7.9462891c-.1726074.2084961-.3007812.4731445-.3850098.7939453-.0402832.15625-.0783691.2543945-.1142578.2949219-.0361328.0400391-.0964355.0600586-.1806641.0600586-.0839844,0-.1542969-.0043945-.2104492-.012207-1.487793-.1362305-2.7609863-.4609375-3.8195801-.9746094-1.0827637.5253906-2.3720703.8662109-3.8676758,1.0229492-.064209.0078125-.1384277.0117188-.2226562.0117188-.0803223,0-.1381836-.0239258-.1743164-.0722656-.0280762-.0400391-.064209-.1259766-.1083984-.2583008-.1081543-.3168945-.2385254-.5517578-.3908691-.7041016,1.3513184-.0917969,2.5463867-.3344727,3.5849609-.7275391-.645752-.4692383-1.217041-1.0566406-1.7143555-1.7626953l-.763916.012207c-.064209,0-.104248-.0078125-.1203613-.0239258-.0119629-.0161133-.0180664-.0541992-.0180664-.1142578v-.722168c0-.0678711.0100098-.1079102.0302734-.1201172.0119629-.012207.0480957-.0180664.1081543-.0180664l1.6481934.0239258h3.8977051c.104248,0,.1984863-.015625.2827148-.0478516.0603027-.0239258.1083984-.0361328.1445312-.0361328.0881348,0,.2546387.1064453.4992676.3188477.2885742.2407227.4331055.4086914.4331055.5053711,0,.0761719-.0583496.1542969-.1745605.234375-.1164551.0683594-.2766113.2167969-.4812012.4453125-.4172363.4931641-.8862305.9321289-1.4074707,1.3168945.9301758.2929688,2.1052246.4775391,3.5249023.5537109Zm-.517334-6.7729492c.0639648,0,.1022949.0078125.1142578.0239258s.0180664.0522461.0180664.1083984v.7700195c0,.0639648-.0080566.1020508-.0241699.1142578-.0161133.0117188-.0522461.0180664-.1081543.0180664l-1.7143555-.0244141h-.3188477v.4511719l.0300293,1.2333984c0,.0678711-.0100098.1079102-.0300293.1201172-.0119629.012207-.0480957.0180664-.1081543.0180664l-1.2753906-.0239258h-1.5759277l-1.269043.0239258c-.0722656,0-.114502-.0078125-.1264648-.0239258s-.0180664-.0541992-.0180664-.1142578l.0241699-1.2333984v-.4511719h-.1623535l-1.4257812.0244141c-.0681152,0-.1081543-.0083008-.1201172-.0244141-.012207-.015625-.0180664-.0517578-.0180664-.1079102v-.7700195c0-.0644531.0078125-.1025391.0239258-.1142578.0161133-.012207.0541992-.0180664.1142578-.0180664l1.4257812.0239258h.1623535c0-.4370117-.0222168-.7578125-.0661621-.9624023.4370117.0161133.8278809.0419922,1.1728516.078125.1083984.012207.1623535.0483398.1623535.1083984,0,.0439453-.0219727.1142578-.0661621.2104492-.0319824.0839844-.0480957.2729492-.0480957.5654297h2.0332031c0-.3530273-.0200195-.6738281-.0600586-.9624023.4450684.0161133.8300781.0419922,1.1547852.078125.1162109.012207.1745605.0483398.1745605.1083984,0,.027832-.0083008.0639648-.0241699.1083984-.0200195.0517578-.0322266.0859375-.0361328.1020508-.0322266.0761719-.0480957.2646484-.0480957.5654297h.3188477l1.7143555-.0239258Zm-2.7490234,4.4331055h-2.9956055c.4250488.4970703.9265137.9121094,1.5039062,1.2451172.609375-.3608398,1.1066895-.7758789,1.4916992-1.2451172Zm-.4450684-2.550293v-.8725586h-2.0332031v.8725586h2.0332031Z"/>
      </g>
      <g>
        <path class="cls-1" d="m9.9991423,32.5618865v-6.1884766c0-.6254883-.0192871-1.0732422-.0578613-1.3422852.1958008.0092773.3754883.0268555.5390625.0527344.0737305.0097656.1105957.0351562.1105957.0771484,0,.0478516-.0129395.1074219-.0385742.1777344-.0480957.125-.0720215.4428711-.0720215.953125v1.9726562h1.9680176l1.3330078-.019043c.0449219,0,.0673828.0224609.0673828.0673828v.3657227c0,.0449219-.0224609.0673828-.0673828.0673828l-1.3330078-.0195312h-1.9680176v3.8354492h2.8293457l1.3186035-.0195312c.0449219,0,.0673828.0224609.0673828.0673828v.3754883c0,.0449219-.0224609.0673828-.0673828.0673828l-1.3186035-.019043h-5.5866699l-1.3234863.019043c-.0449219,0-.0673828-.0224609-.0673828-.0673828v-.3754883c0-.0449219.0224609-.0673828.0673828-.0673828l1.3234863.0195312h2.276123Z"/>
        <path class="cls-1" d="m18.5213591,31.1805388h-.972168l-1.3137207.0195312c-.0449219,0-.0671387-.0224609-.0671387-.0673828v-.3081055c0-.0449219.0222168-.0673828.0671387-.0673828l1.3137207.0195312h1.0444336c.0256348-.234375.0446777-.5922852.0576172-1.0732422-.4716797.1152344-.9736328.2133789-1.5061035.293457-.0515137.0063477-.0866699.0097656-.105957.0097656-.0385742,0-.0754395-.0351562-.1105957-.105957-.0546875-.105957-.1171875-.1958008-.1877441-.2695312,1.2189941-.1508789,2.1848145-.3706055,2.8969727-.6591797.1347656-.0512695.2597656-.1235352.3752441-.2167969.128418.0805664.2407227.1621094.3369141.2456055.0449219.0385742.0673828.0751953.0673828.1108398,0,.0415039-.0466309.0673828-.1396484.0766602-.0610352.0068359-.1652832.0405273-.3127441.1010742-.1765137.0708008-.463623.1655273-.8613281.2841797-.0097656.4394531-.0322266.840332-.0673828,1.203125h2.6804199v-.6303711c0-.59375-.0224609-1.0234375-.0673828-1.2900391.1313477.0068359.2983398.0224609.5004883.0483398.0639648.0097656.0961914.0351562.0961914.0771484,0,.0288086-.0129395.0786133-.0385742.1489258-.0385742.1318359-.0576172.4638672-.0576172.9960938v.6499023h1.1210938l1.3232422-.0195312c.0449219,0,.0673828.0224609.0673828.0673828v.3081055c0,.0449219-.0224609.0673828-.0673828.0673828l-1.3232422-.0195312h-1.1210938v1.1118164l.019043,1.1835938c0,.0449219-.0224609.0673828-.0673828.0673828h-.3366699c-.0449219,0-.0673828-.0224609-.0673828-.0673828l.0192871-1.1835938v-1.1118164h-2.7478027c-.128418.6611328-.3737793,1.184082-.7363281,1.5688477-.3303223.3564453-.7922363.6386719-1.3857422.847168-.064209.0224609-.104248.0336914-.1203613.0336914-.0288086,0-.0705566-.0405273-.1252441-.1206055-.064209-.0927734-.1523438-.1762695-.2646484-.25.7058105-.2021484,1.2255859-.4746094,1.5593262-.8183594.3046875-.3110352.5131836-.730957.6254883-1.2607422Zm.2260742-5.8706055h3.2578125l1.4099121-.019043c.0449219,0,.0673828.0224609.0673828.0673828l-.0192871.9042969v1.2319336l.0192871.909668c0,.0512695-.0224609.0771484-.0673828.0771484l-1.4099121-.0195312h-3.2578125l-1.4099121.0195312c-.0449219,0-.0673828-.0258789-.0673828-.0771484l.0192871-.909668v-1.2319336l-.0192871-.9042969c0-.0449219.0224609-.0673828.0673828-.0673828l1.4099121.019043Zm-1.0249023,1.3666992h5.3078613v-.972168h-5.3078613v.972168Zm0,.3847656v1.0058594h5.3078613v-1.0058594h-5.3078613Z"/>
        <path class="cls-1" d="m28.4727751,27.4178435c.1315918-.6479492.4025879-1.1328125.8132324-1.4536133.3466797-.2724609.7731934-.4086914,1.2800293-.4086914.6032715,0,1.0810547.1811523,1.434082.543457.317627.3242188.4763184.7475586.4763184,1.2705078,0,.4204102-.1137695.8071289-.3415527,1.159668-.2148438.3271484-.5966797.737793-1.1452637,1.2319336-.9272461.8115234-1.5783691,1.6235352-1.9536133,2.4350586h3.4501953v.5439453h-4.0710449v-.4863281c.4074707-.9750977,1.1179199-1.9262695,2.1318359-2.8535156.5388184-.503418.8933105-.902832,1.0634766-1.1982422.1442871-.25.2165527-.527832.2165527-.8325195,0-.4199219-.1333008-.7456055-.3994141-.9765625-.2280273-.1958008-.5183105-.2939453-.8710938-.2939453-.8083496,0-1.2961426.4926758-1.4628906,1.4775391l-.6208496-.1586914Z"/>
        <path class="cls-1" d="m35.9988982,25.5555388c1.3986816,0,2.0981445,1.2060547,2.0981445,3.6186523,0,2.4638672-.7072754,3.6958008-2.1220703,3.6958008-1.3986816,0-2.0981445-1.2255859-2.0981445-3.6767578,0-2.425293.7072754-3.6376953,2.1220703-3.6376953Zm0,.543457c-.5324707,0-.9125977.2646484-1.1403809.7939453-.2150879.4941406-.3225098,1.2543945-.3225098,2.28125,0,1.1835938.1347656,2.0244141.4042969,2.5214844.2277832.4204102.5727539.6303711,1.034668.6303711.5324707,0,.9143066-.2773438,1.1452637-.8325195.2116699-.5068359.317627-1.2768555.317627-2.3095703,0-1.1713867-.1364746-1.9970703-.4091797-2.4785156-.2277832-.4042969-.5710449-.6064453-1.0297852-.6064453Z"/>
        <path class="cls-1" d="m40.9842497,27.8123747v.9140625c.5131836-.6894531,1.0683594-1.034668,1.6650391-1.034668.3591309,0,.6608887.109375.904541.3276367.2119141.1860352.3369141.418457.3754883.6977539.5004883-.6835938,1.0585938-1.0253906,1.6745605-1.0253906.4331055,0,.7714844.1396484,1.0153809.4189453.2180176.2470703.3271484.5708008.3271484.972168v3.6572266h-.611084v-3.4023438c0-.7280273-.3000488-1.0922852-.8999023-1.0922852-.2727051,0-.550293.105957-.8325195.3173828-.2373047.1796875-.4489746.4155273-.6350098.7075195v3.4697266h-.6113281v-3.4023438c0-.7280273-.2885742-1.0922852-.8659668-1.0922852-.2729492,0-.5471191.1010742-.822998.3032227-.2470703.1762695-.4685059.4169922-.6640625.7216797v3.4697266h-.6015625v-4.9277344h.5822754Z"/>
        <path class="cls-1" d="m53.125363,24.7279021l-3.8354492,9.0273438h-.4907227l3.8352051-9.0273438h.4909668Z"/>
        <path class="cls-1" d="m54.9202849,27.8123747v.9140625c.5131836-.6894531,1.0681152-1.034668,1.6647949-1.034668.359375,0,.6608887.109375.9047852.3276367.2116699.1860352.3369141.418457.3752441.6977539.5004883-.6835938,1.0588379-1.0253906,1.6748047-1.0253906.4328613,0,.7714844.1396484,1.0151367.4189453.2182617.2470703.3273926.5708008.3273926.972168v3.6572266h-.6113281v-3.4023438c0-.7280273-.2998047-1.0922852-.8996582-1.0922852-.2727051,0-.550293.105957-.8325195.3173828-.2375488.1796875-.4492188.4155273-.6352539.7075195v3.4697266h-.611084v-3.4023438c0-.7280273-.2888184-1.0922852-.8662109-1.0922852-.2727051,0-.5471191.1010742-.822998.3032227-.2470703.1762695-.4682617.4169922-.6640625.7216797v3.4697266h-.6013184v-4.9277344h.5822754Z"/>
        <path class="cls-1" d="m63.5770232,25.8294646v.9194336h-.904541v-.9194336h.904541Zm-.1442871,1.9829102v4.9277344h-.611084v-4.9277344h.611084Z"/>
        <path class="cls-1" d="m65.9974333,27.8123747v.9140625c.5517578-.6894531,1.1516113-1.034668,1.7998047-1.034668.4458008,0,.7939453.1396484,1.0441895.4189453.2243652.2470703.3369141.5708008.3369141.972168v3.6572266h-.6208496v-3.4023438c0-.7280273-.3049316-1.0922852-.9143066-1.0922852-.5710449,0-1.1132812.3413086-1.6264648,1.0249023v3.4697266h-.611084v-4.9277344h.5917969Z"/>
      </g>
      <g>
        <path class="cls-1" d="m10.5428435,37.4349333v1.5253906c1.0202637.3916016,2.0483398.9272461,3.0844727,1.6074219.0290527.019043.043457.0385742.043457.0576172,0,.0224609-.0178223.0595703-.0529785.1108398l-.1105957.1586914c-.0515137.0737305-.0883789.1108398-.1108398.1108398-.0126953,0-.0305176-.0083008-.0529785-.0244141-.96875-.6542969-1.9023438-1.1723633-2.8005371-1.5541992v3.6669922l.0192871,1.6552734c0,.0449219-.0224609.0673828-.0673828.0673828h-.3850098c-.0449219,0-.0673828-.0224609-.0673828-.0673828l.0192871-1.6552734v-5.6591797h-2.4060059l-1.3088379.0195312c-.045166,0-.0673828-.0224609-.0673828-.0673828v-.3564453c0-.0449219.0222168-.0673828.0673828-.0673828l1.3088379.0195312h5.6975098l1.3088379-.0195312c.0449219,0,.0673828.0224609.0673828.0673828v.3564453c0,.0449219-.0224609.0673828-.0673828.0673828l-1.3088379-.0195312h-2.8103027Z"/>
        <path class="cls-1" d="m18.4588591,36.9632536h-1.5253906v5.8950195l.019043,2.0112305c0,.0385742-.0224609.0581055-.0673828.0581055h-.3464355c-.0449219,0-.0673828-.0195312-.0673828-.0581055l.0192871-1.9921875v-4.2583008l-.0192871-2.0117188c0-.0449219.0224609-.0673828.0673828-.0673828l.7121582.0195312h1.1115723c.1252441,0,.2070312-.0068359.2456055-.0195312.0415039-.0126953.0705566-.019043.0864258-.019043.0449219,0,.1140137.0429688.2070312.1298828.105957.1025391.1586914.1777344.1586914.2260742,0,.0258789-.0224609.0610352-.0671387.105957-.0708008.0703125-.130127.1733398-.1782227.3081055-.3271484.7890625-.6623535,1.5043945-1.0056152,2.1459961.4394531.5263672.737793.9785156.8950195,1.3569336.1218262.2919922.1828613.5917969.1828613.8999023,0,.4140625-.1010742.7216797-.3032227.9238281-.2084961.2119141-.5388184.3271484-.9912109.3466797-.0322266.0029297-.0529785.0048828-.0625.0048828-.0483398,0-.0788574-.0112305-.0915527-.0336914-.0129395-.0161133-.0273438-.0581055-.0432129-.1254883-.0258789-.1118164-.0673828-.2016602-.1252441-.269043.0705566.0063477.1411133.0092773.2116699.0092773.654541,0,.9816895-.2851562.9816895-.8564453,0-.3173828-.0881348-.6479492-.2646484-.9912109-.166748-.3208008-.4475098-.7329102-.842041-1.2368164.4619141-.8789062.8293457-1.7128906,1.1020508-2.5024414Zm3.7485352,4.1674805v-.1494141c0-.3813477-.0192871-.6958008-.0576172-.9428711.1442871.0063477.3015137.0224609.4714355.0478516.064209.0097656.0961914.0356445.0961914.0771484,0,.0322266-.0126953.0756836-.0383301.1298828-.0385742.0932617-.0578613.3095703-.0578613.6499023v.1875h.3850098l1.2800293-.019043c.0449219,0,.0673828.0224609.0673828.0673828v.2983398c0,.0449219-.0224609.0673828-.0673828.0673828l-1.2800293-.0195312h-.3850098v1.5253906h.6977539l1.3811035-.019043c.0449219,0,.0673828.0224609.0673828.0673828v.3076172c0,.0454102-.0224609.0673828-.0673828.0673828l-1.3811035-.019043h-.6977539v.1972656l.0192871,1.203125c0,.0385742-.0224609.0576172-.0673828.0576172h-.317627c-.0449219,0-.0673828-.019043-.0673828-.0576172l.0192871-1.203125v-.1972656h-1.9248047l-1.3666992.019043c-.0480957,0-.0720215-.0219727-.0720215-.0673828v-.3076172c0-.0449219.0239258-.0673828.0720215-.0673828l1.2800293.019043v-1.5253906c-.1730957.003418-.3303223.0083008-.4714355.0146484-.0932617.0029297-.1428223.0048828-.1494141.0048828-.0449219,0-.0671387-.0224609-.0671387-.0673828v-.2983398c0-.0449219.0222168-.0673828.0671387-.0673828l1.2800293.019043h1.3522949Zm.2358398-2.0693359c.5966797.3979492,1.4370117.762207,2.5214844,1.0922852-.0866699.1030273-.1411133.1845703-.1635742.2456055-.0354004.0932617-.0705566.1396484-.105957.1396484-.0161133,0-.0529785-.0097656-.1105957-.0288086-1.0554199-.362793-1.8815918-.7602539-2.4782715-1.1933594-.7121582.5161133-1.6184082.9399414-2.71875,1.2700195-.0578613.0195312-.0961914.0288086-.1154785.0288086-.0322266,0-.0722656-.0415039-.1203613-.125-.041748-.0766602-.104248-.1459961-.1877441-.2070312,1.1708984-.3334961,2.107666-.7441406,2.8103027-1.2314453-.3913574-.3432617-.7521973-.7539062-1.0827637-1.2319336-.317627.3847656-.7058105.7456055-1.1645508,1.0825195-.064209.0449219-.1057129.0673828-.125.0673828-.0256348,0-.0625-.0351562-.1105957-.105957-.064209-.0834961-.1364746-.1459961-.2165527-.1875.8210449-.5131836,1.4804688-1.1933594,1.9777832-2.0405273.1281738-.2246094.2036133-.418457.2260742-.5820312.1379395.0288086.2839355.0786133.4379883.1489258.0512695.0195312.0769043.0512695.0769043.0961914,0,.0322266-.0336914.0756836-.1010742.1298828-.0576172.0483398-.1123047.1171875-.1635742.2070312-.128418.2119141-.2182617.3530273-.2695312.4238281h2.151123c.0961914,0,.168457-.0097656.2165527-.0292969.0415039-.0126953.0639648-.019043.0673828-.019043.060791,0,.1362305.0463867.2260742.1396484.0866699.0834961.1298828.1489258.1298828.1972656,0,.0512695-.0256348.0898438-.0769043.1152344-.0578613.0288086-.126709.0981445-.2070312.2070312-.4267578.5517578-.8676758,1.015625-1.3232422,1.390625Zm-.2358398,2.4638672h-1.5976562v1.5253906h1.5976562v-1.5253906Zm-.1105957-2.71875c.4746094-.3818359.9157715-.8422852,1.3232422-1.3808594h-2.4157715l-.0671387.0961914c.3496094.5195312.736084.9477539,1.159668,1.284668Z"/>
        <path class="cls-1" d="m28.4776579,38.2147185c.1828613-.4682617.4650879-.8198242.8469238-1.0541992.3271484-.2050781.7089844-.3076172,1.1452637-.3076172.590332,0,1.0683594.1796875,1.434082.5390625.3239746.3139648.486084.7055664.486084,1.1738281,0,.465332-.1364746.847168-.4091797,1.1455078-.2341309.253418-.548584.4267578-.9431152.5195312v.0625c.5131836.1157227.9030762.3496094,1.1694336.7026367.2341309.3110352.3513184.6850586.3513184,1.1210938,0,.6547852-.2182617,1.1728516-.654541,1.5546875-.3752441.3300781-.8469238.4956055-1.4147949.4956055-1.0361328,0-1.7531738-.4477539-2.1508789-1.3427734l.5917969-.2548828c.1699219.4042969.3928223.6879883.6689453.8515625.2341309.1411133.5307617.2119141.8901367.2119141.4587402,0,.8181152-.1542969,1.0778809-.4619141.2277832-.2695312.3417969-.6142578.3417969-1.034668,0-.5263672-.1652832-.9223633-.4958496-1.1889648-.2983398-.2402344-.7121582-.3608398-1.2414551-.3608398h-.5534668v-.5629883h.4958496c.5612793,0,.9848633-.1425781,1.2702637-.4282227.2438965-.2436523.3657227-.5693359.3657227-.9765625,0-.4106445-.1379395-.7285156-.4138184-.953125-.230957-.1860352-.5244141-.2788086-.8806152-.2788086-.3464355,0-.6433105.0991211-.8901367.2983398-.2277832.1826172-.3930664.4379883-.4956055.7651367l-.592041-.2358398Z"/>
        <path class="cls-1" d="m35.9988982,36.8529021c1.3986816,0,2.0981445,1.2060547,2.0981445,3.6186523,0,2.4638672-.7072754,3.6958008-2.1220703,3.6958008-1.3986816,0-2.0981445-1.2255859-2.0981445-3.6767578,0-2.425293.7072754-3.6376953,2.1220703-3.6376953Zm0,.543457c-.5324707,0-.9125977.2646484-1.1403809.7939453-.2150879.4941406-.3225098,1.2543945-.3225098,2.28125,0,1.1835938.1347656,2.0244141.4042969,2.5214844.2277832.4204102.5727539.6303711,1.034668.6303711.5324707,0,.9143066-.2773438,1.1452637-.8325195.2116699-.5068359.317627-1.2768555.317627-2.3095703,0-1.1713867-.1364746-1.9970703-.4091797-2.4785156-.2277832-.4042969-.5710449-.6064453-1.0297852-.6064453Z"/>
        <path class="cls-1" d="m40.9842497,39.109738v.9140625c.5131836-.6894531,1.0683594-1.034668,1.6650391-1.034668.3591309,0,.6608887.109375.904541.3276367.2119141.1860352.3369141.418457.3754883.6977539.5004883-.6835938,1.0585938-1.0253906,1.6745605-1.0253906.4331055,0,.7714844.1396484,1.0153809.4189453.2180176.2470703.3271484.5708008.3271484.972168v3.6572266h-.611084v-3.4023438c0-.7280273-.3000488-1.0922852-.8999023-1.0922852-.2727051,0-.550293.105957-.8325195.3173828-.2373047.1796875-.4489746.4155273-.6350098.7075195v3.4697266h-.6113281v-3.4023438c0-.7280273-.2885742-1.0922852-.8659668-1.0922852-.2729492,0-.5471191.1010742-.822998.3032227-.2470703.1762695-.4685059.4169922-.6640625.7216797v3.4697266h-.6015625v-4.9277344h.5822754Z"/>
        <path class="cls-1" d="m53.125363,36.0252654l-3.8354492,9.0273438h-.4907227l3.8352051-9.0273438h.4909668Z"/>
        <path class="cls-1" d="m54.9202849,39.109738v.9140625c.5131836-.6894531,1.0681152-1.034668,1.6647949-1.034668.359375,0,.6608887.109375.9047852.3276367.2116699.1860352.3369141.418457.3752441.6977539.5004883-.6835938,1.0588379-1.0253906,1.6748047-1.0253906.4328613,0,.7714844.1396484,1.0151367.4189453.2182617.2470703.3273926.5708008.3273926.972168v3.6572266h-.6113281v-3.4023438c0-.7280273-.2998047-1.0922852-.8996582-1.0922852-.2727051,0-.550293.105957-.8325195.3173828-.2375488.1796875-.4492188.4155273-.6352539.7075195v3.4697266h-.611084v-3.4023438c0-.7280273-.2888184-1.0922852-.8662109-1.0922852-.2727051,0-.5471191.1010742-.822998.3032227-.2470703.1762695-.4682617.4169922-.6640625.7216797v3.4697266h-.6013184v-4.9277344h.5822754Z"/>
        <path class="cls-1" d="m63.5770232,37.1268279v.9194336h-.904541v-.9194336h.904541Zm-.1442871,1.9829102v4.9277344h-.611084v-4.9277344h.611084Z"/>
        <path class="cls-1" d="m65.9974333,39.109738v.9140625c.5517578-.6894531,1.1516113-1.034668,1.7998047-1.034668.4458008,0,.7939453.1396484,1.0441895.4189453.2243652.2470703.3369141.5708008.3369141.972168v3.6572266h-.6208496v-3.4023438c0-.7280273-.3049316-1.0922852-.9143066-1.0922852-.5710449,0-1.1132812.3413086-1.6264648,1.0249023v3.4697266h-.611084v-4.9277344h.5917969Z"/>
      </g>
      <g>
        <line class="cls-3" x1="32.4105193" y1="65.4894988" x2="32.4105193" y2="57.2894255"/>
        <polygon class="cls-1" points="36.5567595 58.5026824 32.4107634 51.3226286 28.2645232 58.5026824 36.5567595 58.5026824"/>
      </g>
      <g>
        <line class="cls-3" x1="44.3587615" y1="59.5225798" x2="44.3587615" y2="51.3226286"/>
        <polygon class="cls-1" points="48.5052458 58.309445 44.3592497 65.4894988 40.2130095 58.309445 48.5052458 58.309445"/>
      </g>
    </g>
  </g>
</svg>