<?xml version="1.0" encoding="UTF-8"?>
<svg id="_レイヤー_2" data-name="レイヤー 2" xmlns="http://www.w3.org/2000/svg" viewBox="0 0 156.6296387 25.9838867">
  <defs>
    <style>
      .cls-1 {
        stroke-width: 0px;
      }
    </style>
  </defs>
  <g id="_レイヤー_1-2" data-name="レイヤー 1">
    <g>
      <path class="cls-1" d="m4.0880127,1.1479492h12.907959l-.7000732,3.2202148H7.2519531l-1.0079346,4.9277344h8.4559326l-.6999512,3.2202148H5.5439453l-1.6519775,7.9238281H0L4.0880127,1.1479492Z"/>
      <path class="cls-1" d="m30.3798828,11.8999023c0,3.3881836-1.987915,8.8198242-8.1479492,8.8198242-4.0319824,0-5.8800049-2.4638672-5.8800049-5.9916992,0-3.8920898,2.4639893-9.0717773,8.0080566-9.0717773,3.4719238,0,6.0198975,1.9599609,6.0198975,6.2436523Zm-10.0799561,2.855957c0,2.0161133.8399658,2.9960938,2.3239746,2.9960938,2.7440186,0,3.8079834-3.7797852,3.8079834-6.2441406,0-1.8759766-.7839355-2.8837891-2.3798828-2.8837891-2.6320801,0-3.7520752,3.7519531-3.7520752,6.1318359Z"/>
      <path class="cls-1" d="m41.9436035,9.4921875c-2.6600342.027832-4.5080566,1.4838867-5.1800537,4.6479492l-1.3439941,6.2998047h-3.8079834l2.18396-10.1918945c.3079834-1.4282227.5880127-2.9682617.8400879-4.3120117h3.6679688c-.0280762.3637695-.1680908,1.4560547-.4200439,2.6318359.9799805-1.7358398,2.2960205-2.9116211,4.81604-2.9116211l-.7559814,3.8359375Z"/>
      <path class="cls-1" d="m63.8387451,12.012207h-8.6799316l-1.092041,5.1796875h9.8839111l-1.1479492,3.2480469h-13.2999268L53.5908203,1.1479492h12.9638672l-.6999512,3.2202148h-9.0720215l-.9239502,4.3959961h8.6799316l-.6999512,3.2480469Z"/>
      <path class="cls-1" d="m70.6984863,5.9360352c.7561035,1.7919922,1.512085,3.8920898,1.7919922,4.5078125h.0280762c.7280273-.9516602,1.6240234-2.184082,3.3599854-4.5078125h4.3399658l-5.9639893,7.0839844,3.1361084,7.4199219h-4.1160889c-.7840576-1.8759766-1.5119629-3.9199219-1.7919922-4.5078125h-.0279541c-.4760742.644043-1.9320068,2.6318359-3.3880615,4.5078125h-4.2559814l5.9639893-7.3359375-3.1080322-7.1679688h4.0319824Z"/>
      <path class="cls-1" d="m91.6704102,16.8837891c-.3359375,1.512207-.644043,3.1362305-.6721191,3.5561523h-3.6960449c.0280762-.4199219.1401367-1.1757812.1960449-1.6240234-.7277832.8959961-1.6799316,1.9038086-4.3679199,1.9038086-2.855957,0-4.0600586-2.015625-4.0600586-3.7236328,0-4.0322266,3.5280762-5.0961914,6.7202148-5.4599609,1.2319336-.1123047,2.3518066-.1123047,3.2478027-.1401367l.1398926-.671875c.1962891-1.0639648.1962891-2.4082031-1.8479004-2.4082031-1.8200684,0-2.1560059.9799805-2.4641113,1.6801758h-3.8918457c.5319824-2.3242188,2.1560059-4.3398438,6.6638184-4.3398438,3.5283203,0,6.1320801,1.4838867,5.3203125,5.2636719l-1.2880859,5.9638672Zm-3.1640625-2.9399414c-.9521484,0-1.7641602.0561523-2.5200195.1401367-2.1279297.3359375-2.9680176,1.0361328-2.9680176,2.2680664,0,.8398438.5319824,1.4838867,1.763916,1.4838867,2.6320801,0,3.3041992-2.1279297,3.6679688-3.6679688l.0561523-.2241211Z"/>
      <path class="cls-1" d="m96.7661133,10.0239258c.2800293-1.3720703.5878906-2.7719727.8120117-4.0878906h3.723877c-.0559082.3637695-.1679688,1.1201172-.2800293,1.7080078.9521484-1.1762695,2.0161133-1.987793,4.0322266-1.987793,2.0439453,0,3.0239258.9238281,3.3037109,2.3515625,1.0080566-1.2875977,2.4360352-2.3515625,4.7321777-2.3515625,2.4638672,0,4.3120117,1.3999023,3.4719238,5.3476562l-2.0161133,9.4360352h-3.6958008l1.9038086-8.9599609c.2800293-1.315918.2241211-2.6601562-1.5678711-2.6601562-1.736084,0-2.5480957,1.2602539-2.9960938,3.472168l-1.7358398,8.1479492h-3.7519531l1.9318848-9.0161133c.2800293-1.3999023.0559082-2.5756836-1.5681152-2.5756836-1.7080078,0-2.5756836,1.1757812-3.079834,3.6396484l-1.6799316,7.9521484h-3.7519531l2.2119141-10.4160156Z"/>
      <path class="cls-1" d="m120.4257812,10.1357422c.4199219-1.9599609.6721191-3.2475586.8120117-4.199707h3.7800293c0,.3081055-.1960449,1.2880859-.3081055,1.9599609.7841797-1.1201172,2.1560059-2.2397461,4.4240723-2.2397461,2.9121094,0,4.6479492,2.2397461,4.6479492,5.6835938,0,4.5361328-2.7719727,9.3798828-7.9238281,9.3798828-1.8200684,0-3.052002-.7836914-3.5561523-1.6240234l-1.4560547,6.8881836h-3.7797852l3.3598633-15.8481445Zm5.2919922,7.4760742c2.855957,0,4.0878906-3.4160156,4.0878906-5.8520508,0-2.0996094-.9519043-2.9677734-2.407959-2.9677734-2.0720215,0-3.4438477,1.9038086-3.9758301,4.4521484-.4760742,2.4077148-.1120605,4.3676758,2.2958984,4.3676758Z"/>
      <path class="cls-1" d="m134.9858398,20.4399414l4.3117676-20.4399414h3.8081055l-4.3120117,20.4399414h-3.8078613Z"/>
      <path class="cls-1" d="m146.9416504,14.0561523c-.0559082.3076172-.1120605.5600586-.1120605.8676758,0,1.5400391.5881348,2.855957,2.2961426,2.855957,1.5678711,0,2.2399902-.8120117,2.7158203-1.7636719h3.9760742c-.8120117,2.1557617-2.6599121,4.7036133-7,4.7036133-3.8920898,0-5.7958984-2.4355469-5.7958984-5.9355469,0-3.8364258,2.0720215-9.1279297,7.8398438-9.1279297,4.2561035,0,5.7680664,2.6035156,5.7680664,5.5717773,0,1.1757812-.1679688,2.0161133-.3920898,2.828125h-9.2958984Zm5.9919434-2.5483398c.0559082-.2519531.0559082-.4755859.0559082-.644043,0-1.2597656-.5598145-2.3515625-2.2399902-2.3515625-1.7358398,0-2.7998047,1.1196289-3.3039551,2.9956055h5.4880371Z"/>
    </g>
  </g>
</svg>