<?xml version="1.0" encoding="UTF-8"?>
<svg id="_レイヤー_2" data-name="レイヤー 2" xmlns="http://www.w3.org/2000/svg" viewBox="0 0 655.7656525 52.7285">
  <defs>
    <style>
      .cls-1 {
        stroke-width: 0px;
      }
    </style>
  </defs>
  <g id="_レイヤー_1-2" data-name="レイヤー 1">
    <g>
      <g>
        <path class="cls-1" d="m11.3561967,37.3211789c0,4.5649056.3425208,10.2715474.4566944,13.4099625-.5137813.5708681-1.8825054,1.5413438-3.3096755,1.5413438-.6850417,0-1.3129965-.5708681-1.3129965-1.1417361.3425208-4.9074265.6279549-9.814853.6279549-14.8371327v-15.5214947c-2.1679394,3.3667623-4.5655853,6.333917-7.0189587,8.7879701l-.7992153-.5708681C4.9081061,22.0844386,9.9861134,11.0707627,12.9546273,0l5.7059622,1.883185c-.285434.6850417-.9704757,1.1417361-2.1679394,1.0846493-1.8267778,5.1928605-4.1088908,10.100287-6.6193511,14.4946118l3.1955019,1.2552301c-.2283472.5137813-.6850417.9127093-1.7126042,1.0268829v17.5766197Zm32.8126804-11.4703703s2.9100679,2.3398794,4.6797589,4.051804c-.1141736.6272753-.6279549.9127093-1.4271701.9127093h-13.9808306v17.2340989h10.100287l2.7401667-3.6521964s3.2525887,2.5675471,5.1350941,4.450732c-.1712604.6279549-.6279549.9133889-1.4258109.9133889h-28.7051488c-2.4533734,0-4.564226.1141736-6.6764379.4566944l-1.5399845-3.0820079c3.0813283.5708681,6.8476983.9133889,9.2439849.9133889l7.4185663.2283472v-17.4624461h-5.4776149c-2.4547326,0-4.5655853.1141736-6.6777971.4566944l-1.5399845-3.0242415c3.0813283.5701885,6.8476983.9127093,9.2439849.9127093l4.4514116.2283472v-14.7229591h-7.1902191c-2.4533734,0-4.5655853.1141736-6.6764379.4566944l-1.5413438-3.0242415c3.0813283.5701885,6.8476983.9127093,9.2453441.9127093h19.0031103l2.6817207-3.4809359s3.0242415,2.454053,4.9067469,4.2230644c-.1699012.6272753-.6836825.9127093-1.4828977.9127093h-15.2367403v14.4946118h8.1606948l2.5675471-3.3096755ZM25.1086801.5137813c13.8680162,3.8234568,11.9841516,12.7256005,7.8752608,10.385721-1.2545505-3.3667623-5.2492677-7.5327399-8.4447696-9.8719398l.5695088-.5137813Z"/>
        <path class="cls-1" d="m103.174887,26.4216766c-.5137813,0-1.1417361-.3996076-1.8838646-.6850417-.6850417-.3425208-3.1955019-.7985357-4.5084984-.5708681-.4566944.0570868-.6265957-.1141736-.6265957-.2276676,0-.285434.226988-.3425208.6265957-.4566944.3996076-.0570868,3.0256007-1.0846493,3.4238491-1.5406642.3996076-.4566944.7992153-.4566944.3425208-2.5111398s-2.0537658-5.934989-3.9376304-5.4782945c-1.8254186.4566944-3.5380227,4.1659776-3.7092832,9.0734041-.1141736,4.8503397.7992153,11.983472,1.1988229,13.1252081.4566944,1.1410565,1.1417361,3.1955019,1.1417361,4.8503397,0,2.454053-.9704757,6.5629439-14.2091778,7.3614795-3.9376304.285434-12.8975405-.285434-13.1829745-5.7066418-.1141736-1.6548378.3996076-4.2794716.9133889-6.2197434-2.282113-1.4835773-5.8772226-6.0491626-4.8510193-12.2695856.5708681-3.6521964,4.4514116-6.1626566,7.3614795-5.4212077.0570868-1.597751.1141736-3.5380227.1141736-5.4782945-2.5675471.6279549-5.1350941,1.0275625-6.6193511.5137813-1.8254186-.6850417-3.2525887-3.5951096-3.4809359-4.1088908-.2283472-.5131016-.0570868-.6843621,0-.7414489.2283472-.1141736.4566944.1141736.7421285.4566944.2283472.2847544,1.8254186,1.8254186,4.2801512,1.597751.7407693-.0570868,2.7388075-.285434,5.0780073-.9133889,0-1.8260982-.0570868-3.2525887-.1141736-3.8234568-.1141736-1.4264905-.285434-2.5104602-2.1679394-4.051804-.7421285-.5701885-1.1988229-.6843621-1.0275625-1.0268829.3996076-1.0268829,3.7092832-.4566944,4.6226721.0570868,1.1417361.6279549,1.996679,1.597751,2.1679394,3.0242415.0570868.5137813-.0570868,1.2559097-.285434,2.2257058.7992153.285434,1.769691.5708681,2.6830799.6850417,2.0537658.2283472,2.7958943.2283472,3.0242415,1.1981433.2283472.9133889-.2283472,1.883185-1.4271701,2.454053-.5137813.2283472-2.6817207,1.0839697-5.2492677,1.8260982-.2283472,2.3962866-.4566944,5.1357737-.6279549,7.0760455.7421285.6843621,1.5399845,1.7690114,1.3687241,3.1384151-.3411616,2.3969662-.7407693,1.9973586-1.3116373,4.6797589-.9133889,3.9940376-.285434,7.931668-1.0275625,8.8450569-.5137813.6272753-.6850417.7985357-1.5399845.6272753-.4566944,2.3969662-.5708681,4.9651929.512422,6.1062494,1.8267778,1.7690114,7.3043927,1.8260982,9.6449518,1.6548378,2.0537658-.1712604,11.0136759-.3996076,11.1849363-6.4480906.1712604-6.505857-.3996076-12.440846-.1712604-15.2938271.1712604-2.8529811,1.2545505-10.4998946,5.9913962-10.5569814,4.7939325-.0570868,6.9047851,6.6193511,7.2473059,9.9861134.285434,2.2827926-1.3129965,2.9678343-1.711245,2.9678343Zm-32.5843332.2283472c.1699012-1.9402718.9691165-5.7637286-1.8267778-5.1364533-2.3962866.5137813-3.0242415,3.0820079-3.1955019,4.8510193-.1712604,2.2827926.9133889,6.1055698,2.8529811,6.6193511,1.484257.3425208,1.9980382-4.2801512,2.1692986-6.333917Zm3.4238491-16.4348836c.285434-.1141736.6265957-.285434.9691165-.3996076.4566944-.2283472.9704757-.5137813-.1141736-1.1417361-.1712604-.0570868-.3425208-.1705808-.5695088-.2847544v.1705808c-.1141736.3425208-.2283472.9133889-.285434,1.6555174Z"/>
        <path class="cls-1" d="m128.6818155,26.022069c-.1712604.3996076-2.5675471,8.9592305-2.9671547,12.4972532-.5708681,5.0216001.9133889,5.3070341.7421285,8.3319552,0,.7985357-.3996076,1.5406642-1.3129965,1.7690114-.9704757.1705808-1.7683318-.4566944-2.1108526-1.2559097-.3996076-.7985357-4.5655853-5.9913962-3.3096755-17.3475929.5708681-5.3070341,3.9947172-15.2938271,4.4500524-17.804967.4566944-2.5675471-1.0262033-5.0786869-1.4828977-5.5347017-.4566944-.4566944-.5708681-.9704757-.4566944-1.2559097.285434-.6272753,1.5413438.2283472,1.8825054.4566944.3996076.285434,4.2230644,2.6817207,3.5951096,6.7906115-.6265957,4.1088908-4.7925733,10.1009666-5.6488754,15.4650875-.8563021,4.8503397-.1712604,6.5622642,0,7.2473059.1141736.6843621.6850417,1.0839697.8563021,1.0839697.7421285.0570868,1.1417361-1.1981433,1.5399845-2.168619,1.0275625-2.3962866,2.1122118-5.8772226,3.5951096-8.6167096.285434-.5708681.4566944-.6843621.6279549-.5708681.285434.1141736.1712604.4566944,0,.9133889Zm31.8435639,22.0273518c-.7992153.3996076-2.2263854-.285434-3.9947172-2.2257058-1.2559097-1.3694037-2.6830799-2.3969662-4.1088908-3.1384151-.6850417,5.7066418-7.4185663,5.9920758-9.0740837,6.048483-4.7354865.2283472-7.0760455-2.6246339-7.1331323-5.1357737-.0570868-1.9973586,2.6246339-4.3936452,7.2473059-5.0216001,2.055125-.285434,3.9947172-.2283472,5.7644082.1141736,0-2.2257058-.2283472-7.7040004-.4566944-13.0110345-1.5984306.285434-3.1955019.3996076-4.5655853.3996076-4.2801512-.1141736-5.9913962-1.597751-6.333917-1.9402718-.3996076-.285434-.8563021-.7992153-.7421285-.9704757.1141736-.3418412.5708681-.113494.9704757.0570868.4566944.1712604,4.9638337.9133889,8.8443773-.113494.6279549-.1712604,1.1988229-.3425208,1.7126042-.4566944-.0570868-1.7690114-.1141736-3.4238491-.1141736-4.8510193,0-2.2250262-1.0275625-2.7388075-1.5984306-3.1955019-.3425208-.285434-1.4258109-.7985357-1.3687241-1.1410565.1141736-.5708681.5695088-.6850417,1.1403769-.6279549,1.6555174.0570868,3.7092832.3425208,4.6226721,1.7119246.5137813.7421285.3996076,1.7690114.1712604,2.9107475,1.996679.9697961,4.337238,1.7690114,4.7939325,1.8260982.8549429.0570868,2.4533734-.1712604,2.9100679.7985357.3996076.9704757-1.484257,2.1115322-1.484257,2.1115322-1.4828977,1.1981433-3.9947172,2.2257058-6.6193511,2.9671547.4566944,8.2177816,1.0275625,11.0707627,1.2559097,14.2669442,3.3096755,1.0268829,5.9343094,2.7388075,7.5327399,4.2223848,2.4533734,2.3398794,1.4828977,3.8805436.6279549,4.3943248Zm-11.5274571-6.7335247c-2.3976458-.7421285-4.5655853-.9133889-5.5931478-.9133889-1.1403769.0570868-5.4776149.6850417-5.3634413,3.1384151.1141736,2.3969662,3.7092832,2.5682267,4.7354865,2.5111398,4.2230644-.1712604,5.7073214-2.2257058,6.2211026-4.7361661Zm-9.4166045-33.6118957c-.1141736-.1712604-.3996076-.4566944-.2283472-.7421285.1712604-.2847544.6279549-.1141736.9704757.1141736.3425208.285434,2.6817207,1.3129965,4.9651929,1.1417361,2.2250262-.1712604,5.4776149-1.5406642,6.4480906-1.9402718.9133889-.3996076,2.3391998-.3996076,2.9671547.7414489.5708681,1.0846493-.2283472,1.883185-1.4828977,2.5682267-1.3129965.6850417-7.5327399,2.2827926-10.0445594,1.0839697-2.5104602-1.2552301-3.4809359-2.7388075-3.5951096-2.9671547Zm11.4132835,14.2662646c1.3700833-.3996076,1.9409514-.7414489,2.2263854-1.0839697.3411616-.3425208.512422-.8563021-.2283472-1.3700833-.285434-.1705808-.9133889-.6272753-1.7126042-1.1410565-.1141736.7421285-.285434,1.4835773-.285434,2.168619v1.4264905Z"/>
        <path class="cls-1" d="m187.2882177,1.9973586c.1712604-.7985357,2.4533734-.4566944,3.7092832.1141736,1.4828977.7421285,2.2250262,1.4264905,2.7388075,3.4238491.4566944,1.9973586-.2283472,3.9376304-.7421285,5.7066418-.4566944,1.7690114-1.2545505,3.5951096-1.2545505,7.0760455-.0570868,3.9376304.9120297,5.3641209,2.4533734,5.8779022,1.5970714.5137813,5.9343094-1.4835773,7.4756531-1.7690114,1.5399845-.3425208,2.9100679.6850417,2.8529811,1.883185s-.5708681,2.168619-2.3962866,2.5104602c-2.9671547.4566944-15.8646952,2.2257058-14.2091778,12.155412.8549429,5.0216001,7.0760455,5.934989,13.2387021,4.6219925,2.2250262-.4560148,6.5051774-1.1410565,6.7906115,1.7119246.1712604,2.3969662-4.2801512,2.5111398-6.6764379,2.8536607-2.3962866.285434-15.5221743,1.1981433-16.3213896-8.5596228-.5695088-7.2479855,5.8785818-11.8128912,9.1311705-13.1252081,0,0-2.1679394-.285434-3.3667623-2.6824003-2.5104602-5.1357737-.9133889-13.1822949-.8563021-15.4644079.1141736-2.7394871-.1141736-3.9376304-1.3129965-5.1364533-.7978561-.7414489-1.3687241-.7985357-1.2545505-1.1981433Zm12.5536604,6.2775098c.1141736-.5137813,1.3129965-.3996076,2.1692986-.3996076s6.8476983.6843621,7.5327399,4.3365584c.2283472,1.1417361,0,1.769691-.6850417,2.1115322-.7421285.3996076-2.1692986.285434-3.1384151-1.0268829-1.0275625-1.3694037-2.7388075-3.4809359-4.3943248-4.1088908-.6279549-.2283472-1.5413438-.5137813-1.484257-.9127093Zm4.9651929-3.7092832c0-.4566944,1.0846493-.5708681,2.0537658-.6850417.8563021-.0570868,6.7348839-.1712604,7.8752608,3.4809359.285434.9704757-.1141736,1.4264905-.5137813,1.7119246-.6265957.3996076-1.8825054.5137813-2.9671547-.5701885-1.1974637-1.1988229-2.7958943-2.5682267-4.5655853-3.1390947-.6265957-.2283472-1.8825054-.3425208-1.8825054-.7985357Z"/>
        <path class="cls-1" d="m236.2496681,7.0189587c-.1141736-.1712604-.4566944-.5701885-.3425208-.7985357.285434-.4566944.7421285-.1712604,1.0275625,0,.6850417.4566944,4.2230644,2.3391998,4.2230644,7.4185663,0,2.0544454-2.5689063,6.9618719-3.3667623,10.385721-.9704757,3.9376304-.6850417,5.7637286-.1712604,7.5898267.1141736.4566944.0570868.6850417.5137813.7414489.4553352.0570868.6265957-.2847544.9120297-.9697961s2.340559-5.5353813,2.5689063-6.220423c.226988-.6843621.4553352-.6272753.6265957-.5701885.1141736.0570868.1712604.285434,0,.8556225-.1712604.6279549-2.0537658,7.3614795-1.996679,10.6711551.1141736,3.3674419,1.1417361,7.9894344,1.3129965,8.9028233.1712604.9127093-.5708681,1.7119246-1.3129965,1.7690114-1.1417361.1141736-2.6246339-1.3700833-3.1955019-2.9107475-.6279549-1.5406642-2.1122118-5.7066418-2.2834722-13.6383097-.1141736-7.5327399,2.340559-12.8397741,2.9685139-18.489329.285434-2.0544454-1.3129965-4.5655853-1.484257-4.7368457Zm14.7800459,30.8724086c1.2559097.9133889,2.6246339,1.8260982,4.8510193,2.3969662,2.1679394.5708681,7.4756531.4566944,12.5536604-.4566944,2.4547326-.4560148,3.8234568.9133889,3.8805436,2.0544454,0,1.1988229-1.3687241,1.7119246-2.3391998,1.9973586s-11.9270648,1.597751-16.1501292-.9697961c-2.282113-1.4271701-3.4809359-3.8805436-3.6521964-4.337238-.2283472-.3996076-.3996076-.9697961-.2283472-1.1410565.285434-.2283472.7421285.2283472,1.0846493.4560148Zm1.5984306-27.0489519c.3982484.1712604,2.1108526.7992153,4.564226.6850417,2.4547326-.1141736,7.8752608-1.0846493,9.0740837-1.4835773,1.1974637-.3996076,3.0813283.5701885,3.3667623,1.597751.285434,1.0268829-1.0275625,1.7690114-2.282113,2.168619-1.2559097.398928-7.2473059,1.4264905-10.7296011.5701885-2.6817207-.6272753-4.7354865-2.0544454-5.4205281-3.4238491-.1712604-.3425208-.2283472-.6272753-.1141736-.7985357.1712604-.285434,1.1417361.5131016,1.5413438.6843621Z"/>
        <path class="cls-1" d="m285.3252921,37.9484541c6.8476983,2.168619,10.4428078,5.0793665,12.3266724,7.818174,1.0275625,1.4835773,1.3687241,2.5682267,1.3687241,3.8234568,0,1.6548378-.9691165,2.5682267-2.3391998,2.5682267-1.1988229,0-1.9395922-.6850417-2.7388075-2.3969662-1.8267778-3.76637-4.1659776-7.2473059-9.2453441-10.8424155l.6279549-.9704757Z"/>
      </g>
      <g>
        <path class="cls-1" d="m331.2366761,19.0601971c2.2250262,10.0432002-.7992153,16.5490572-3.1955019,19.2307779-1.5984306,1.7690114-3.76637,2.5111398-4.7368457,1.3700833-.7421285-1.0275625-.2283472-2.454053.7421285-3.5380227,3.2525887-2.6253135,6.2768302-9.4159249,6.1626566-17.0628385h1.0275625Zm10.5569814,26.1362426c0,1.3123169.4566944,1.7690114,3.3667623,1.7690114h7.1331323c3.3096755,0,5.7644082,0,6.7906115-.1141736.7992153-.1141736,1.0846493-.3996076,1.3129965-1.0275625.5137813-1.1410565,1.2559097-5.2499473,2.1108526-9.9290266h.6850417l.1141736,10.385721c1.3129965.4566944,1.7126042.9127093,1.7126042,1.7119246,0,1.9973586-2.055125,2.6253135-12.7833669,2.6253135h-7.5327399c-5.0780073,0-6.5051774-.9704757-6.5051774-4.6226721v-22.541133c0-3.4238491-.3996076-7.7033208-1.0275625-10.5569814l6.5065366.9133889c-.1141736.7414489-.6850417,1.3123169-1.8838646,1.5406642v29.8455257Zm10.7853287-31.8428843c-1.8254186-3.0242415-6.6764379-7.7040004-13.7524834-10.8995023l.3425208-.9133889c20.0864004,3.9947172,17.7472005,14.2098574,13.4099625,11.8128912Zm17.5759401,24.5384916c-.1712604-5.1935401-2.1108526-13.5819025-8.1022488-18.8889367l.5695088-.6279549c16.2643028,9.3017513,11.5274571,24.3672312,7.5327399,19.5168915Z"/>
        <path class="cls-1" d="m379.9697793,38.1768014c6.8476983,2.168619,10.4428078,5.0793665,12.3266724,7.818174,1.0275625,1.4835773,1.3687241,2.5682267,1.3687241,3.8234568,0,1.6548378-.9691165,2.5682267-2.3391998,2.5682267-1.1988229,0-1.9395922-.6850417-2.7388075-2.3969662-1.8267778-3.76637-4.1659776-7.2473059-9.2453441-10.8424155l.6279549-.9704757Z"/>
        <path class="cls-1" d="m439.2612231,6.6771175h15.0083931l2.8529811-3.5951096s3.1384151,2.4533734,5.1921809,4.3936452c-.1712604.5708681-.7407693.8563021-1.4828977.8563021h-39.9458127c-2.4547326,0-4.5655853.1141736-6.6764379.4560148l-1.5413438-3.0242415c3.0813283.5708681,6.8476983.9133889,9.2439849.9133889l13.6967558.2283472v-.2283472c0-2.0544454-.3996076-4.7939325-1.0275625-6.6771175l6.6193511.9133889c-.1141736.7985357-.6279549,1.3694037-1.9395922,1.5406642v4.2230644Zm19.7438795,40.6301748c0,2.8536607-.6279549,4.6797589-5.5917885,5.1935401-.1141736-1.0846493-.3996076-2.0544454-1.1417361-2.5682267-.7992153-.5708681-2.1108526-1.0839697-4.4514116-1.3694037v-.8563021s5.2506269.3996076,6.392363.3996076c.9691165,0,1.2545505-.3425208,1.2545505-1.1981433v-17.3482725h-35.6656615v7.8752608c0,4.5649056.3425208,10.2715474.4566944,13.4099625-.4566944.6850417-1.9409514,1.5413438-3.3667623,1.5413438-.5708681,0-1.1988229-.5708681-1.1988229-1.1417361.3425208-4.9074265.6279549-9.814853.6279549-14.8371327v-.1141736c0-3.4238491-.3996076-7.7033208-1.0275625-10.5569814l4.9081061,2.1115322h34.6951858l1.8267778-2.2827926,4.6797589,3.5951096c-.3425208.3996076-1.2559097.9133889-2.3976458,1.0846493v17.0621589Zm-10.2144606-36.806718l4.4514116,3.4809359c-.3996076.4560148-1.3129965.9127093-2.3962866,1.1410565,0,3.0813283.226988,6.7906115.3411616,8.7308833-.3982484.6279549-2.2250262,1.4264905-3.3096755,1.4264905-.5695088,0-.7978561-.5701885-.7978561-1.1410565.1141736-.4566944.2283472-.9127093.2283472-1.3694037h-19.4598047c0,.6272753.0570868,1.2552301.1712604,1.3694037-.1712604.6279549-1.7126042,1.4835773-3.1384151,1.4835773-.5137813,0-.7992153-.5701885-.7992153-1.1410565.1712604-1.0275625.285434-2.0544454.285434-3.1955019,0-3.4238491-.3996076-7.7040004-1.0275625-10.557661l4.7939325,1.9973586h18.6035026l2.0537658-2.2250262Zm-2.9671547,21.4564837l4.1088908,3.2525887c-.285434.3996076-1.0275625.7992153-2.055125.9704757,0,3.2525887.2283472,7.1902191.3425208,9.2439849-.3425208.6850417-2.0537658,1.5413438-3.1955019,1.5413438-.5708681,0-.7992153-.5708681-.7992153-1.1417361.1141736-.3996076.2283472-.7985357.2283472-1.3123169h-13.866657c0,.7421285.0570868,1.7119246.1712604,1.9402718-.1712604.5708681-1.711245,1.4264905-3.0813283,1.4264905-.5137813,0-.7992153-.5708681-.7992153-1.1410565.1712604-1.3700833.285434-2.7394871.285434-4.1088908,0-3.4238491-.3996076-7.7040004-1.0275625-10.5569814l4.6797589,1.9402718h13.1816153l1.8267778-2.0544454Zm1.484257-10.8424155v-6.6771175h-19.4598047v6.6771175h19.4598047Zm-2.8543403,21.7419177v-7.1331323h-13.866657v7.1331323h13.866657Z"/>
        <path class="cls-1" d="m483.3716543,4.8510193l4.337238,3.4809359c-.3996076.4560148-1.2559097.9697961-2.3391998,1.1981433v14.2091778c0,4.5655853.3425208,10.272227.4566944,13.4106421-.5137813.6279549-2.1692986,1.5406642-3.3096755,1.5406642-.5137813,0-.7992153-.5708681-.7992153-1.1410565.1712604-1.1988229.285434-2.3969662.285434-3.6521964h-7.1902191c0,2.3391998.1712604,5.1357737.285434,6.5051774-.285434.6279549-1.484257,1.5406642-2.9685139,1.5406642-.5695088,0-1.1974637-.5701885-1.1974637-1.1410565.3425208-4.9074265.6279549-9.8155326.6279549-14.8371327v-10.3286342c0-3.4238491-.3996076-7.7040004-1.0275625-10.5569814l4.5655853,2.1108526h6.3910038l1.8825054-2.3391998Zm-1.3687241,27.3343859V8.7879701h-7.1902191v23.3974351h7.1902191Zm7.7040004,5.649555c1.3687241,5.5924682-.5708681,9.1875777-2.5118195,10.5569814-1.2545505.9697961-3.1384151,1.0839697-3.7092832-.2283472-.4566944-1.0839697.2283472-2.2257058,1.3129965-2.8536607,2.0537658-1.1410565,3.8805436-4.2223848,3.8805436-7.4749735h1.0275625Zm25.8494493-15.4650875s2.7972535,2.2827926,4.4514116,3.9376304c-.1141736.5708681-.6279549.8556225-1.3687241.8556225h-25.3941141v4.3943248h20.771442l1.9395922-2.1115322,4.051804,3.3667623c-.3996076.3996076-1.0262033.7421285-2.1108526.8563021-.5137813,9.2446645-1.769691,15.1796535-3.8234568,17.0628385-1.3700833,1.1410565-3.3096755,1.7119246-5.3648005,1.7119246,0-1.0275625-.2283472-2.0544454-1.0262033-2.5111398-.6850417-.5708681-2.7972535-1.1410565-4.7368457-1.4264905v-.9704757c2.1108526.1712604,5.9343094.5137813,7.0760455.5137813.9133889,0,1.3700833-.1141736,1.8254186-.5708681,1.2559097-1.1410565,2.2263854-6.333917,2.6830799-14.2662646h-21.2852233c0,.8563021.0570868,1.7690114.1712604,2.0544454-.1712604.5137813-1.2559097,1.4264905-3.0256007,1.4264905-.512422,0-1.1403769-.5701885-1.1403769-1.1410565.3425208-4.9074265.6279549-9.8155326.6279549-14.8371327v-5.649555c0-3.4238491-.3996076-7.7040004-1.0275625-10.5569814l5.0780073,2.1115322h3.6521964c.6279549-1.883185,1.3700833-4.4514116,1.6555174-6.4487702l5.9913962,1.0846493c-.2283472.7414489-.7978561,1.2552301-1.996679,1.3123169-1.0275625,1.2552301-2.5675471,2.7958943-4.1088908,4.051804h10.8424155l1.8825054-2.2827926,4.3943248,3.4809359c-.3425208.4566944-1.2545505.9133889-2.282113,1.1410565v12.8968609c-.0570868.3425208-1.8838646,1.1988229-3.0242415,1.1988229h-.4566944v-1.7690114h-17.2334193v4.2223848h19.91514l2.3962866-3.1384151Zm-21.6277441,15.2938271c7.0189587,5.4212077,2.9685139,11.8122116.3996076,8.6167096.5708681-2.6824003-.1141736-6.1062494-1.1403769-8.3883624l.7407693-.2283472Zm-.6836825-29.3888313v4.7932529l17.2334193.2283472v-5.0216001h-17.2334193Zm17.2334193,11.2991099v-4.7939325h-17.2334193v4.7939325h17.2334193Zm-11.0136759,17.3475929c8.2748684,3.6521964,5.1921809,10.2151402,2.3391998,7.6469136.0570868-2.5111398-1.4258109-5.4782945-3.0242415-7.1902191l.6850417-.4566944Zm5.8772226-1.0268829c8.7886497,2.2250262,6.4494498,8.8450569,3.4809359,6.6193511-.285434-2.168619-2.282113-4.7932529-4.051804-6.1633362l.5708681-.4560148Z"/>
        <path class="cls-1" d="m551.5074754,39.3756243c1.7126042.5131016,3.9947172,2.7958943,4.5084984,5.1928605v.1712604l.2283472-.0570868c8.1606948-2.9107475,9.6435925-15.9211024-.2283472-17.9755478-1.1417361-.285434-2.1108526-.3425208-2.9671547-.3425208-3.5380227-.0570868-7.9323476,1.3694037-13.0117141,9.9290266-.6265957,1.0275625-1.4258109,2.5111398-2.1108526,3.0820079-.3425208.285434-.7992153.285434-1.0275625.285434-.6850417,0-1.3116373-.3425208-1.4828977-.6279549-.9133889-1.3123169-.285434-2.6824003.5695088-4.1088908.2283472-.3996076,2.9114271-3.5951096,3.9947172-4.9645133.3425208-.4566944.5708681-.7421285.6850417-.7992153,3.76637-4.7361661,9.0169969-12.8968609,11.8128912-17.4046797l.1141736-.2283472c.6279549-.9697961,1.5984306-2.5111398.5137813-3.4238491-.0570868,0-.1141736-.0570868-.1141736-.0570868-.1712604-.1712604-.3996076-.285434-.6279549-.3425208-.6850417-.1712604-1.2559097.5708681-1.5984306,1.0839697-.4553352.6850417-3.0242415,4.2230644-5.8201358,5.4218873-.5137813.2276676-1.0275625.2847544-1.5413438.2847544-1.0262033,0-2.9100679-.5131016-3.6521964-3.7092832-.226988-1.0839697-.1128144-1.4264905-.1128144-1.4835773.4553352-.2283472.7978561.285434,1.0262033.6279549.1712604.285434.8563021.6850417,1.5984306.6850417.2283472,0,.5137813-.0570868.7421285-.1141736,1.0832901-.3425208,3.1955019-1.484257,5.8772226-3.6521964,1.4271701-1.1417361,3.1384151-1.5413438,5.1364533-1.1988229,1.2545505.2283472,3.5951096,1.0275625,4.1646184,2.5682267.4566944,1.1981433.1712604,2.2257058-.9120297,3.3667623-.6850417.7421285-11.5274571,13.7524834-12.5550196,15.6356683l-.285434.5708681.5708681-.3996076c.9704757-.5701885,4.2801512-2.8529811,9.0169969-2.7388075,1.0262033,0,2.1108526.1141736,3.1384151.3996076,1.2545505.2276676,2.4533734.6272753,3.5380227,1.1410565,7.818174,3.8234568,7.4756531,15.1225667.285434,19.4591251-4.1088908,2.5111398-9.9874726,3.8805436-14.3804382,1.3700833-4.5084984-2.5682267-2.2263854-8.103608,2.6246339-7.9894344.6850417,0,1.4828977.1141736,2.282113.3425208Zm1.2559097,6.2768302c.0570868-.0570868.1141736-.1141736.0570868-.2283472-.5708681-2.1679394-1.484257-3.5380227-3.4238491-3.879864-.285434-.0570868-.5137813-.0570868-.7992153-.0570868-1.6541582.0570868-1.996679,1.3694037-1.996679,2.1108526,0,.2283472.1141736.4566944.285434.6850417.8549429.9133889,3.2525887,1.597751,4.7925733,1.597751.9133889.0570868,1.0275625-.1141736,1.0846493-.2283472Z"/>
        <path class="cls-1" d="m580.2683518,27.5056463v-2.282113h57.0650584v2.282113h-57.0650584Z"/>
        <path class="cls-1" d="m639.7296969,44.6826584c0-4.3943248,3.6521964-7.9894344,8.0465212-7.9894344s7.9894344,3.5951096,7.9894344,7.9894344c0,4.3936452-3.5951096,8.0458416-7.9894344,8.0458416s-8.0465212-3.6521964-8.0465212-8.0458416Zm1.9409514,0c0,3.3667623,2.6817207,6.1062494,6.1055698,6.1062494,3.3667623,0,6.048483-2.7394871,6.048483-6.1062494s-2.6817207-6.0491626-6.048483-6.0491626c-3.4238491,0-6.1055698,2.6824003-6.1055698,6.0491626Z"/>
      </g>
    </g>
  </g>
</svg>