<?xml version="1.0" encoding="UTF-8"?>
<svg id="_レイヤー_2" data-name="レイヤー 2" xmlns="http://www.w3.org/2000/svg" viewBox="0 0 996.2686437 72.5258789">
  <defs>
    <style>
      .cls-1 {
        fill: #ffd55f;
      }

      .cls-1, .cls-2 {
        stroke-width: 0px;
      }
    </style>
  </defs>
  <g id="_レイヤー_1-2" data-name="レイヤー 1">
    <g>
      <path class="cls-1" d="m24.9921875,71.5454102l3.234375-14.8974609H0l2.7441406-12.0546875L35.6748047,7.0566406h15.5830078l-8.3300781,38.8110352h7.9384766l-3.5283203,10.7802734h-6.5664062l-3.234375,14.8974609h-12.5449219Zm8.3300781-38.6147461c1.2744141-5.8803711,2.4501953-10.4868164,3.6269531-14.4072266-3.7246094,5.9785156-15.6816406,19.4052734-22.0517578,27.3442383h15.4853516l2.9394531-12.9370117Z"/>
      <path class="cls-2" d="m92.3164062,4.0185547h25.7763672c13.5244141,0,19.9931641,7.2524414,19.9931641,16.7592773,0,7.4482422-4.1162109,13.8188477-11.9570312,16.3671875,4.7041016,1.9599609,8.625,7.1542969,8.625,13.3291016,0,13.6230469-10.6826172,21.0712891-26.4619141,21.0712891h-30.2841797L92.3164062,4.0185547Zm1.5683594,56.8442383h13.3291016c7.4482422,0,13.0351562-3.4306641,13.0351562-10.4873047,0-5.4882812-3.1367188-8.722168-11.3691406-8.722168h-10.9765625l-4.0185547,19.2094727Zm18.0332031-29.9902344c6.8603516,0,12.0546875-2.4501953,12.0546875-8.8208008,0-5.9785156-4.6064453-7.3505859-9.1142578-7.3505859h-11.2714844l-3.4296875,16.1713867h11.7607422Z"/>
      <path class="cls-2" d="m176.5986328,33.2246094c-9.3115234.0981445-15.7792969,5.1943359-18.1318359,16.269043l-4.7041016,22.0517578h-13.3291016l7.6445312-35.6748047c1.078125-4.9980469,2.0585938-10.3886719,2.9404297-15.0927734h12.8388672c-.0986328,1.2739258-.5878906,5.0961914-1.4707031,9.2124023,3.4306641-6.0761719,8.0371094-10.1928711,16.8574219-10.1928711l-2.6455078,13.4272461Z"/>
      <path class="cls-2" d="m188.8447266,20.777832h13.3291016l-10.7802734,50.7675781h-13.3291016l10.7802734-50.7675781Zm4.3125-20.777832h13.3291016l-2.6464844,12.5449219h-13.328125l2.6455078-12.5449219Z"/>
      <path class="cls-2" d="m204.0341797,71.5454102L219.1269531,0h13.3291016l-15.0927734,71.5454102h-13.3291016Z"/>
      <path class="cls-2" d="m230.0039062,71.5454102L245.0966797,0h13.3291016l-15.0927734,71.5454102h-13.3291016Z"/>
      <path class="cls-2" d="m266.7539062,20.777832h13.3291016l-10.7802734,50.7675781h-13.3291016l10.7802734-50.7675781Zm4.3125-20.777832h13.3291016l-2.6464844,12.5449219h-13.328125l2.6455078-12.5449219Z"/>
      <path class="cls-2" d="m326.4384766,59.0981445c-1.1757812,5.2929688-2.2539062,10.9775391-2.3525391,12.4472656h-12.9365234c.0976562-1.4697266.4902344-4.1162109.6865234-5.6845703-2.5488281,3.1367188-5.8808594,6.6650391-15.2890625,6.6650391-9.9970703,0-14.2119141-7.0566406-14.2119141-13.0351562,0-14.1132812,12.3496094-17.8374023,23.5224609-19.1118164,4.3115234-.3916016,8.2324219-.3916016,11.3681641-.4897461l.4902344-2.3520508c.6865234-3.7246094.6865234-8.4287109-6.46875-8.4287109-6.3701172,0-7.5458984,3.4301758-8.6240234,5.8803711h-13.6230469c1.8623047-8.1347656,7.546875-15.1914062,23.3251953-15.1914062,12.3496094,0,21.4638672,5.1948242,18.6220703,18.4257812l-4.5087891,20.875Zm-11.0751953-10.2905273c-3.3320312,0-6.1738281.1958008-8.8203125.4897461-7.4482422,1.1767578-10.3886719,3.6269531-10.3886719,7.9394531,0,2.9394531,1.8623047,5.1943359,6.1748047,5.1943359,9.2119141,0,11.5644531-7.4492188,12.8388672-12.8388672l.1953125-.784668Z"/>
      <path class="cls-2" d="m344.5654297,33.7148438c.8828125-4.3125,1.8623047-8.625,2.5488281-12.9370117h13.0351562c-.0986328,1.4697266-.6865234,5.0961914-.9804688,6.3701172,2.3525391-3.0380859,6.7626953-7.3505859,15.2890625-7.3505859,9.9970703,0,15.6816406,6.0766602,12.4472656,21.0717773l-6.46875,30.6762695h-13.2314453l6.46875-30.7744141c1.2744141-5.684082,0-9.8007812-5.6845703-9.8007812-6.4677734,0-10.5849609,4.9003906-12.6425781,14.309082l-5.4882812,26.2661133h-13.3291016l8.0361328-37.8305664Z"/>
      <path class="cls-2" d="m398.6611328,20.777832h7.546875l2.9404297-13.6230469h13.2304688l-2.8417969,13.6230469h9.5058594l-2.2539062,10.1923828h-9.5068359l-5.3896484,25.5800781c-.5888672,3.1367188-.3925781,5.1943359,3.6259766,5.1943359,1.5683594,0,2.8417969-.0976562,4.3125-.2939453l-1.9599609,9.6044922c-3.0390625.9804688-6.2724609.9804688-9.0175781.9804688-10.5839844,0-12.25-5.9785156-10.3886719-14.8974609l5.4882812-26.1679688h-7.5458984l2.2539062-10.1923828Z"/>
      <path class="cls-2" d="m497.1523438,54.9819336c-2.7441406,9.6044922-9.6044922,17.5439453-24.5996094,17.5439453-12.8388672,0-19.6015625-7.546875-19.6015625-19.7001953,0-14.7006836,8.4287109-33.0283203,27.2460938-33.0283203,16.4648438,0,20.5810547,11.6630859,19.8955078,18.1313477h-12.9375c-.0976562-3.9199219-1.3720703-7.9384766-7.3505859-7.9384766-9.4082031,0-13.1328125,14.1132812-13.1328125,22.2475586,0,7.0566406,2.8427734,10.1933594,7.6445312,10.1933594,4.4101562,0,7.4492188-2.4501953,9.5068359-7.4492188h13.3291016Z"/>
      <path class="cls-2" d="m554.2861328,41.6533203c0,11.8588867-6.9589844,30.8725586-28.5205078,30.8725586-14.1123047,0-20.5810547-8.625-20.5810547-20.9736328,0-13.6235352,8.6240234-31.7548828,28.0302734-31.7548828,12.1523438,0,21.0712891,6.8608398,21.0712891,21.855957Zm-35.2822266,9.996582c0,7.0566406,2.9394531,10.4873047,8.1337891,10.4873047,9.6054688,0,13.3291016-13.2314453,13.3291016-21.855957,0-6.5664062-2.7441406-10.0947266-8.3300781-10.0947266-9.2128906,0-13.1328125,13.1328125-13.1328125,21.4633789Z"/>
      <path class="cls-2" d="m558.59375,71.5454102L573.6865234,0h13.3291016l-15.0927734,71.5454102h-13.3291016Z"/>
      <path class="cls-2" d="m635.8212891,41.6533203c0,11.8588867-6.9589844,30.8725586-28.5205078,30.8725586-14.1123047,0-20.5810547-8.625-20.5810547-20.9736328,0-13.6235352,8.6240234-31.7548828,28.0302734-31.7548828,12.1523438,0,21.0712891,6.8608398,21.0712891,21.855957Zm-35.2822266,9.996582c0,7.0566406,2.9394531,10.4873047,8.1337891,10.4873047,9.6054688,0,13.3291016-13.2314453,13.3291016-21.855957,0-6.5664062-2.7441406-10.0947266-8.3300781-10.0947266-9.2128906,0-13.1328125,13.1328125-13.1328125,21.4633789Z"/>
      <path class="cls-2" d="m676.2939453,33.2246094c-9.3115234.0981445-15.7792969,5.1943359-18.1318359,16.269043l-4.7041016,22.0517578h-13.3291016l7.6445312-35.6748047c1.078125-4.9980469,2.0585938-10.3886719,2.9404297-15.0927734h12.8388672c-.0986328,1.2739258-.5878906,5.0961914-1.4707031,9.2124023,3.4306641-6.0761719,8.0371094-10.1928711,16.8574219-10.1928711l-2.6455078,13.4272461Z"/>
      <path class="cls-2" d="m690.8925781,55.8637695c.3925781,4.4111328,3.234375,6.7626953,8.8203125,6.7626953,5.1953125,0,7.2529297-2.3515625,7.2529297-5.7822266,0-3.234375-2.6464844-4.8027344-9.0166016-6.7626953-11.859375-3.7241211-15.4853516-7.840332-15.4853516-14.112793,0-9.1147461,7.1542969-16.1713867,20.6796875-16.1713867,14.1132812,0,20.3857422,7.2529297,20.0917969,15.2895508h-13.5253906c-.1962891-2.7446289-1.5683594-5.390625-7.2519531-5.390625-3.3330078,0-6.6650391,1.078125-6.6650391,4.6064453,0,2.7441406,2.7441406,3.7241211,8.9189453,5.7822266,11.8583984,3.7246094,15.9746094,8.3305664,15.9746094,15.387207,0,11.6630859-10.4863281,17.0537109-22.4433594,17.0537109-13.5253906,0-21.3652344-6.0771484-20.7773438-16.6621094h13.4267578Z"/>
      <path class="cls-2" d="m763.2148438,55.8637695c.3925781,4.4111328,3.234375,6.7626953,8.8203125,6.7626953,5.1953125,0,7.2529297-2.3515625,7.2529297-5.7822266,0-3.234375-2.6464844-4.8027344-9.0166016-6.7626953-11.859375-3.7241211-15.4853516-7.840332-15.4853516-14.112793,0-9.1147461,7.1542969-16.1713867,20.6796875-16.1713867,14.1132812,0,20.3857422,7.2529297,20.0917969,15.2895508h-13.5253906c-.1962891-2.7446289-1.5683594-5.390625-7.2519531-5.390625-3.3330078,0-6.6650391,1.078125-6.6650391,4.6064453,0,2.7441406,2.7441406,3.7241211,8.9189453,5.7822266,11.8583984,3.7246094,15.9746094,8.3305664,15.9746094,15.387207,0,11.6630859-10.4863281,17.0537109-22.4433594,17.0537109-13.5253906,0-21.3652344-6.0771484-20.7773438-16.6621094h13.4267578Z"/>
      <path class="cls-2" d="m804.1777344,20.777832h7.546875l2.9404297-13.6230469h13.2304688l-2.8417969,13.6230469h9.5058594l-2.2539062,10.1923828h-9.5068359l-5.3896484,25.5800781c-.5888672,3.1367188-.3925781,5.1943359,3.6259766,5.1943359,1.5683594,0,2.8417969-.0976562,4.3125-.2939453l-1.9599609,9.6044922c-3.0390625.9804688-6.2724609.9804688-9.0175781.9804688-10.5839844,0-12.25-5.9785156-10.3886719-14.8974609l5.4882812-26.1679688h-7.5458984l2.2539062-10.1923828Z"/>
      <path class="cls-2" d="m877.0917969,59.0981445c-1.1757812,5.2929688-2.2539062,10.9775391-2.3525391,12.4472656h-12.9365234c.0976562-1.4697266.4902344-4.1162109.6865234-5.6845703-2.5488281,3.1367188-5.8808594,6.6650391-15.2900391,6.6650391-9.9960938,0-14.2109375-7.0566406-14.2109375-13.0351562,0-14.1132812,12.3496094-17.8374023,23.5224609-19.1118164,4.3115234-.3916016,8.2324219-.3916016,11.3681641-.4897461l.4902344-2.3520508c.6865234-3.7246094.6865234-8.4287109-6.46875-8.4287109-6.3701172,0-7.5458984,3.4301758-8.6240234,5.8803711h-13.6230469c1.8623047-8.1347656,7.5458984-15.1914062,23.3251953-15.1914062,12.3496094,0,21.4638672,5.1948242,18.6220703,18.4257812l-4.5087891,20.875Zm-11.0742188-10.2905273c-3.3330078,0-6.1748047.1958008-8.8212891.4897461-7.4482422,1.1767578-10.3886719,3.6269531-10.3886719,7.9394531,0,2.9394531,1.8623047,5.1943359,6.1748047,5.1943359,9.2119141,0,11.5644531-7.4492188,12.8388672-12.8388672l.1962891-.784668Z"/>
      <path class="cls-2" d="m897.9628906,20.777832h13.3291016l-10.7802734,50.7675781h-13.3291016l10.7802734-50.7675781Zm4.3125-20.777832h13.3291016l-2.6464844,12.5449219h-13.328125l2.6455078-12.5449219Z"/>
      <path class="cls-2" d="m949.3173828,33.2246094c-9.3115234.0981445-15.7792969,5.1943359-18.1318359,16.269043l-4.7041016,22.0517578h-13.3291016l7.6445312-35.6748047c1.078125-4.9980469,2.0585938-10.3886719,2.9404297-15.0927734h12.8388672c-.0986328,1.2739258-.5878906,5.0961914-1.4707031,9.2124023,3.4306641-6.0761719,8.0371094-10.1928711,16.8574219-10.1928711l-2.6455078,13.4272461Z"/>
      <path class="cls-2" d="m963.9160156,55.8637695c.3925781,4.4111328,3.234375,6.7626953,8.8203125,6.7626953,5.1953125,0,7.2529297-2.3515625,7.2529297-5.7822266,0-3.234375-2.6464844-4.8027344-9.0166016-6.7626953-11.859375-3.7241211-15.4853516-7.840332-15.4853516-14.112793,0-9.1147461,7.1542969-16.1713867,20.6796875-16.1713867,14.1132812,0,20.3857422,7.2529297,20.0917969,15.2895508h-13.5253906c-.1962891-2.7446289-1.5683594-5.390625-7.2519531-5.390625-3.3330078,0-6.6650391,1.078125-6.6650391,4.6064453,0,2.7441406,2.7441406,3.7241211,8.9189453,5.7822266,11.8583984,3.7246094,15.9746094,8.3305664,15.9746094,15.387207,0,11.6630859-10.4863281,17.0537109-22.4433594,17.0537109-13.5253906,0-21.3652344-6.0771484-20.7773438-16.6621094h13.4267578Z"/>
    </g>
  </g>
</svg>