<?xml version="1.0" encoding="UTF-8"?>
<svg id="_レイヤー_2" data-name="レイヤー 2" xmlns="http://www.w3.org/2000/svg" viewBox="0 0 474.6875 264.5117188">
  <defs>
    <style>
      .cls-1 {
        stroke-width: 0px;
      }
    </style>
  </defs>
  <g id="_レイヤー_1-2" data-name="レイヤー 1">
    <g>
      <path class="cls-1" d="m105.6210938,158.2729492c1.8730469-8.765625,4.1953125-19.1049805,5.6181641-24.9487305h-.2988281c-4.5703125,10.4140625-12.9619141,28.1704102-20.9033203,44.3530273h-9.140625c-.7490234-12.7363281-1.9472656-34.6884766-1.9472656-44.5029297h-.375c-.8242188,5.9936523-2.921875,17.1567383-4.7949219,25.9975586l-3.9707031,18.5053711h-9.7392578l10.9375-51.6201172h15.9589844c.8232422,12.5117188,1.6474609,30.1928711,1.6474609,37.8349609h.0751953c2.6972656-6.9677734,11.3876953-23.75,18.1308594-37.8349609h15.9580078l-10.9384766,51.6201172h-10.2636719l4.0458984-19.4042969Z"/>
      <path class="cls-1" d="m161.8876953,154.8266602c0,9.0654297-5.3193359,23.5996094-21.8017578,23.5996094-10.7890625,0-15.7333984-6.5927734-15.7333984-16.0327148,0-10.4140625,6.5927734-24.2744141,21.4267578-24.2744141,9.2900391,0,16.1083984,5.2446289,16.1083984,16.7075195Zm-26.9716797,7.6416016c0,5.3945312,2.2480469,8.0166016,6.21875,8.0166016,7.3417969,0,10.1884766-10.1142578,10.1884766-16.7075195,0-5.0195312-2.0976562-7.7167969-6.3681641-7.7167969-7.0419922,0-10.0390625,10.0395508-10.0390625,16.4077148Z"/>
      <path class="cls-1" d="m211.7099609,122.9853516l-9.2900391,44.203125c-.7490234,3.5209961-1.5732422,6.9672852-2.1728516,10.4887695h-9.8144531c.0751953-1.4233398.2246094-2.6972656.5996094-4.5703125-2.4726562,3.4462891-6.1435547,5.3193359-11.2382812,5.3193359-8.3164062,0-12.8867188-5.918457-12.8867188-15.3583984,0-11.8374023,7.1181641-24.9487305,20.5283203-24.9487305,5.5449219,0,9.140625,2.2475586,9.9648438,4.1206055l4.1210938-19.2543945h10.1884766Zm-34.1630859,38.8837891c0,5.1694336,2.0224609,8.0913086,6.2929688,8.0913086,6.21875,0,9.5146484-5.2446289,10.9384766-13.1113281,1.2734375-6.5927734-.5996094-10.2641602-6.21875-10.2641602-7.1923828,0-11.0126953,8.3911133-11.0126953,15.2841797Z"/>
      <path class="cls-1" d="m222.2001953,160.5952148c-.1494141.8242188-.2998047,1.4985352-.2998047,2.3227539,0,4.1206055,1.5742188,7.6416016,6.1435547,7.6416016,4.1962891,0,5.9941406-2.1723633,7.2675781-4.7197266h10.6386719c-2.1728516,5.769043-7.1171875,12.5864258-18.7294922,12.5864258-10.4140625,0-15.5087891-6.5180664-15.5087891-15.8828125,0-10.2641602,5.5439453-24.4243164,20.9775391-24.4243164,11.3876953,0,15.4335938,6.9677734,15.4335938,14.9091797,0,3.1464844-.4492188,5.3945312-1.0488281,7.5668945h-24.8740234Zm16.0332031-6.8178711c.1503906-.6743164.1503906-1.2734375.1503906-1.7231445,0-3.3710938-1.4990234-6.2929688-5.9941406-6.2929688-4.6445312,0-7.4921875,2.996582-8.8408203,8.0161133h14.6845703Z"/>
      <path class="cls-1" d="m251.0458984,177.6772461l11.5380859-54.6918945h10.1884766l-11.5371094,54.6918945h-10.1894531Z"/>
      <path class="cls-1" d="m282.4384766,122.9853516h10.1884766l-4.3447266,20.8276367c2.3222656-2.8466797,5.6933594-5.6938477,11.6875-5.6938477,6.8173828,0,11.9873047,3.8208008,9.7392578,14.7592773l-5.2441406,24.7988281h-10.1142578l4.8701172-23.375c1.0488281-5.0200195.1494141-7.6420898-4.3457031-7.6420898-5.0947266,0-7.9414062,3.7460938-9.140625,9.0654297l-4.6445312,21.9516602h-10.1894531l11.5380859-54.6918945Z"/>
      <path class="cls-1" d="m353.3886719,154.8266602c0,9.0654297-5.3193359,23.5996094-21.8017578,23.5996094-10.7890625,0-15.7333984-6.5927734-15.7333984-16.0327148,0-10.4140625,6.5927734-24.2744141,21.4267578-24.2744141,9.2900391,0,16.1083984,5.2446289,16.1083984,16.7075195Zm-26.9716797,7.6416016c0,5.3945312,2.2480469,8.0166016,6.21875,8.0166016,7.3417969,0,10.1884766-10.1142578,10.1884766-16.7075195,0-5.0195312-2.0976562-7.7167969-6.3681641-7.7167969-7.0419922,0-10.0390625,10.0395508-10.0390625,16.4077148Z"/>
      <path class="cls-1" d="m391.9726562,167.3383789c-.7490234,3.3710938-1.4980469,7.1923828-2.0224609,10.3388672h-9.9648438c.0751953-1.0488281.4501953-3.9707031.8242188-5.3945312-2.921875,4.2705078-7.1171875,6.1435547-12.2871094,6.1435547-7.1923828,0-11.3125-4.7949219-9.4394531-13.7104492l5.46875-25.8476562h10.1142578l-5.2441406,24.4990234c-.8242188,4.0458984-.2246094,6.6679688,4.1210938,6.6679688,4.4199219,0,8.3154297-3.5209961,10.1142578-12.137207l4.1201172-19.0297852h10.1894531l-5.9941406,28.4702148Z"/>
      <path class="cls-1" d="m409.5058594,165.6899414c.2998047,3.371582,2.4726562,5.1694336,6.7431641,5.1694336,3.9707031,0,5.5439453-1.7978516,5.5439453-4.4204102,0-2.472168-2.0224609-3.6708984-6.8925781-5.1694336-9.0654297-2.8466797-11.8378906-5.9936523-11.8378906-10.7885742,0-6.9677734,5.4697266-12.3618164,15.8085938-12.3618164,10.7890625,0,15.5839844,5.5439453,15.3583984,11.6875h-10.3388672c-.1494141-2.0976562-1.1982422-4.1206055-5.5439453-4.1206055-2.546875,0-5.0947266.8242188-5.0947266,3.5214844,0,2.0976562,2.0976562,2.8466797,6.8183594,4.4204102,9.0654297,2.8466797,12.2119141,6.3681641,12.2119141,11.762207,0,8.9155273-8.0166016,13.0361328-17.1572266,13.0361328-10.3388672,0-16.3330078-4.6450195-15.8828125-12.7363281h10.2636719Z"/>
      <path class="cls-1" d="m448.7646484,160.5952148c-.1494141.8242188-.2998047,1.4985352-.2998047,2.3227539,0,4.1206055,1.5742188,7.6416016,6.1435547,7.6416016,4.1962891,0,5.9941406-2.1723633,7.2675781-4.7197266h10.6386719c-2.1728516,5.769043-7.1171875,12.5864258-18.7294922,12.5864258-10.4140625,0-15.5087891-6.5180664-15.5087891-15.8828125,0-10.2641602,5.5439453-24.4243164,20.9775391-24.4243164,11.3876953,0,15.4335938,6.9677734,15.4335938,14.9091797,0,3.1464844-.4492188,5.3945312-1.0488281,7.5668945h-24.8740234Zm16.0332031-6.8178711c.1503906-.6743164.1503906-1.2734375.1503906-1.7231445,0-3.3710938-1.4990234-6.2929688-5.9941406-6.2929688-4.6445312,0-7.4921875,2.996582-8.8408203,8.0161133h14.6845703Z"/>
      <path class="cls-1" d="m111.3896484,218.8100586c0,15.8828125-8.8408203,31.6162109-28.4697266,31.6162109-13.7109375,0-20.3789062-9.0654297-20.3789062-20.8276367,0-15.3588867,9.3652344-32.2910156,28.0957031-32.2910156,14.234375,0,20.7529297,9.4399414,20.7529297,21.5024414Zm-37.9101562,10.4140625c0,7.7915039,3.5214844,12.7363281,10.7890625,12.7363281,11.6123047,0,16.3320312-12.5117188,16.3320312-23.300293,0-7.5668945-3.0712891-12.9614258-10.6386719-12.9614258-10.9384766,0-16.4824219,12.5869141-16.4824219,23.5253906Z"/>
      <path class="cls-1" d="m120.3818359,222.1064453c1.1240234-5.2446289,1.7978516-8.690918,2.1728516-11.2382812h10.1142578c0,.8242188-.5244141,3.4467773-.8242188,5.2446289,2.0976562-2.9970703,5.7685547-5.9936523,11.8369141-5.9936523,7.7919922,0,12.4375,5.9936523,12.4375,15.2089844,0,12.137207-7.4169922,25.0981445-21.203125,25.0981445-4.8691406,0-8.1660156-2.0976562-9.5146484-4.3452148l-3.8955078,18.4306641h-10.1142578l8.9902344-42.4052734Zm14.1601562,20.0039062c7.6416016,0,10.9384766-9.140625,10.9384766-15.6586914,0-5.6186523-2.5478516-7.9414062-6.4433594-7.9414062-5.5439453,0-9.2148438,5.0947266-10.6386719,11.9125977-1.2734375,6.4428711-.2998047,11.6875,6.1435547,11.6875Z"/>
      <path class="cls-1" d="m171.4785156,232.5952148c-.1494141.8242188-.2998047,1.4985352-.2998047,2.3227539,0,4.1206055,1.5742188,7.6416016,6.1435547,7.6416016,4.1962891,0,5.9941406-2.1723633,7.2675781-4.7197266h10.6386719c-2.1728516,5.769043-7.1171875,12.5864258-18.7304688,12.5864258-10.4130859,0-15.5078125-6.5180664-15.5078125-15.8828125,0-10.2641602,5.5439453-24.4243164,20.9775391-24.4243164,11.3876953,0,15.4335938,6.9677734,15.4335938,14.9091797,0,3.1464844-.4492188,5.3945312-1.0488281,7.5668945h-24.8740234Zm16.0332031-6.8178711c.1503906-.6743164.1503906-1.2734375.1503906-1.7231445,0-3.3710938-1.4990234-6.2929688-5.9941406-6.2929688-4.6445312,0-7.4921875,2.996582-8.8408203,8.0161133h14.6845703Z"/>
      <path class="cls-1" d="m206.4677734,220.7578125c.6738281-3.2963867,1.4228516-6.5927734,1.9482422-9.8896484h9.9638672c-.0751953,1.1240234-.5244141,3.8959961-.7490234,4.8701172,1.7978516-2.3227539,5.1699219-5.6191406,11.6875-5.6191406,7.6416016,0,11.9873047,4.6450195,9.5146484,16.1079102l-4.9443359,23.4501953h-10.1142578l4.9443359-23.5249023c.9746094-4.3457031,0-7.4921875-4.3447266-7.4921875-4.9453125,0-8.0917969,3.7460938-9.6650391,10.9384766l-4.1953125,20.0786133h-10.1894531l6.1435547-28.9194336Z"/>
      <path class="cls-1" d="m247.2246094,249.6772461l2.6230469-12.4370117h10.0390625l-2.6220703,12.4370117h-10.0400391Zm4.9453125-18.7299805l3.8203125-23.9746094,1.9482422-8.9155273h10.7890625l-1.9482422,8.9902344-6.3681641,23.8999023h-8.2412109Z"/>
    </g>
    <g>
      <path class="cls-1" d="m8.1591797,26.8144531c0,3.2797852.2460938,7.3798828.328125,9.6347656-.3691406.4101562-1.3525391,1.1074219-2.3779297,1.1074219-.4921875,0-.9433594-.4101562-.9433594-.8203125.2460938-3.5258789.4511719-7.0517578.4511719-10.6601562v-11.1518555c-1.5576172,2.4189453-3.2802734,4.5507812-5.0429688,6.3139648l-.5742188-.4101562C3.5263672,15.8671875,7.1748047,7.9541016,9.3076172,0l4.0996094,1.3530273c-.2050781.4921875-.6972656.8203125-1.5576172.7792969-1.3125,3.730957-2.9521484,7.2568359-4.7558594,10.4140625l2.2958984.9018555c-.1640625.3691406-.4921875.6557617-1.2304688.737793v12.628418Zm23.5751953-8.2412109s2.0908203,1.6811523,3.3623047,2.9111328c-.0820312.4506836-.4511719.6557617-1.0253906.6557617h-10.0449219v12.3823242h7.2568359l1.96875-2.6240234s2.3369141,1.8447266,3.6894531,3.1977539c-.1230469.4511719-.4511719.65625-1.0244141.65625H15.2929688c-1.7626953,0-3.2792969.0820312-4.796875.328125l-1.1064453-2.2143555c2.2138672.4101562,4.9199219.65625,6.6416016.65625l5.3300781.1640625v-12.5463867h-3.9355469c-1.7636719,0-3.2802734.0820312-4.7978516.328125l-1.1064453-2.1728516c2.2138672.409668,4.9199219.6557617,6.6416016.6557617l3.1982422.1640625v-10.578125h-5.1660156c-1.7626953,0-3.2802734.0820312-4.796875.328125l-1.1074219-2.1728516c2.2138672.409668,4.9199219.6557617,6.6425781.6557617h13.6533203l1.9267578-2.5009766s2.1728516,1.7631836,3.5253906,3.0341797c-.1220703.4506836-.4912109.6557617-1.0654297.6557617h-10.9472656v10.4140625h5.8632812l1.8447266-2.3779297ZM18.0400391.3691406c9.9638672,2.7470703,8.6103516,9.1430664,5.6582031,7.4619141-.9013672-2.4189453-3.7714844-5.4121094-6.0673828-7.0927734l.4091797-.3691406Z"/>
      <path class="cls-1" d="m74.1289062,18.9833984c-.3691406,0-.8203125-.2871094-1.3535156-.4921875-.4921875-.2460938-2.2958984-.5737305-3.2392578-.4101562-.328125.0410156-.4501953-.0820312-.4501953-.1635742,0-.2050781.1630859-.2460938.4501953-.328125.2871094-.0410156,2.1738281-.7792969,2.4599609-1.1069336.2871094-.328125.5742188-.328125.2460938-1.8041992s-1.4755859-4.2641602-2.8291016-3.9360352c-1.3115234.328125-2.5419922,2.9931641-2.6650391,6.519043-.0820312,3.4848633.5742188,8.6098633.8613281,9.4301758.328125.8198242.8203125,2.2958984.8203125,3.4848633,0,1.7631836-.6972656,4.715332-10.2089844,5.2890625-2.8291016.2050781-9.2666016-.2050781-9.4716797-4.1000977-.0820312-1.1889648.2871094-3.074707.65625-4.46875-1.6396484-1.065918-4.2226562-4.3461914-3.4853516-8.8154297.4101562-2.6240234,3.1982422-4.4277344,5.2890625-3.8950195.0410156-1.1479492.0820312-2.5419922.0820312-3.9360352-1.8447266.4511719-3.6894531.7382812-4.7558594.3691406-1.3115234-.4921875-2.3369141-2.5830078-2.5009766-2.9521484-.1640625-.3686523-.0410156-.4916992,0-.5327148.1640625-.0820312.328125.0820312.5332031.328125.1640625.2045898,1.3115234,1.3115234,3.0751953,1.1479492.5322266-.0410156,1.9677734-.2050781,3.6484375-.65625,0-1.3120117-.0410156-2.3369141-.0820312-2.7470703-.0820312-1.0249023-.2050781-1.8037109-1.5576172-2.9111328-.5332031-.409668-.8613281-.4916992-.7382812-.737793.2871094-.737793,2.6650391-.328125,3.3212891.0410156.8203125.4511719,1.4345703,1.1479492,1.5576172,2.1728516.0410156.3691406-.0410156.9023438-.2050781,1.5991211.5742188.2050781,1.2714844.4101562,1.9277344.4921875,1.4755859.1640625,2.0087891.1640625,2.1728516.8608398.1640625.65625-.1640625,1.3530273-1.0253906,1.7631836-.3691406.1640625-1.9267578.7788086-3.7714844,1.3120117-.1640625,1.7216797-.328125,3.6899414-.4511719,5.0839844.5332031.4916992,1.1064453,1.2709961.9833984,2.2548828-.2451172,1.722168-.5322266,1.4350586-.9423828,3.3623047-.65625,2.8696289-.2050781,5.6987305-.7382812,6.3549805-.3691406.4506836-.4921875.5737305-1.1064453.4506836-.328125,1.722168-.4101562,3.5673828.3681641,4.387207,1.3125,1.2709961,5.2480469,1.3120117,6.9296875,1.1889648,1.4755859-.1230469,7.9130859-.2871094,8.0361328-4.6328125.1230469-4.6743164-.2871094-8.9384766-.1230469-10.9882812.1230469-2.0498047.9013672-7.5439453,4.3046875-7.5849609,3.4443359-.0410156,4.9609375,4.7558594,5.2070312,7.1748047.2050781,1.6401367-.9433594,2.1323242-1.2294922,2.1323242Zm-23.4111328.1640625c.1220703-1.394043.6962891-4.1411133-1.3125-3.6904297-1.7216797.3691406-2.1728516,2.2143555-2.2958984,3.4853516-.1230469,1.6401367.65625,4.3867188,2.0498047,4.7558594,1.0664062.2460938,1.4355469-3.0751953,1.5585938-4.5507812Zm2.4599609-11.8081055c.2050781-.0820312.4501953-.2050781.6962891-.2871094.328125-.1640625.6972656-.3691406-.0820312-.8203125-.1230469-.0410156-.2460938-.1225586-.4091797-.2045898v.1225586c-.0820312.2460938-.1640625.65625-.2050781,1.1894531Z"/>
      <path class="cls-1" d="m92.4550781,18.6962891c-.1230469.2871094-1.8447266,6.4370117-2.1318359,8.9790039-.4101562,3.6079102.65625,3.8129883.5332031,5.9863281,0,.5737305-.2871094,1.1069336-.9433594,1.2709961-.6972656.1225586-1.2705078-.328125-1.5166016-.9023438-.2871094-.5737305-3.2802734-4.3046875-2.3779297-12.4638672.4101562-3.8129883,2.8701172-10.9882812,3.1972656-12.7924805.328125-1.8447266-.7373047-3.6489258-1.0654297-3.9765625-.328125-.328125-.4101562-.6972656-.328125-.9023438.2050781-.4506836,1.1074219.1640625,1.3525391.328125.2871094.2050781,3.0341797,1.9267578,2.5830078,4.8789062-.4501953,2.9521484-3.4433594,7.2573242-4.0585938,11.1113281-.6152344,3.4848633-.1230469,4.7148438,0,5.2070312.0820312.4916992.4921875.7788086.6152344.7788086.5332031.0410156.8203125-.8608398,1.1064453-1.5581055.7382812-1.7216797,1.5175781-4.2226562,2.5830078-6.190918.2050781-.4101562.328125-.4916992.4511719-.4101562.2050781.0820312.1230469.328125,0,.65625Zm22.8789062,15.8261719c-.5742188.2871094-1.5996094-.2050781-2.8701172-1.5991211-.9023438-.9838867-1.9277344-1.722168-2.9521484-2.2548828-.4921875,4.1000977-5.3300781,4.3051758-6.5195312,4.3457031-3.4023438.1640625-5.0839844-1.8857422-5.125-3.6899414-.0410156-1.4350586,1.8857422-3.1567383,5.2070312-3.6079102,1.4765625-.2050781,2.8701172-.1640625,4.1416016.0820312,0-1.5991211-.1640625-5.5351562-.328125-9.3481445-1.1484375.2050781-2.2958984.2871094-3.2802734.2871094-3.0751953-.0820312-4.3046875-1.1479492-4.5507812-1.394043-.2871094-.2050781-.6152344-.5742188-.5332031-.6972656.0820312-.2456055.4101562-.081543.6972656.0410156.328125.1230469,3.5664062.65625,6.3544922-.081543.4511719-.1230469.8613281-.2460938,1.2304688-.328125-.0410156-1.2709961-.0820312-2.4599609-.0820312-3.4853516,0-1.5986328-.7382812-1.9677734-1.1484375-2.2958984-.2460938-.2050781-1.0244141-.5737305-.9833984-.8198242.0820312-.4101562.4091797-.4921875.8193359-.4511719,1.1894531.0410156,2.6650391.2460938,3.3212891,1.2299805.3691406.5332031.2871094,1.2709961.1230469,2.0913086,1.4345703.6967773,3.1162109,1.2709961,3.4443359,1.3120117.6142578.0410156,1.7626953-.1230469,2.0908203.5737305.2871094.6972656-1.0664062,1.5170898-1.0664062,1.5170898-1.0654297.8608398-2.8701172,1.5991211-4.7558594,2.1318359.328125,5.9042969.7382812,7.9541016.9023438,10.2504883,2.3779297.737793,4.2636719,1.9677734,5.4121094,3.0336914,1.7626953,1.6811523,1.0654297,2.7880859.4511719,3.1572266Zm-8.2822266-4.8378906c-1.7226562-.5332031-3.2802734-.65625-4.0185547-.65625-.8193359.0410156-3.9355469.4921875-3.8535156,2.2548828.0820312,1.722168,2.6650391,1.8452148,3.4023438,1.8041992,3.0341797-.1230469,4.1005859-1.5991211,4.4697266-3.402832Zm-6.765625-24.1494141c-.0820312-.1230469-.2871094-.328125-.1640625-.5332031.1230469-.2045898.4511719-.0820312.6972656.0820312.2460938.2050781,1.9267578.9433594,3.5673828.8203125,1.5986328-.1230469,3.9355469-1.1069336,4.6328125-1.394043.65625-.2871094,1.6806641-.2871094,2.1318359.5327148.4101562.7792969-.1640625,1.3530273-1.0654297,1.8452148-.9433594.4921875-5.4121094,1.6401367-7.2167969.7788086-1.8037109-.9018555-2.5009766-1.9677734-2.5830078-2.1318359Zm8.2001953,10.25c.984375-.2871094,1.3945312-.5327148,1.5996094-.7788086.2451172-.2460938.3681641-.6152344-.1640625-.984375-.2050781-.1225586-.65625-.4506836-1.2304688-.8198242-.0820312.5332031-.2050781,1.065918-.2050781,1.5581055v1.0249023Z"/>
      <path class="cls-1" d="m134.5625,1.4350586c.1230469-.5737305,1.7626953-.328125,2.6650391.0820312,1.0654297.5332031,1.5986328,1.0249023,1.9677734,2.4599609.328125,1.4350586-.1640625,2.8291016-.5332031,4.1000977-.328125,1.2709961-.9013672,2.5830078-.9013672,5.0839844-.0410156,2.8291016.6552734,3.8540039,1.7626953,4.2231445,1.1474609.3691406,4.2636719-1.065918,5.3710938-1.2709961,1.1064453-.2460938,2.0908203.4921875,2.0498047,1.3530273s-.4101562,1.5581055-1.7216797,1.8037109c-2.1318359.328125-11.3984375,1.5991211-10.2089844,8.7333984.6142578,3.6079102,5.0839844,4.2641602,9.5117188,3.3208008,1.5986328-.3276367,4.6738281-.8198242,4.8789062,1.2299805.1230469,1.722168-3.0751953,1.8041992-4.796875,2.050293-1.7216797.2050781-11.1523438.8608398-11.7265625-6.1499023-.4091797-5.2075195,4.2236328-8.4873047,6.5605469-9.4301758,0,0-1.5576172-.2050781-2.4189453-1.9272461-1.8037109-3.6899414-.65625-9.4711914-.6152344-11.1108398.0820312-1.9682617-.0820312-2.8291016-.9433594-3.6904297-.5732422-.5327148-.9833984-.5737305-.9013672-.8608398Zm9.0195312,4.5102539c.0820312-.3691406.9433594-.2871094,1.5585938-.2871094s4.9199219.4916992,5.4121094,3.1157227c.1640625.8203125,0,1.2714844-.4921875,1.5170898-.5332031.2871094-1.5585938.2050781-2.2548828-.737793-.7382812-.9838867-1.9677734-2.5009766-3.1572266-2.9521484-.4511719-.1640625-1.1074219-.3691406-1.0664062-.6557617Zm3.5673828-2.6650391c0-.328125.7792969-.4101562,1.4755859-.4921875.6152344-.0410156,4.8388672-.1230469,5.6582031,2.5009766.2050781.6972656-.0820312,1.0249023-.3691406,1.2299805-.4501953.2871094-1.3525391.3691406-2.1318359-.409668-.8603516-.8613281-2.0087891-1.8452148-3.2802734-2.2553711-.4501953-.1640625-1.3525391-.2460938-1.3525391-.5737305Z"/>
      <path class="cls-1" d="m169.7402344,5.0429688c-.0820312-.1230469-.328125-.409668-.2460938-.5737305.2050781-.328125.5332031-.1230469.7382812,0,.4921875.328125,3.0341797,1.6806641,3.0341797,5.3300781,0,1.4760742-1.8457031,5.0019531-2.4189453,7.4619141-.6972656,2.8291016-.4921875,4.1411133-.1230469,5.453125.0820312.328125.0410156.4921875.3691406.5327148.3271484.0410156.4501953-.2045898.6552734-.6967773s1.6816406-3.9770508,1.8457031-4.4692383c.1630859-.4916992.3271484-.4506836.4501953-.409668.0820312.0410156.1230469.2050781,0,.6147461-.1230469.4511719-1.4755859,5.2890625-1.4345703,7.6669922.0820312,2.4194336.8203125,5.7402344.9433594,6.3964844.1230469.6557617-.4101562,1.2299805-.9433594,1.2709961-.8203125.0820312-1.8857422-.984375-2.2958984-2.0913086-.4511719-1.1069336-1.5175781-4.1000977-1.640625-9.7988281-.0820312-5.4121094,1.6816406-9.2250977,2.1328125-13.2841797.2050781-1.4760742-.9433594-3.2802734-1.0664062-3.4033203Zm10.6191406,22.1811523c.9023438.65625,1.8857422,1.3120117,3.4853516,1.722168,1.5576172.4101562,5.3710938.328125,9.0195312-.328125,1.7636719-.3276367,2.7470703.65625,2.7880859,1.4760742,0,.8613281-.9833984,1.2299805-1.6806641,1.4350586s-8.5693359,1.1479492-11.6035156-.6967773c-1.6396484-1.0253906-2.5009766-2.7880859-2.6240234-3.1162109-.1640625-.2871094-.2871094-.6967773-.1640625-.8198242.2050781-.1640625.5332031.1640625.7792969.3276367Zm1.1484375-19.434082c.2861328.1230469,1.5166016.5742188,3.2792969.4921875,1.7636719-.0820312,5.6582031-.7792969,6.5195312-1.065918.8603516-.2871094,2.2138672.409668,2.4189453,1.1479492.2050781.737793-.7382812,1.2709961-1.6396484,1.5581055-.9023438.2866211-5.2070312,1.0249023-7.7089844.409668-1.9267578-.4506836-3.4023438-1.4760742-3.8945312-2.4599609-.1230469-.2460938-.1640625-.4506836-.0820312-.5737305.1230469-.2050781.8203125.3686523,1.1074219.4916992Z"/>
      <path class="cls-1" d="m205,27.2651367c4.9199219,1.5581055,7.5029297,3.6494141,8.8564453,5.6171875.7382812,1.065918.9833984,1.8452148.9833984,2.7470703,0,1.1889648-.6962891,1.8452148-1.6806641,1.8452148-.8613281,0-1.3935547-.4921875-1.9677734-1.722168-1.3125-2.7060547-2.9931641-5.2070312-6.6425781-7.7900391l.4511719-.6972656Z"/>
      <path class="cls-1" d="m5.9863281,65.5302734c1.5986328,7.2158203-.5742188,11.8901367-2.2958984,13.8168945-1.1484375,1.2709961-2.7060547,1.8041992-3.4033203.984375-.5332031-.7382812-.1640625-1.7631836.5332031-2.5419922,2.3369141-1.8862305,4.5097656-6.7651367,4.4277344-12.2592773h.7382812Zm7.5849609,18.7783203c0,.9428711.328125,1.2709961,2.4189453,1.2709961h5.125c2.3779297,0,4.1416016,0,4.8789062-.0820312.5742188-.0820312.7792969-.2871094.9433594-.7382812.3691406-.8198242.9023438-3.7719727,1.5166016-7.1337891h.4921875l.0820312,7.4619141c.9433594.328125,1.2304688.6557617,1.2304688,1.2299805,0,1.4350586-1.4765625,1.8862305-9.1845703,1.8862305h-5.4121094c-3.6484375,0-4.6738281-.6972656-4.6738281-3.3212891v-16.1953125c0-2.4599609-.2871094-5.534668-.7382812-7.5849609l4.6748047.65625c-.0820312.5327148-.4921875.9428711-1.3535156,1.1069336v21.4433594Zm7.7490234-22.878418c-1.3115234-2.1728516-4.796875-5.5351562-9.8808594-7.8310547l.2460938-.65625c14.4316406,2.8701172,12.7509766,10.2094727,9.6347656,8.4873047Zm12.6279297,17.6303711c-.1230469-3.7314453-1.5166016-9.7583008-5.8212891-13.5712891l.4091797-.4511719c11.6855469,6.6831055,8.2822266,17.5073242,5.4121094,14.0224609Z"/>
      <path class="cls-1" d="m41,79.2651367c4.9199219,1.5581055,7.5029297,3.6494141,8.8564453,5.6171875.7382812,1.065918.9833984,1.8452148.9833984,2.7470703,0,1.1889648-.6962891,1.8452148-1.6806641,1.8452148-.8613281,0-1.3935547-.4921875-1.9677734-1.722168-1.3125-2.7060547-2.9931641-5.2070312-6.6425781-7.7900391l.4511719-.6972656Z"/>
      <path class="cls-1" d="m83.5996094,56.6333008h10.7832031l2.0498047-2.5830078s2.2548828,1.7626953,3.7304688,3.1567383c-.1230469.4101562-.5322266.6152344-1.0654297.6152344h-28.7001953c-1.7636719,0-3.2802734.0820312-4.796875.3276367l-1.1074219-2.1728516c2.2138672.4101562,4.9199219.65625,6.6416016.65625l9.8408203.1640625v-.1640625c0-1.4760742-.2871094-3.4443359-.7382812-4.7973633l4.7558594.65625c-.0820312.5737305-.4511719.9838867-1.3935547,1.1069336v3.0341797Zm14.1855469,29.1918945c0,2.050293-.4511719,3.3623047-4.0175781,3.7314453-.0820312-.7792969-.2871094-1.4760742-.8203125-1.8452148-.5742188-.4101562-1.5166016-.7788086-3.1982422-.9838867v-.6152344s3.7724609.2871094,4.5927734.2871094c.6962891,0,.9013672-.2460938.9013672-.8608398v-12.4643555h-25.625v5.6582031c0,3.2797852.2460938,7.3798828.328125,9.6347656-.328125.4921875-1.3945312,1.1074219-2.4189453,1.1074219-.4101562,0-.8613281-.4101562-.8613281-.8203125.2460938-3.5258789.4511719-7.0517578.4511719-10.6601562v-.0820312c0-2.4599609-.2871094-5.534668-.7382812-7.5849609l3.5263672,1.5170898h24.9277344l1.3125-1.6401367,3.3623047,2.5830078c-.2460938.2871094-.9023438.65625-1.7226562.7792969v12.2587891Zm-7.3388672-26.4448242l3.1982422,2.5009766c-.2871094.3276367-.9433594.6557617-1.7216797.8198242,0,2.2138672.1630859,4.8789062.2451172,6.2729492-.2861328.4511719-1.5986328,1.0249023-2.3779297,1.0249023-.4091797,0-.5732422-.409668-.5732422-.8198242.0820312-.328125.1640625-.6557617.1640625-.9838867h-13.9814453c0,.4506836.0410156.9018555.1230469.9838867-.1230469.4511719-1.2304688,1.065918-2.2548828,1.065918-.3691406,0-.5742188-.409668-.5742188-.8198242.1230469-.7382812.2050781-1.4760742.2050781-2.2958984,0-2.4599609-.2871094-5.5351562-.7382812-7.5854492l3.4443359,1.4350586h13.3662109l1.4755859-1.5986328Zm-2.1318359,15.4160156l2.9521484,2.3369141c-.2050781.2871094-.7382812.5742188-1.4765625.6972656,0,2.3369141.1640625,5.1660156.2460938,6.6416016-.2460938.4921875-1.4755859,1.1074219-2.2958984,1.1074219-.4101562,0-.5742188-.4101562-.5742188-.8203125.0820312-.2871094.1640625-.5737305.1640625-.9428711h-9.9628906c0,.5332031.0410156,1.2299805.1230469,1.394043-.1230469.4101562-1.2294922,1.0249023-2.2138672,1.0249023-.3691406,0-.5742188-.4101562-.5742188-.8198242.1230469-.984375.2050781-1.9682617.2050781-2.9521484,0-2.4599609-.2871094-5.5351562-.7382812-7.5849609l3.3623047,1.394043h9.4707031l1.3125-1.4760742Zm1.0664062-7.7900391v-4.7973633h-13.9814453v4.7973633h13.9814453Zm-2.0507812,15.6210938v-5.125h-9.9628906v5.125h9.9628906Z"/>
      <path class="cls-1" d="m115.2919922,55.3212891l3.1162109,2.5009766c-.2871094.3276367-.9023438.6967773-1.6806641.8608398v10.2089844c0,3.2802734.2460938,7.3803711.328125,9.6352539-.3691406.4511719-1.5585938,1.1069336-2.3779297,1.1069336-.3691406,0-.5742188-.4101562-.5742188-.8198242.1230469-.8613281.2050781-1.722168.2050781-2.6240234h-5.1660156c0,1.6806641.1230469,3.6899414.2050781,4.6738281-.2050781.4511719-1.0664062,1.1069336-2.1328125,1.1069336-.4091797,0-.8603516-.409668-.8603516-.8198242.2460938-3.5258789.4511719-7.0522461.4511719-10.6601562v-7.4208984c0-2.4599609-.2871094-5.5351562-.7382812-7.5849609l3.2802734,1.5166016h4.5917969l1.3525391-1.6806641Zm-.9833984,19.6391602v-16.8105469h-5.1660156v16.8105469h5.1660156Zm5.5351562,4.059082c.9833984,4.0180664-.4101562,6.6010742-1.8046875,7.5849609-.9013672.6967773-2.2548828.7788086-2.6650391-.1640625-.328125-.7788086.1640625-1.5991211.9433594-2.050293,1.4755859-.8198242,2.7880859-3.0336914,2.7880859-5.3706055h.7382812Zm18.5722656-11.1113281s2.0097656,1.6401367,3.1982422,2.8291016c-.0820312.4101562-.4511719.6147461-.9833984.6147461h-18.2451172v3.1572266h14.9238281l1.3935547-1.5170898,2.9111328,2.4189453c-.2871094.2871094-.7373047.5332031-1.5166016.6152344-.3691406,6.6420898-1.2714844,10.90625-2.7470703,12.2592773-.984375.8198242-2.3779297,1.2299805-3.8544922,1.2299805,0-.7382812-.1640625-1.4760742-.7373047-1.8041992-.4921875-.4101562-2.0097656-.8198242-3.4033203-1.0249023v-.6972656c1.5166016.1230469,4.2636719.3691406,5.0839844.3691406.65625,0,.984375-.0820312,1.3115234-.4101562.9023438-.8198242,1.5996094-4.5507812,1.9277344-10.25h-15.2929688c0,.6152344.0410156,1.2709961.1230469,1.4760742-.1230469.3691406-.9023438,1.0249023-2.1738281,1.0249023-.3681641,0-.8193359-.409668-.8193359-.8198242.2460938-3.5258789.4511719-7.0522461.4511719-10.6601562v-4.059082c0-2.4599609-.2871094-5.5351562-.7382812-7.5849609l3.6484375,1.5170898h2.6240234c.4511719-1.3530273.984375-3.1982422,1.1894531-4.6333008l4.3046875.7792969c-.1640625.5327148-.5732422.9018555-1.4345703.9428711-.7382812.9018555-1.8447266,2.0087891-2.9521484,2.9111328h7.7900391l1.3525391-1.6401367,3.1572266,2.5009766c-.2460938.328125-.9013672.65625-1.6396484.8198242v9.2661133c-.0410156.2460938-1.3535156.8613281-2.1728516.8613281h-.328125v-1.2709961h-12.3818359v3.0336914h14.3085938l1.7216797-2.2548828Zm-15.5390625,10.9882812c5.0429688,3.8950195,2.1328125,8.4868164.2871094,6.190918.4101562-1.9272461-.0820312-4.387207-.8193359-6.0268555l.5322266-.1640625Zm-.4912109-21.1152344v3.4438477l12.3818359.1640625v-3.6079102h-12.3818359Zm12.3818359,8.1181641v-3.4443359h-12.3818359v3.4443359h12.3818359Zm-7.9130859,12.4638672c5.9453125,2.6240234,3.7304688,7.3393555,1.6806641,5.4941406.0410156-1.8041992-1.0244141-3.9360352-2.1728516-5.1660156l.4921875-.328125Zm4.2226562-.737793c6.3144531,1.5986328,4.6337891,6.3549805,2.5009766,4.7558594-.2050781-1.5581055-1.6396484-3.4438477-2.9111328-4.4282227l.4101562-.3276367Z"/>
      <path class="cls-1" d="m164.2460938,80.1264648c1.2304688.3686523,2.8701172,2.0087891,3.2392578,3.730957v.1230469l.1640625-.0410156c5.8632812-2.0913086,6.9287109-11.4389648-.1640625-12.9150391-.8203125-.2050781-1.5166016-.2460938-2.1318359-.2460938-2.5419922-.0410156-5.6992188.9838867-9.3486328,7.1337891-.4501953.7382812-1.0244141,1.8041992-1.5166016,2.2143555-.2460938.2050781-.5742188.2050781-.7382812.2050781-.4921875,0-.9423828-.2460938-1.0654297-.4511719-.65625-.9428711-.2050781-1.9272461.4091797-2.9521484.1640625-.2871094,2.0917969-2.5830078,2.8701172-3.5668945.2460938-.328125.4101562-.5332031.4921875-.5742188,2.7060547-3.402832,6.4785156-9.2661133,8.4873047-12.5048828l.0820312-.1640625c.4511719-.6967773,1.1484375-1.8041992.3691406-2.4599609-.0410156,0-.0820312-.0410156-.0820312-.0410156-.1230469-.1230469-.2871094-.2050781-.4511719-.2460938-.4921875-.1230469-.9023438.4101562-1.1484375.7788086-.3271484.4921875-2.1728516,3.0341797-4.1816406,3.8955078-.3691406.1635742-.7382812.2045898-1.1074219.2045898-.7373047,0-2.0908203-.3686523-2.6240234-2.6650391-.1630859-.7788086-.0810547-1.0249023-.0810547-1.065918.3271484-.1640625.5732422.2050781.7373047.4511719.1230469.2050781.6152344.4921875,1.1484375.4921875.1640625,0,.3691406-.0410156.5332031-.0820312.7783203-.2460938,2.2958984-1.0664062,4.2226562-2.6240234,1.0253906-.8203125,2.2548828-1.1074219,3.6904297-.8613281.9013672.1640625,2.5830078.7382812,2.9921875,1.8452148.328125.8608398.1230469,1.5991211-.6552734,2.4189453-.4921875.5332031-8.2822266,9.8808594-9.0205078,11.2338867l-.2050781.4101562.4101562-.2871094c.6972656-.409668,3.0751953-2.0498047,6.4785156-1.9677734.7373047,0,1.5166016.0820312,2.2548828.2871094.9013672.1635742,1.7626953.4506836,2.5419922.8198242,5.6171875,2.7470703,5.3710938,10.8652344.2050781,13.980957-2.9521484,1.8041992-7.1757812,2.7880859-10.3320312.984375-3.2392578-1.8452148-1.5996094-5.8222656,1.8857422-5.7402344.4921875,0,1.0654297.0820312,1.6396484.2460938Zm.9023438,4.5097656c.0410156-.0410156.0820312-.0820312.0410156-.1640625-.4101562-1.5576172-1.0664062-2.5419922-2.4599609-2.7875977-.2050781-.0410156-.3691406-.0410156-.5742188-.0410156-1.1884766.0410156-1.4345703.9838867-1.4345703,1.5166016,0,.1640625.0820312.328125.2050781.4921875.6142578.65625,2.3369141,1.1479492,3.4433594,1.1479492.65625.0410156.7382812-.0820312.7792969-.1640625Z"/>
      <path class="cls-1" d="m184.9101562,71.5981445v-1.6396484h41v1.6396484h-41Z"/>
      <path class="cls-1" d="m227.6318359,83.9394531c0-3.1572266,2.6240234-5.7402344,5.78125-5.7402344s5.7402344,2.5830078,5.7402344,5.7402344c0,3.1567383-2.5830078,5.7807617-5.7402344,5.7807617s-5.78125-2.6240234-5.78125-5.7807617Zm1.3945312,0c0,2.4189453,1.9267578,4.387207,4.3867188,4.387207,2.4189453,0,4.3457031-1.9682617,4.3457031-4.387207s-1.9267578-4.3461914-4.3457031-4.3461914c-2.4599609,0-4.3867188,1.9272461-4.3867188,4.3461914Z"/>
    </g>
  </g>
</svg>