<?xml version="1.0" encoding="UTF-8"?>
<svg id="_レイヤー_2" data-name="レイヤー 2" xmlns="http://www.w3.org/2000/svg" viewBox="0 0 497.7889139 55.440918">
  <defs>
    <style>
      .cls-1 {
        stroke-width: 0px;
      }
    </style>
  </defs>
  <g id="_レイヤー_1-2" data-name="レイヤー 1">
    <g>
      <path class="cls-1" d="m20.9033203,3.0717773h10.5634766l-8.0166016,37.6098633c-1.7226562,8.4663086-5.0947266,14.7592773-16.4072266,14.7592773-1.8730469,0-5.2451172-.3745117-7.0429688-.8237305l1.7978516-8.3911133c1.2744141.3745117,2.921875.5244141,4.5703125.5244141,4.6455078,0,5.84375-2.6225586,6.7431641-6.8178711L20.9033203,3.0717773Z"/>
      <path class="cls-1" d="m70.1269531,31.8413086c0,9.0654297-5.3193359,23.5996094-21.8017578,23.5996094-10.7890625,0-15.7333984-6.5927734-15.7333984-16.0327148,0-10.4140625,6.5927734-24.2744141,21.4267578-24.2744141,9.2900391,0,16.1083984,5.2446289,16.1083984,16.7075195Zm-26.9716797,7.6416016c0,5.3945312,2.2480469,8.0166016,6.21875,8.0166016,7.3417969,0,10.1884766-10.1142578,10.1884766-16.7075195,0-5.0195312-2.0976562-7.7167969-6.3681641-7.7167969-7.0419922,0-10.0390625,10.0395508-10.0390625,16.4077148Z"/>
      <path class="cls-1" d="m81.6650391,15.8828125h10.1894531l-8.2412109,38.809082h-10.1894531l8.2412109-38.809082Zm3.296875-15.8828125h10.1884766l-2.0224609,9.5898438h-10.1894531l2.0234375-9.5898438Z"/>
      <path class="cls-1" d="m99.421875,25.7724609c.6738281-3.2963867,1.4238281-6.5927734,1.9482422-9.8896484h9.9638672c-.0751953,1.1240234-.5244141,3.8959961-.7490234,4.8701172,1.7978516-2.3227539,5.1699219-5.6191406,11.6875-5.6191406,7.6416016,0,11.9873047,4.6450195,9.5146484,16.1079102l-4.9443359,23.4501953h-10.1142578l4.9443359-23.5249023c.9746094-4.3457031,0-7.4921875-4.3447266-7.4921875-4.9453125,0-8.0917969,3.7460938-9.6650391,10.9384766l-4.1953125,20.0786133h-10.1894531l6.1435547-28.9194336Z"/>
      <path class="cls-1" d="m140.7783203,15.8828125h5.7685547l2.2480469-10.4135742h10.1142578l-2.1728516,10.4135742h7.2675781l-1.7236328,7.7919922h-7.2666016l-4.1210938,19.5541992c-.4492188,2.3974609-.2998047,3.9707031,2.7724609,3.9707031,1.1982422,0,2.1728516-.074707,3.2958984-.2246094l-1.4980469,7.3422852c-2.3222656.7490234-4.7949219.7490234-6.8925781.7490234-8.0917969,0-9.3652344-4.5698242-7.9414062-11.3876953l4.1953125-20.0039062h-5.7685547l1.7226562-7.7919922Z"/>
      <path class="cls-1" d="m196.5195312,33.6391602l-4.4199219,21.0527344h-10.4892578l10.9384766-51.6201172h19.7041016c9.8144531,0,15.7333984,5.0195312,15.7333984,13.4853516,0,7.1176758-4.2705078,11.7626953-10.6386719,13.4858398,2.0976562.9741211,6.0683594,3.5214844,4.2705078,12.2871094-1.2734375,6.0683594-2.0976562,9.9643555-1.7978516,12.3618164h-10.0390625c-.2998047-2.2475586.1494141-5.9936523,1.4980469-12.3618164,1.1982422-5.6191406.2246094-8.690918-5.4697266-8.690918h-9.2900391Zm1.7236328-8.4658203h8.6904297c6.0683594,0,10.2646484-2.0981445,10.2646484-7.5673828,0-3.8955078-2.1728516-6.1430664-7.4921875-6.1430664h-8.5410156l-2.921875,13.7104492Z"/>
      <path class="cls-1" d="m241.0234375,37.6098633c-.1494141.8242188-.2998047,1.4985352-.2998047,2.3227539,0,4.1206055,1.5742188,7.6416016,6.1435547,7.6416016,4.1962891,0,5.9941406-2.1723633,7.2675781-4.7197266h10.6386719c-2.1728516,5.769043-7.1171875,12.5864258-18.7304688,12.5864258-10.4130859,0-15.5078125-6.5180664-15.5078125-15.8828125,0-10.2641602,5.5439453-24.4243164,20.9775391-24.4243164,11.3876953,0,15.4335938,6.9677734,15.4335938,14.9091797,0,3.1464844-.4492188,5.3945312-1.0488281,7.5668945h-24.8740234Zm16.0332031-6.8178711c.1503906-.6743164.1503906-1.2734375.1503906-1.7231445,0-3.3710938-1.4990234-6.2929688-5.9941406-6.2929688-4.6445312,0-7.4921875,2.996582-8.8408203,8.0161133h14.6845703Z"/>
      <path class="cls-1" d="m279.9082031,42.7045898c.2998047,3.371582,2.4726562,5.1694336,6.7431641,5.1694336,3.9707031,0,5.5439453-1.7978516,5.5439453-4.4204102,0-2.472168-2.0224609-3.6708984-6.8925781-5.1694336-9.0654297-2.8466797-11.8378906-5.9936523-11.8378906-10.7885742,0-6.9677734,5.4697266-12.3618164,15.8085938-12.3618164,10.7890625,0,15.5839844,5.5439453,15.3583984,11.6875h-10.3388672c-.1494141-2.0976562-1.1982422-4.1206055-5.5439453-4.1206055-2.546875,0-5.0947266.8242188-5.0947266,3.5214844,0,2.0976562,2.0976562,2.8466797,6.8183594,4.4204102,9.0654297,2.8466797,12.2119141,6.3681641,12.2119141,11.762207,0,8.9155273-8.0166016,13.0361328-17.1572266,13.0361328-10.3388672,0-16.3330078-4.6450195-15.8828125-12.7363281h10.2636719Z"/>
      <path class="cls-1" d="m319.1669922,37.6098633c-.1494141.8242188-.2998047,1.4985352-.2998047,2.3227539,0,4.1206055,1.5742188,7.6416016,6.1435547,7.6416016,4.1962891,0,5.9941406-2.1723633,7.2675781-4.7197266h10.6386719c-2.1728516,5.769043-7.1171875,12.5864258-18.7294922,12.5864258-10.4140625,0-15.5087891-6.5180664-15.5087891-15.8828125,0-10.2641602,5.5439453-24.4243164,20.9775391-24.4243164,11.3876953,0,15.4335938,6.9677734,15.4335938,14.9091797,0,3.1464844-.4492188,5.3945312-1.0488281,7.5668945h-24.8740234Zm16.0332031-6.8178711c.1503906-.6743164.1503906-1.2734375.1503906-1.7231445,0-3.3710938-1.4990234-6.2929688-5.9941406-6.2929688-4.6445312,0-7.4921875,2.996582-8.8408203,8.0161133h14.6845703Z"/>
      <path class="cls-1" d="m382.0263672,45.1767578c-.8984375,4.0458984-1.7226562,8.3911133-1.7978516,9.5151367h-9.8896484c.0751953-1.1240234.375-3.1464844.5244141-4.3452148-1.9482422,2.3974609-4.4951172,5.0942383-11.6875,5.0942383-7.6416016,0-10.8632812-5.394043-10.8632812-9.9643555,0-10.7885742,9.4394531-13.6352539,17.9804688-14.609375,3.296875-.2998047,6.2939453-.2998047,8.6914062-.3745117l.3740234-1.7983398c.5244141-2.8466797.5244141-6.4428711-4.9443359-6.4428711-4.8701172,0-5.7695312,2.6220703-6.5927734,4.4951172h-10.4140625c1.4228516-6.21875,5.7685547-11.612793,17.8310547-11.612793,9.4394531,0,16.4072266,3.9707031,14.234375,14.0849609l-3.4462891,15.9580078Zm-8.4658203-7.8666992c-2.546875,0-4.7197266.1499023-6.7431641.375-5.6933594.8989258-7.9414062,2.7719727-7.9414062,6.0683594,0,2.2475586,1.4238281,3.9707031,4.7197266,3.9707031,7.0429688,0,8.8408203-5.6938477,9.8154297-9.8144531l.1494141-.5996094Z"/>
      <path class="cls-1" d="m417.3896484,25.3979492c-7.1171875.074707-12.0625,3.9707031-13.8603516,12.4370117l-3.5957031,16.8569336h-10.1894531l5.84375-27.2709961c.8242188-3.8212891,1.5732422-7.9418945,2.2480469-11.5380859h9.8144531c-.0751953.9741211-.4501953,3.8959961-1.1240234,7.0424805,2.6220703-4.6450195,6.1435547-7.7915039,12.8867188-7.7915039l-2.0234375,10.2641602Z"/>
      <path class="cls-1" d="m453.9511719,42.0302734c-2.0976562,7.3422852-7.3427734,13.4106445-18.8056641,13.4106445-9.8144531,0-14.9833984-5.7685547-14.9833984-15.059082,0-11.237793,6.4433594-25.2480469,20.828125-25.2480469,12.5859375,0,15.7324219,8.9155273,15.2080078,13.8603516h-9.8886719c-.0751953-2.9970703-1.0498047-6.0688477-5.6191406-6.0688477-7.1923828,0-10.0400391,10.7890625-10.0400391,17.0073242,0,5.394043,2.1728516,7.7915039,5.84375,7.7915039,3.3720703,0,5.6943359-1.8730469,7.2675781-5.6938477h10.1894531Z"/>
      <path class="cls-1" d="m469.9853516,0h10.1884766l-4.3447266,20.8276367c2.3222656-2.8466797,5.6933594-5.6938477,11.6875-5.6938477,6.8173828,0,11.9873047,3.8208008,9.7392578,14.7592773l-5.2441406,24.7988281h-10.1142578l4.8701172-23.375c1.0488281-5.0200195.1494141-7.6420898-4.3457031-7.6420898-5.0947266,0-7.9414062,3.7460938-9.140625,9.0654297l-4.6445312,21.9516602h-10.1894531L469.9853516,0Z"/>
    </g>
  </g>
</svg>