<?xml version="1.0" encoding="UTF-8"?>
<svg id="_レイヤー_2" data-name="レイヤー 2" xmlns="http://www.w3.org/2000/svg" viewBox="0 0 293.5385438 30.75">
  <defs>
    <style>
      .cls-1 {
        stroke-width: 0px;
      }
    </style>
  </defs>
  <g id="_レイヤー_1-2" data-name="レイヤー 1">
    <g>
      <path class="cls-1" d="m5.9863281,2.0908203h5.7807617l-5.0019531,23.4931641h13.5712891l-1.5991211,4.7558594H0L5.9863281,2.0908203Z"/>
      <path class="cls-1" d="m26.9345703,9.1015625h5.5761719l-4.5102539,21.2382812h-5.5756836l4.5097656-21.2382812ZM28.7387695.4091797h5.5761719l-1.1074219,5.2480469h-5.5756836l1.1069336-5.2480469Z"/>
      <path class="cls-1" d="m33.8212891,30.3398438l3.5263672-16.9746094h-2.9931641l.9428711-4.2226562h2.9931641l.4506836-2.0908203c.984375-4.3457031,3.4443359-7.0517578,7.7905273-7.0517578.9838867,0,2.3369141.1230469,2.8286133.2861328l-.9428711,4.4697266c-.328125-.0820312-.9428711-.1230469-1.3530273-.1230469-1.6401367,0-2.4599609.8603516-2.7880859,2.5009766l-.409668,2.0087891h3.5668945l-.9428711,4.2226562h-3.5673828l-3.5258789,16.9746094h-5.5761719Z"/>
      <path class="cls-1" d="m52.8032227,20.9921875c-.0820312.4501953-.1640625.8193359-.1640625,1.2705078,0,2.2548828.8608398,4.1816406,3.3618164,4.1816406,2.2958984,0,3.2802734-1.1884766,3.9770508-2.5830078h5.8222656c-1.1889648,3.1572266-3.8950195,6.8886719-10.2504883,6.8886719-5.6987305,0-8.4868164-3.5673828-8.4868164-8.6923828,0-5.6171875,3.0341797-13.3662109,11.4799805-13.3662109,6.2319336,0,8.4462891,3.8134766,8.4462891,8.1591797,0,1.7216797-.2460938,2.9521484-.5742188,4.1416016h-13.6118164Zm8.7739258-3.7314453c.0820312-.3691406.0820312-.6972656.0820312-.9433594,0-1.8447266-.8203125-3.4433594-3.2802734-3.4433594-2.5419922,0-4.1000977,1.6396484-4.8378906,4.3867188h8.0361328Z"/>
      <path class="cls-1" d="m90.8056641,2.0908203l-5.9858398,28.2490234h-5.78125l5.9863281-28.2490234h5.7807617Z"/>
      <path class="cls-1" d="m94.0839844,14.5136719c.3691406-1.8037109.7792969-3.6083984,1.065918-5.4121094h5.453125c-.0410156.6152344-.2871094,2.1318359-.4101562,2.6650391.984375-1.2705078,2.8291016-3.0751953,6.3964844-3.0751953,4.1816406,0,6.5600586,2.5419922,5.2070312,8.8154297l-2.7060547,12.8330078h-5.5351562l2.7060547-12.8740234c.5327148-2.3779297,0-4.1005859-2.3779297-4.1005859-2.7060547,0-4.4282227,2.0507812-5.2890625,5.9863281l-2.2963867,10.9882812h-5.5756836l3.3618164-15.8261719Z"/>
      <path class="cls-1" d="m114.949707,30.3398438l3.5263672-16.9746094h-2.9931641l.9428711-4.2226562h2.9931641l.4511719-2.0908203c.9838867-4.3457031,3.4438477-7.0517578,7.7900391-7.0517578.9838867,0,2.3369141.1230469,2.8286133.2861328l-.9428711,4.4697266c-.328125-.0820312-.9428711-.1230469-1.3530273-.1230469-1.6401367,0-2.4599609.8603516-2.7880859,2.5009766l-.409668,2.0087891h3.5668945l-.9428711,4.2226562h-3.5673828l-3.5258789,16.9746094h-5.5761719Z"/>
      <path class="cls-1" d="m148.7324219,17.8349609c0,4.9609375-2.9106445,12.9150391-11.9311523,12.9150391-5.9038086,0-8.6098633-3.6083984-8.6098633-8.7744141,0-5.6992188,3.6079102-13.2841797,11.7260742-13.2841797,5.0839844,0,8.8149414,2.8701172,8.8149414,9.1435547Zm-14.7597656,4.1816406c0,2.9521484,1.2299805,4.3867188,3.402832,4.3867188,4.0180664,0,5.5761719-5.5341797,5.5761719-9.1425781,0-2.7470703-1.1479492-4.2226562-3.4853516-4.2226562-3.8540039,0-5.4936523,5.4941406-5.4936523,8.9785156Z"/>
      <path class="cls-1" d="m165.6625977,14.3085938c-3.8950195.0410156-6.6010742,2.1728516-7.5849609,6.8066406l-1.9682617,9.2246094h-5.5756836l3.1977539-14.9238281c.4511719-2.0917969.8613281-4.3466797,1.2299805-6.3144531h5.3710938c-.0410156.5332031-.2460938,2.1318359-.6147461,3.8544922,1.4350586-2.5419922,3.3618164-4.2646484,7.0517578-4.2646484l-1.1069336,5.6171875Z"/>
      <path class="cls-1" d="m169.5141602,15.0878906c.4101562-2.0087891.8613281-4.0595703,1.1889648-5.9863281h5.453125c-.0820312.5332031-.2460938,1.6396484-.4101562,2.5009766,1.394043-1.7216797,2.9521484-2.9111328,5.9042969-2.9111328,2.9931641,0,4.4282227,1.3535156,4.8378906,3.4443359,1.4760742-1.8857422,3.5673828-3.4443359,6.9291992-3.4443359,3.6079102,0,6.3139648,2.0498047,5.0839844,7.8310547l-2.9521484,13.8173828h-5.4121094l2.7880859-13.1201172c.4101562-1.9267578.328125-3.8955078-2.2958984-3.8955078-2.5419922,0-3.730957,1.8457031-4.387207,5.0849609l-2.5419922,11.9306641h-5.4936523l2.8286133-13.2021484c.4101562-2.0498047.0820312-3.7724609-2.2958984-3.7724609-2.5009766,0-3.7719727,1.7226562-4.5097656,5.3300781l-2.4604492,11.6445312h-5.4936523l3.2387695-15.2519531Z"/>
      <path class="cls-1" d="m219.5712891,25.1328125c-.4916992,2.2138672-.9428711,4.5917969-.9838867,5.2070312h-5.4121094c.0410156-.6152344.2050781-1.7216797.2871094-2.3779297-1.065918,1.3115234-2.4599609,2.7880859-6.3959961,2.7880859-4.1821289,0-5.9448242-2.9521484-5.9448242-5.453125,0-5.9042969,5.1660156-7.4619141,9.8398438-7.9951172,1.8041992-.1640625,3.4438477-.1640625,4.7558594-.2050781l.2050781-.984375c.2871094-1.5576172.2871094-3.5253906-2.7060547-3.5253906-2.6650391,0-3.1567383,1.4345703-3.6079102,2.4599609h-5.6992188c.7792969-3.4033203,3.1572266-6.3554688,9.7583008-6.3554688,5.1660156,0,8.9790039,2.1728516,7.7900391,7.7080078l-1.8862305,8.7333984Zm-4.6328125-4.3046875c-1.394043,0-2.5830078.0820312-3.6899414.2050781-3.1162109.4912109-4.3461914,1.5166016-4.3461914,3.3203125,0,1.2304688.7792969,2.1728516,2.5830078,2.1728516,3.8540039,0,4.8378906-3.1152344,5.3710938-5.3710938l.0820312-.3271484Z"/>
      <path class="cls-1" d="m226.0878906,9.1015625h3.1572266l1.2299805-5.6992188h5.534668l-1.1889648,5.6992188h3.9770508l-.9428711,4.2636719h-3.9770508l-2.2548828,10.7011719c-.2460938,1.3125-.1640625,2.1738281,1.5170898,2.1738281.6557617,0,1.1889648-.0410156,1.8037109-.1230469l-.8198242,4.0175781c-1.2709961.4101562-2.6240234.4101562-3.7719727.4101562-4.4282227,0-5.125-2.5009766-4.3461914-6.2324219l2.2958984-10.9472656h-3.1567383l.9428711-4.2636719Z"/>
      <path class="cls-1" d="m242.4858398,9.1015625h5.5761719l-4.5102539,21.2382812h-5.5756836l4.5097656-21.2382812Zm1.8041992-8.6923828h5.5761719l-1.1074219,5.2480469h-5.5756836l1.1069336-5.2480469Z"/>
      <path class="cls-1" d="m270.2827148,17.8349609c0,4.9609375-2.9106445,12.9150391-11.9311523,12.9150391-5.9038086,0-8.6098633-3.6083984-8.6098633-8.7744141,0-5.6992188,3.6079102-13.2841797,11.7260742-13.2841797,5.0839844,0,8.8149414,2.8701172,8.8149414,9.1435547Zm-14.7597656,4.1816406c0,2.9521484,1.2299805,4.3867188,3.402832,4.3867188,4.0180664,0,5.5761719-5.5341797,5.5761719-9.1425781,0-2.7470703-1.1479492-4.2226562-3.4853516-4.2226562-3.8540039,0-5.4936523,5.4941406-5.4936523,8.9785156Z"/>
      <path class="cls-1" d="m275.4458008,14.5136719c.3691406-1.8037109.7788086-3.6083984,1.065918-5.4121094h5.453125c-.0410156.6152344-.2871094,2.1318359-.4101562,2.6650391.984375-1.2705078,2.8291016-3.0751953,6.3964844-3.0751953,4.1816406,0,6.5600586,2.5419922,5.2070312,8.8154297l-2.7060547,12.8330078h-5.5351562l2.7060547-12.8740234c.5327148-2.3779297,0-4.1005859-2.3779297-4.1005859-2.7060547,0-4.4282227,2.0507812-5.2890625,5.9863281l-2.2963867,10.9882812h-5.5756836l3.3618164-15.8261719Z"/>
    </g>
  </g>
</svg>