<?xml version="1.0" encoding="UTF-8"?>
<svg id="_レイヤー_2" data-name="レイヤー 2" xmlns="http://www.w3.org/2000/svg" viewBox="0 0 160.0993779 30.3398438">
  <defs>
    <style>
      .cls-1 {
        stroke-width: 0px;
      }
    </style>
  </defs>
  <g id="_レイヤー_1-2" data-name="レイヤー 1">
    <g>
      <path class="cls-1" d="m5.9858398,1.6806641h5.78125l-5.0021973,23.4931641h13.5710449l-1.598877,4.7558594H0L5.9858398,1.6806641Z"/>
      <path class="cls-1" d="m43.8676758,17.4248047c0,4.9609375-2.9111328,12.9150391-11.9311523,12.9150391-5.9040527,0-8.6101074-3.6083984-8.6101074-8.7744141,0-5.6992188,3.6079102-13.2841797,11.7260742-13.2841797,5.0839844,0,8.8151855,2.8701172,8.8151855,9.1435547Zm-14.7602539,4.1816406c0,2.9521484,1.2299805,4.3876953,3.4030762,4.3876953,4.0180664,0,5.5759277-5.5351562,5.5759277-9.1435547,0-2.7470703-1.1479492-4.2236328-3.4848633-4.2236328-3.8540039,0-5.4941406,5.4941406-5.4941406,8.9794922Z"/>
      <path class="cls-1" d="m65.0615234,23.0009766c-1.1479492,4.0175781-4.0180664,7.3388672-10.2912598,7.3388672-5.3708496,0-8.1999512-3.1572266-8.1999512-8.2412109,0-6.1503906,3.526123-13.8173828,11.3981934-13.8173828,6.8879395,0,8.6098633,4.8789062,8.322998,7.5849609h-5.4121094c-.0410156-1.6396484-.5739746-3.3212891-3.0749512-3.3212891-3.9360352,0-5.4941406,5.9042969-5.4941406,9.3076172,0,2.9521484,1.1889648,4.2646484,3.197998,4.2646484,1.8452148,0,3.1162109-1.0253906,3.9770508-3.1162109h5.5761719Z"/>
      <path class="cls-1" d="m86.1328125,24.7226562c-.4919434,2.2138672-.9431152,4.5917969-.9841309,5.2070312h-5.4118652c.0410156-.6152344.204834-1.7216797.2868652-2.3779297-1.065918,1.3115234-2.4599609,2.7880859-6.3959961,2.7880859-4.1821289,0-5.9450684-2.9521484-5.9450684-5.453125,0-5.9042969,5.1660156-7.4619141,9.8400879-7.9951172,1.8039551-.1640625,3.4440918-.1640625,4.7561035-.2050781l.2050781-.9833984c.2868652-1.5585938.2868652-3.5263672-2.7060547-3.5263672-2.6650391,0-3.1572266,1.4345703-3.6081543,2.4599609h-5.6989746c.7790527-3.4033203,3.1569824-6.3554688,9.7580566-6.3554688,5.1660156,0,8.9790039,2.1738281,7.7900391,7.7080078l-1.8859863,8.7333984Zm-4.6330566-4.3046875c-1.394043,0-2.5830078.0820312-3.6899414.2050781-3.1162109.4912109-4.3461914,1.5166016-4.3461914,3.3203125,0,1.2304688.7790527,2.1738281,2.5830078,2.1738281,3.8540039,0,4.8381348-3.1162109,5.3710938-5.3710938l.0820312-.328125Z"/>
      <path class="cls-1" d="m92.6489258,8.6914062h3.1569824l1.2299805-5.6992188h5.5351562l-1.189209,5.6992188h3.9770508l-.9428711,4.2636719h-3.9770508l-2.255127,10.7011719c-.2458496,1.3125-.1638184,2.1738281,1.5170898,2.1738281.6560059,0,1.1889648-.0410156,1.8039551-.1230469l-.8198242,4.0175781c-1.2709961.4101562-2.6240234.4101562-3.7722168.4101562-4.4279785,0-5.125-2.5009766-4.3459473-6.2324219l2.2958984-10.9472656h-3.1569824l.9431152-4.2636719Z"/>
      <path class="cls-1" d="m109.0471191,8.6914062h5.5761719l-4.5100098,21.2382812h-5.5761719l4.5100098-21.2382812Zm1.8041992-8.6914062h5.5759277l-1.1069336,5.2480469h-5.5761719l1.1071777-5.2480469Z"/>
      <path class="cls-1" d="m136.8442383,17.4248047c0,4.9609375-2.9111328,12.9150391-11.9311523,12.9150391-5.9040527,0-8.6101074-3.6083984-8.6101074-8.7744141,0-5.6992188,3.6079102-13.2841797,11.7260742-13.2841797,5.0839844,0,8.8151855,2.8701172,8.8151855,9.1435547Zm-14.7602539,4.1816406c0,2.9521484,1.2299805,4.3876953,3.4030762,4.3876953,4.0180664,0,5.5759277-5.5351562,5.5759277-9.1435547,0-2.7470703-1.1479492-4.2236328-3.4848633-4.2236328-3.8540039,0-5.4941406,5.4941406-5.4941406,8.9794922Z"/>
      <path class="cls-1" d="m142.0068359,14.1035156c.3691406-1.8037109.7790527-3.6074219,1.0661621-5.4121094h5.4528809c-.0410156.6152344-.2868652,2.1318359-.4099121,2.6650391.9838867-1.2705078,2.8291016-3.0751953,6.3959961-3.0751953,4.1821289,0,6.5600586,2.5419922,5.2070312,8.8154297l-2.7060547,12.8330078h-5.5349121l2.7060547-12.8740234c.532959-2.3779297,0-4.1005859-2.3781738-4.1005859-2.7060547,0-4.4279785,2.0507812-5.2890625,5.9863281l-2.2958984,10.9882812h-5.5761719l3.3620605-15.8261719Z"/>
    </g>
  </g>
</svg>