<?xml version="1.0" encoding="UTF-8"?>
<svg id="_レイヤー_2" data-name="レイヤー 2" xmlns="http://www.w3.org/2000/svg" viewBox="0 0 145.4978027 96.1435351">
  <defs>
    <style>
      .cls-1 {
        fill: #449cc0;
        stroke-width: 0px;
      }

      .cls-2 {
        fill: none;
        stroke: #449cc0;
        stroke-miterlimit: 10;
        stroke-width: 1.4053657px;
      }
    </style>
  </defs>
  <g id="_レイヤー_1-2" data-name="レイヤー 1">
    <g>
      <polyline class="cls-2" points="51.7526084 44.4669628 51.7526084 4.7712625 70.0126306 23.0312846"/>
      <polyline class="cls-2" points="45.0969059 4.7712625 74.0284839 33.7028404 98.0031912 9.7281331"/>
      <polyline class="cls-2" points="70.0126306 29.6869871 98.0031912 1.6964265 98.0031912 26.2069407"/>
      <polyline class="cls-2" points="67.5084624 3.9941203 93.7952018 30.2808598 93.7952018 44.4669628"/>
      <line class="cls-2" x1="56.2200786" y1="44.4669628" x2="56.2200786" y2="15.6917068"/>
      <line class="cls-2" x1="98.0031912" y1="44.4669628" x2="98.0031912" y2="30.0793348"/>
    </g>
    <g>
      <path class="cls-1" d="m22.5996094,85.1142383c.9291992-4.796875,2.081543-10.4550781,2.7875977-13.652832h-.1484375c-2.2675781,5.6989746-6.4306641,15.4160156-10.3706055,24.2719727h-4.5349121c-.371582-6.9699707-.9663086-18.9829102-.9663086-24.3540039h-.185791c-.4089355,3.2797852-1.449707,9.3891602-2.3789062,14.2270508l-1.9702148,10.1269531H0l5.4267578-28.2490234h7.9174805c.4086914,6.8469238.817627,16.5229492.817627,20.7050781h.0371094c1.3381348-3.8129883,5.6499023-12.9970703,8.9953613-20.7050781h7.9172363l-5.427002,28.2490234h-5.0922852l2.0073242-10.6191406Z"/>
      <path class="cls-1" d="m47.9526367,90.5263476c-.4460449,2.2141113-.8549805,4.5922852-.8920898,5.2070312h-4.9064941c.0373535-.6147461.185791-1.7219238.2602539-2.3779297-.9665527,1.3120117-2.2302246,2.7880859-5.798584,2.7880859-3.7915039,0-5.3896484-2.9521484-5.3896484-5.453125,0-5.9040527,4.6833496-7.4619141,8.9208984-7.9951172,1.635498-.1640625,3.1223145-.1640625,4.3117676-.2050781l.185791-.9838867c.2602539-1.5581055.2602539-3.5258789-2.453125-3.5258789-2.4162598,0-2.8623047,1.4350586-3.2709961,2.4599609h-5.166748c.7062988-3.4030762,2.8620605-6.3549805,8.8464355-6.3549805,4.6835938,0,8.1403809,2.1728516,7.0625,7.7080078l-1.7099609,8.7329102Zm-4.2001953-4.3049316c-1.2636719,0-2.3417969.0820312-3.3452148.204834-2.8251953.4921875-3.9401855,1.5170898-3.9401855,3.3212891,0,1.2299805.7062988,2.1728516,2.3417969,2.1728516,3.4938965,0,4.3859863-3.1159668,4.8693848-5.3710938l.0742188-.3278809Z"/>
      <path class="cls-1" d="m59.1428223,83.1464648c1.8215332-2.0092773,5.5756836-5.9042969,8.1774902-8.651123h6.0959473c-2.7133789,2.869873-5.5012207,5.6169434-8.1774902,8.2819824l4.4604492,12.9560547h-5.6499023l-2.7504883-9.4299316-3.2338867,2.7468262-1.2636719,6.6831055h-5.0551758l5.7612305-29.9301758h5.0180664l-3.3825684,17.3432617Z"/>
      <path class="cls-1" d="m77.6555176,86.3852344c-.0742188.4511719-.1486816.8203125-.1486816,1.2712402,0,2.255127.7807617,4.1818848,3.0480957,4.1818848,2.081543,0,2.9736328-1.1889648,3.6054688-2.5830078h5.2780762c-1.0778809,3.1572266-3.5310059,6.8881836-9.2924805,6.8881836-5.166748,0-7.6943359-3.5668945-7.6943359-8.6921387,0-5.6169434,2.7507324-13.3659668,10.4077148-13.3659668,5.6499023,0,7.6572266,3.8129883,7.6572266,8.1589355,0,1.7219238-.2231445,2.9519043-.5205078,4.1408691h-12.3405762Zm7.9545898-3.730957c.0742188-.3688965.0742188-.6967773.0742188-.9428711,0-1.8452148-.7434082-3.4440918-2.9736328-3.4440918-2.3044434,0-3.717041,1.6398926-4.3859863,4.3869629h7.2854004Z"/>
      <path class="cls-1" d="m92.451416,95.7333789l3.1965332-16.9741211h-2.7133789l.8549805-4.2229004h2.7133789l.4089355-2.0910645c.8920898-4.3461914,3.1223145-7.0522461,7.0622559-7.0522461.8920898,0,2.1188965.1230469,2.5649414.2871094l-.8549805,4.4692383c-.2973633-.0820312-.8549805-.1230469-1.2265625-.1230469-1.4868164,0-2.2302246.8608398-2.5275879,2.5009766l-.3718262,2.0090332h3.2338867l-.8549805,4.2229004h-3.2338867l-3.1965332,16.9741211h-5.0551758Z"/>
      <path class="cls-1" d="m121.1479492,90.0754199c-.371582,1.8449707-.7431641,3.9360352-1.003418,5.657959h-4.9438477c.0373535-.5737305.2231445-2.1728516.4089355-2.9519043-1.4494629,2.3371582-3.5310059,3.3620605-6.0959473,3.3620605-3.5683594,0-5.612793-2.6240234-4.6833496-7.5029297l2.7133789-14.1452637h5.0180664l-2.6020508,13.4069824c-.4089355,2.2141113-.1115723,3.6491699,2.0444336,3.6491699,2.1931152,0,4.1259766-1.927002,5.0180664-6.6420898l2.0441895-10.4140625h5.0551758l-2.9736328,15.5800781Z"/>
      <path class="cls-1" d="m124.8674316,95.7333789l5.7241211-29.9301758h5.0551758l-5.7241211,29.9301758h-5.0551758Z"/>
      <path class="cls-1" d="m134.7185059,95.7333789l5.7241211-29.9301758h5.0551758l-5.7241211,29.9301758h-5.0551758Z"/>
    </g>
  </g>
</svg>