<?xml version="1.0" encoding="UTF-8"?>
<svg id="_レイヤー_2" data-name="レイヤー 2" xmlns="http://www.w3.org/2000/svg" viewBox="0 0 400.1674501 53.1953125">
  <defs>
    <style>
      .cls-1 {
        fill: #054993;
      }

      .cls-1, .cls-2, .cls-3, .cls-4, .cls-5 {
        stroke-width: 0px;
      }

      .cls-2 {
        fill: #231815;
      }

      .cls-3 {
        fill: #040000;
      }

      .cls-4 {
        fill: #d41619;
      }

      .cls-5 {
        fill: #221714;
      }
    </style>
  </defs>
  <g id="_レイヤー_1-2" data-name="レイヤー 1">
    <g>
      <path class="cls-2" d="m18.6381836,21.2324219c3.3984375,4.1298828,9.6474609,7.4555664,15.2753906,8.8442383l-.0727539.4018555c-.9868164.1459961-1.8271484.9501953-2.15625,2.0463867-5.5180664-2.0463867-10.7807617-5.9931641-13.8139648-11.109375v11.2192383c0,.3286133-1.0234375.9135742-1.9736328.9135742h-.4746094v-10.3789062c-3.6914062,4.0932617-9.0268555,7.418457-15.0932617,9.6113281l-.3291016-.6210938c5.6645508-2.6679688,10.6713867-6.6879883,13.777832-10.9272461h-5.9570312v1.315918c0,.2192383-1.0595703.7675781-2.0097656.7675781h-.3657227v-14.6547852l2.5947266,1.2060547h7.3823242v-3.8374023H1.0234375l-.2924805-1.0595703h14.6914062V.0366211l3.7275391.4384766c-.1098633.5117188-.4023438.8769531-1.2792969,1.0234375v3.4716797h9.465332l1.9365234-2.4121094s2.15625,1.7177734,3.5449219,2.887207c-.109375.4018555-.5117188.5844727-1.0229492.5844727h-13.9238281v3.8374023h7.3818359l1.3891602-1.4985352,2.9599609,2.3027344c-.2192383.2919922-.8041992.5478516-1.5351562.6943359v10.9267578c-.0361328.2192383-1.2421875.8037109-2.0830078.8037109h-.3652344v-1.8637695h-6.9799805ZM7.8208008,10.9272461v4.0195312h7.6015625v-4.0195312h-7.6015625Zm0,9.2089844h7.6015625v-4.1293945h-7.6015625v4.1293945Zm10.0498047-9.2089844v4.0195312h7.7475586v-4.0195312h-7.7475586Zm7.7475586,9.2089844v-4.1293945h-7.7475586v4.1293945h7.7475586Z"/>
      <path class="cls-2" d="m48.4975586,24.4487305c-.2919922.3652344-.5844727.4750977-1.3886719.2919922-2.1923828,2.4121094-6.2856445,5.3720703-10.4150391,7.1630859l-.4018555-.5117188c3.5444336-2.3022461,7.2358398-5.9570312,9.0263672-8.6977539l3.1791992,1.7543945ZM66.2583008,2.7045898s2.1928711,1.6806641,3.581543,2.8867188c-.109375.4023438-.5117188.5849609-1.0234375.5849609h-31.6474609l-.3291016-1.0600586h15.0932617V.0366211l3.7641602.4018555c-.0732422.5117188-.4389648.8774414-1.315918.9868164v3.690918h9.9038086l1.9731445-2.4116211Zm-11.840332,16.5913086v10.8168945c0,1.9003906-.5483398,3.1796875-4.1660156,3.5087891-.0732422-.730957-.3291016-1.315918-.8769531-1.6811523-.5849609-.4023438-1.7177734-.6943359-3.6181641-.9135742v-.5849609s4.3852539.3291016,5.2626953.3291016c.7670898,0,.949707-.2192383.949707-.730957v-10.7441406h-6.7607422v1.3154297c0,.2192383-1.0595703.8041992-2.0463867.8041992h-.3652344v-12.315918l2.6308594,1.1694336h15.3857422l1.3154297-1.534668,3.0698242,2.3388672c-.2558594.2924805-.9135742.5844727-1.6079102.730957v8.4785156c-.0366211.2553711-1.2426758.8037109-2.0830078.8037109h-.3657227v-1.7905273h-6.7241211Zm6.7241211-1.0600586v-6.9433594h-15.9335938v6.9433594h15.9335938Zm-2.7773438,4.8969727c11.9135742,4.0932617,11.0366211,10.0498047,8.0400391,8.5883789-1.4985352-2.5947266-5.5546875-6.1396484-8.4052734-8.2226562l.3652344-.3657227Z"/>
      <path class="cls-2" d="m91.0385742,11.9135742c1.3154297,6.9072266,5.1894531,14.2890625,16.0429688,19.2592773l-.0732422.4018555c-1.2788086.1464844-2.1557617.621582-2.5214844,2.0102539-10.1591797-5.5913086-13.0830078-14.3256836-14.1425781-21.6347656-1.0234375,8.5151367-4.3857422,16.0795898-16.9204102,21.5981445l-.4018555-.6577148c10.6708984-5.7011719,13.8139648-12.8276367,14.7641602-20.9770508h-14.0698242l-.3291016-1.0595703h14.5083008c.2924805-3.3989258.2924805-6.9799805.2924805-10.7075195l3.9101562.4018555c-.109375.5483398-.4018555.9135742-1.2421875,1.0595703-.0732422,3.1430664-.1098633,6.2495117-.4023438,9.2460938h10.5249023l2.0102539-2.5214844s2.2290039,1.7539062,3.5810547,2.996582c-.0727539.4018555-.4018555.5844727-.9501953.5844727h-14.5810547Z"/>
      <path class="cls-2" d="m114.5756836,8.8803711c.0366211,2.5214844-.9501953,4.2026367-2.0097656,4.9702148-.9135742.6943359-2.2294922.8041992-2.6679688.0366211-.3286133-.8041992.1098633-1.5351562.8408203-2.0102539,1.5712891-.949707,2.8505859-3.5810547,2.5947266-6.3950195l.6210938-.0366211c.2924805.8769531.4750977,1.6811523.5483398,2.4121094h16.3354492c1.6445312-2.2661133,3.3618164-5.3720703,4.421875-7.7475586l3.7641602,1.3520508c-.1826172.4384766-.6577148.6577148-1.4619141.5844727-1.3154297,1.8276367-3.4350586,4.0566406-5.5546875,5.8110352h6.7607422l1.6079102-1.7177734,2.996582,2.8505859c-.2924805.2924805-.6943359.3286133-1.425293.3652344-1.2060547,1.3520508-3.3984375,3.1064453-5.0063477,4.1298828l-.4023438-.2924805c.6582031-1.1328125,1.6083984-2.9238281,2.1928711-4.3125h-24.15625Zm25.1796875,10.2329102s2.0830078,1.6079102,3.3251953,2.8139648c-.109375.4018555-.4384766.5844727-.949707.5844727h-14.3256836v7.418457c0,2.046875-.4750977,3.2890625-4.3491211,3.6547852-.1459961-.7675781-.4018555-1.3886719-1.0229492-1.7910156-.6577148-.4018555-1.7910156-.730957-3.8007812-1.0229492v-.5483398s4.8237305.3291016,5.7373047.3291016c.730957,0,.9501953-.1831055.9501953-.8041992v-7.2358398h-15.2026367l-.2919922-1.0961914h15.4946289v-3.8740234l2.0102539.2192383c1.3886719-1.0961914,3.0698242-2.5581055,4.2758789-3.7641602h-15.3491211l-.3286133-1.0595703h16.2255859l1.6079102-1.5351562,2.7045898,2.5947266c-.2924805.2558594-.7675781.3291016-1.5717773.3657227-1.4248047,1.1328125-3.9467773,2.4848633-6.1025391,3.5449219l.2192383.0366211c-.0732422.5112305-.4384766.8037109-1.2060547.9135742v2.5581055h10.0864258l1.8637695-2.3022461ZM115.6357422.6577148c7.4916992,2.8505859,5.4453125,8.0766602,3.0332031,6.2495117-.3291016-1.9736328-2.0102539-4.5317383-3.4350586-5.9936523l.4018555-.2558594Zm8.1494141-.6577148c7.1992188,3.3623047,4.6777344,8.6977539,2.3388672,6.578125-.0732422-2.0830078-1.425293-4.7143555-2.7773438-6.3222656l.4384766-.2558594Z"/>
    </g>
    <g>
      <path class="cls-3" d="m9.1567383,44.9711914v-1.315918c.7050781.0117188,1.0458984.1054688,1.0458984.2583008,0,.0820312-.1411133.1645508-.4345703.2700195v.7875977h2.9370117l.5405273-.6933594c.2700195.2583008.5288086.5170898.7519531.7636719l-.105957.199707H5.1503906l-.105957-.2700195h4.1123047Zm3.5600586,3.6538086l.4111328-.4580078c.4350586.3286133.6582031.5522461.6582031.6459961,0,.0351562-.0351562.0820312-.0942383.1293945l-.2700195.1762695v3.0546875c0,.5639648-.3525391.8574219-1.0576172.8574219v-.0117188c0-.1640625-.0820312-.2817383-.246582-.3642578-.1762695-.0820312-.5522461-.1640625-1.1513672-.2231445v-.293457c.4345703.046875.8457031.0703125,1.2451172.0703125.3056641,0,.4936523-.0351562.5522461-.09375.0356445-.0356445.059082-.1176758.059082-.2119141v-3.0195312h-6.6269531v4.253418h-.5991211v-4.8291016c.2822266.105957.5288086.2114258.7167969.3173828h6.4033203Zm-1.515625-2.5849609l.3994141-.4580078c.4111328.3173828.6230469.5288086.6230469.6225586,0,.046875-.0239258.0942383-.0942383.1293945l-.246582.1645508v1.6210938h-.5874023v-.3994141h-3.5600586v.4350586h-.5874023v-2.4086914c.2348633.0820312.4697266.1762695.7163086.293457h3.3369141Zm-.5756836,3.7011719l.3994141-.4228516c.4228516.3051758.6347656.5048828.6347656.6108398,0,.046875-.0239258.0703125-.0825195.105957l-.2817383.1762695v1.5859375h-.5756836v-.3291016h-2.5380859v.6108398h-.5874023v-2.6669922c.3056641.1293945.5405273.2470703.6933594.3291016h2.3378906Zm-2.8901367-3.4423828v1.1630859h3.5600586v-1.1630859h-3.5600586Zm.4462891,3.7006836v1.1987305h2.5380859v-1.1987305h-2.5380859Z"/>
      <path class="cls-3" d="m21.715332,46.2988281h1.3041992l.4228516-.5522461c.2114258.1879883.4111328.3994141.5874023.6225586l-.1289062.199707h-5.0639648l-.0942383-.2700195h.9633789v-2.1386719c.5996094.0234375.8930664.1176758.8930664.2470703,0,.0820312-.1171875.1762695-.3642578.2700195v1.621582h.9399414v-2.690918c.5991211.0356445.8930664.1176758.8930664.2587891,0,.0820312-.105957.1645508-.3525391.246582v.7988281h.8579102l.3994141-.5288086c.1879883.152832.3642578.3525391.5639648.5878906l-.1176758.199707h-1.7036133v1.1279297Zm-2.0209961,6.168457v.6694336h-.5405273v-6.2036133c.5878906,0,.8813477.0820312.8813477.2231445,0,.0942383-.1176758.1645508-.3408203.2231445v4.8291016h3.1020508v-4.453125c-.0708008.0356445-.152832.059082-.2587891.0708008-.1523438.3408203-.3642578.6811523-.6225586,1.0102539l-.199707-.09375c.152832-.3994141.3056641-.8930664.4462891-1.4804688.3408203.1411133.5639648.2583008.6347656.3408203v-.6699219c.5639648.0351562.8574219.1176758.8574219.2348633,0,.0825195-.1054688.152832-.3168945.2353516v5.7333984h-.5405273v-.6694336h-3.1020508Zm1.2924805-2.2441406c-.246582.4580078-.6108398.9160156-1.0693359,1.3510742l-.1875-.1645508c.4697266-.5991211.8457031-1.269043,1.1040039-1.9975586h-.9633789l-.1054688-.2583008h1.2216797v-2.1386719c.5639648.012207.8579102.0825195.8579102.2119141,0,.0820312-.1176758.1523438-.3642578.246582v1.6801758h.5639648l.3173828-.4702148c0,.0117188.0234375.0356445.0351562.0473633.0234375.0234375.0234375.0351562.0351562.046875.1171875.1411133.2231445.2817383.3173828.4462891l-.0942383.1879883h-1.1748047v.2939453c.7519531.3525391,1.1279297.7167969,1.1279297,1.0927734,0,.199707-.105957.3051758-.2939453.3051758-.1171875,0-.2114258-.09375-.2700195-.293457-.0708008-.2353516-.2587891-.4936523-.5639648-.8110352v1.9272461h-.4936523v-1.7036133Zm-.8691406-2.8554688c.4228516.3759766.6459961.7285156.6459961,1.0927734,0,.2348633-.105957.3525391-.3056641.3525391-.1523438,0-.2231445-.1054688-.2348633-.3291016-.0117188-.3408203-.1054688-.6694336-.2700195-.9868164l.1645508-.1293945Zm8.4946289.1879883c-.1762695.1411133-.3173828.3408203-.4233398.5756836-1.0688477-.9985352-1.8798828-2.1850586-2.4199219-3.5478516-.4819336,1.6210938-1.1987305,2.9018555-2.1621094,3.8300781l-.1879883-.1879883c.9516602-1.1748047,1.5981445-2.7021484,1.9267578-4.5942383.6347656.0708008.9516602.1884766.9516602.3408203,0,.0825195-.140625.152832-.4228516.199707.6230469,1.2807617,1.5273438,2.4204102,2.737793,3.3837891Zm-2.8432617,1.3632812v4.2177734h-.5878906v-4.2177734h-1.4448242l-.105957-.2705078h3.4663086l.3525391-.4228516c.4111328.3056641.6108398.5053711.6108398.5991211,0,.0351562-.0351562.0825195-.0825195.1176758l-.2348633.152832v2.1850586c0,.3525391-.1171875.5756836-.3408203.6699219-.1171875.046875-.293457.0820312-.4931641.1054688,0-.2114258-.0825195-.3525391-.2470703-.4228516-.1054688-.046875-.3168945-.1176758-.6342773-.1879883v-.2700195c.2817383.0585938.5874023.0820312.8813477.0820312.1762695,0,.2583008-.105957.2583008-.3056641v-2.0322266h-1.3979492Zm.2348633-1.7509766l.4111328-.4580078c.2822266.199707.4819336.3759766.6225586.5405273l-.1171875.1879883h-2.0913086l-.1176758-.2705078h1.2924805Z"/>
      <path class="cls-3" d="m35.378418,48.0961914c.6108398.1879883,1.0810547.4111328,1.4213867.6699219.3408203.2583008.5170898.4931641.5170898.7167969,0,.246582-.1054688.3759766-.3291016.3759766-.1289062,0-.246582-.0942383-.3642578-.2822266-.3051758-.4580078-.7163086-.8574219-1.2451172-1.1748047v4.7348633h-.6230469v-4.3823242c-.4814453.4814453-1.0219727.9399414-1.6445312,1.3979492l-.1879883-.2231445c1.3041992-1.0927734,2.3496094-2.4321289,3.125-4.0419922h-2.8549805l-.1054688-.2583008h1.65625v-1.9853516c.6816406.0117188,1.0224609.09375,1.0224609.246582,0,.0820312-.1411133.1879883-.4345703.293457v1.4453125h.6928711l.3994141-.5170898c.4350586.3876953.6582031.6464844.6582031.7519531,0,.0234375-.0351562.0708008-.0942383.105957l-.3051758.1293945c-.4350586.7636719-.8696289,1.4331055-1.3041992,1.9619141v.0351562Zm3.5366211,4.1240234v-4.546875h-2.1738281l-.105957-.2700195h2.2797852v-3.3486328c.7280273.0117188,1.0922852.1054688,1.0922852.2700195,0,.0825195-.140625.1879883-.4580078.3056641v2.7729492h1.3510742l.5288086-.6933594c.246582.2583008.4697266.5053711.6577148.7519531l-.1289062.2114258h-2.4086914v4.546875h1.7270508l.5756836-.7636719.1176758.1176758c.2231445.2231445.3994141.4462891.5405273.6694336l-.1176758.2353516h-6.1918945l-.1171875-.2587891h2.831543Z"/>
      <path class="cls-3" d="m52.0253906,44.2075195c1.1162109,1.4799805,2.7143555,2.5024414,4.5825195,3.230957-.2236328.1762695-.4111328.3876953-.5405273.6577148-1.9150391-1.0336914-3.3486328-2.2675781-4.253418-3.7006836-.0351562.046875-.046875.0820312-.0703125.1171875-1.0107422,1.7744141-2.5146484,3.137207-4.546875,4.0888672l-.152832-.2231445c2.0092773-1.1513672,3.4775391-2.7495117,4.394043-4.8173828.6464844.1176758.9750977.246582.9750977.3876953,0,.0825195-.1523438.1411133-.4580078.1762695l.0703125.0825195Zm-1.409668,5.4516602c0-.012207,0-.0239258.0117188-.0356445,0-.0234375,0-.0351562.0117188-.046875h-2.9023438l-.140625-.2583008h7.0727539l.5756836-.6933594.105957.105957c.246582.2114258.4580078.4228516.6459961.6342773l-.1289062.2114258h-4.4414062c-.4462891.9047852-.8691406,1.668457-1.269043,2.2675781-.0234375.046875-.0585938.0825195-.0820312.1176758l.5991211-.0234375c.8696289-.0356445,1.9741211-.1176758,3.3017578-.199707l.3286133-.0234375c-.3637695-.3999023-.8691406-.8110352-1.4682617-1.2104492l.1523438-.2114258c1.0927734.5170898,1.9038086,1.0336914,2.3852539,1.5742188.2822266.3056641.4345703.5756836.4345703.7993164,0,.2700195-.1171875.3994141-.3637695.3994141-.1293945,0-.2353516-.0708008-.3173828-.2231445-.1411133-.2939453-.3408203-.5761719-.5756836-.8461914l-.2231445.0234375c-1.8095703.2583008-3.7246094.4467773-5.7573242.6225586-.0585938.2470703-.105957.3759766-.1879883.3759766-.1645508,0-.3291016-.3286133-.4819336-.9985352.7875977-.0117188,1.3867188-.0234375,1.7978516-.0351562.4111328-.8461914.7167969-1.621582.9165039-2.3261719Zm2.3730469-2.2441406l.5053711-.5996094c.2705078.2236328.5053711.4467773.7050781.6464844l-.1293945.2114258h-4.6879883l-.1054688-.2583008h3.7124023Z"/>
      <path class="cls-3" d="m61.012207,52.3027344c.2822266-.8227539.4702148-1.7861328.5405273-2.9257812.6225586.1176758.9282227.246582.9282227.3759766,0,.0585938-.105957.1293945-.3173828.1762695-.1879883.9516602-.4814453,1.7739258-.9165039,2.5024414l-.2348633-.1289062Zm1.1162109-4.3120117c.7402344-1.1162109,1.4921875-2.1035156,1.9741211-3.1137695.5400391.2231445.8105469.3994141.8105469.5405273,0,.09375-.1293945.1411133-.4111328.1411133-.5639648.8105469-1.2338867,1.6328125-2.0444336,2.4790039.6225586-.0351562,1.1748047-.0703125,1.6801758-.1293945-.1176758-.2817383-.2939453-.5522461-.5053711-.7988281l.1645508-.1762695c.7871094.5405273,1.1865234,1.0927734,1.1865234,1.6918945,0,.2583008-.1054688.4111328-.3286133.4111328-.1762695,0-.2822266-.1289062-.3056641-.3642578-.0234375-.1645508-.0585938-.340332-.105957-.4931641-.199707.046875-.5048828.1171875-.8925781.1879883v4.7700195h-.5878906v-4.652832c-.0234375,0-.09375.0117188-.1762695.0351562-.340332.0473633-.6577148.105957-.9516602.1411133-.0585938.2231445-.1289062.3408203-.199707.3408203-.1289062,0-.2700195-.3056641-.3994141-.9047852.2705078,0,.6230469-.0117188,1.0458984-.0351562l.046875-.0703125Zm.7988281-4.4765625c.5639648.199707.8461914.3759766.8461914.5170898,0,.0820312-.1293945.140625-.3876953.1523438-.2939453.4819336-.6464844.9638672-1.0693359,1.46875.3525391.3173828.5288086.5991211.5288086.8696289,0,.2583008-.1176758.3876953-.3408203.3876953-.1411133,0-.2348633-.105957-.3056641-.3291016-.140625-.4580078-.4697266-.8930664-.9750977-1.315918l.1293945-.1762695c.3291016.1411133.5756836.2705078.7402344.3876953.2817383-.4931641.5639648-1.1513672.8339844-1.9619141Zm.9282227,5.7099609c.6108398.6347656.9282227,1.1748047.9282227,1.6333008,0,.3056641-.1289062.4697266-.3759766.4697266-.1879883,0-.2817383-.140625-.293457-.4228516-.0117188-.4814453-.1645508-.9985352-.4584961-1.5507812l.199707-.1293945Zm1.9624023.8930664c.0234375.2348633.0234375.4111328.0234375.5522461,0,.6108398-.0942383,1.1162109-.2939453,1.515625-.152832.3291016-.3291016.4819336-.5288086.4819336-.246582,0-.3759766-.1176758-.3759766-.3525391,0-.0942383.0825195-.2231445.2470703-.3994141.3759766-.3999023.5991211-1.0224609.6577148-1.8564453l.2705078.0585938Zm-1.0341797-3.3486328c.7753906-.7871094,1.375-1.809082,1.7861328-3.03125.5991211.2231445.8925781.3994141.8925781.5288086,0,.0820312-.1523438.1411133-.4580078.1762695-.4936523,1.0336914-1.1630859,1.8681641-2.0327148,2.5141602l-.1879883-.1879883Zm2.4555664-1.3510742c.5991211.1879883.8930664.3525391.8930664.4819336,0,.0820312-.1411133.1523438-.3994141.1762695-.3056641.6342773-.6582031,1.2333984-1.0576172,1.7973633.0117188,0,.0708008-.0117188.1411133-.0117188.7871094-.0585938,1.4921875-.1293945,2.1381836-.199707-.2114258-.3056641-.4697266-.5991211-.7753906-.8813477l.1411133-.1762695c1.1162109.5996094,1.668457,1.175293,1.668457,1.7392578,0,.2817383-.1176758.3994141-.3525391.3994141-.1645508,0-.2700195-.0825195-.3056641-.2470703-.0585938-.199707-.1289062-.3994141-.2231445-.5756836l-.2700195.059082c-.9516602.1879883-1.9267578.3642578-2.9023438.4931641-.0820312.2353516-.1523438.3525391-.2114258.3525391-.1293945,0-.2583008-.3056641-.3759766-.8930664.1293945,0,.3056641-.0117188.5522461-.0234375.199707-.0117188.3525391-.0117188.4462891-.0234375.3642578-.8105469.6582031-1.6333008.8930664-2.4672852Zm1.8447266,5.6513672c0,.5756836.0351562.9282227.105957,1.0693359.0585938.1054688.1523438.1645508.3168945.1645508-.0117188.293457-.1054688.4697266-.2817383.5405273-.1762695.0820312-.5874023.1289062-1.2456055.1289062-.6459961,0-1.0454102-.0351562-1.1982422-.09375-.199707-.0708008-.3056641-.2470703-.3056641-.5288086v-2.6904297c.6464844.0234375.9750977.1171875.9750977.246582,0,.09375-.1289062.1879883-.4111328.2817383v1.9038086c0,.1523438.046875.246582.1411133.2817383.09375.0351562.3173828.0585938.6694336.0585938.4350586,0,.6933594-.09375.7758789-.2700195.09375-.1879883.1523438-.5756836.1879883-1.1865234l.2700195.09375Zm-1.9858398-2.4438477c1.0693359.4228516,1.5981445.8696289,1.5981445,1.3745117,0,.2353516-.1176758.3642578-.3525391.3642578-.1411133,0-.2583008-.1054688-.3408203-.3168945-.1762695-.4467773-.5288086-.8579102-1.0454102-1.222168l.140625-.199707Zm1.2807617-4.8759766c.5991211.9868164,1.4101562,1.7861328,2.4321289,2.3618164-.1762695.1054688-.3291016.3051758-.4931641.5991211-.9047852-.6699219-1.6333008-1.6098633-2.1621094-2.831543l.2231445-.1293945Zm.9750977,6.1450195c.9873047.7167969,1.46875,1.3979492,1.46875,2.0795898,0,.3051758-.1171875.4580078-.3876953.4580078-.199707,0-.3168945-.152832-.3525391-.4580078-.0703125-.6108398-.3759766-1.2338867-.9042969-1.9150391l.1757812-.1645508Z"/>
      <path class="cls-3" d="m80.2324219,44.2895508c1.2807617,1.4804688,2.7963867,2.5849609,4.5708008,3.3369141-.2236328.1645508-.3994141.3642578-.5288086.5991211-1.7387695-.9282227-3.1489258-2.1499023-4.2182617-3.6538086-1.0219727,1.7739258-2.5610352,3.1367188-4.6054688,4.0649414l-.1645508-.2231445c2.0092773-1.1630859,3.4897461-2.7495117,4.4296875-4.7231445.6459961.1171875.9750977.2348633.9750977.3642578,0,.0703125-.1411133.1411133-.4584961.2231445v.0117188Zm1.9155273,5.0874023l.4228516-.5053711c.4580078.3642578.6933594.5878906.6933594.6699219,0,.0351562-.0239258.0703125-.0942383.1176758l-.2817383.199707v3.2661133h-.6230469v-.7285156h-4.6289062v.7285156h-.6230469v-4.0771484c.1879883.059082.4467773.1762695.7753906.3291016h4.359375Zm-.8579102-1.7504883l.5053711-.6464844c.1879883.1645508.4111328.3525391.6225586.5874023l.105957.1176758-.1293945.199707h-4.7822266l-.140625-.2583008h3.8183594Zm-3.6538086,2.0205078v2.4794922h4.6289062v-2.4794922h-4.6289062Z"/>
      <path class="cls-3" d="m91.1459961,47.6733398h1.1162109l.3876953-.4819336c.3999023.3525391.5996094.5756836.5996094.6699219,0,.0351562-.0356445.0820312-.0825195.1176758l-.2583008.140625v4.1123047h-.5756836v-.6459961h-1.3041992v1.1513672h-.5991211v-4.1708984c-.3291016.5874023-.7167969,1.1630859-1.1279297,1.6801758l-.2236328-.152832c1.0224609-1.5273438,1.6567383-3.2543945,1.9155273-5.1699219h-1.5512695l-.0820312-.2700195h3.0898438l.5053711-.6816406c.2231445.2114258.4228516.4467773.6225586.7402344l-.1171875.2114258h-1.7626953c-.1879883.8930664-.4462891,1.7744141-.7871094,2.6201172,0,0,.046875.0234375.1293945.0708008l.0351562.0117188.0703125.046875Zm-.1171875.2583008v3.3837891h1.3041992v-3.3837891h-1.3041992Zm6.3916016-3.0195312v3.3134766h.4228516l.4580078-.7402344c.2119141.2348633.4116211.5053711.5996094.7871094l-.1176758.2231445h-1.3276367v4.4882812h-.6225586v-4.4882812h-1.5629883c-.09375,2.2089844-.9399414,3.7832031-2.5141602,4.699707l-.199707-.2231445c1.315918-.9633789,2.0092773-2.4438477,2.1030273-4.4765625h-1.269043l-.1171875-.2700195h1.3979492v-3.3134766h-.9282227l-.1289062-.2700195h3.9829102l.5048828-.7285156c.2587891.2583008.4702148.5053711.6582031.7871094l-.1176758.2114258h-1.2216797Zm-.6230469,0h-1.515625v3.3134766h1.515625v-3.3134766Z"/>
      <path class="cls-3" d="m104.3510742,49.6826172l-.105957-.2587891h2.9375c.0117188-.246582.0234375-.3994141.0234375-.4814453v-1.1044922c.7167969.0351562,1.0693359.1293945,1.0693359.2700195,0,.0825195-.1411133.1879883-.4350586.2939453v.5522461c0,.09375-.0117188.2348633-.0234375.4111328h1.8095703l.4111328-.4580078c.4228516.3286133.6342773.5283203.6342773.6225586,0,.046875-.0234375.09375-.09375.1293945l-.2587891.1523438v2.1503906c0,.1762695.059082.2817383.1645508.3291016.0708008.0234375.2470703.0234375.5405273.0234375.5874023,0,.9165039-.0942383.9868164-.2822266.059082-.1411133.1411133-.6928711.2353516-1.6333008l.2700195.1293945c0,.7636719.046875,1.2456055.105957,1.421875.0585938.152832.1762695.2231445.3759766.2231445,0,.2939453-.1176758.4814453-.3408203.5639648-.2231445.0703125-.7285156.1176758-1.5273438.1176758-.7167969,0-1.1396484-.059082-1.269043-.2001953-.105957-.0820312-.1411133-.246582-.1411133-.4931641v-2.5263672h-1.9150391c-.2700195,1.8330078-1.6333008,2.9960938-4.1123047,3.5014648l-.1289062-.2700195c2.1030273-.5522461,3.3012695-1.6098633,3.5834961-3.184082h-2.7963867Zm3.5009766-4.453125v-1.621582c.7050781.0117188,1.0576172.0942383,1.0576172.2587891,0,.1054688-.1411133.199707-.4580078.3051758v1.0576172h3.2075195l.3994141-.5170898c.5048828.5170898.7519531.8110352.7519531.9165039,0,.0585938-.0473633.0942383-.152832.1176758l-.3876953.0585938c-.3056641.2583008-.6464844.4936523-1.0341797.7050781l-.1762695-.1762695c.2705078-.3291016.4702148-.5991211.6113281-.8461914h-2.3618164v1.574707c0,.1762695.0585938.2583008.1762695.293457.1293945.0473633.4345703.059082.9165039.059082.7050781,0,1.1044922-.059082,1.2099609-.1879883.105957-.152832.1645508-.4350586.2114258-.8813477l.2705078.0820312c0,.3999023.0234375.6464844.0585938.7636719.046875.105957.1411133.1645508.2822266.1645508-.0117188.2939453-.152832.4584961-.3994141.5288086-.1879883.046875-.7285156.0708008-1.6450195.0708008-.7519531,0-1.222168-.0356445-1.4101562-.1176758-.1762695-.0825195-.2700195-.2705078-.2700195-.5756836v-1.7744141h-3.9008789v.0708008c0,.5288086-.09375.9399414-.2583008,1.2568359-.1293945.2822266-.3173828.4350586-.5288086.4350586-.246582,0-.3759766-.1176758-.3759766-.3642578,0-.0825195.046875-.1879883.152832-.3056641.3994141-.3876953.6225586-.9868164.6577148-1.7856445l.2587891.046875c.0351562.1293945.0585938.2583008.0703125.3876953h3.0664062Zm-4.0649414,3.3955078c1.3862305-.5991211,2.3613281-1.5625,2.9487305-2.8666992.6230469.1645508.9282227.3291016.9282227.4580078,0,.0942383-.1645508.1645508-.5166016.1879883-.6816406,1.1630859-1.7626953,1.9858398-3.2314453,2.4438477l-.1289062-.2231445Z"/>
      <path class="cls-3" d="m118.7421875,48.1430664c-.3051758,1.0107422-.7167969,1.9624023-1.2451172,2.8554688l-.2236328-.152832c.6816406-1.3745117,1.1635742-2.8901367,1.46875-4.5942383h-1.2924805l-.0820312-.2700195h1.3745117v-2.3261719c.6816406.0351562,1.0341797.1289062,1.0341797.293457,0,.0825195-.152832.1762695-.4584961.2939453v1.7387695h.3525391l.4228516-.5405273c.2001953.199707.3876953.4228516.5522461.6464844l-.1054688.1640625h-1.222168v.9399414c.7402344.4350586,1.1162109.8930664,1.1162109,1.3632812,0,.2583008-.1171875.3876953-.3408203.3876953-.140625,0-.2231445-.1176758-.2817383-.3525391-.0825195-.3876953-.246582-.7285156-.4936523-1.0576172v5.6044922h-.5756836v-4.9936523Zm3.0786133,1.4335938c-.0117188.2939453-.0234375.5756836-.059082.8461914.4233398.1289062.7875977.3051758,1.0927734.5283203.3291016.2236328.4936523.4467773.4936523.6699219,0,.2348633-.1176758.3525391-.3291016.3525391-.105957,0-.199707-.0825195-.2822266-.246582-.1640625-.3291016-.5048828-.6699219-1.0336914-1.0341797-.2114258,1.0458984-.7753906,1.8447266-1.7270508,2.4086914l-.1762695-.199707c.6811523-.5639648,1.1162109-1.2456055,1.2924805-2.0678711.09375-.3994141.1289062-.8110352.140625-1.2573242h-1.0805664l-.105957-.2700195h3.5131836c-.1645508-1.175293-.246582-3.0668945-.246582-5.6513672.6342773.0234375.9633789.1171875.9633789.2583008,0,.09375-.1411133.1762695-.3994141.2700195,0,2.6201172.0703125,4.3237305.199707,5.0874023h2.1147461l.4111328-.5517578c.1762695.140625.3642578.3520508.5756836.6225586l-.1054688.199707h-2.9375c.1411133.6816406.3525391,1.269043.6459961,1.7270508.3525391-.4228516.6464844-.9282227.9282227-1.5390625.4702148.2348633.7050781.4228516.7050781.5639648,0,.0703125-.1176758.1176758-.3642578.1176758-.3173828.5048828-.6342773.9160156-.9399414,1.2333984.4111328.4467773.7519531.6699219,1.0224609.6699219.1879883,0,.340332-.4702148.4697266-1.3867188l.2700195.1411133c-.0703125.5170898-.09375.8696289-.09375,1.0693359,0,.3051758.09375.4931641.2700195.5405273-.0820312.293457-.246582.4462891-.4814453.4462891-.5288086,0-1.1396484-.3642578-1.8447266-1.0810547-.5639648.4702148-1.3745117.8227539-2.4204102,1.1044922l-.1411133-.2348633c.8930664-.2822266,1.6450195-.6582031,2.1855469-1.2104492l.046875-.0351562c-.3642578-.5405273-.6225586-1.2451172-.7871094-2.0913086h-1.7856445Zm-.0942383-5.6982422c.5639648.1645508.8227539.3051758.8227539.4462891,0,.0825195-.105957.1411133-.3408203.1762695-.2236328.3994141-.4936523.8227539-.8110352,1.2456055.2470703.199707.3759766.3994141.3759766.5991211,0,.2231445-.1171875.3408203-.340332.3408203-.1293945,0-.2119141-.0825195-.2587891-.2587891-.09375-.3286133-.3291016-.6459961-.7167969-.9633789l.1176758-.1645508c.2817383.0942383.4936523.199707.6342773.2939453.2119141-.5170898.3876953-1.0927734.5170898-1.715332Zm.6933594,1.46875c.4462891.2114258.6694336.3759766.6694336.5048828,0,.0708008-.1054688.1176758-.3168945.1176758-.4350586.6459961-.9282227,1.2573242-1.4921875,1.8330078.1171875-.0117188.4580078-.0356445,1.0336914-.0708008l.1762695-.0117188c-.0585938-.152832-.1879883-.3168945-.3759766-.5288086l.1176758-.1640625c.6811523.3286133,1.0102539.7397461,1.0102539,1.1865234,0,.2231445-.1054688.3408203-.3168945.3408203-.1645508,0-.2470703-.1176758-.2822266-.3525391-.0117188-.0708008-.0234375-.152832-.0585938-.2348633-.5522461.140625-1.0927734.246582-1.621582.340332-.0585938.1762695-.1176758.2587891-.1879883.2587891-.09375,0-.199707-.2470703-.3173828-.7402344.1293945,0,.2939453-.0117188.5170898-.0117188.5991211-.8110352,1.0693359-1.621582,1.4453125-2.4672852Zm2.8549805-1.46875c.5405273.1645508.8105469.3173828.8105469.4697266,0,.0825195-.1171875.1411133-.3642578.152832-.2231445.4584961-.4814453.8579102-.7519531,1.222168.2236328.1879883.3408203.3759766.3408203.5756836,0,.2231445-.1054688.340332-.3051758.340332-.1411133,0-.2470703-.09375-.2939453-.2700195-.0703125-.3291016-.2817383-.6342773-.6577148-.9165039l.1171875-.152832c.2114258.0708008.3994141.1645508.5874023.2705078.2231445-.5405273.3876953-1.0927734.5170898-1.6918945Zm-.5170898,3.6069336c.4819336-.6108398.9282227-1.3745117,1.3867188-2.2675781.4580078.2231445.6811523.3876953.6811523.5053711,0,.0703125-.1171875.1289062-.3525391.140625-.4580078.6113281-.9633789,1.1870117-1.4921875,1.7158203.4233398-.012207.8344727-.0356445,1.2338867-.0825195-.0942383-.152832-.2114258-.3173828-.3642578-.4580078l.1293945-.1645508c.6811523.3408203,1.0102539.7285156,1.0102539,1.1748047,0,.246582-.1054688.3642578-.3173828.3642578-.1762695,0-.2583008-.105957-.2700195-.2822266,0-.1171875-.0351562-.246582-.0703125-.3759766-.7167969.152832-1.315918.2470703-1.8095703.3056641-.046875.199707-.09375.2939453-.1645508.2939453-.1054688,0-.2114258-.2587891-.3051758-.7519531.293457,0,.4931641-.0117188.6108398-.0117188l.09375-.105957Zm.1645508.6577148c.6816406.105957,1.0107422.3173828,1.0107422.6347656,0,.2231445-.105957.3291016-.3173828.3291016-.1293945,0-.2231445-.0708008-.2822266-.2353516-.0703125-.2231445-.2348633-.3994141-.4814453-.5522461l.0703125-.1762695Z"/>
      <path class="cls-3" d="m132.9458008,48.0493164c-.3525391,1.1279297-.7988281,2.1381836-1.315918,3.0195312l-.2587891-.1645508c.7402344-1.4331055,1.2573242-2.984375,1.527832-4.6171875h-1.328125l-.0820312-.2705078h1.4570312v-2.3613281c.7167969.0234375,1.0571289.1171875,1.0571289.293457,0,.0942383-.1523438.199707-.4697266.2939453v1.7739258h.3994141l.4462891-.6577148c.1762695.2114258.3642578.4462891.5405273.7045898l-.1054688.2236328h-1.2807617v1.1748047c.4111328.293457.7402344.6108398.9868164.9516602.2114258.2939453.3173828.5522461.3173828.7519531,0,.2231445-.105957.3408203-.3291016.3408203-.152832,0-.2583008-.1176758-.3056641-.3525391-.09375-.4345703-.3168945-.8696289-.6694336-1.3276367v5.3105469h-.5874023v-5.0874023Zm5.1108398.3408203h1.421875l.3759766-.4228516c.4345703.3168945.6459961.5166016.6459961.6225586,0,.0351562-.0117188.0703125-.0585938.09375l-.2939453.1762695v1.9272461h.2939453l.3876953-.6230469c.1879883.2231445.3642578.4584961.5048828.6933594l-.1171875.199707h-1.0693359v1.1630859c0,.5639648-.3291016.8344727-.9633789.8344727,0-.2114258-.105957-.3408203-.3173828-.4233398-.152832-.0585938-.4931641-.140625-1.0219727-.2348633v-.2817383c.5522461.0585938,1.0102539.09375,1.3393555.09375.246582,0,.3759766-.1054688.3759766-.3173828v-.8339844h-3.4897461v2.0795898h-.5991211v-2.0795898h-1.0688477l-.105957-.2700195h1.1748047v-2.7260742c.152832.0585938.3994141.1645508.7167969.3291016h1.3041992v-.9165039h-2.8901367l-.105957-.2583008h1.9033203v-.9282227h-1.1865234l-.0942383-.2705078h1.2807617v-.8574219h-1.5625l-.0942383-.2587891h1.6567383v-1.2568359c.6699219,0,.9990234.0703125.9990234.2231445,0,.0820312-.1293945.1762695-.4233398.2700195v.7636719h1.574707v-1.2568359c.6577148.0117188.9868164.09375.9868164.2348633,0,.09375-.1411133.1762695-.4111328.2700195v.7519531h.7636719l.4580078-.5874023c.2348633.246582.4350586.4702148.5874023.6582031l-.09375.1879883h-1.715332v.8574219h.6694336l.3994141-.5053711c.199707.1762695.3876953.3642578.5756836.5761719l-.1054688.199707h-1.5390625v.9282227h1.0454102l.4350586-.5522461c.0585938.0585938.1289062.1171875.199707.1879883.1171875.1171875.2583008.2700195.3994141.4462891l-.0942383.1762695h-3.0546875v.9165039Zm-.5639648.2583008h-1.421875v.9047852h1.421875v-.9047852Zm0,2.1386719v-.9755859h-1.421875v.9755859h1.421875Zm1.0576172-5.6279297h-1.574707v.8574219h1.574707v-.8574219Zm0,1.1279297h-1.574707v.9282227h1.574707v-.9282227Zm1.0102539,3.2661133v-.9047852h-1.5039062v.9047852h1.5039062Zm0,.2583008h-1.5039062v.9755859h1.5039062v-.9755859Z"/>
    </g>
    <path class="cls-2" d="m160.9213867,37.8227539l-.6757812-.675293,5.9921875-5.9921875-5.9921875-5.9921875.6757812-.675293,5.9921875,5.9921875,5.9916992-5.9921875.6757812.675293-5.9921875,5.9921875,5.9921875,5.9921875-.6757812.675293-5.9916992-5.9921875-5.9921875,5.9921875Z"/>
    <g>
      <g>
        <path class="cls-5" d="m196.5653796,13.54263c0,1.4483669-.5713354,2.1788751-1.7003027,2.1788751,0-.2124061-.09329-.3852825-.279343-.4785725-.1855259-.1059395-.6108651-.2124061-1.2617869-.3452257v-.3320492c.6245687.1064666,1.169024.1596998,1.6338928.1596998.3852825,0,.6377453-.1333467.7436848-.3852825.1064666-.2925195.1596998-.6646254.1596998-1.0894376,0-.3320492-.0400567-.6509218-.1196431-1.0093241-1.3682535,1.1553203-3.1481425,2.0987617-5.3401942,2.7760366l-.1723493-.2788159c2.2315813-.796918,3.9982938-1.8600025,5.2869609-3.2145523-.1196431-.3188726-.2392862-.5713354-.3457528-.7573884-1.169024.9429143-2.6563935,1.6602459-4.4631627,2.1783481l-.1728764-.2524628c1.8067692-.6772749,3.228256-1.5142497,4.2776368-2.5235738-.0268802-.0400567-.0400567-.0795864-.0664098-.1196431-.0795864-.1064666-.186053-.2524628-.3452257-.4648689-.9834981.6240416-2.1788751,1.1157907-3.5866583,1.4478399l-.1728764-.2656393c1.7003027-.5181021,3.0685561-1.2486103,4.0647037-2.1783481h-2.7228033l-.1465233-.3056961h6.0174691l.6377453-.7436848c.3188726.2656393.5976885.5444553.8369748.8232712l-.1596998.2261097h-2.7096268c.2392862.982971.6108651,1.8594754,1.1289672,2.6300404.584512-.5976885,1.1426708-1.3018436,1.6871261-2.0855851.584512.3584023.8902081.6377453.8902081.796918,0,.09329-.1064666.1328197-.2656393.1328197-.0400567,0-.1196431,0-.2656393-.0263531-.5449823.5049256-1.1426708.982971-1.8468259,1.4610164.7705649,1.0493808,1.8067692,1.8995322,3.134966,2.6036873-.2387592.186053-.4379887.4248121-.6108651.6909785-2.2584615-1.4083102-3.6794212-3.4807188-4.2375801-6.2035221h-.3852825c-.3452257.305169-.6772749.5708084-1.0093241.8100946,1.2617869,1.3550769,1.8863556,2.7365069,1.8863556,4.1442901Zm-1.38143-7.0136167v-1.567483c.796918,0,1.1953771.09329,1.1953771.2788159,0,.1064666-.1596998.2129331-.5181021.3325762v.9560908h3.745831l.4385157-.5576318c.584512.5576318.8633279.9028575.8633279,1.0493808,0,.0664098-.0400567.1059395-.1459962.1328197l-.4253392.0532333c-.2656393.2788159-.5576318.5576318-.889681.8100946l-.2392862-.1728764c.1728764-.2919925.3320492-.6372182.4648689-1.0225007h-7.9965877v.0927629c0,.6640984-.1196431,1.1822005-.3721059,1.567483-.1459962.2124061-.2919925.3188726-.4648689.3188726-.1196431,0-.2392862-.0532333-.3584023-.1596998-.0664098-.0664098-.1196431-.1591728-.1196431-.2656393,0-.1191161.1059395-.2788159.2919925-.491222.398459-.4116356.6245687-1.0098512.677802-1.7935927l.2788159.0268802c.0263531.0927629.0532333.2255826.0664098.4116356h3.5070719Z"/>
        <path class="cls-5" d="m211.5118094,9.6508027c-.1992295.2656393-.584512.5312787-.982971.7436848-.3852825.1992295-1.0362043.4121626-1.5406028.6245687-.1328197.0532333-.279343.1196431-.4253392.186053.0131766.1459962.0400567.305169.0532333.4648689.0532333.5181021-.0263531.9033846-.1591728,1.1553203-.1196431.2524628-.3056961.3989861-.5449823.4385157-.2788159.0268802-.3852825-.186053-.305169-.4516923.0927629-.2656393.1723493-.7568613.1992295-1.2217302v-.0801135c-.2261097.09329-.4385157.186053-.6245687.2925195-.4116356.2255826-.7705649.4516923-1.0625574.8633279-.2261097.3188726-.398459.8100946-.1459962,1.1822005.2519357.3320492.7837415.5976885,1.3013166.584512.5449823-.0263531.8770315-.0664098,1.2491374-.1328197.3584023-.0795864.6904515-.1591728.889681-.1728764.398459-.0263531.5713354.0400567.8106217.2129331.2124061.1591728.2124061.3852825.0131766.4780454-.09329.0532333-.2524628.0927629-.7173317.1459962-.4516923.0532333-1.3150202.1459962-1.9127087.1196431-.6113922-.0263531-1.2754905-.186053-1.7804161-.491749-.4379887-.2656393-.584512-.6904515-.5708084-1.1953771.0131766-.491222.2387592-.8232712.5708084-1.1553203.3188726-.3188726.7705649-.6245687,1.2486103-.8902081.2261097-.1196431.4785725-.2524628.7310353-.3721059-.0137036-.2124061-.0532333-.3715789-.1728764-.5312787-.2124061-.3056961-.5713354-.4385157-.8501513-.4780454-.2656393-.0400567-.5713354,0-.8501513.1328197-.0927629.0395297-.1591728.0795864-.2392862.1328197-.1723493.2255826-.3452257.4248121-.5043985.6509218-.3188726.4516923-.677802.6904515-.9697944.6904515-.2925195-.0131766-.3188726-.1855259-.3188726-.4248121,0-.2261097.1064666-.4648689.2788159-.584512.1992295-.1064666.4253392-.2124061.677802-.3852825.5175751-.3584023.982971-1.0230277,1.38143-1.7003027.1992295-.3452257.3188726-.5976885.4116356-.8501513-.1064666.0131766-.2124061.0263531-.3188726.0400567-.4116356.0395297-.8100946,0-1.1026141-.1728764-.2788159-.186053-.3584023-.5976885-.2524628-.7573884.1596998-.2124061.3852825-.0664098.677802.0400567.2788159.0927629.6372182.1196431,1.0493808.0263531l.1992295-.0395297c.0664098-.3721059-.0400567-.491749-.1728764-.6377453-.1591728-.1591728-.1591728-.3721059-.0795864-.4780454.0927629-.0795864.2919925-.1064666.5049256.0131766.0795864.0400567.1328197.0927629.1855259.1728764.186053.0263531.4121626.0795864.491749.0927629.1196431.0131766.3852825.0795864.491749.1591728.1191161.09329.0527062.2129331-.0532333.4253392-.09329.1992295-.398459.584512-.7041551.7705649-.0795864.0532333-.1591728.0927629-.2392862.1196431-.0795864.2656393-.1992295.5444553-.3188726.7568613-.2919925.5713354-.4780454.8770315-.8100946,1.3951336-.0400567.0664098-.0795864.1328197-.1328197.1992295.1064666-.0400567.2255826-.09329.3056961-.1196431.2919925-.1196431.584512-.1465233.9028575-.0795864.2925195.0395297.5049256.1591728.7041551.398459.0532333-.0664098.1064666-.1596998.1728764-.2129331.4385157-.5708084.8232712-.9165612,1.4214867-1.1953771.5976885-.2788159,1.3545499-.3584023,1.8194187-.0263531.4785725.3452257.3056961.8633279.1196431,1.1289672Zm-3.9982938-3.1086128c.0664098-.0395297.1196431-.0664098.1728764-.0927629.1992295-.1064666.2656393-.2392862.2255826-.2788159-.0395297-.0532333-.1328197-.09329-.3188726-.1196431-.0527062-.0131766-.1059395-.0131766-.1459962-.0268802.0400567.1064666.0664098.2129331.0664098.3325762.0131766.0527062.0131766.1059395,0,.1855259Zm3.440662,2.3116948c-.0795864-.1459962-.3589294-.2656393-.8237982-.1596998-.4516923.09329-.8100946.3589294-1.1157907.6377453-.2788159.2656393-.584512.7041551-.7173317,1.1026141.0400567.0795864.0795864.1728764.1064666.2392862.1196431-.0400567.2255826-.1064666.3452257-.1596998.5581589-.2392862,1.1953771-.5312787,1.7403594-.8369748.5576318-.2919925.5576318-.6640984.4648689-.8232712Z"/>
        <path class="cls-5" d="m214.8228142,13.2506376c.7837415.2524628,1.4214867.6108651,1.8995322,1.0894376.2392862.2387592.3452257.5043985.3452257.796918,0,.398459-.1992295.5976885-.5708084.5976885-.2129331,0-.3457528-.1591728-.4653959-.4516923-.2387592-.6640984-.703628-1.2886671-1.3413733-1.8331223l.1328197-.1992295Z"/>
        <path class="cls-5" d="m221.6920158,8.4817788c1.076261-.9566179,1.9395889-2.1119382,2.550454-3.4538386.6377453.2524628.9697944.4648689.9697944.6113922,0,.1059395-.1728764.1591728-.5181021.1591728-.7041551,1.1289672-1.6470694,2.0987617-2.8160933,2.9093833l-.186053-.2261097Zm2.5641576,1.6739495c0,.0927629-.1196431.1855259-.4121626.2656393v5.313314h-.6772749v-4.8220921c-.3589294.4785725-.7705649.9434413-1.2354338,1.4083102l-.2255826-.2124061c1.0225007-1.2222572,1.9258853-2.8166204,2.6563935-4.7825624.6108651.2261097.9165612.4385157.9165612.5982156,0,.1059395-.1591728.1723493-.4780454.1855259-.3056961.6909785-.6245687,1.2886671-.9566179,1.8067692.2925195.0664098.4121626.1459962.4121626.2392862Zm3.0680291,1.7266558v1.8331223c.9697944-.2124061,1.7667125-.3852825,2.3781046-.5576318l.0532333.3183456c-1.3682535.4785725-2.8561501.9033846-4.4499861,1.2886671-.0400567.3056961-.1064666.4648689-.2129331.4648689-.1459962,0-.3452257-.3584023-.5576318-1.0625574.6640984-.0795864,1.3150202-.186053,1.965942-.3056961h.0927629c.0268802,0,.0532333,0,.0532333-.0131766v-1.965942h-1.7667125l-.1196431-.2919925h1.8863556v-1.8067692c.7705649.0131766,1.1426708.1196431,1.1426708.2919925,0,.1064666-.1596998.2129331-.4653959.3188726v1.1959041h.8770315l.5576318-.8106217c.2129331.2124061.4516923.491749.7310353.8369748l-.1328197.2656393h-2.0328789Zm4.1047604-2.6964502v5.5125435c0,.6377453-.398459.9434413-1.1953771.9434413,0-.1997566-.09329-.3325762-.2656393-.4253392-.186053-.0927629-.584512-.1992295-1.2222572-.3056961v-.305169c.6113922.0664098,1.1289672.0927629,1.5411299.0927629.305169,0,.4648689-.1196431.4648689-.3584023v-5.1541412h-1.2222572l.0400567.0395297.0395297.0532333-.1459962.2261097h-4.7419786l-.1064666-.3056961h2.0323518v-1.9527654h-1.5543064l-.1196431-.3056961h1.6739495v-1.8594754c.796918.0131766,1.1822005.1064666,1.1822005.2788159,0,.09329-.1723493.1992295-.5049256.3188726v1.2617869h.8106217l.5576318-.7305082.1728764.1596998c.186053.186053.3452257.4116356.5181021.6377453l-.1459962.2387592h-1.9132358v1.9527654h.9966746l.5708084-.8237982c.1596998.1992295.3056961.3589294.4253392.5049256h2.0724086l.5576318-.7568613c.2656393.2656393.5312787.5444553.7705649.8364477l-.1328197.2261097h-1.1558474Zm-.3452257-3.0954363l.5444553-.7436848c.279343.2656393.5312787.5444553.7442118.8106217l-.1328197.2387592h-2.9626166l-.1196431-.3056961h1.9264123Z"/>
        <path class="cls-5" d="m243.1344872,9.6508027c-.1992295.2656393-.584512.5312787-.982971.7436848-.3852825.1992295-1.0362043.4121626-1.5406028.6245687-.1328197.0532333-.279343.1196431-.4253392.186053.0131766.1459962.0400567.305169.0532333.4648689.0532333.5181021-.0263531.9033846-.1591728,1.1553203-.1196431.2524628-.3056961.3989861-.5449823.4385157-.2788159.0268802-.3852825-.186053-.305169-.4516923.0927629-.2656393.1723493-.7568613.1992295-1.2217302v-.0801135c-.2261097.09329-.4385157.186053-.6245687.2925195-.4116356.2255826-.7705649.4516923-1.0625574.8633279-.2261097.3188726-.398459.8100946-.1459962,1.1822005.2519357.3320492.7837415.5976885,1.3013166.584512.5449823-.0263531.8770315-.0664098,1.2491374-.1328197.3584023-.0795864.6904515-.1591728.889681-.1728764.398459-.0263531.5713354.0400567.8106217.2129331.2124061.1591728.2124061.3852825.0131766.4780454-.09329.0532333-.2524628.0927629-.7173317.1459962-.4516923.0532333-1.3150202.1459962-1.9127087.1196431-.6113922-.0263531-1.2754905-.186053-1.7804161-.491749-.4379887-.2656393-.584512-.6904515-.5708084-1.1953771.0131766-.491222.2387592-.8232712.5708084-1.1553203.3188726-.3188726.7705649-.6245687,1.2486103-.8902081.2261097-.1196431.4785725-.2524628.7310353-.3721059-.0137036-.2124061-.0532333-.3715789-.1728764-.5312787-.2124061-.3056961-.5713354-.4385157-.8501513-.4780454-.2656393-.0400567-.5713354,0-.8501513.1328197-.0927629.0395297-.1591728.0795864-.2392862.1328197-.1723493.2255826-.3452257.4248121-.5043985.6509218-.3188726.4516923-.677802.6904515-.9697944.6904515-.2925195-.0131766-.3188726-.1855259-.3188726-.4248121,0-.2261097.1064666-.4648689.2788159-.584512.1992295-.1064666.4253392-.2124061.677802-.3852825.5175751-.3584023.982971-1.0230277,1.38143-1.7003027.1992295-.3452257.3188726-.5976885.4116356-.8501513-.1064666.0131766-.2124061.0263531-.3188726.0400567-.4116356.0395297-.8100946,0-1.1026141-.1728764-.2788159-.186053-.3584023-.5976885-.2524628-.7573884.1596998-.2124061.3852825-.0664098.677802.0400567.2788159.0927629.6372182.1196431,1.0493808.0263531l.1992295-.0395297c.0664098-.3721059-.0400567-.491749-.1728764-.6377453-.1591728-.1591728-.1591728-.3721059-.0795864-.4780454.0927629-.0795864.2919925-.1064666.5049256.0131766.0795864.0400567.1328197.0927629.1855259.1728764.186053.0263531.4121626.0795864.491749.0927629.1196431.0131766.3852825.0795864.491749.1591728.1191161.09329.0527062.2129331-.0532333.4253392-.09329.1992295-.398459.584512-.7041551.7705649-.0795864.0532333-.1591728.0927629-.2392862.1196431-.0795864.2656393-.1992295.5444553-.3188726.7568613-.2919925.5713354-.4780454.8770315-.8100946,1.3951336-.0400567.0664098-.0795864.1328197-.1328197.1992295.1064666-.0400567.2255826-.09329.3056961-.1196431.2919925-.1196431.584512-.1465233.9028575-.0795864.2925195.0395297.5049256.1591728.7041551.398459.0532333-.0664098.1064666-.1596998.1728764-.2129331.4385157-.5708084.8232712-.9165612,1.4214867-1.1953771.5976885-.2788159,1.3545499-.3584023,1.8194187-.0263531.4785725.3452257.3056961.8633279.1196431,1.1289672Zm-3.9982938-3.1086128c.0664098-.0395297.1196431-.0664098.1728764-.0927629.1992295-.1064666.2656393-.2392862.2255826-.2788159-.0395297-.0532333-.1328197-.09329-.3188726-.1196431-.0527062-.0131766-.1059395-.0131766-.1459962-.0268802.0400567.1064666.0664098.2129331.0664098.3325762.0131766.0527062.0131766.1059395,0,.1855259Zm3.440662,2.3116948c-.0795864-.1459962-.3589294-.2656393-.8237982-.1596998-.4516923.09329-.8100946.3589294-1.1157907.6377453-.2788159.2656393-.584512.7041551-.7173317,1.1026141.0400567.0795864.0795864.1728764.1064666.2392862.1196431-.0400567.2255826-.1064666.3452257-.1596998.5581589-.2392862,1.1953771-.5312787,1.7403594-.8369748.5576318-.2919925.5576318-.6640984.4648689-.8232712Z"/>
        <path class="cls-5" d="m246.4449649,13.2506376c.7837415.2524628,1.4214867.6108651,1.8995322,1.0894376.2392862.2387592.3452257.5043985.3452257.796918,0,.398459-.1992295.5976885-.5708084.5976885-.2129331,0-.3457528-.1591728-.4653959-.4516923-.2387592-.6640984-.703628-1.2886671-1.3413733-1.8331223l.1328197-.1992295Z"/>
        <path class="cls-5" d="m259.1861665,9.9696754v-2.2184048h-3.8391211l-.1459962-.3056961h3.9851173v-2.2716381c.8369748.0664098,1.2617869.1728764,1.2617869.3188726,0,.1064666-.186053.2261097-.5444553.3589294v1.5938361h2.550454l.584512-.8100946c.2255826.1992295.4648689.4648689.7173317.7568613l.1059395.1196431-.1328197.2392862h-3.8254174v2.2184048h3.347372l.6772749-.8501513c.3320492.2788159.6245687.584512.8638549.9165612l-.1465233.2387592h-4.6223355c1.2749635,1.6207163,2.9220328,2.8830302,4.9412081,3.7858878-.2656393.1992295-.4648689.4385157-.6240416.7041551-1.8731791-1.0362043-3.3610756-2.4044578-4.4368096-4.1047604v5.0745548h-.7173317v-4.6623922c-1.1558474,1.7003027-2.7365069,3.0416759-4.7156255,4.0778802l-.1992295-.2656393c1.9390618-1.1822005,3.4670151-2.7233304,4.5696293-4.609686h-4.2644602l-.1459962-.305169h4.7556822Z"/>
        <path class="cls-5" d="m271.3829128,10.6469503v-3.3605486h-4.1574666l-.1328197-.2925195h4.2902863v-1.9922951c.8237982.0263531,1.2354338.1328197,1.2354338.3188726,0,.0927629-.1723493.2124061-.5181021.3320492v1.3413733h3.134966l.5982156-.7837415c.305169.2392862.5708084.5312787.8100946.8369748l-.1459962.2392862h-4.3972799v3.3605486h3.7463581l.6108651-.796918c.2261097.186053.5181021.4648689.8633279.8633279l-.1459962.2392862h-4.9680883l.0795864.0795864c1.3951336,1.3946066,3.0685561,2.3775776,4.9949685,3.0284994-.2656393.2261097-.4785725.4785725-.5976885.7573884-1.8199458-.8369748-3.3610756-2.0191753-4.5833329-3.5070719v4.423633h-.7173317v-4.0647037c-1.2617869,1.4610164-2.855623,2.5636305-4.8484452,3.3210189l-.1591728-.2656393c1.9395889-.9165612,3.4801917-2.1788751,4.6492157-3.7727112h-4.5032194l-.1328197-.3056961h4.9944414Zm-3.0416759-2.8825032c1.0894376.6108651,1.6338928,1.2754905,1.6338928,1.9395889,0,.3320492-.1328197.4780454-.4385157.4780454-.186053,0-.305169-.1459962-.398459-.4648689-.1591728-.6245687-.491222-1.2222572-.9697944-1.779889l.1728764-.1728764Zm4.7820353,2.4176343c.4385157-.796918.796918-1.6739495,1.0625574-2.6300404.7310353.2788159,1.0894376.491222,1.0894376.6509218,0,.1059395-.1728764.1591728-.5181021.186053-.3452257.6372182-.796918,1.28814-1.3682535,1.9390618l-.2656393-.1459962Z"/>
        <path class="cls-5" d="m287.7777096,9.6508027c-.1992295.2656393-.584512.5312787-.982971.7436848-.3852825.1992295-1.0362043.4121626-1.5406028.6245687-.1328197.0532333-.279343.1196431-.4253392.186053.0131766.1459962.0400567.305169.0532333.4648689.0532333.5181021-.0263531.9033846-.1591728,1.1553203-.1196431.2524628-.3056961.3989861-.5449823.4385157-.2788159.0268802-.3852825-.186053-.305169-.4516923.0927629-.2656393.1723493-.7568613.1992295-1.2217302v-.0801135c-.2261097.09329-.4385157.186053-.6245687.2925195-.4116356.2255826-.7705649.4516923-1.0625574.8633279-.2261097.3188726-.398459.8100946-.1459962,1.1822005.2519357.3320492.7837415.5976885,1.3013166.584512.5449823-.0263531.8770315-.0664098,1.2491374-.1328197.3584023-.0795864.6904515-.1591728.889681-.1728764.398459-.0263531.5713354.0400567.8106217.2129331.2124061.1591728.2124061.3852825.0131766.4780454-.09329.0532333-.2524628.0927629-.7173317.1459962-.4516923.0532333-1.3150202.1459962-1.9127087.1196431-.6113922-.0263531-1.2754905-.186053-1.7804161-.491749-.4379887-.2656393-.584512-.6904515-.5708084-1.1953771.0131766-.491222.2387592-.8232712.5708084-1.1553203.3188726-.3188726.7705649-.6245687,1.2486103-.8902081.2261097-.1196431.4785725-.2524628.7310353-.3721059-.0137036-.2124061-.0532333-.3715789-.1728764-.5312787-.2124061-.3056961-.5713354-.4385157-.8501513-.4780454-.2656393-.0400567-.5713354,0-.8501513.1328197-.0927629.0395297-.1591728.0795864-.2392862.1328197-.1723493.2255826-.3452257.4248121-.5043985.6509218-.3188726.4516923-.677802.6904515-.9697944.6904515-.2925195-.0131766-.3188726-.1855259-.3188726-.4248121,0-.2261097.1064666-.4648689.2788159-.584512.1992295-.1064666.4253392-.2124061.677802-.3852825.5175751-.3584023.982971-1.0230277,1.38143-1.7003027.1992295-.3452257.3188726-.5976885.4116356-.8501513-.1064666.0131766-.2124061.0263531-.3188726.0400567-.4116356.0395297-.8100946,0-1.1026141-.1728764-.2788159-.186053-.3584023-.5976885-.2524628-.7573884.1596998-.2124061.3852825-.0664098.677802.0400567.2788159.0927629.6372182.1196431,1.0493808.0263531l.1992295-.0395297c.0664098-.3721059-.0400567-.491749-.1728764-.6377453-.1591728-.1591728-.1591728-.3721059-.0795864-.4780454.0927629-.0795864.2919925-.1064666.5049256.0131766.0795864.0400567.1328197.0927629.1855259.1728764.186053.0263531.4121626.0795864.491749.0927629.1196431.0131766.3852825.0795864.491749.1591728.1191161.09329.0527062.2129331-.0532333.4253392-.09329.1992295-.398459.584512-.7041551.7705649-.0795864.0532333-.1591728.0927629-.2392862.1196431-.0795864.2656393-.1992295.5444553-.3188726.7568613-.2919925.5713354-.4780454.8770315-.8100946,1.3951336-.0400567.0664098-.0795864.1328197-.1328197.1992295.1064666-.0400567.2255826-.09329.3056961-.1196431.2919925-.1196431.584512-.1465233.9028575-.0795864.2925195.0395297.5049256.1591728.7041551.398459.0532333-.0664098.1064666-.1596998.1728764-.2129331.4385157-.5708084.8232712-.9165612,1.4214867-1.1953771.5976885-.2788159,1.3545499-.3584023,1.8194187-.0263531.4785725.3452257.3056961.8633279.1196431,1.1289672Zm-3.9982938-3.1086128c.0664098-.0395297.1196431-.0664098.1728764-.0927629.1992295-.1064666.2656393-.2392862.2255826-.2788159-.0395297-.0532333-.1328197-.09329-.3188726-.1196431-.0527062-.0131766-.1059395-.0131766-.1459962-.0268802.0400567.1064666.0664098.2129331.0664098.3325762.0131766.0527062.0131766.1059395,0,.1855259Zm3.440662,2.3116948c-.0795864-.1459962-.3589294-.2656393-.8237982-.1596998-.4516923.09329-.8100946.3589294-1.1157907.6377453-.2788159.2656393-.584512.7041551-.7173317,1.1026141.0400567.0795864.0795864.1728764.1064666.2392862.1196431-.0400567.2255826-.1064666.3452257-.1596998.5581589-.2392862,1.1953771-.5312787,1.7403594-.8369748.5576318-.2919925.5576318-.6640984.4648689-.8232712Z"/>
        <path class="cls-5" d="m299.8295138,9.9296187c.0131766-.3452257-.0268802-.8501513-.3852825-1.2085536-.3852825-.3852825-.7305082-.5312787-1.2090807-.584512-.4116356-.0400567-.889681.0664098-1.1953771.2124061-.3320492.1459962-.8633279.4780454-1.1822005.7305082-.3452257.2392862-.8369748.6640984-1.2090807.9697944-.398459.3320492-.889681.5181021-1.3013166.5049256-.4121626,0-.8501513-.2261097-1.076261-.4121626-.2255826-.1855259-.3452257-.4248121-.2656393-.5175751.1064666-.1333467.2656393-.0801135.3852825-.0532333.1992295.0532333.4385157.0927629.7173317.0927629.2788159-.0131766.5312787-.1992295.7568613-.3056961.2261097-.1059395.9966746-.5444553,1.3287238-.7436848.3320492-.186053.796918-.4248121,1.2749635-.6240416.491749-.2129331,1.0493808-.4121626,1.6739495-.4253392.6509218,0,1.3018436.2925195,1.7398323.7041551.3989861.3715789.6377453.8232712.7041551,1.4878966.0664098.6372182-.0927629,1.2217302-.491222,1.7930656-.398459.5581589-1.076261.982971-1.6075397,1.2354338-.5181021.2392862-1.1157907.5049256-1.7134792.6509218-.4648689.1059395-.8633279.1459962-1.0098512.1459962-.1459962-.0131766-.2387592-.0532333-.2387592-.1196431s.0664098-.1459962.2124061-.1591728c.1328197-.0131766.2788159.0131766.8369748-.1459962.5713354-.1465233,1.2085536-.4516923,1.6734225-.7041551.4385157-.2392862.9434413-.7573884,1.1959041-1.1289672.2524628-.3589294.3715789-.9834981.3852825-1.3951336Z"/>
        <path class="cls-5" d="m306.0752008,9.1859339c-.2261097.3852825-.3457528.8369748-.3457528.9961476s.2392862.3852825.398459.5976885c.1465233.2124061.5181021.6509218.8770315,1.076261.3452257.4248121.6640984.8765044.9165612,1.3545499.2656393.5312787.4248121,1.0362043.4248121,1.4483669,0,.398459-.1059395.6240416-.3188726.6503948-.2255826.0400567-.4116356-.1059395-.4648689-.3584023-.0664098-.2524628-.1459962-.5312787-.2656393-.9697944-.1196431-.4385157-.3852825-.9165612-.6509218-1.4346633-.2524628-.5181021-.6640984-1.0889105-.8501513-1.3550769-.1855259-.2788159-.5181021-.6240416-.5444553-.9429143s.1992295-.8633279.4385157-1.3150202c.2387592-.4516923.7568613-1.1953771,1.0625574-1.5806595.3188726-.3852825.796918-.9033846.9165612-1.076261.1196431-.186053.0664098-.4248121.0263531-.5576318-.0263531-.1459962-.0395297-.2788159.0664098-.3452257.1596998-.0801135.3457528.0527062.5318058.2387592.1992295.1728764.305169.4253392.2919925.677802-.0131766.2519357-.1591728.4780454-.4253392.7173317-.2656393.2387592-.7700379.5976885-1.1157907.9165612-.3452257.3183456-.7436848.8633279-.9692674,1.2617869Z"/>
        <path class="cls-5" d="m321.1012171,13.5826867c-.491749.5581589-1.0894376.8765044-1.7667125,1.0493808-.677802.186053-1.3287238.1596998-2.1256418.0131766-.8100946-.1723493-1.1289672-.4516923-1.1289672-.8501513-.0131766-.398459.5049256-.7173317.9429143-.796918.4516923-.0927629.982971-.0664098,1.3819571.2524628.3452257.2788159.3320492.5976885.1723493.9165612.6377453-.0795864,1.2354338-.2656393,1.660773-.6108651.5181021-.4253392.7568613-1.0230277.7568613-1.6338928.0131766-.6113922-.4385157-1.3550769-1.1822005-1.6871261-.7436848-.3188726-1.5406028-.3452257-2.364401-.0795864-.8369748.2656393-1.3682535.6772749-1.7667125,1.2085536-.398459.5181021-.6909785,1.1426708-.796918,1.4878966-.1064666.3452257-.2261097.5312787-.398459.6240416-.0801135.0400567-.2261097.1064666-.4385157-.0664098-.1459962-.1191161-.1596998-.398459-.1459962-.584512.0131766-.1723493.3452257-.5976885.584512-.9028575.2519357-.3188726.5976885-.8106217,1.0493808-1.3018436.4516923-.491749,1.169024-1.3682535,1.4610164-1.7003027.2788159-.3457528,1.1953771-1.4478399,1.3419004-1.6470694.1459962-.186053.2124061-.3325762.1459962-.3852825-.0664098-.0664098-.2925195.0263531-.4253392.1059395-.1459962.09329-.796918.4785725-1.169024.6909785-.3852825.1992295-.6640984.2919925-.9961476.2919925s-.5576318-.1723493-.6904515-.2919925c-.1328197-.1328197-.186053-.3320492-.1465233-.4253392.0532333-.1328197.186053-.1459962.2925195-.1059395.1196431.0263531.2788159.0795864.4516923.0795864.1723493.0131766.3320492-.0131766.7436848-.186053.398459-.1591728.9297377-.4116356,1.38143-.6509218.4516923-.2387592.7305082-.4116356.982971-.4248121.2656393-.0137036.5312787.1459962.7041551.3452257.1728764.186053.186053.3056961.1591728.4248121-.0263531.1196431-.0927629.186053-.2788159.3056961-.186053.1064666-.584512.4516923-.9429143.8106217-.3589294.3715788-.796918.9165612-1.1157907,1.2617869,0,0-.3188726.3452257-.9434413.9961476.186053-.1328197.3721059-.2392862.7305082-.3721059.5181021-.1855259,1.0630845-.2919925,1.7403594-.2255826.6909785.0664098,1.2486103.2788159,1.7535359.6377453.5049256.3584023.9033846.889681.9697944,1.6602459.0664098.7305082-.1328197,1.2617869-.584512,1.7667125Zm-3.8259445-.2124061c-.4248121.0131766-.6904515.2656393-.5043985.5312787.1059395.1459962.4379887.2788159.9961476.2919925.5181021-.4648689.0532333-.8232712-.491749-.8232712Z"/>
      </g>
      <g>
        <g>
          <path class="cls-5" d="m325.340408,25.6108583v14.0479886c0,3.3069742-2.3105333,5.850402-4.2484416,7.4003409l2.9291917,3.6606692c3.9302664-3.1432841,6.007832-6.9688265,6.007832-11.0610101v-14.0479886h-4.6885822Z"/>
          <path class="cls-5" d="m343.906092,38.5259209c0,2.7792743-.6724599,4.8511478-1.9991528,6.1595077-.8900101.8774096-2.0289253,1.3764396-3.177628,1.6614577v-22.0034689h-4.6885822v27.0520756l.4155256.0034578c2.1600298.0297139,7.2194789.0995738,10.7427768-3.375662,2.2532698-2.2218019,3.3956429-5.4177153,3.3956429-9.4973679h-4.6885822Z"/>
        </g>
        <polygon class="cls-5" points="352.6574928 34.4933139 351.4924507 39.0146536 372.2977412 39.0146536 373.4633694 34.4933139 352.6574928 34.4933139"/>
        <g>
          <path class="cls-5" d="m391.6441937,25.6185945c0-.0086153.0011721-.0165859.0011721-.0252011h-16.028856l-1.1664606,4.6882892h18.0858542c-1.1881453,10.0697266-6.6436624,15.3998718-16.5965847,16.2291648l-1.1985188,4.7698814c13.3297564-.5408866,21.0448185-7.7065054,22.4836857-20.7741114-.200314.024322-.4017529.0406148-.6089296.0406148-2.774703,0-4.9713623-2.193436-4.9713623-4.9286376Z"/>
          <path class="cls-5" d="m396.6098181,29.1687889c-2.0020247,0-3.5863022-1.5830998-3.5863022-3.556524,0-2.0031381,1.5842775-3.5862379,3.5863022-3.5862379,1.9734186,0,3.5576319,1.5830998,3.5576319,3.5862379,0,1.9734243-1.5842133,3.556524-3.5576319,3.556524Zm0-4.9312749c-.7760832,0-1.3747565.5975598-1.3747565,1.3747509,0,.7474772.5986733,1.345037,1.3747565,1.345037.7474716,0,1.3449728-.5975598,1.3449728-1.345037,0-.7771911-.5975012-1.3747509-1.3449728-1.3747509Z"/>
        </g>
        <g>
          <path class="cls-5" d="m320.1196153,27.4803719h-7.5843058l.5254109-1.8695135h-9.6078427c-.6782034,3.0557248-2.5818264,6.9927859-4.9329746,8.0888006l-1.2577122,4.9827907c4.5809792,0,7.8530236-4.091374,9.6221428-8.3833022h8.375273c-.5557142,15.344616-7.5236474,15.9856624-14.4320421,16.2437689l-1.2236613,4.7378123.8625233-.032069c7.0400234-.2546965,18.8112951-.6827748,19.4860407-20.9495122h.0200437l.1471043-2.8187756Z"/>
          <path class="cls-5" d="m322.0014363,22.1702595l-1.2213171,4.3463157h-2.7117587l1.2207896-4.3463157h2.7122862Z"/>
          <path class="cls-5" d="m317.9911161,22.1702595l-1.2213757,4.3463157h-2.7117587l1.2213757-4.3463157h2.7117587Z"/>
        </g>
      </g>
      <g>
        <polygon class="cls-4" points="199.3688403 25.0778191 199.3688403 36.0192255 208.7496172 36.0192255 208.7496172 46.9727202 214.999656 40.7136013 214.999656 25.0778191 199.3688403 25.0778191"/>
        <polygon class="cls-1" points="205.6310295 50.1099623 205.6310295 39.1685559 196.2502526 39.1685559 196.2502526 28.2150612 190.0002138 34.4741801 190.0002138 50.1099623 205.6310295 50.1099623"/>
      </g>
      <g>
        <g>
          <polygon class="cls-5" points="234.1090571 23.5324062 228.9993342 23.5324062 222.3030085 33.2407816 222.3030085 40.6750203 224.7297984 37.1308214 224.7297984 51.4266997 229.0988288 51.4266997 229.0988288 30.821495 234.1090571 23.5324062"/>
          <polygon class="cls-5" points="245.2878485 41.0786547 255.6061702 41.0786547 256.7533815 36.9056118 245.2878485 36.9056118 245.2878485 32.0895394 255.6143646 32.0895394 256.7258432 28.0016006 245.2878485 28.0016006 245.2878485 23.5333517 240.8747866 23.5333517 240.8747866 28.0016006 232.5636125 28.0016006 231.4164012 32.0895394 240.8420092 32.0895394 240.8420092 36.9056118 231.4819562 36.9056118 230.3347449 41.0786547 240.8747866 41.0786547 240.8747866 46.935516 231.3822828 46.935516 230.1561464 51.4190257 255.6225589 51.4190257 256.8353251 46.935516 245.2878485 46.935516 245.2878485 41.0786547"/>
        </g>
        <polygon class="cls-5" points="271.4155667 31.3200092 267.9723629 31.3200092 267.9723629 23.5556181 263.5346665 23.5556181 263.5346665 31.3200092 261.3221877 31.3200092 260.1421989 35.7849933 263.5346665 35.7849933 263.5346665 51.4099755 267.9723629 51.4099755 267.9723629 35.7849933 270.2212693 35.7849933 271.4155667 31.3200092"/>
        <path class="cls-5" d="m284.3975228,36.2684404l.0065813,1.6043828h-1.0145794l-.8149611,3.3979573h1.8173398v5.6755968h-1.3165777l-1.1977163,4.45903h1.9213337c2.7338292-.1421444,4.102282-1.5551022,4.2459447-3.4693655v-6.6652613h2.5760247l-.0061256,5.6807888-1.4014169.0022841-1.2075018,4.4571287h2.1814385c2.7241459-.1421444,3.7845481-1.5328032,3.9287343-3.4470665v-10.0951761l-5.9965129.0040837v-1.6054299l-3.7220054.0010471Z"/>
        <path class="cls-5" d="m272.4626086,36.2684404l.0065813,1.6043828h-1.1784667l-.8149611,3.3979573h1.9812271v5.6755968h-1.5787974l-1.1977163,4.45903h2.1835534c2.7338292-.1421444,4.102282-1.5551022,4.2459447-3.4693655v-6.6652613h2.5760247l-.0061256,5.6807888-1.4014169.0022841-1.2075018,4.4571287h2.1814385c2.7241459-.1421444,3.7845481-1.5328032,3.9287343-3.4470665v-10.0951761l-5.9965129.0040837v-1.6054299l-3.7220054.0010471Z"/>
        <path class="cls-5" d="m284.4081403,31.316221h4.743307v-1.6544288h-5.6559913v1.1665863c0,3.2208056-2.9660734,4.6976652-5.33187,4.6976652h-5.7493154l.003089-4.2286689h6.7029915v-1.6355826h-7.7223136l1.0077329-3.9127972h6.7145807v-2.2117801h4.3681927v2.2117801l9.3983424.0153401v6.513026c-.1390529,2.0522716-1.1043806,3.2405252-3.7354389,3.2517816h-4.7514744l.0081674-4.2129216Z"/>
      </g>
    </g>
  </g>
</svg>