<?xml version="1.0" encoding="UTF-8"?>
<svg id="_レイヤー_2" data-name="レイヤー 2" xmlns="http://www.w3.org/2000/svg" viewBox="0 0 303.2441406 38.8686523">
  <defs>
    <style>
      .cls-1 {
        stroke-width: 0px;
      }
    </style>
  </defs>
  <g id="_レイヤー_1-2" data-name="レイヤー 1">
    <g>
      <path class="cls-1" d="m24.9282227,19.7211914c1.0249023-4.796875,2.2958984-10.4550781,3.0749512-13.6533203h-.1640625c-2.5009766,5.6992188-7.0930176,15.4165039-11.4389648,24.2724609h-5.0021973c-.4099121-6.9697266-1.065918-18.9833984-1.065918-24.3544922h-.2050781c-.4509277,3.2802734-1.598877,9.3896484-2.6240234,14.2275391l-2.1730957,10.1269531H0L5.9858398,2.0913086h8.7331543c.4509277,6.8466797.9020996,16.5229492.9020996,20.7050781h.0410156c1.4758301-3.8134766,6.2319336-12.9970703,9.9221191-20.7050781h8.7329102l-5.986084,28.2490234h-5.6169434l2.2141113-10.6191406Z"/>
      <path class="cls-1" d="m52.8859863,25.1333008c-.4919434,2.2138672-.9431152,4.5917969-.9841309,5.2070312h-5.4118652c.0410156-.6152344.204834-1.7216797.2868652-2.3779297-1.065918,1.3120117-2.4599609,2.7880859-6.3959961,2.7880859-4.1821289,0-5.9450684-2.9521484-5.9450684-5.453125,0-5.9042969,5.1660156-7.4619141,9.8400879-7.9951172,1.8039551-.1640625,3.4440918-.1640625,4.7561035-.2050781l.204834-.9838867c.2871094-1.5581055.2871094-3.5258789-2.7058105-3.5258789-2.6650391,0-3.1572266,1.4345703-3.6081543,2.4599609h-5.6989746c.7790527-3.4033203,3.1569824-6.3554688,9.7580566-6.3554688,5.1660156,0,8.9790039,2.1733398,7.7900391,7.7080078l-1.8859863,8.7333984Zm-4.6330566-4.3051758c-1.394043,0-2.5830078.0820312-3.6899414.2050781-3.1162109.4916992-4.3461914,1.5170898-4.3461914,3.3208008,0,1.2304688.7790527,2.1733398,2.5830078,2.1733398,3.8540039,0,4.8381348-3.1157227,5.3710938-5.3710938l.0820312-.328125Z"/>
      <path class="cls-1" d="m65.2241211,17.753418c2.0090332-2.0092773,6.1501465-5.9042969,9.0200195-8.6513672h6.7241211c-2.9931641,2.8701172-6.0681152,5.6171875-9.0200195,8.2822266l4.9199219,12.9560547h-6.2319336l-3.0341797-9.4301758-3.5668945,2.7470703-1.394043,6.6831055h-5.5761719L63.420166.4101562h5.5349121l-3.730957,17.3432617Z"/>
      <path class="cls-1" d="m85.6396484,20.9921875c-.0820312.4511719-.1640625.8198242-.1640625,1.2709961,0,2.2548828.861084,4.1821289,3.3620605,4.1821289,2.2961426,0,3.2800293-1.1889648,3.9770508-2.5830078h5.8220215c-1.1889648,3.1567383-3.8950195,6.8881836-10.25,6.8881836-5.6989746,0-8.4870605-3.5673828-8.4870605-8.6923828,0-5.6171875,3.0339355-13.3662109,11.4799805-13.3662109,6.2321777,0,8.4462891,3.8134766,8.4462891,8.1591797,0,1.722168-.2460938,2.9521484-.5742188,4.1411133h-13.6120605Zm8.7741699-3.730957c.0820312-.3691406.0820312-.6972656.0820312-.9433594,0-1.8447266-.8200684-3.4433594-3.2800293-3.4433594-2.5419922,0-4.1000977,1.6396484-4.8381348,4.3867188h8.0361328Z"/>
      <path class="cls-1" d="m101.9550781,30.340332l3.526123-16.9741211h-2.9929199l.9428711-4.2231445h2.9931641l.4509277-2.0908203c.9841309-4.3461914,3.4440918-7.0522461,7.7900391-7.0522461.9841309,0,2.3371582.1230469,2.8291016.2871094l-.9431152,4.4692383c-.3278809-.0820312-.9428711-.1230469-1.3530273-.1230469-1.6398926,0-2.4599609.8608398-2.7878418,2.5009766l-.4101562,2.0087891h3.5671387l-.9431152,4.2231445h-3.5668945l-3.526123,16.9741211h-5.5761719Z"/>
      <path class="cls-1" d="m133.605957,24.6821289c-.4101562,1.8452148-.8200684,3.9365234-1.1069336,5.6582031h-5.453125c.0410156-.5742188.2460938-2.1728516.4509277-2.9521484-1.598877,2.3369141-3.8950195,3.3623047-6.7241211,3.3623047-3.9360352,0-6.190918-2.6240234-5.1660156-7.5029297l2.9931641-14.1455078h5.5349121l-2.869873,13.4072266c-.4511719,2.2138672-.1230469,3.6489258,2.2548828,3.6489258,2.4191895,0,4.5510254-1.9272461,5.5351562-6.6420898l2.2548828-10.4140625h5.5761719l-3.2800293,15.5800781Z"/>
      <path class="cls-1" d="m137.703125,30.340332L144.017334.4101562h5.5759277l-6.3139648,29.9301758h-5.5761719Z"/>
      <path class="cls-1" d="m148.5668945,30.340332L154.8811035.4101562h5.5759277l-6.3139648,29.9301758h-5.5761719Z"/>
      <path class="cls-1" d="m193.3774414,30.340332h-4.5100098c-.0820312-.6972656.0817871-2.2138672.2458496-3.0751953-1.927002,2.5419922-4.3869629,3.4853516-7.9130859,3.4853516-6.6420898,0-9.9631348-4.8378906-9.9631348-11.4394531,0-8.3637695,4.9611816-17.6298828,15.4162598-17.6298828,6.7241211,0,10.6191406,3.8540039,10.6191406,9.0610352h-5.7810059c-.1230469-2.050293-1.4760742-4.4692383-5.5351562-4.4692383-6.1091309,0-8.7331543,7.0932617-8.7331543,12.6279297,0,4.3466797,1.722168,7.2163086,5.6992188,7.2163086,4.7558594,0,6.190918-3.1567383,6.8879395-6.4780273l.0410156-.1230469h-6.519043l1.065918-5.0429688h12.0131836l-3.0339355,15.8671875Z"/>
      <path class="cls-1" d="m217.1538086,25.1333008c-.4919434,2.2138672-.9431152,4.5917969-.9841309,5.2070312h-5.4118652c.0410156-.6152344.204834-1.7216797.2868652-2.3779297-1.065918,1.3120117-2.4599609,2.7880859-6.3959961,2.7880859-4.1821289,0-5.9450684-2.9521484-5.9450684-5.453125,0-5.9042969,5.1660156-7.4619141,9.8400879-7.9951172,1.8039551-.1640625,3.4440918-.1640625,4.7561035-.2050781l.2050781-.9838867c.2868652-1.5581055.2868652-3.5258789-2.7060547-3.5258789-2.6650391,0-3.1572266,1.4345703-3.6081543,2.4599609h-5.6989746c.7790527-3.4033203,3.1569824-6.3554688,9.7580566-6.3554688,5.1660156,0,8.9790039,2.1733398,7.7900391,7.7080078l-1.8859863,8.7333984Zm-4.6330566-4.3051758c-1.394043,0-2.5830078.0820312-3.6899414.2050781-3.1162109.4916992-4.3461914,1.5170898-4.3461914,3.3208008,0,1.2304688.7790527,2.1733398,2.5830078,2.1733398,3.8540039,0,4.8381348-3.1157227,5.3710938-5.3710938l.0820312-.328125Z"/>
      <path class="cls-1" d="m221.3737793,30.340332L227.6879883.4101562h5.5759277l-6.3139648,29.9301758h-5.5761719Z"/>
      <path class="cls-1" d="m232.2375488,30.340332L238.5517578.4101562h5.5759277l-6.3139648,29.9301758h-5.5761719Z"/>
      <path class="cls-1" d="m249.7434082,20.9921875c-.0820312.4511719-.1640625.8198242-.1640625,1.2709961,0,2.2548828.861084,4.1821289,3.3620605,4.1821289,2.2961426,0,3.2800293-1.1889648,3.9770508-2.5830078h5.8220215c-1.1889648,3.1567383-3.8950195,6.8881836-10.25,6.8881836-5.6989746,0-8.4870605-3.5673828-8.4870605-8.6923828,0-5.6171875,3.0339355-13.3662109,11.4799805-13.3662109,6.2321777,0,8.4462891,3.8134766,8.4462891,8.1591797,0,1.722168-.2460938,2.9521484-.5742188,4.1411133h-13.6120605Zm8.7741699-3.730957c.0820312-.3691406.0820312-.6972656.0820312-.9433594,0-1.8447266-.8200684-3.4433594-3.2800293-3.4433594-2.5419922,0-4.1000977,1.6396484-4.8381348,4.3867188h8.0361328Z"/>
      <path class="cls-1" d="m280.6550293,14.309082c-3.8950195.0410156-6.6010742,2.1728516-7.5849609,6.8061523l-1.9680176,9.2250977h-5.5761719l3.197998-14.9238281c.4511719-2.0913086.861084-4.3466797,1.2302246-6.3144531h5.3708496c-.0410156.5332031-.2458496,2.1318359-.6149902,3.8540039,1.4350586-2.5419922,3.3620605-4.2641602,7.0522461-4.2641602l-1.1071777,5.6171875Z"/>
      <path class="cls-1" d="m288.3608398,9.1020508c.7790527,9.0615234,1.1481934,14.4731445,1.189209,16.6875h.0410156c1.065918-2.3374023,3.4848633-7.8310547,7.8310547-16.6875h5.8220215l-11.5622559,22.1816406c-3.5668945,6.8876953-5.9040527,7.5849609-10.3320312,7.5849609-.5739746,0-2.0090332-.1230469-2.8288574-.2871094l1.0249023-4.5922852c.3688965.0820312.9838867.1640625,1.8449707.1640625,2.5830078,0,3.3620605-1.0249023,4.1821289-2.5830078l-2.7880859-22.4682617h5.5759277Z"/>
    </g>
  </g>
</svg>