<?xml version="1.0" encoding="UTF-8"?>
<svg id="_レイヤー_2" data-name="レイヤー 2" xmlns="http://www.w3.org/2000/svg" viewBox="0 0 164.3933105 38.4584961">
  <defs>
    <style>
      .cls-1 {
        stroke-width: 0px;
      }
    </style>
  </defs>
  <g id="_レイヤー_1-2" data-name="レイヤー 1">
    <g>
      <path class="cls-1" d="m5.9858398,1.6811523h9.8811035c5.9040527,0,9.3071289,3.2797852,9.3071289,7.9541016,0,6.5185547-4.8381348,9.7167969-11.6030273,9.7167969h-5.6582031l-2.2138672,10.578125H0L5.9858398,1.6811523Zm2.9111328,13.0380859h4.3459473c3.8540039,0,5.9040527-1.4355469,5.9040527-4.715332,0-2.4599609-1.4350586-3.730957-4.4689941-3.730957h-3.9770508l-1.8039551,8.4462891Z"/>
      <path class="cls-1" d="m25.4169922,29.9301758L31.7312012,0h5.5759277l-6.3139648,29.9301758h-5.5761719Z"/>
      <path class="cls-1" d="m54.8950195,24.7231445c-.4919434,2.2138672-.9431152,4.5917969-.9841309,5.2070312h-5.4118652c.0410156-.6152344.204834-1.7216797.2868652-2.3779297-1.065918,1.3120117-2.4599609,2.7880859-6.3959961,2.7880859-4.1821289,0-5.9450684-2.9521484-5.9450684-5.453125,0-5.9042969,5.1660156-7.4619141,9.8400879-7.9951172,1.8039551-.1640625,3.4440918-.1640625,4.7561035-.2050781l.2050781-.9838867c.2868652-1.5581055.2868652-3.5258789-2.7060547-3.5258789-2.6650391,0-3.1572266,1.4345703-3.6081543,2.4599609h-5.6989746c.7790527-3.4033203,3.1569824-6.3554688,9.7580566-6.3554688,5.1660156,0,8.9790039,2.1733398,7.7900391,7.7080078l-1.8859863,8.7333984Zm-4.6330566-4.3051758c-1.394043,0-2.5830078.0820312-3.6899414.2050781-3.1162109.4916992-4.3461914,1.5170898-4.3461914,3.3208008,0,1.2304688.7790527,2.1733398,2.5830078,2.1733398,3.8540039,0,4.8381348-3.1157227,5.3710938-5.3710938l.0820312-.328125Z"/>
      <path class="cls-1" d="m62.4770508,14.1040039c.3691406-1.8037109.7790527-3.6079102,1.0661621-5.4121094h5.4528809c-.0410156.6152344-.2868652,2.1318359-.4099121,2.6650391.9838867-1.2709961,2.8291016-3.0751953,6.3959961-3.0751953,4.1821289,0,6.5600586,2.5419922,5.2070312,8.8154297l-2.7060547,12.8330078h-5.5349121l2.7060547-12.8740234c.532959-2.3779297,0-4.1000977-2.3781738-4.1000977-2.7060547,0-4.4279785,2.050293-5.2890625,5.9858398l-2.2958984,10.9882812h-5.5761719l3.3620605-15.8261719Z"/>
      <path class="cls-1" d="m86.1721191,14.1040039c.3691406-1.8037109.7790527-3.6079102,1.0661621-5.4121094h5.4528809c-.0410156.6152344-.2868652,2.1318359-.4099121,2.6650391.9838867-1.2709961,2.8291016-3.0751953,6.3959961-3.0751953,4.1821289,0,6.5600586,2.5419922,5.2070312,8.8154297l-2.7060547,12.8330078h-5.5349121l2.7060547-12.8740234c.532959-2.3779297,0-4.1000977-2.3781738-4.1000977-2.7060547,0-4.4279785,2.050293-5.2890625,5.9858398l-2.2958984,10.9882812h-5.5761719l3.3620605-15.8261719Z"/>
      <path class="cls-1" d="m111.0151367,8.6918945h5.5761719l-4.5100098,21.2382812h-5.5761719l4.5100098-21.2382812Zm1.8041992-8.6918945h5.5759277l-1.1069336,5.2480469h-5.5761719l1.1071777-5.2480469Z"/>
      <path class="cls-1" d="m120.730957,14.1040039c.3691406-1.8037109.7790527-3.6079102,1.0661621-5.4121094h5.4528809c-.0410156.6152344-.2868652,2.1318359-.4099121,2.6650391.9838867-1.2709961,2.8291016-3.0751953,6.3959961-3.0751953,4.1821289,0,6.5600586,2.5419922,5.2070312,8.8154297l-2.7060547,12.8330078h-5.5349121l2.7060547-12.8740234c.532959-2.3779297,0-4.1000977-2.3781738-4.1000977-2.7060547,0-4.4279785,2.050293-5.2890625,5.9858398l-2.2958984,10.9882812h-5.5761719l3.3620605-15.8261719Z"/>
      <path class="cls-1" d="m160.4572754,26.8549805c-1.4760742,6.847168-3.3620605,11.6035156-11.6442871,11.6035156-7.9538574,0-8.6508789-4.2641602-8.6918945-6.7246094h5.657959c.0820312,1.2714844.9020996,2.5419922,3.4851074,2.5419922,3.197998,0,4.4689941-1.9677734,5.4938965-6.4775391l.1230469-.65625c-1.394043,1.722168-3.197998,2.5419922-5.9040527,2.5419922-4.592041,0-7.052002-3.3618164-7.052002-8.2412109,0-6.2319336,4.0180664-13.1611328,10.7832031-13.1611328,3.2800293,0,5.0429688,1.2304688,5.6169434,2.5419922.1640625-.6557617.5739746-1.6806641.7380371-2.1318359h5.3300781c-.3691406,1.5991211-.8200684,3.5263672-1.1889648,5.3300781l-2.7470703,12.8330078Zm-12.6691895-5.8217773c0,2.6240234,1.1479492,4.1411133,3.4440918,4.1411133,2.9519043,0,4.7971191-2.5009766,5.657959-6.3964844.6149902-2.8701172.4511719-5.9858398-3.3210449-5.9858398-3.8540039,0-5.7810059,4.4692383-5.7810059,8.2412109Z"/>
    </g>
  </g>
</svg>