<?xml version="1.0" encoding="UTF-8"?>
<svg id="_レイヤー_2" data-name="レイヤー 2" xmlns="http://www.w3.org/2000/svg" viewBox="0 0 260.7763672 28.7827148">
  <defs>
    <style>
      .cls-1 {
        stroke-width: 0px;
      }
    </style>
  </defs>
  <g id="_レイヤー_1-2" data-name="レイヤー 1">
    <g>
      <path class="cls-1" d="m4.4804688,1.2583008h7.3945312c4.4189453,0,6.9658203,2.4545898,6.9658203,5.9526367,0,4.8793945-3.6210938,7.2724609-8.6835938,7.2724609h-4.234375l-1.6572266,7.9169922H0L4.4804688,1.2583008Zm2.1787109,9.7578125h3.2519531c2.8847656,0,4.4189453-1.0742188,4.4189453-3.5288086,0-1.8413086-1.0742188-2.7924805-3.3447266-2.7924805h-2.9765625l-1.3496094,6.3212891Z"/>
      <path class="cls-1" d="m30.3466797,10.4023438c-2.9150391.0307617-4.9404297,1.6264648-5.6767578,5.09375l-1.4726562,6.9042969h-4.1728516l2.3935547-11.1694336c.3369141-1.5649414.6435547-3.2529297.9199219-4.7255859h4.0195312c-.0302734.3989258-.1835938,1.5957031-.4599609,2.8842773,1.0742188-1.9023438,2.5166016-3.190918,5.2783203-3.190918l-.8291016,4.2036133Z"/>
      <path class="cls-1" d="m34.1816406,6.5053711h4.1728516l-3.375,15.8950195h-4.1728516l3.375-15.8950195Zm1.3505859-6.5053711h4.1728516l-.828125,3.9277344h-4.1738281l.8291016-3.9277344Z"/>
      <path class="cls-1" d="m44.3066406,6.5053711c.5224609,6.6586914.7675781,9.9726562.7675781,11.9980469h.0302734c.9824219-2.362793,2.7011719-5.6767578,5.8310547-11.9980469h4.3564453l-8.5917969,15.8950195h-4.7861328l-1.71875-15.8950195h4.1113281Z"/>
      <path class="cls-1" d="m68.2402344,18.503418c-.3681641,1.6567383-.7060547,3.4365234-.7363281,3.8969727h-4.0507812c.03125-.4604492.1533203-1.2885742.2148438-1.7797852-.7978516.9819336-1.8408203,2.0864258-4.7861328,2.0864258-3.1308594,0-4.4501953-2.2089844-4.4501953-4.0810547,0-4.418457,3.8662109-5.5844727,7.3652344-5.9833984,1.3496094-.1230469,2.5771484-.1230469,3.5595703-.1538086l.1533203-.7363281c.2148438-1.1660156.2148438-2.6386719-2.0253906-2.6386719-1.9951172,0-2.3632812,1.0737305-2.7001953,1.8408203h-4.265625c.5830078-2.546875,2.3632812-4.7558594,7.3027344-4.7558594,3.8671875,0,6.7207031,1.6259766,5.8310547,5.7685547l-1.4121094,6.5361328Zm-3.4677734-3.222168c-1.0429688,0-1.9326172.0615234-2.7607422.1533203-2.3330078.3686523-3.2529297,1.1357422-3.2529297,2.4858398,0,.9204102.5830078,1.6264648,1.9326172,1.6264648,2.8847656,0,3.6210938-2.3325195,4.0205078-4.0200195l.0605469-.2456055Z"/>
      <path class="cls-1" d="m73.1181641,6.5053711h2.3632812l.9199219-4.2651367h4.1425781l-.8896484,4.2651367h2.9765625l-.7060547,3.1914062h-2.9765625l-1.6875,8.0087891c-.1835938.9819336-.1220703,1.6264648,1.1357422,1.6264648.4912109,0,.8896484-.0307617,1.3496094-.0922852l-.6132812,3.0073242c-.9511719.3066406-1.9638672.3066406-2.8232422.3066406-3.3134766,0-3.8359375-1.871582-3.2529297-4.6640625l1.71875-8.1928711h-2.3623047l.7050781-3.1914062Z"/>
      <path class="cls-1" d="m86.9873047,15.4042969c-.0615234.3374023-.1230469.6137695-.1230469.9511719,0,1.6875.6445312,3.1298828,2.5166016,3.1298828,1.71875,0,2.4550781-.8901367,2.9765625-1.9331055h4.3574219c-.890625,2.362793-2.9150391,5.1547852-7.671875,5.1547852-4.2646484,0-6.3515625-2.6694336-6.3515625-6.5048828,0-4.2041016,2.2705078-10.003418,8.5917969-10.003418,4.6640625,0,6.3212891,2.8535156,6.3212891,6.105957,0,1.2890625-.1845703,2.2094727-.4296875,3.0996094h-10.1875Zm6.5664062-2.7924805c.0615234-.2763672.0615234-.5214844.0615234-.7060547,0-1.3808594-.6132812-2.5771484-2.4550781-2.5771484-1.9023438,0-3.0683594,1.2270508-3.6201172,3.2832031h6.0136719Z"/>
      <path class="cls-1" d="m110.3369141,17.4907227c.1230469,1.3808594,1.0126953,2.1171875,2.7617188,2.1171875,1.6269531,0,2.2705078-.7363281,2.2705078-1.8105469,0-1.012207-.828125-1.503418-2.8222656-2.1171875-3.7138672-1.1660156-4.8486328-2.4545898-4.8486328-4.418457,0-2.8540039,2.2402344-5.0629883,6.4746094-5.0629883,4.4189453,0,6.3828125,2.2705078,6.2900391,4.7866211h-4.234375c-.0615234-.8588867-.4912109-1.6875-2.2705078-1.6875-1.0429688,0-2.0869141.3374023-2.0869141,1.4418945,0,.859375.859375,1.1660156,2.7929688,1.8105469,3.7128906,1.1660156,5.0009766,2.6083984,5.0009766,4.8178711,0,3.6513672-3.2832031,5.3388672-7.0263672,5.3388672-4.234375,0-6.6894531-1.9023438-6.5058594-5.2163086h4.2041016Z"/>
      <path class="cls-1" d="m127.5195312,12.9799805c1.5039062-1.503418,4.6025391-4.4189453,6.7509766-6.4746094h5.0322266c-2.2402344,2.1479492-4.5410156,4.2041016-6.7509766,6.1982422l3.6826172,9.6967773h-4.6640625l-2.2705078-7.0576172-2.6699219,2.0556641-1.0429688,5.0019531h-4.1738281L126.1699219,0h4.1425781l-2.7929688,12.9799805Z"/>
      <path class="cls-1" d="m143.1376953,6.5053711c.5830078,6.78125.8583984,10.8320312.8896484,12.4887695h.0302734c.7978516-1.7490234,2.6083984-5.8608398,5.8613281-12.4887695h4.3574219l-8.6533203,16.6005859c-2.6699219,5.1552734-4.4189453,5.6767578-7.7333984,5.6767578-.4287109,0-1.5029297-.0917969-2.1171875-.2143555l.7675781-3.4370117c.2763672.0615234.7363281.1225586,1.3808594.1225586,1.9326172,0,2.515625-.7670898,3.1298828-1.9331055l-2.0869141-16.8154297h4.1738281Z"/>
      <path class="cls-1" d="m162.4970703,6.5053711h2.3632812l.9199219-4.2651367h4.1425781l-.8896484,4.2651367h2.9765625l-.7060547,3.1914062h-2.9765625l-1.6875,8.0087891c-.1835938.9819336-.1220703,1.6264648,1.1357422,1.6264648.4912109,0,.8896484-.0307617,1.3496094-.0922852l-.6132812,3.0073242c-.9511719.3066406-1.9638672.3066406-2.8232422.3066406-3.3134766,0-3.8359375-1.871582-3.2529297-4.6640625l1.71875-8.1928711h-2.3623047l.7050781-3.1914062Z"/>
      <path class="cls-1" d="m176.3662109,15.4042969c-.0615234.3374023-.1230469.6137695-.1230469.9511719,0,1.6875.6445312,3.1298828,2.5166016,3.1298828,1.71875,0,2.4550781-.8901367,2.9765625-1.9331055h4.3574219c-.890625,2.362793-2.9150391,5.1547852-7.671875,5.1547852-4.2646484,0-6.3515625-2.6694336-6.3515625-6.5048828,0-4.2041016,2.2705078-10.003418,8.5917969-10.003418,4.6640625,0,6.3212891,2.8535156,6.3212891,6.105957,0,1.2890625-.1845703,2.2094727-.4296875,3.0996094h-10.1875Zm6.5664062-2.7924805c.0615234-.2763672.0615234-.5214844.0615234-.7060547,0-1.3808594-.6132812-2.5771484-2.4550781-2.5771484-1.9023438,0-3.0683594,1.2270508-3.6201172,3.2832031h6.0136719Z"/>
      <path class="cls-1" d="m199.5019531,10.4023438c-2.9150391.0307617-4.9404297,1.6264648-5.6767578,5.09375l-1.4726562,6.9042969h-4.1728516l2.3935547-11.1694336c.3369141-1.5649414.6435547-3.2529297.9199219-4.7255859h4.0195312c-.0302734.3989258-.1835938,1.5957031-.4599609,2.8842773,1.0742188-1.9023438,2.5166016-3.190918,5.2783203-3.190918l-.8291016,4.2036133Z"/>
      <path class="cls-1" d="m211.2841797,10.4023438c-2.9150391.0307617-4.9404297,1.6264648-5.6767578,5.09375l-1.4726562,6.9042969h-4.1728516l2.3935547-11.1694336c.3369141-1.5649414.6435547-3.2529297.9199219-4.7255859h4.0195312c-.0302734.3989258-.1835938,1.5957031-.4599609,2.8842773,1.0742188-1.9023438,2.5166016-3.190918,5.2783203-3.190918l-.8291016,4.2036133Z"/>
      <path class="cls-1" d="m225.6748047,18.503418c-.3681641,1.6567383-.7060547,3.4365234-.7363281,3.8969727h-4.0507812c.03125-.4604492.1533203-1.2885742.2148438-1.7797852-.7978516.9819336-1.8408203,2.0864258-4.7871094,2.0864258-3.1298828,0-4.4492188-2.2089844-4.4492188-4.0810547,0-4.418457,3.8662109-5.5844727,7.3652344-5.9833984,1.3496094-.1230469,2.5771484-.1230469,3.5595703-.1538086l.1533203-.7363281c.2148438-1.1660156.2148438-2.6386719-2.0253906-2.6386719-1.9951172,0-2.3632812,1.0737305-2.7001953,1.8408203h-4.265625c.5830078-2.546875,2.3623047-4.7558594,7.3027344-4.7558594,3.8671875,0,6.7207031,1.6259766,5.8310547,5.7685547l-1.4121094,6.5361328Zm-3.4667969-3.222168c-1.0439453,0-1.9335938.0615234-2.7617188.1533203-2.3330078.3686523-3.2529297,1.1357422-3.2529297,2.4858398,0,.9204102.5830078,1.6264648,1.9326172,1.6264648,2.8847656,0,3.6210938-2.3325195,4.0205078-4.0200195l.0615234-.2456055Z"/>
      <path class="cls-1" d="m243.3486328,17.2143555c-.859375,3.0073242-3.0068359,5.4926758-7.7021484,5.4926758-4.0195312,0-6.1367188-2.362793-6.1367188-6.1674805,0-4.6030273,2.6386719-10.3408203,8.5302734-10.3408203,5.1552734,0,6.4443359,3.6513672,6.2294922,5.6767578h-4.0507812c-.0302734-1.2275391-.4296875-2.4858398-2.3007812-2.4858398-2.9462891,0-4.1123047,4.4189453-4.1123047,6.9658203,0,2.2094727.8896484,3.1914062,2.3935547,3.1914062,1.3808594,0,2.3320312-.7675781,2.9765625-2.3325195h4.1728516Z"/>
      <path class="cls-1" d="m250.1591797,15.4042969c-.0615234.3374023-.1230469.6137695-.1230469.9511719,0,1.6875.6445312,3.1298828,2.5166016,3.1298828,1.71875,0,2.4550781-.8901367,2.9765625-1.9331055h4.3574219c-.890625,2.362793-2.9150391,5.1547852-7.671875,5.1547852-4.2646484,0-6.3515625-2.6694336-6.3515625-6.5048828,0-4.2041016,2.2705078-10.003418,8.5917969-10.003418,4.6640625,0,6.3212891,2.8535156,6.3212891,6.105957,0,1.2890625-.1845703,2.2094727-.4296875,3.0996094h-10.1875Zm6.5664062-2.7924805c.0615234-.2763672.0615234-.5214844.0615234-.7060547,0-1.3808594-.6132812-2.5771484-2.4550781-2.5771484-1.9023438,0-3.0683594,1.2270508-3.6201172,3.2832031h6.0136719Z"/>
    </g>
  </g>
</svg>